<?xml version="1.0" encoding="utf-8" ?>
<svg baseProfile="full" height="200mm" version="1.1" viewBox="0,0,200,200" width="200mm" xmlns="http://www.w3.org/2000/svg" xmlns:ev="http://www.w3.org/2001/xml-events" xmlns:xlink="http://www.w3.org/1999/xlink"><defs /><rect fill="#1a1a1a" height="200" width="200" x="0" y="0" /><rect fill="#1a1a1a" height="200" width="180" x="10" y="0" /><text alignment-baseline="middle" fill="#e1ed5e" style="dominant-baseline: central; font-size:9.0px; font-family:Arial;" text-anchor="middle" x="100.0" y="100.0">2026</text><line stroke="#e1ed5e" stroke-width="0.3" x1="100.0" x2="100.0" y1="15.0" y2="10.0" /><path d="M 100.0 14.0 a86.0,86.0 0 0,1 42.46469731375804,11.215312516191453" fill="none" id="id133" stroke="none" /><text fill="#e1ed5e" style="font-size:6.75px; font-family:Arial;" text-anchor="middle"><textPath startOffset="22.20632615414155" xlink:href="#id133">January</textPath></text><path d="M 100.0 79.0 l 0.0 -19.441367489692873 a40.44136748969287,40.44136748969287 0 0,0 0.6961316620290775,0.0059918249916935005 l -0.3346511827565491 19.438487041309738" fill="#ffe615" stroke="none" /><path d="M 101.08401301168833 79.027996857942 l 1.0581367016441823 -20.471383638694746 a41.49871218789086,41.49871218789086 0 0,0 0.7130623943653888,0.04301387091705296 l -1.4103611448491828 20.450136498397388" fill="#fff316" stroke="none" /><path d="M 101.80526077348638 79.07773832637324 l 2.854205342343418 -33.07911628049516 a54.20202436651689,54.20202436651689 0 0,0 0.9288546014453215,0.08820593661432177 l -3.4231850708789837 33.02508479936565" fill="#75ff27" stroke="none" /><path d="M 102.52436894288641 79.15227682838746 l 2.742484148902607 -22.649046804340188 a43.81448093760133,43.81448093760133 0 0,0 0.7479450521049436,0.09710473392994924 l -3.1319439295153964 22.598483747246103" fill="#eeff19" stroke="none" /><path d="M 102.88285421437855 79.19881850522331 l 0.7367724417810032 -5.316167985671142 a26.366980126928244,26.366980126928244 0 0,0 0.4490309517052723,0.06617548993843969 l -0.8281723739149314 5.302698011571733" fill="#ff2403" stroke="none" /><path d="M 103.59715602781102 79.31037775812273 l 5.8325018030773395 -33.546573486880604 a55.0498262843378,55.0498262843378 0 0,0 0.9321898480546803,0.1703517363244359 l -6.409086772234921 33.44120626920543" fill="#6cff28" stroke="none" /><path d="M 106.0581310904928 79.89281104454417 l 6.3322862886353 -21.017121456061968 a42.95033585028026,42.95033585028026 0 0,0 0.7060516277382847,0.2193736776215001 l -6.693123289084303 20.905007643557948" fill="#f9ff18" stroke="none" /><path d="M 107.08798089147638 80.2323363322302 l 5.129469360393862 -14.30557258306542 a36.19739658127577,36.19739658127577 0 0,0 0.5847046038756218,0.21535164013252897 l -5.37495629004206 14.215157675126566" fill="#ffae10" stroke="none" /><path d="M 107.76421540070413 80.48803036053334 l 7.346673469973721 -18.46266007563394 a40.870667531384626,40.870667531384626 0 0,0 0.651431984925933,0.26573546313432456 l -7.663389324488042 18.333463726316037" fill="#ffeb16" stroke="none" /><path d="M 108.09893153111575 80.62456947434976 l 2.406493561867594 -5.757160514229784 a27.239880483624404,27.239880483624404 0 0,0 0.43105974859804724,0.18455728825939247 l -2.505237068255956 5.7148836980076005" fill="#ff3004" stroke="none" /><path d="M 108.43124777332544 80.76684994638697 l 11.738326305362236 -26.777174301954982 a50.237054708852554,50.237054708852554 0 0,0 0.7890037599305816,0.3540029881732828 l -12.197512183759597 26.571150983265166" fill="#a1ff22" stroke="none" /><path d="M 109.08828744355905 81.06846463323043 l 1.5895135610857094 -3.3110673913576916 a24.672835502848937,24.672835502848937 0 0,0 0.38128781166664766,0.18709627327003864 l -1.646272639762789 3.283215957952821" fill="#ff0a01" stroke="none" /><path d="M 109.41281617654863 81.2277094730956 l 1.7205740191338867 -3.431397655538614 a24.83860193635058,24.83860193635058 0 0,0 0.3805504607608775,0.19493272666180825 l -1.7793849674835198 3.401272403564305" fill="#ff0d01" stroke="none" /><path d="M 109.73455568895987 81.39251694778311 l 11.161301450033667 -21.33468996512323 a45.077866308426366,45.077866308426366 0 0,0 0.684442903065538,0.3656056950588024 l -11.526889399627516 21.139405543562674" fill="#deff1b" stroke="none" /><line stroke="#e1ed5e" stroke-width="0.3" x1="143.23703022742887" x2="145.7803849466894" y1="26.81831364943548" y2="22.513508569990506" /><path d="M 143.74570117128098 25.957352633546492 a86.0,86.0 0 0,1 28.547481713284135,27.462654790039103" fill="none" id="id134" stroke="none" /><text fill="#e1ed5e" style="font-size:6.75px; font-family:Arial;" text-anchor="middle"><textPath startOffset="19.985693538727396" xlink:href="#id134">February</textPath></text><path d="M 111.60114157652 82.49532879139004 l 8.208881148516603 -12.38617463182821 a35.85944318339742,35.85944318339742 0 0,0 0.5115867066162476,0.3454256279811406 l -8.420872549539393 12.243037091548398" fill="#ffaa0f" stroke="none" /><path d="M 111.90073688211348 82.69761687909136 l 5.748540499585399 -8.357755582293175 a31.143855097975635,31.143855097975635 0 0,0 0.43908217561093094,0.30760512390875344 l -5.891553814779981 8.257565615620486" fill="#ff6909" stroke="none" /><path d="M 112.77801427241765 83.33499621200491 l 15.832082213240312 -20.648099495789634 a47.01920137119563,47.01920137119563 0 0,0 0.6380448415806586,0.49800411935328204 l -16.185159609980403 20.372516987213128" fill="#c7ff1e" stroke="none" /><path d="M 113.06298171725822 83.55741782278167 l 3.343595644625865 -4.208636844489836 a26.375151711678324,26.375151711678324 0 0,0 0.35304597659517717,0.2854719603713351 l -3.415545019785533 4.150458786854371" fill="#ff2403" stroke="none" /><line stroke="#e1ed5e" stroke-width="0.3" x1="172.23445277983987" x2="176.4835382374775" y1="55.19839476539836" y2="52.563006222186495" /><path d="M 173.08426987136738 54.67131705675599 a86.0,86.0 0 0,1 12.851231095245387,41.99856678651699" fill="none" id="id135" stroke="none" /><text fill="#e1ed5e" style="font-size:6.75px; font-family:Arial;" text-anchor="middle"><textPath startOffset="22.20632615414155" xlink:href="#id135">March</textPath></text><path d="M 118.3937258080291 89.86733742301442 l 19.61364044365958 -10.804684303555755 a43.392768796034645,43.392768796034645 0 0,0 0.35477080736975597,0.6573364257084052 l -19.7967193502478 10.465466894514892" fill="#f3ff19" stroke="none" /><path d="M 118.89224826269711 90.83032412892265 l 20.52067307125784 -9.960059708262387 a43.81010330291379,43.81010330291379 0 0,0 0.3234475020982379,0.681262928816091 l -20.689078767197834 9.605354363805755" fill="#eeff19" stroke="none" /><path d="M 119.47837535516314 92.15188598940014 l 14.1487338175337 -5.700725757715751 a36.25401398990133,36.25401398990133 0 0,0 0.22823878534019168,0.5808428134964028 l -14.244766152755592 5.456333939323564" fill="#ffaf10" stroke="none" /><path d="M 119.7369772167798 92.82701384747503 l 16.30734942051989 -5.926560602113312 a38.35090100523463,38.35090100523463 0 0,0 0.22014680782614346,0.6223846710124713 l -16.406949309155845 5.644978304674227" fill="#ffcb12" stroke="none" /><path d="M 119.97218684219823 93.5106431181261 l 59.5801595845544 -19.3587673537215 a83.64628711724649,83.64628711724649 0 0,0 0.4331464298643189,1.3731925506056517 l -59.90456149818692 18.33032463668943" fill="#4dd5ff" stroke="none" /><path d="M 120.37134235888165 94.90015583598534 l 16.316513811717027 -4.084742000493169 a37.820039838791864,37.820039838791864 0 0,0 0.1526618510075541,0.6328819304086226 l -16.3844084629854 3.803274838425141" fill="#ffc412" stroke="none" /><path d="M 120.53481517161879 95.60439243477599 l 26.840041252224758 -5.745281240332851 a48.44806133320981,48.44806133320981 0 0,0 0.16753963455100523,0.816982758560843 l -26.93496018269076 5.282422825608596" fill="#b6ff1f" stroke="none" /><path d="M 120.6074358757038 95.95851677861258 l 10.154128592332706 -1.99140449016787 a31.347561032102654,31.347561032102654 0 0,0 0.09928858710675297,0.5304036025136364 l -10.186902903349319 1.8163228101916709" fill="#ff6b09" stroke="none" /><path d="M 120.73433829027371 96.67025291283417 l 17.465368681846535 -2.804780151674091 a38.68914624542549,38.68914624542549 0 0,0 0.09993610341330338,0.6584540575670292 l -17.51106067869914 2.50372698171498" fill="#ffcf13" stroke="none" /><path d="M 120.83666639777658 97.38593545837742 l 16.99732215060022 -2.1323995061494703 a38.13056005929495,38.13056005929495 0 0,0 0.07609706246954777,0.6519531595461965 l -17.031509566073357 1.8395026082784212" fill="#ffc812" stroke="none" /><path d="M 120.87857604477298 97.74499172005257 l 2.9694447664178436 -0.3207173957054984 a23.98671422615463,23.98671422615463 0 0,0 0.040803541790343775,0.41088609738799303 l -2.9745254338904163 0.26955576761307043" fill="#ff0000" stroke="none" /><path d="M 120.94382443527127 98.46500227214037 l 62.831473305813795 -4.6049931835789 a84.0,84.0 0 0,0 0.09327763598233796,1.442963742987859 l -62.90143153280055 3.5227703763380056" fill="#4dd2ff" stroke="none" /><line stroke="#e1ed5e" stroke-width="0.3" x1="184.98032266829074" x2="189.97916517819016" y1="98.17113171792111" y2="98.06355123074" /><path d="M 185.9800911702706 98.14961562048488 a86.0,86.0 0 0,1 -9.607161424134198,41.387399972396054" fill="none" id="id136" stroke="none" /><text fill="#e1ed5e" style="font-size:6.75px; font-family:Arial;" text-anchor="middle"><textPath startOffset="21.466115282336823" xlink:href="#id136">April</textPath></text><line stroke="#e1ed5e" stroke-width="0.3" x1="174.80103733775053" x2="179.2010983576182" y1="140.37084112569926" y2="142.7455964860345" /><path d="M 175.68104954172406 140.8457921977663 a86.0,86.0 0 0,1 -30.038265399797805,32.042727171017184" fill="none" id="id137" stroke="none" /><text fill="#e1ed5e" style="font-size:6.75px; font-family:Arial;" text-anchor="middle"><textPath startOffset="22.206326154141568" xlink:href="#id137">May</textPath></text><line stroke="#e1ed5e" stroke-width="0.3" x1="143.8653032363475" x2="146.44561519142675" y1="172.8068346515853" y2="177.08958963109032" /><path d="M 144.38136562736335 173.6633856474863 a86.0,86.0 0 0,1 -40.68145358897372,12.25698825130547" fill="none" id="id138" stroke="none" /><text fill="#e1ed5e" style="font-size:6.75px; font-family:Arial;" text-anchor="middle"><textPath startOffset="21.466115282336833" xlink:href="#id138">June</textPath></text><line stroke="#e1ed5e" stroke-width="0.3" x1="102.19456741930631" x2="102.32365962044197" y1="184.97166512339345" y2="189.96999836594603" /><path d="M 102.22038585953345 185.97133177190398 a86.0,86.0 0 0,1 -42.740103519485714,-10.115201625700543" fill="none" id="id139" stroke="none" /><text fill="#e1ed5e" style="font-size:6.75px; font-family:Arial;" text-anchor="middle"><textPath startOffset="22.20632615414155" xlink:href="#id139">July</textPath></text><line stroke="#e1ed5e" stroke-width="0.3" x1="58.666819895761336" x2="56.23545636021788" y1="174.27360380694188" y2="178.64263932499728" /><path d="M 58.180547188652646 175.14741091055294 a86.0,86.0 0 0,1 -31.652253787137756,-30.449443065178592" fill="none" id="id140" stroke="none" /><text fill="#e1ed5e" style="font-size:6.75px; font-family:Arial;" text-anchor="middle"><textPath startOffset="22.20632615414155" xlink:href="#id140">August</textPath></text><line stroke="#e1ed5e" stroke-width="0.3" x1="26.63291911575756" x2="22.317208475507996" y1="142.92168965132927" y2="145.44649492493687" /><path d="M 25.769776987707644 143.4266507060508 a86.0,86.0 0 0,1 -11.730757126820373,-40.83630448921669" fill="none" id="id141" stroke="none" /><text fill="#e1ed5e" style="font-size:6.75px; font-family:Arial;" text-anchor="middle"><textPath startOffset="21.46611528233685" xlink:href="#id141">September</textPath></text><line stroke="#e1ed5e" stroke-width="0.3" x1="15.007084014347285" x2="10.007500721073583" y1="101.09737516637583" y2="101.16192664675087" /><path d="M 14.007167355692545 101.11028546245083 a86.0,86.0 0 0,1 10.666146001902534,-42.60595125391555" fill="none" id="id142" stroke="none" /><text fill="#e1ed5e" style="font-size:6.75px; font-family:Arial;" text-anchor="middle"><textPath startOffset="22.20632615414155" xlink:href="#id142">October</textPath></text><line stroke="#e1ed5e" stroke-width="0.3" x1="26.266209847984243" x2="21.928928074336255" y1="57.711370442889674" y2="55.22380399835377" /><path d="M 25.398753493254645 57.213857153982495 a86.0,86.0 0 0,1 29.58750427330803,-30.492523968695096" fill="none" id="id143" stroke="none" /><text fill="#e1ed5e" style="font-size:6.75px; font-family:Arial;" text-anchor="middle"><textPath startOffset="21.46611528233685" xlink:href="#id143">November</textPath></text><line stroke="#e1ed5e" stroke-width="0.3" x1="56.762969772571076" x2="54.21961505331055" y1="26.818313649435495" y2="22.513508569990535" /><path d="M 56.25429882871897 25.957352633546506 a86.0,86.0 0 0,1 42.265352541879196,-11.944610805530505" fill="none" id="id144" stroke="none" /><text fill="#e1ed5e" style="font-size:6.75px; font-family:Arial;" text-anchor="middle"><textPath startOffset="22.20632615414155" xlink:href="#id144">December</textPath></text></svg>