<?xml version="1.0" encoding="utf-8" ?>
<svg baseProfile="full" height="200mm" version="1.1" viewBox="0,0,200,200" width="200mm" xmlns="http://www.w3.org/2000/svg" xmlns:ev="http://www.w3.org/2001/xml-events" xmlns:xlink="http://www.w3.org/1999/xlink"><defs /><rect fill="#1a1a1a" height="200" width="200" x="0" y="0" /><rect fill="#1a1a1a" height="200" width="180" x="10" y="0" /><text alignment-baseline="middle" fill="#e1ed5e" style="dominant-baseline: central; font-size:9.0px; font-family:Arial;" text-anchor="middle" x="100.0" y="100.0">2021</text><line stroke="#e1ed5e" stroke-width="0.3" x1="100.0" x2="100.0" y1="15.0" y2="10.0" /><path d="M 100.0 14.0 a86.0,86.0 0 0,1 42.46469731375804,11.215312516191453" fill="none" id="id73" stroke="none" /><text fill="#e1ed5e" style="font-size:6.75px; font-family:Arial;" text-anchor="middle"><textPath startOffset="22.20632615414155" xlink:href="#id73">January</textPath></text><path d="M 100.0 79.0 l 0.0 -10.88251372700125 a31.88251372700125,31.88251372700125 0 0,0 0.5488050639261608,0.004723738449154702 l -0.18732458465363241 10.880901365160653" fill="#ff730a" stroke="none" /><path d="M 100.36148047927253 79.00311137660856 l 0.05198206391179081 -3.019420602092899 a24.01986802812831,24.01986802812831 0 0,0 0.41334002530952113,0.010675353381886264 l -0.10394872441617974 3.018078456568653" fill="#ff0000" stroke="none" /><path d="M 101.80526077348638 79.07773832637324 l 1.149233673902593 -13.31916585275261 a34.368654272228106,34.368654272228106 0 0,0 0.5889721470617821,0.05593000216664236 l -1.3783309480546195 13.29741030607079" fill="#ff950d" stroke="none" /><path d="M 102.88285421437855 79.19881850522331 l 1.8016400725381145 -12.999700765377229 a34.12395241306233,34.12395241306233 0 0,0 0.5811325663470244,0.08564383401890467 l -2.0251416193137945 12.966762447197356" fill="#ff920d" stroke="none" /><path d="M 103.2404852339499 79.25152402106235 l 1.784871146602356 -11.42833663390499 a32.56687698680281,32.56687698680281 0 0,0 0.5531263746885978,0.09127059119328006 l -1.981326727429829 11.395919779772086" fill="#ff7c0b" stroke="none" /><path d="M 104.307194497241 79.44645832069477 l 2.223361624791977 -10.6096801183698 a31.840140641556687,31.840140641556687 0 0,0 0.5354560634067,0.1170299560122507 l -2.405660412352205 10.569836664261679" fill="#ff720a" stroke="none" /><path d="M 104.66035177308747 79.52364482259891 l 2.461480160993281 -10.81509390121285 a32.09166987766111,32.09166987766111 0 0,0 0.537575681370451,0.12722679540671605 l -2.6472795293262554 10.771121193665264" fill="#ff750a" stroke="none" /><path d="M 105.71112130821622 79.79150937346287 l 3.0182384475747983 -10.6798717948297 a32.09817214141219,32.09817214141219 0 0,0 0.5303990345841619,0.15483802269429395 l -3.2016276998823874 10.626335443216702" fill="#ff760a" stroke="none" /><path d="M 108.09893153111575 80.62456947434976 l 2.7829454305128523 -6.657762896058115 a28.215995568827665,28.215995568827665 0 0,0 0.44650636274466315,0.19117072231107632 l -2.897135551047831 6.608872645784247" fill="#ff3e05" stroke="none" /><path d="M 109.08828744355905 81.06846463323043 l 4.724131634686513 -9.840695034654303 a31.915892014256816,31.915892014256816 0 0,0 0.49322019036279247,0.2420210053792534 l -4.8928230920597375 9.757918869140218" fill="#ff730a" stroke="none" /><path d="M 109.73455568895987 81.39251694778311 l 6.088986887977709 -11.639023284001805 a34.13554811675176,34.13554811675176 0 0,0 0.5182994574522608,0.2768576203240861 l -6.288431391958281 11.532486937175964" fill="#ff920d" stroke="none" /><path d="M 110.36928655335952 81.73862282372117 l 5.5610751911356004 -9.793623799322258 a32.26235430112706,32.26235430112706 0 0,0 0.4805604687501816,0.2783716415320704 l -5.72883239235111 9.696448000400139" fill="#ff780b" stroke="none" /><line stroke="#e1ed5e" stroke-width="0.3" x1="143.23703022742887" x2="145.7803849466894" y1="26.81831364943548" y2="22.513508569990506" /><path d="M 143.74570117128098 25.957352633546492 a86.0,86.0 0 0,1 28.547481713284135,27.462654790039103" fill="none" id="id74" stroke="none" /><text fill="#e1ed5e" style="font-size:6.75px; font-family:Arial;" text-anchor="middle"><textPath startOffset="19.985693538727396" xlink:href="#id74">February</textPath></text><path d="M 110.99172775467656 82.1063720568725 l 5.723758407570565 -9.317807506453239 a31.93539880551007,31.93539880551007 0 0,0 0.4659235502553327,0.2917612844259807 l -5.883301110198161 9.217901880704312" fill="#ff730a" stroke="none" /><path d="M 111.60114157652 82.49532879139004 l 6.011405934811971 -9.07045946265706 a31.881646758501105,31.881646758501105 0 0,0 0.45483770016361064,0.3071084455022139 l -6.166648329382124 8.965639104856177" fill="#ff730a" stroke="none" /><path d="M 112.19680574252982 82.90503203632743 l 6.46294162299619 -9.058419255703397 a32.12764907041711,32.12764907041711 0 0,0 0.44742292596120614,0.3250717837154082 l -6.617909865311184 8.945828237171314" fill="#ff760a" stroke="none" /><path d="M 113.06298171725822 83.55741782278167 l 6.801452915599844 -8.561096609473342 a31.93398998169733,31.93398998169733 0 0,0 0.42745409781574795,0.34563815299372247 l -6.947810411980083 8.44275235921549" fill="#ff730a" stroke="none" /><path d="M 113.34407831869373 83.78471172551755 l 7.007445314122678 -8.51521874515599 a32.02783932183797,32.02783932183797 0 0,0 0.4226797274062766,0.3539821160845388 l -7.152982578488071 8.39333547167763" fill="#ff750a" stroke="none" /><path d="M 114.16331599549186 84.49514656593476 l 7.329628586531271 -8.023884872474422 a31.86766689143628,31.86766689143628 0 0,0 0.40182414070020517,0.3734517464039755 l -7.466660611026323 7.896528539995806" fill="#ff720a" stroke="none" /><path d="M 114.42810811169701 84.74124197986012 l 9.782336521593814 -10.345521720451014 a35.23811530681051,35.23811530681051 0 0,0 0.4371485476638986,0.42053655650033006 l -9.95896831287013 10.175602077188382" fill="#ffa10e" stroke="none" /><path d="M 114.94478906791727 85.2469230424477 l 7.848806112688395 -7.748121440802381 a32.028923032463155,32.028923032463155 0 0,0 0.3839440248749315,0.3956880672662167 l -7.981014401266436 7.6118691779860495" fill="#ff750a" stroke="none" /><path d="M 115.68641384162765 86.03803664274999 l 12.202831690568765 -10.861340943732987 a37.33639581928523,37.33639581928523 0 0,0 0.4231602852222808,0.4837453566608003 l -12.387983839368893 10.64968003086924" fill="#ffbd11" stroke="none" /><path d="M 116.15771136456269 86.58626213691792 l 4.334128691592835 -3.5980879236025785 a26.633019458626336,26.633019458626336 0 0,0 0.2897945288978316,0.35525382673793926 l -4.395421712567076 3.5229499272565388" fill="#ff2703" stroke="none" /><path d="M 117.45458315368197 88.32363383020206 l 4.687675026923759 -3.1358531806491814 a26.639846835564974,26.639846835564974 0 0,0 0.2516873926536013,0.3833371662909171 l -4.740959054935285 3.05469795038059" fill="#ff2703" stroke="none" /><path d="M 117.65298651832404 88.62581576622439 l 19.24086739621511 -12.397288716842823 a43.888943743377325,43.888943743377325 0 0,0 0.4037206076730582,0.638589047625134 l -19.451415600134123 12.064252021503483" fill="#edff1a" stroke="none" /><line stroke="#e1ed5e" stroke-width="0.3" x1="172.23445277983987" x2="176.4835382374775" y1="55.19839476539836" y2="52.563006222186495" /><path d="M 173.08426987136738 54.67131705675599 a86.0,86.0 0 0,1 12.851231095245387,41.99856678651699" fill="none" id="id75" stroke="none" /><text fill="#e1ed5e" style="font-size:6.75px; font-family:Arial;" text-anchor="middle"><textPath startOffset="22.20632615414155" xlink:href="#id75">March</textPath></text><path d="M 118.73160827565052 90.50648371742162 l 5.029091534752676 -2.54883412407329 a26.638112898564685,26.638112898564685 0 0,0 0.20376886242719444,0.4107855925086962 l -5.072220410133278 2.461888943065644" fill="#ff2703" stroke="none" /><path d="M 118.89224826269711 90.83032412892265 l 10.27878748780132 -4.988985339395895 a32.42556112127926,32.42556112127926 0 0,0 0.23939607437798407,0.5042291862507127 l -10.363141756021061 4.8113137375046415" fill="#ff7a0b" stroke="none" /><path d="M 119.196687751892 91.48605970444005 l 9.983574722330145 -4.4278242278438285 a31.921418938445235,31.921418938445235 0 0,0 0.2184478312599225,0.5042077127567478 l -10.05831326343275 4.255317370500478" fill="#ff730a" stroke="none" /><path d="M 119.34039704204932 91.81776055985345 l 10.808559753750318 -4.572720183356975 a32.736044215393505,32.736044215393505 0 0,0 0.21508876946946912,0.520854515958477 l -10.885670210105983 4.385991096945195" fill="#ff7e0b" stroke="none" /><path d="M 119.7369772167798 92.82701384747503 l 10.969080332343605 -3.986479817332023 a32.67102157788267,32.67102157788267 0 0,0 0.18754242847666622,0.5302077000385574 l -11.036075841630081 3.7970744908668514" fill="#ff7e0b" stroke="none" /><path d="M 119.85752413597 93.16781622104841 l 10.845369335838043 -3.7314599718315833 a32.46934303053656,32.46934303053656 0 0,0 0.17728679720638277,0.5300649581576112 l -10.907993426816196 3.544221910751658" fill="#ff7b0b" stroke="none" /><path d="M 120.18372546131832 94.20196356495316 l 10.909785935858457 -3.133977246960503 a32.35100183026684,32.35100183026684 0 0,0 0.14914309345722052,0.5365470600264162 l -10.96211579988204 2.9457188835151347" fill="#ff790b" stroke="none" /><path d="M 120.28053869075195 94.5502522615342 l 10.739403015878013 -2.8858719282906744 a32.120388209228395,32.120388209228395 0 0,0 0.13888805100703894,0.5351923165317893 l -10.787487398755355 2.700583186210035" fill="#ff760a" stroke="none" /><path d="M 120.53481517161879 95.60439243477599 l 8.232421446920771 -1.762202079238133 a29.418914362778153,29.418914362778153 0 0,0 0.10173439402101712,0.4960930354811235 l -8.261535136856784 1.6202333875935977" fill="#ff5007" stroke="none" /><path d="M 120.67395015179393 96.31383870115 l 14.375204925134764 -2.5630962476453267 a35.60191696368365,35.60191696368365 0 0,0 0.10237778532135473,0.6042394842407766 l -14.417194571976342 2.3152709750887124" fill="#ffa60f" stroke="none" /><path d="M 120.78858239683441 97.02765380044208 l 12.042184076220963 -1.7217884024060564 a33.164651767652444,33.164651767652444 0 0,0 0.07593757842106355,0.5658231628648847 l -12.070037653699863 1.5142468974765073" fill="#ff840c" stroke="none" /><path d="M 120.91429891909075 98.10471618934814 l 10.81058030260541 -0.9796703160141466 a31.854879106059144,31.854879106059144 0 0,0 0.04478722611780895,0.5465176005210544 l -10.825842012542715 0.7934387982853235" fill="#ff720a" stroke="none" /><line stroke="#e1ed5e" stroke-width="0.3" x1="184.98032266829074" x2="189.97916517819016" y1="98.17113171792111" y2="98.06355123074" /><path d="M 185.9800911702706 98.14961562048488 a86.0,86.0 0 0,1 -9.607161424134198,41.387399972396054" fill="none" id="id76" stroke="none" /><text fill="#e1ed5e" style="font-size:6.75px; font-family:Arial;" text-anchor="middle"><textPath startOffset="21.466115282336823" xlink:href="#id76">April</textPath></text><path d="M 120.99513854157772 99.54816195383933 l 11.030595351635634 -0.2373903197543488 a32.033149503901356,32.033149503901356 0 0,0 0.007118975272945773,0.5513724802756579 l -11.033047334026296 0.04748158141822816" fill="#ff750a" stroke="none" /><path d="M 120.99824983174949 100.27111621757518 l 13.369924075272735 0.17262406503396407 a34.37103843560351,34.37103843560351 0 0,0 -0.012730275352539214,0.5915258729760242 l -13.364971737235187 -0.4027397538001031" fill="#ff950d" stroke="none" /><path d="M 120.9764740272857 100.99374915477107 l 10.840770060360382 0.5135756405264924 a31.852928426933822,31.852928426933822 0 0,0 -0.030660186591746838,0.5474582279439918 l -10.830323522881107 -0.7001055848059076" fill="#ff720a" stroke="none" /><path d="M 120.95626037817324 101.35467743843564 l 10.879962235330952 0.7033143845924782 a31.90267074462961,31.90267074462961 0 0,0 -0.040141826136746245,0.5477033248065505 l -10.866243850529868 -0.8904908458957989" fill="#ff730a" stroke="none" /><path d="M 120.89721153311464 102.0752229133903 l 10.820943480134327 1.0745869045203262 a31.87416915518736,31.87416915518736 0 0,0 -0.058918185150977846,0.5455092205352698 l -10.800842993482298 -1.2606924469403875" fill="#ff720a" stroke="none" /><path d="M 120.81339534386255 102.79330883721812 l 10.753267756922723 1.4431666413929052 a31.849677295058278,31.849677295058278 0 0,0 -0.07760090302936487,0.5427405350475882 l -10.726832802876757 -1.6280526484209028" fill="#ff720a" stroke="none" /><path d="M 120.5718875245553 104.21870165774334 l 10.6244582806627 2.1787704073219487 a31.84555919468259,31.84555919468259 0 0,0 -0.11474404042015754,0.5360459565849832 l -10.585380201518099 -2.361330183323101" fill="#ff720a" stroke="none" /><path d="M 120.49622156327973 104.57218783832717 l 9.795268587523614 2.1850762966604624 a31.03602735767267,31.03602735767267 0 0,0 -0.12080320533238303,0.5204170468582833 l -9.756204816260679 -2.353362000867311" fill="#ff6709" stroke="none" /><path d="M 120.13307415673323 105.97154293290107 l 10.406869897490521 3.0867154169397883 a31.854987477121664,31.854987477121664 0 0,0 -0.16044784939199447,0.524352855263474 l -10.352195275592395 -3.2653952447553194" fill="#ff720a" stroke="none" /><path d="M 119.54520255179757 107.68017299344265 l 22.633274353956825 8.893612741324619 a45.317924573740484,45.317924573740484 0 0,0 -0.2915396731996672,0.7235775598869942 l -22.476832066499764 -9.281889669054426" fill="#dcff1b" stroke="none" /><path d="M 119.12269723197855 108.67885076344098 l 9.886279470533777 4.486895498557003 a31.856829785184473,31.856829785184473 0 0,0 -0.23092467239609427,0.4973912003179062 l -9.807580181297851 -4.65640676615374" fill="#ff720a" stroke="none" /><line stroke="#e1ed5e" stroke-width="0.3" x1="174.80103733775053" x2="179.2010983576182" y1="140.37084112569926" y2="142.7455964860345" /><path d="M 175.68104954172406 140.8457921977663 a86.0,86.0 0 0,1 -30.038265399797805,32.042727171017184" fill="none" id="id77" stroke="none" /><text fill="#e1ed5e" style="font-size:6.75px; font-family:Arial;" text-anchor="middle"><textPath startOffset="22.206326154141568" xlink:href="#id77">May</textPath></text><path d="M 118.48025628344425 109.97397251340804 l 9.55156777527123 5.155073230010096 a31.853903766496483,31.853903766496483 0 0,0 -0.26457486990182855,0.4802802398377137 l -9.461416495917893 -5.3187239882456145" fill="#ff720a" stroke="none" /><path d="M 118.12598468904814 110.60418214915192 l 11.231209776941325 6.570555822105578 a34.012005105481165,34.012005105481165 0 0,0 -0.2999844667326022,0.502791221318129 l -11.116444434510496 -6.762909137309811" fill="#ff900d" stroke="none" /><path d="M 117.75023020441432 111.22182372390056 l 9.238189103061558 5.840449867339415 a31.929546768134088,31.929546768134088 0 0,0 -0.2976976177036036,0.46203331367303474 l -9.136286621980904 -5.998604780933903" fill="#ff730a" stroke="none" /><path d="M 117.35343817320211 111.8261652097733 l 9.117020759049913 6.213143046428468 a32.032824390713806,32.032824390713806 0 0,0 -0.3144389219493496,0.4529727190310108 l -9.008720929938427 -6.369157027646498" fill="#ff750a" stroke="none" /><path d="M 116.93607887273984 112.41649034213515 l 4.5394212670705105 3.328024198811823 a26.62868461612561,26.62868461612561 0 0,0 -0.27419776337937574,0.3673327128047633 l -4.481462236996042 -3.4056697911259017" fill="#ff2703" stroke="none" /><path d="M 116.71984013943494 112.70617746262583 l 4.486207812055919 3.4092761724292004 a26.634645024564108,26.634645024564108 0 0,0 -0.2805429478690606,0.36263957769070687 l -4.42685804696879 -3.48599374423316" fill="#ff2703" stroke="none" /><path d="M 115.32070863581623 114.36230785411682 l 4.109849087138932 3.852753761367095 a26.63334457181389,26.63334457181389 0 0,0 -0.31642118978734207,0.33176635245678227 l -4.042921345972626 -3.9229272304063847" fill="#ff2703" stroke="none" /><path d="M 114.55890576462653 115.13401014063108 l 3.9044401934996884 4.058672982517765 a26.631827376938638,26.631827376938638 0 0,0 -0.3331060341243635,0.31497254669491803 l -3.8339983249845173 -4.125280165958605" fill="#ff2703" stroke="none" /><path d="M 114.29624159901734 115.38237550388516 l 3.8323752499546986 4.123533780420369 a26.629443213563242,26.629443213563242 0 0,0 -0.3384481138641234,0.3091643274875499 l -3.7608275866237113 -4.188890874494502" fill="#ff2703" stroke="none" /><path d="M 113.75828350139079 115.86535959552629 l 7.10738305363795 8.195876172904637 a31.848376842308063,31.848376842308063 0 0,0 -0.41726609449062063,0.35560321811950296 l -6.965251482570282 -8.317003781247086" fill="#ff720a" stroke="none" /><path d="M 112.04921762599082 117.19931262002967 l 6.232519043922642 8.896431849275293 a31.86235670937289,31.86235670937289 0 0,0 -0.4519039802655523,0.31082367830713936 l -6.0784581790342065 -9.002396316947527" fill="#ff720a" stroke="none" /><path d="M 111.7513745106137 117.40417183066458 l 3.65139270916593 5.407832596447553 a27.52513004527502,27.52513004527502 0 0,0 -0.3949532430054362,0.2617534733219157 l -3.5577647674205295 -5.469884090860787" fill="#ff3404" stroke="none" /><path d="M 111.1453310114006 117.79835938074945 l 2.9919133197430456 4.777888467051097 a26.637354301127058,26.637354301127058 0 0,0 -0.39070758016760543,0.24000450699771175 l -2.9092265396431314 -4.828681440877188" fill="#ff2703" stroke="none" /><line stroke="#e1ed5e" stroke-width="0.3" x1="143.8653032363475" x2="146.44561519142675" y1="172.8068346515853" y2="177.08958963109032" /><path d="M 144.38136562736335 173.6633856474863 a86.0,86.0 0 0,1 -40.68145358897372,12.25698825130547" fill="none" id="id78" stroke="none" /><text fill="#e1ed5e" style="font-size:6.75px; font-family:Arial;" text-anchor="middle"><textPath startOffset="21.466115282336833" xlink:href="#id78">June</textPath></text><path d="M 110.5260780823613 118.17145234162733 l 5.466504058677401 9.436973315258298 a31.905921876505154,31.905921876505154 0 0,0 -0.4776031373521564,0.2711955260647656 l -5.303252154404046 -9.529672007117693" fill="#ff730a" stroke="none" /><path d="M 109.89434966115114 118.52300852407294 l 16.49101961573496 30.872498686020155 a56.00092717464598,56.00092717464598 0 0,0 -0.8541717352852524,0.446862281251906 l -15.957156977923212 -31.151790386216778" fill="#62ff29" stroke="none" /><path d="M 109.57404056367764 118.69057910512821 l 23.643566623703038 46.15730937930568 a72.86053848376841,72.86053848376841 0 0,0 -1.1211713473885527,0.5621785887159942 l -22.845541368631725 -46.557455808930975" fill="#3fffbb" stroke="none" /><path d="M 109.2508944713604 118.85261126421891 l 4.780107265967589 9.74149087588748 a31.851086118871013,31.851086118871013 0 0,0 -0.4942793084082713,0.23728410534007596 l -4.611715289559085 -9.822329257727116" fill="#ff720a" stroke="none" /><path d="M 108.92500713936063 119.00905698771935 l 23.964900624287196 51.04199409130569 a77.3879563625855,77.3879563625855 0 0,0 -1.2106866860601762,0.5557668771381109 l -23.0827459424596 -51.446948038777876" fill="#45ffeb" stroke="none" /><path d="M 108.59647513512805 119.15986991738527 l 23.501836970375752 52.38102037100677 a78.41173779019363,78.41173779019363 0 0,0 -1.2362145355471628,0.5419201233875167 l -22.596701760170834 -52.77780504768874" fill="#46fff6" stroke="none" /><path d="M 108.2653958097858 119.30500536409082 l 12.477259160941943 29.14241018511826 a52.70113669203352,52.70113669203352 0 0,0 -0.8370158668437495,0.3498727002246841 l -11.973771834600733 -29.352867928362915" fill="#86ff25" stroke="none" /><path d="M 107.59598834532513 119.57807347666477 l 3.9317291223550006 10.133728245539343 a31.869725941624118,31.869725941624118 0 0,0 -0.5131477808129479,0.19402858239327353 l -3.756711120781778 -10.199905078039247" fill="#ff720a" stroke="none" /><path d="M 106.57524785965236 119.94407469862006 l 19.725743578957097 59.83222409586019 a84.0,84.0 0 0,0 -1.3771146196362385,0.4409086133611737 l -18.692907614229917 -60.16290555588107" fill="#4dd2ff" stroke="none" /><path d="M 106.2309692047433 120.05430185196036 l 6.526613760687604 21.005830413726052 a42.99639967247857,42.99639967247857 0 0,0 -0.7086728540768595,0.21351731760129186 l -6.164065932170499 -21.11506310043307" fill="#f8ff18" stroke="none" /><path d="M 105.53697534728816 120.25689768951611 l 2.3505304988093894 8.59936207839343 a29.914820344860804,29.914820344860804 0 0,0 -0.49788169581456704,0.13149508104094265 l -2.202158360183325 -8.638548508737957" fill="#ff5708" stroke="none" /><path d="M 104.83641907484287 120.43548508189849 l 8.086893759114194 34.1698256945704 a56.11374145072729,56.11374145072729 0 0,0 -0.9418553906457104,0.21436322049307757 l -7.497518219075621 -34.30396564864117" fill="#61ff29" stroke="none" /><path d="M 104.48393922423573 120.51570834832081 l 8.27713386481036 37.871000439218165 a59.76497928908582,59.76497928908582 0 0,0 -1.0069219038083308,0.211010275061326 l -7.624020499572651 -38.00786669500603" fill="#3bff2e" stroke="none" /><path d="M 104.13013068566511 120.58985236759428 l 2.1344767964479288 10.640961622220692 a31.852928426933822,31.852928426933822 0 0,0 -0.5385152934424325,0.10320773766544282 l -1.9509938884337918 -10.676126558234603" fill="#ff720a" stroke="none" /><path d="M 103.41894727170886 120.7198165907248 l 0.9178008146425982 5.562140341727915 a26.637354301127058,26.637354301127058 0 0,0 -0.4530432211769522,0.07075603384341522 l -0.8219217298571289 -5.5771146829184355" fill="#ff2703" stroke="none" /><path d="M 101.62511606390274 120.93702456842531 l 0.8511832480999344 10.966136495446666 a31.999120990270686,31.999120990270686 0 0,0 -0.5495273643539144,0.03789862443103431 l -0.6622931229670898 -10.979163464393984" fill="#ff740a" stroke="none" /><line stroke="#e1ed5e" stroke-width="0.3" x1="102.19456741930631" x2="102.32365962044197" y1="184.97166512339345" y2="189.96999836594603" /><path d="M 102.22038585953345 185.97133177190398 a86.0,86.0 0 0,1 -42.740103519485714,-10.115201625700543" fill="none" id="id79" stroke="none" /><text fill="#e1ed5e" style="font-size:6.75px; font-family:Arial;" text-anchor="middle"><textPath startOffset="22.20632615414155" xlink:href="#id79">July</textPath></text><path d="M 100.54218724476979 120.99299961872073 l 0.33192059665905416 12.851665225115363 a33.855950775455156,33.855950775455156 0 0,0 -0.5827097784409087,0.010031877282662945 l -0.11065112832547758 -12.855474579677187" fill="#ff8e0d" stroke="none" /><path d="M 100.18074693466247 120.99922214144158 l 0.033412016182779364 3.8818160392367513 a24.881959830459493,24.881959830459493 0 0,0 -0.42831790169046696,0.0 l 0.03341201618277669 -3.8818160392367513" fill="#ff0d01" stroke="none" /><path d="M 98.73552117531835 120.96189622390904 l -0.39808061447959836 6.599180916748163 a27.61117666891436,27.61117666891436 0 0,0 -0.4741723107391664,-0.032701698743296335 l 0.5116156859976948 -6.591350873488582" fill="#ff3505" stroke="none" /><path d="M 98.01472825383883 120.90594882070398 l -0.7241097493373493 7.625254018494655 a28.65955832771409,28.65955832771409 0 0,0 -0.49071633192031905,-0.05086475422156504 l 0.8552586778632616 -7.611659895817329" fill="#ff4506" stroke="none" /><path d="M 96.93821686468263 120.77559828337769 l -1.5413461748455834 10.45873843083059 a31.57170551969945,31.57170551969945 0 0,0 -0.5369657588737936,-0.08386300827750282 l 1.7211477973278941 -10.430657115205982" fill="#ff6e0a" stroke="none" /><path d="M 96.22490169976321 120.6578951692458 l -2.063928120167958 11.294119345346274 a32.48115547635102,32.48115547635102 0 0,0 -0.5491362909636454,-0.10524327711856765 l 2.258032025703298 -11.25691886987924" fill="#ff7b0b" stroke="none" /><path d="M 95.51606077576429 120.51570834832081 l -2.2214371726767843 10.163910541522432 a31.403838743858973,31.403838743858973 0 0,0 -0.527105732806002,-0.11996754867771246 l 2.3960630548756487 -10.124166259267033" fill="#ff6c09" stroke="none" /><path d="M 94.11515582081647 120.15858648285463 l -2.1468683664473995 7.354116832085624 a28.661075522589346,28.661075522589346 0 0,0 -0.4723959760869658,-0.1423290324717216 l 2.2731393169746115 -7.316072430508177" fill="#ff4506" stroke="none" /><path d="M 93.42475214034765 119.94407469862007 l -2.2593111564762483 6.852953901356109 a28.21577882670263,28.21577882670263 0 0,0 -0.45995786195853716,-0.1560426797750679 l 2.3769387513720113 -6.813048234682918" fill="#ff3e05" stroke="none" /><path d="M 93.08242187328487 119.8279376855182 l -2.3784380819553 6.817345784031964 a28.22033041132839,28.22033041132839 0 0,0 -0.4572774491210053,-0.16396342410243028 l 2.495435091706032 -6.775394818889576" fill="#ff3e05" stroke="none" /><path d="M 91.40352486487194 119.15986991738527 l -4.467598195019787 9.95740683410344 a31.913724593006457,31.913724593006457 0 0,0 -0.4992704715746194,-0.22919058582965732 l 4.638336662361826 -9.879029177939708" fill="#ff730a" stroke="none" /><path d="M 90.7491055286396 118.85261126421891 l -2.5835656505071847 5.265108042837528 a26.86482516135247,26.86482516135247 0 0,0 -0.41339348912747165,-0.2072840773565737 l 2.673813047317417 -5.219856124571652" fill="#ff2a04" stroke="none" /><path d="M 90.42595943632237 118.69057910512821 l -8.033889729333973 15.683874588715362 a38.621784991811964,38.621784991811964 0 0,0 -0.5890909092163347,-0.3081845215461975 l 8.302671541076803 -15.543260648224448" fill="#ffce13" stroke="none" /><line stroke="#e1ed5e" stroke-width="0.3" x1="58.666819895761336" x2="56.23545636021788" y1="174.27360380694188" y2="178.64263932499728" /><path d="M 58.180547188652646 175.14741091055294 a86.0,86.0 0 0,1 -31.652253787137756,-30.449443065178592" fill="none" id="id80" stroke="none" /><text fill="#e1ed5e" style="font-size:6.75px; font-family:Arial;" text-anchor="middle"><textPath startOffset="22.20632615414155" xlink:href="#id80">August</textPath></text><path d="M 89.7882731507175 118.34994917583269 l -5.955757427677074 10.702190502592739 a33.2477723726038,33.2477723726038 0 0,0 -0.4976894401167154,-0.2826010529947827 l 6.139095634714997 -10.598086283803323" fill="#ff860c" stroke="none" /><path d="M 89.1626897886671 117.98757091392108 l -5.6019626443498245 9.298035984704539 a31.8552042192467,31.8552042192467 0 0,0 -0.46724121380628875,-0.2870177157056565 l 5.761183058088422 -9.200229802170504" fill="#ff720a" stroke="none" /><path d="M 88.24862548938628 117.40417183066458 l -6.068633967197754 8.98784633636882 a31.844800597244966,31.844800597244966 0 0,0 -0.45165498183077546,-0.3106524149132076 l 6.2224458336514195 -8.882053132090512" fill="#ff720a" stroke="none" /><path d="M 87.95078237400918 117.19931262002967 l -6.221264407755413 8.880366739334272 a31.842741547057123,31.842741547057123 0 0,0 -0.44621184017475085,-0.3183603003055298 l 6.37320357577905 -8.771962177184523" fill="#ff720a" stroke="none" /><path d="M 87.07902340077011 116.55440617244103 l -6.961759139959308 8.919433263617174 a32.314697524323286,32.314697524323286 0 0,0 -0.435544429017364,-0.34602283582869864 l 7.114261061694029 -8.798276513783346" fill="#ff790b" stroke="none" /><path d="M 86.51685102203217 116.09983520530335 l -4.242510575469089 5.065858222987879 a27.607708794913783,27.607708794913783 0 0,0 -0.36170637152800034,-0.308254016868314 l 4.329082423574145 -4.992079815896614" fill="#ff3505" stroke="none" /><path d="M 85.70375840098266 115.38237550388516 l -11.072396525015417 11.91360399836887 a37.26443743377324,37.26443743377324 0 0,0 -0.46609677930655496,-0.4407235971284583 l 11.275829138712789 -11.721245764494482" fill="#ffbc11" stroke="none" /><path d="M 85.18274418774928 114.88116024355367 l -7.653519318052554 7.68652771081323 a31.84707638955785,31.84707638955785 0 0,0 -0.38513636255718076,-0.39014110191131857 l 7.7846963056652685 -7.553646114921247" fill="#ff720a" stroke="none" /><path d="M 84.67929136418377 114.36230785411682 l -7.915859344646936 7.42067560582192 a31.85021915037087,31.85021915037087 0 0,0 -0.3715155041431698,-0.4032067045442045 l 8.042421256785834 -7.283317646476371" fill="#ff720a" stroke="none" /><path d="M 84.19399662182784 113.82643327865904 l -5.716807622954466 5.000825146910095 a28.5954026587034,28.5954026587034 0 0,0 -0.3208914680172916,-0.3732692727356126 l 5.802041600542537 -4.901678775012951" fill="#ff4406" stroke="none" /><path d="M 83.95833913139862 113.55231037782056 l -4.304737871905088 3.63672715768507 a26.635295250939215,26.635295250939215 0 0,0 -0.2928664865456456,-0.3527765494047639 l 4.3667003583442705 -3.562089351166545" fill="#ff2703" stroke="none" /><path d="M 83.50135304334701 112.99209946851258 l -8.52072686784043 6.709770280063513 a31.845450823620077,31.845450823620077 0 0,0 -0.33542841070485757,-0.4335864370408201 l 8.634962095763358 -6.56210584890944" fill="#ff720a" stroke="none" /><path d="M 83.06392112726016 112.41649034213515 l -8.771372540156657 6.430630327745141 a31.876119834312686,31.876119834312686 0 0,0 -0.3206133642696925,-0.44530392133332264 l 8.880765696801957 -6.27869280096068" fill="#ff720a" stroke="none" /><path d="M 82.6465618267979 111.8261652097733 l -9.16752858479794 6.247563539112453 a32.09394566997399,32.09394566997399 0 0,0 -0.3071801626086432,-0.45919266434814854 l 9.273711852817314 -6.088833960558484" fill="#ff750a" stroke="none" /><path d="M 82.05923443525364 110.91462005526583 l -8.37624166836597 5.095852513727054 a30.80454676813409,30.80454676813409 0 0,0 -0.2716948179479361,-0.4553761427374719 l 8.462717362012137 -4.950914277103471" fill="#ff6309" stroke="none" /><line stroke="#e1ed5e" stroke-width="0.3" x1="26.63291911575756" x2="22.317208475507996" y1="142.92168965132927" y2="145.44649492493687" /><path d="M 25.769776987707644 143.4266507060508 a86.0,86.0 0 0,1 -11.730757126820373,-40.83630448921669" fill="none" id="id81" stroke="none" /><text fill="#e1ed5e" style="font-size:6.75px; font-family:Arial;" text-anchor="middle"><textPath startOffset="21.46611528233685" xlink:href="#id81">September</textPath></text><path d="M 81.69416730710424 110.29060199501025 l -11.65665783716036 6.552776287570178 a34.3722305172912,34.3722305172912 0 0,0 -0.28549180295171844,-0.5182505490571646 l 11.767726049563596 -6.35115522011519" fill="#ff950d" stroke="none" /><path d="M 81.35079622478065 109.6543875284942 l -13.608680748987421 7.044991265357004 a36.324101724304015,36.324101724304015 0 0,0 -0.28267300107641546,-0.5577406483183366 l 13.727932419850102 -6.809696405335982" fill="#ffaf10" stroke="none" /><path d="M 81.18737489456691 109.33194174019688 l -6.464663601492168 3.2067754372925643 a28.21632068201522,28.21632068201522 0 0,0 -0.21208830142718355,-0.4369647194198332 l 6.518905159534071 -3.095021761907446" fill="#ff3e05" stroke="none" /><path d="M 80.87730276802145 108.67885076344099 l -9.999567774142932 4.538311481790956 a31.981239764955205,31.981239764955205 0 0,0 -0.22319694328098535,-0.5032501848264472 l 10.076205802155197 -4.365512960471813" fill="#ff740a" stroke="none" /><path d="M 80.58989483394504 108.01547362559985 l -10.02515090521459 4.1399225808387605 a31.846317792120217,31.846317792120217 0 0,0 -0.2048740132973276,-0.5084804994084202 l 10.094927532769306 -3.9667427135875353" fill="#ff720a" stroke="none" /><path d="M 80.20201598880116 107.00284435728193 l -10.240199159135754 3.6221122745848024 a31.86192322512282,31.86192322512282 0 0,0 -0.1784406816693974,-0.5186321471628612 l 10.30103067174838 -3.4453074243326447" fill="#ff720a" stroke="none" /><path d="M 79.97269907076064 106.31721596034903 l -10.624836329224026 3.351394472586048 a32.14087034004431,32.14087034004431 0 0,0 -0.1618877900156416,-0.5290586645359623 l 10.680950891745798 -3.1680088354980382" fill="#ff760a" stroke="none" /><path d="M 79.76711848015287 105.62410040840567 l -10.608083603905973 2.948711347447256 a32.010283209710046,32.010283209710046 0 0,0 -0.14299744022607067,-0.5321466714346947 l 10.657269120473819 -2.7656737428370226" fill="#ff740a" stroke="none" /><path d="M 79.50377843672027 104.57218783832718 l -10.584957116316497 2.361235803731855 a31.84512571043252,31.84512571043252 0 0,0 -0.1147424785152811,-0.5360386598853769 l 10.624033633556218 -2.178683324430314" fill="#ff720a" stroke="none" /><path d="M 79.35854240842038 103.8639653848113 l -8.682829547778375 1.6253771162225794 a29.833650419034775,29.833650419034775 0 0,0 -0.09014529795698618,-0.5055827038721276 l 8.709521288074551 -1.4756756616172382" fill="#ff5607" stroke="none" /><path d="M 79.18660465613746 102.79330883721812 l -11.848937623760877 1.5902134961299064 a32.95517050380503,32.95517050380503 0 0,0 -0.07061585405638163,-0.5628778363879114 l 11.874554987064109 -1.3860179054545865" fill="#ff810b" stroke="none" /><path d="M 79.10278846688536 102.07522291339032 l -12.156010354265426 1.2071673382167092 a33.21580290916096,33.21580290916096 0 0,0 -0.05160376094726057,-0.5694432019809822 l 12.174988711489762 -0.9977427476871608" fill="#ff850c" stroke="none" /><path d="M 79.07016306316243 101.71520430193888 l -10.874128506372903 0.8911369950111602 a31.91058183219343,31.91058183219343 0 0,0 -0.04015178033475664,-0.5478391419297214 l 10.887856845371996 -0.703824716584678" fill="#ff730a" stroke="none" /><path d="M 79.0235259727143 100.99374915477108 l -10.834491580306247 0.5132782009168245 a31.84664290530777,31.84664290530777 0 0,0 -0.02122786078684499,-0.547796763029402 l 10.841721573944294 -0.32670419087342584" fill="#ff720a" stroke="none" /><line stroke="#e1ed5e" stroke-width="0.3" x1="15.007084014347285" x2="10.007500721073583" y1="101.09737516637583" y2="101.16192664675087" /><path d="M 14.007167355692545 101.11028546245083 a86.0,86.0 0 0,1 10.666146001902534,-42.60595125391555" fill="none" id="id82" stroke="none" /><text fill="#e1ed5e" style="font-size:6.75px; font-family:Arial;" text-anchor="middle"><textPath startOffset="22.20632615414155" xlink:href="#id82">October</textPath></text><path d="M 79.00019446554 99.90962569577889 l -10.86626581326618 -0.04676382410990403 a31.866366438686057,31.866366438686057 0 0,0 0.007081909778743613,-0.5485017169020787 l 10.863850896369721 0.23380179907245474" fill="#ff720a" stroke="none" /><path d="M 79.01574976396665 99.18683210126434 l -11.134030869505283 -0.43145865993661353 a32.142387534919564,32.142387534919564 0 0,0 0.026182870165858983,-0.5526790069275472 l 11.124954391105925 0.6230487734871698" fill="#ff760a" stroke="none" /><path d="M 79.12142395522702 97.74499172005258 l -11.204129964825096 -1.21011154142444 a32.269290049128216,32.269290049128216 0 0,0 0.06439974070398878,-0.5517376500928912 l 11.181639871117518 1.402792929842193" fill="#ff780b" stroke="none" /><path d="M 79.16333360222342 97.38593545837743 l -10.914539884197334 -1.3692838938214211 a32.00009632983335,32.00009632983335 0 0,0 0.07327107914633875,-0.5459546460544429 l 10.88935280599316 1.5569568819405233" fill="#ff740a" stroke="none" /><path d="M 79.32604984820605 96.31383870115002 l -10.690718491339835 -1.9061530317299935 a31.859322319622386,31.859322319622386 0 0,0 0.10090951241962244,-0.539062650349895 l 10.656323255010351 2.0898937595424614" fill="#ff720a" stroke="none" /><path d="M 79.3925641242962 95.95851677861259 l -10.675465395481403 -2.093647872378324 a31.878829110875635,31.878829110875635 0 0,0 0.11024109597320744,-0.5375747352937075 l 10.6378450035932 2.277098263835434" fill="#ff720a" stroke="none" /><path d="M 79.71946130924805 94.55025226153421 l -10.544843304663981 -2.8335902131768234 a31.918926404007323,31.918926404007323 0 0,0 0.14715115929650507,-0.5293810130246861 l 10.494505374801117 3.014682529620452" fill="#ff730a" stroke="none" /><path d="M 79.91906864156998 93.8553929516997 l -10.511524861744409 -3.216443928869061 a31.992618726519602,31.992618726519602 0 0,0 0.16566770697160363,-0.5252119038833718 l 10.454601671004601 3.3969059991788475" fill="#ff740a" stroke="none" /><path d="M 80.14247586403 93.16781622104843 l -10.282882495272492 -3.537930635461568 a31.874494268374917,31.874494268374917 0 0,0 0.18297009927609428,-0.517281109672074 l 10.220459315186588 3.714409371560253" fill="#ff720a" stroke="none" /><path d="M 80.38941819471856 92.48833698450439 l -16.31753718865736 -6.25029087974337 a38.47364174934977,38.47364174934977 0 0,0 0.2422125523240522,-0.6164045262786967 l 16.20753108645162 6.530244410917831" fill="#ffcc13" stroke="none" /><path d="M 80.65960295795068 91.81776055985345 l -10.239262696310993 -4.331870689605016 a32.11789567479048,32.11789567479048 0 0,0 0.21979238041766547,-0.5073111175907793 l 10.163179606050646 4.507480951782394" fill="#ff760a" stroke="none" /><path d="M 80.95270993114464 91.15688171328213 l -10.012821759639966 -4.648670067197641 a32.03932665446489,32.03932665446489 0 0,0 0.2365445272667785,-0.4982231007993316 l 9.931319038531436 4.8203355836375055" fill="#ff750a" stroke="none" /><path d="M 81.26839172434947 90.50648371742162 l -9.724592270934803 -4.92859842609266 a31.90223726037954,31.90223726037954 0 0,0 0.2524690901791908,-0.48768992292878743 l 9.638313747595499 5.095261071281783" fill="#ff730a" stroke="none" /><line stroke="#e1ed5e" stroke-width="0.3" x1="26.266209847984243" x2="21.928928074336255" y1="57.711370442889674" y2="55.22380399835377" /><path d="M 25.398753493254645 57.213857153982495 a86.0,86.0 0 0,1 29.58750427330803,-30.492523968695096" fill="none" id="id83" stroke="none" /><text fill="#e1ed5e" style="font-size:6.75px; font-family:Arial;" text-anchor="middle"><textPath startOffset="21.46611528233685" xlink:href="#id83">November</textPath></text><path d="M 81.96595687620814 89.24020034530311 l -9.369056050330832 -5.589937063097653 a31.909931605818322,31.909931605818322 0 0,0 0.2854939060238377,-0.46927691593499177 l 9.271446346020776 5.750381752239719" fill="#ff730a" stroke="none" /><path d="M 82.34701348167596 88.62581576622439 l -9.119982935871535 -5.876193584231026 a31.849135439745687,31.849135439745687 0 0,0 0.30090360153270707,-0.4582968289438024 l 9.017482698980908 6.032308477152496" fill="#ff720a" stroke="none" /><path d="M 82.7489923806493 88.02491185347247 l -9.687711926383518 -6.724894383935991 a32.793047394278005,32.793047394278005 0 0,0 0.325880721398054,-0.4609351697216495 l 9.570518585181585 6.890656053989427" fill="#ff7f0b" stroke="none" /><path d="M 83.17141714833178 87.43820079747576 l -10.127093643772627 -7.559431354353195 a33.63736634235623,33.63736634235623 0 0,0 0.35034768221757495,-0.461016482504632 l 9.995470021330943 7.732632612738854" fill="#ff8b0c" stroke="none" /><path d="M 83.84228863543731 86.58626213691792 l -7.721868252006178 -6.4105066744067365 a31.03602735767267,31.03602735767267 0 0,0 0.34477979914610885,-0.4081105330422488 l 7.610377839372945 6.5424761570781005" fill="#ff6709" stroke="none" /><path d="M 84.31358615837235 86.03803664274999 l -8.117196225016366 -7.22485058736198 a31.86679992293613,31.86679992293613 0 0,0 0.36822293592936095,-0.406600962761403 l 7.99162964847096 7.36350433739294" fill="#ff720a" stroke="none" /><path d="M 85.05521093208273 85.24692304244772 l -7.742222148379315 -7.6429047381278234 a31.87915422406319,31.87915422406319 0 0,0 0.38887133491190307,-0.3872013978168881 l 7.609515013300099 7.775041986594821" fill="#ff720a" stroke="none" /><path d="M 85.83668400450813 84.49514656593479 l -7.411197218016181 -8.113179616473149 a31.988608997206434,31.988608997206434 0 0,0 0.40974211153986584,-0.36787051337701526 l 7.270444118880344 8.239549138619443" fill="#ff740a" stroke="none" /><path d="M 86.37877921826538 84.01681056812374 l -3.6525479632802424 -4.285912910567147 a26.63117715056353,26.63117715056353 0 0,0 0.3514585728183542,-0.2943364473279117 l 3.578231853502778 4.3481505152888715" fill="#ff2703" stroke="none" /><path d="M 86.93701828274178 83.55741782278169 l -6.74651224394233 -8.49194191507406 a31.84566756574511,31.84566756574511 0 0,0 0.43214183406917794,-0.3372935560111824 l 6.599337854713727 8.606813860308465" fill="#ff720a" stroke="none" /><path d="M 87.22198572758235 83.33499621200491 l -11.323569331099936 -14.768126077597598 a39.60969559772661,39.60969559772661 0 0,0 0.5446405691572823,-0.41021198510612056 l 11.067682608184263 14.960854652209575" fill="#ffdb14" stroke="none" /><path d="M 88.09926311788651 82.69761687909137 l -6.064516728543952 -8.817150813420215 a31.701425681533568,31.701425681533568 0 0,0 0.4522665864194012,-0.3053724180249239 l 5.911845447718011 8.920235143743803" fill="#ff700a" stroke="none" /><line stroke="#e1ed5e" stroke-width="0.3" x1="56.762969772571076" x2="54.21961505331055" y1="26.818313649435495" y2="22.513508569990535" /><path d="M 56.25429882871897 25.957352633546506 a86.0,86.0 0 0,1 42.265352541879196,-11.944610805530505" fill="none" id="id84" stroke="none" /><text fill="#e1ed5e" style="font-size:6.75px; font-family:Arial;" text-anchor="middle"><textPath startOffset="22.20632615414155" xlink:href="#id84">December</textPath></text><path d="M 89.63071344664047 81.73862282372117 l -15.686262486092536 -27.625117144808943 a52.768001637607156,52.768001637607156 0 0,0 0.7937209802441405,-0.4417048661623954 l 15.20841741677635 27.89103740853152" fill="#85ff25" stroke="none" /><path d="M 89.94658935756843 81.56283822128135 l -3.979368401900723 -7.297847627282383 a29.31227723726038,29.31227723726038 0 0,0 0.4450649902207654,-0.2377383041992366 l 3.853158365151652 7.36526465798337" fill="#ff4e07" stroke="none" /><path d="M 91.23893434514133 80.91482961587045 l -8.219670450389755 -17.905791056375083 a40.70229265003371,40.70229265003371 0 0,0 0.6392544731133094,-0.2868148482653097 l 7.91023385880967 18.044626235156922" fill="#ffe915" stroke="none" /><path d="M 91.90106846888425 80.62456947434976 l -2.1375090582512684 -5.113657041917222 a26.542421250361237,26.542421250361237 0 0,0 0.42305602536552633,-0.17257517505078657 l 2.0491691632973614 5.149693103151585" fill="#ff2603" stroke="none" /><path d="M 92.57280143429618 80.3572730644239 l -3.8675127874706354 -10.228418821994373 a31.935182063385028,31.935182063385028 0 0,0 0.5158561040748108,-0.1899941566194987 l 3.6908743576232554 10.293476246420193" fill="#ff730a" stroke="none" /><path d="M 93.25333710446033 80.11325718540243 l -3.757726992559878 -11.076431626354724 a32.696488777574416,32.696488777574416 0 0,0 0.5345364880809326,-0.17622827593016205 l 3.5665076822365362 11.13947362654412" fill="#ff7e0b" stroke="none" /><path d="M 93.94186890950719 79.89281104454417 l -3.357349438920121 -11.143182369196472 a32.63796840381466,32.63796840381466 0 0,0 0.5393187766551228,-0.15744194000024442 l 3.1650404445415763 11.199322638115415" fill="#ff7d0b" stroke="none" /><path d="M 94.63758080256005 79.69619591428918 l -2.9901130454080675 -11.321507557088632 a32.70971004720162,32.70971004720162 0 0,0 0.545615270629795,-0.13908948111430178 l 2.794788886093273 11.371300034371798" fill="#ff7e0b" stroke="none" /><path d="M 95.33964822691252 79.52364482259891 l -2.564341455667081 -11.267039270639883 a32.555172912050864,32.555172912050864 0 0,0 0.5474807704919509,-0.11965809123644541 l 2.370017961021609 11.309510859972196" fill="#ff7c0b" stroke="none" /><path d="M 97.11714578562143 79.19881850522333 l -1.5542496680341773 -11.214659857485879 a32.321850014449474,32.321850014449474 0 0,0 0.5517574846456296,-0.07163395705284528 l 1.3609774548806899 11.239752137702862" fill="#ff790b" stroke="none" /><path d="M 98.91598698831166 79.02799685794201 l -0.44127766937370716 -8.537237624308286 a29.54863452461227,29.54863452461227 0 0,0 0.5081790594733833,-0.021883259283974246 l 0.2942577775109998 8.543568610116452" fill="#ff5107" stroke="none" /><path d="M 99.63851952072746 79.00311137660856 l -0.1464325002852184 -8.50565127478247 a29.506911665542816,29.506911665542816 0 0,0 0.507912979557752,-0.00437176736890394 l 2.083592428367258e-15 8.506911665542816" fill="#ff5107" stroke="none" /></svg>