<?xml version="1.0" encoding="utf-8" ?>
<svg baseProfile="full" height="200mm" version="1.1" viewBox="0,0,200,200" width="200mm" xmlns="http://www.w3.org/2000/svg" xmlns:ev="http://www.w3.org/2001/xml-events" xmlns:xlink="http://www.w3.org/1999/xlink"><defs /><rect fill="#1a1a1a" height="200" width="200" x="0" y="0" /><rect fill="#1a1a1a" height="200" width="180" x="10" y="0" /><text alignment-baseline="middle" fill="#e1ed5e" style="dominant-baseline: central; font-size:9.0px; font-family:Arial;" text-anchor="middle" x="100.0" y="100.0">2024</text><line stroke="#e1ed5e" stroke-width="0.3" x1="100.0" x2="100.0" y1="15.0" y2="10.0" /><path d="M 100.0 14.0 a86.0,86.0 0 0,1 42.35913384403234,11.155469271406648" fill="none" id="id109" stroke="none" /><text fill="#e1ed5e" style="font-size:6.75px; font-family:Arial;" text-anchor="middle"><textPath startOffset="22.145653131862478" xlink:href="#id109">January</textPath></text><path d="M 100.36049292484886 79.00309439819443 l 0.07004392885655202 -4.0797077024389194 a25.080308945326212,25.080308945326212 0 0,0 0.43040997251847873,0.01108583412279572 l -0.1400672154457721 4.077904150966079" fill="#ff3004" stroke="none" /><path d="M 101.08105385017728 79.02784411241856 l 0.24352479699892443 -4.724316003606624 a25.73058833853539,25.73058833853539 0 0,0 0.4409189303131696,0.02652458794934963 l -0.3245880794445564 4.719439437832583" fill="#ff3905" stroke="none" /><path d="M 101.80034050326958 79.07731436759882 l 0.42931170339666763 -4.989252750891495 a26.007689242649917,26.007689242649917 0 0,0 0.444484334501617,0.04209312860592329 l -0.5148956012832976 4.981147866780388" fill="#ff3d05" stroke="none" /><path d="M 102.51750503828377 79.15144685158666 l 0.5968974662845755 -4.943167286954403 a25.97907515629892,25.97907515629892 0 0,0 0.4422902635782291,0.05726332957976181 l -0.6816655517535963 4.932192361174244" fill="#ff3c05" stroke="none" /><path d="M 103.23170211078529 79.25015418208739 l 0.7324768864117912 -4.703027054228116 a25.75972539774398,25.75972539774398 0 0,0 0.4363482780548917,0.07180094310393886 l -0.8131026675197535 4.689760112628509" fill="#ff3905" stroke="none" /><path d="M 103.58742460773223 79.30868818359171 l 0.1308182885004865 -0.7545251244634562 a21.765781684328367,21.765781684328367 0 0,0 0.36759841716866265,0.06698867695568436 l -0.1437514392202028 0.7521682735764059" fill="#ff0000" stroke="none" /><path d="M 104.64783097203109 79.52079915486377 l 0.8594719454029324 -3.7869919746618756 a24.8832975988312,24.8832975988312 0 0,0 0.41574995411197113,0.09811585714199006 l -0.9243540532547885 3.771679973873658" fill="#ff2d04" stroke="none" /><path d="M 105.3480935250658 79.69241777938227 l 0.9890969358079128 -3.755762170937933 a24.883820571688787,24.883820571688787 0 0,0 0.41214550526844124,0.11233209019056807 l -1.0534238420110469 3.738229586603223" fill="#ff2d04" stroke="none" /><path d="M 106.04205211174951 79.88797359093562 l 1.3070085594510452 -4.350606412916424 a25.54269166184409,25.54269166184409 0 0,0 0.4188507207346533,0.12976102395658293 l -1.3814999130573287 4.327528801153194" fill="#ff3605" stroke="none" /><path d="M 106.38641147887787 79.99465700312896 l 0.22720543271122462 -0.7117177819145448 a21.747104082271576,21.747104082271576 0 0,0 0.3546613652469512,0.11658423522649855 l -0.2393895356059182 0.7077126252860247" fill="#ff0000" stroke="none" /><path d="M 107.06938296918511 80.22567764915836 l 1.5922157577764207 -4.453710851937308 a25.72976652404489,25.72976652404489 0 0,0 0.41463010081634927,0.15225791624508891 l -1.6684350102468946 4.425722086683497" fill="#ff3905" stroke="none" /><path d="M 107.74402155503746 80.48000691201159 l 1.6882351961311368 -4.255455531104744 a25.578104395343765,25.578104395343765 0 0,0 0.40674732638239314,0.16542059663966022 l -1.7610369837039697 4.22584767788579" fill="#ff3705" stroke="none" /><path d="M 108.4095320186766 80.7573450057729 l 1.8231476401737345 -4.171718588559859 a25.552702856546528,25.552702856546528 0 0,0 0.40043104909057514,0.17910771498089254 l -1.8944920921199413 4.139807122669113" fill="#ff3605" stroke="none" /><path d="M 109.3889696526874 81.21577127319529 l 2.348333563458313 -4.698240213206707 a26.252440540002087,26.252440540002087 0 0,0 0.4013782867132164,0.20494661312928933 l -2.428639071885108 4.657235648404583" fill="#ff4006" stroke="none" /><path d="M 110.34350942703115 81.72400993836675 l 2.3446143394531074 -4.142708881206762 a25.760173660193345,25.760173660193345 0 0,0 0.38297715456840753,0.22111196328354704 l -2.415383961881912 4.101850020647043" fill="#ff3905" stroke="none" /><line stroke="#e1ed5e" stroke-width="0.3" x1="143.13028292997686" x2="145.6673583964461" y1="26.7553504044142" y2="22.446841604673864" /><path d="M 143.63769802327073 25.89364864446614 a86.0,86.0 0 0,1 29.32050498858742,28.57503671076993" fill="none" id="id110" stroke="none" /><text fill="#e1ed5e" style="font-size:6.75px; font-family:Arial;" text-anchor="middle"><textPath startOffset="20.669276256404974" xlink:href="#id110">February</textPath></text><path d="M 111.27062007382361 82.28071324371311 l 4.842770216836385 -7.613639143619719 a30.023298974451414,30.023298974451414 0 0,0 0.43249901461023854,0.2803406359655036 l -4.972754863703631 7.529384665950321" fill="#ff740a" stroke="none" /><path d="M 111.5731344415666 82.4767994020092 l 0.42202354217245264 -0.6389974318453921 a21.765781684328367,21.765781684328367 0 0,0 0.3100107663929964,0.20858907897012746 l -0.43293059666245004 0.6316586788181459" fill="#ff0000" stroke="none" /><path d="M 112.16784306229584 82.88440491214696 l 0.49782104799634563 -0.7002476478446993 a21.859169694612312,21.859169694612312 0 0,0 0.30396631658498424,0.22004817199362403 l -0.5097683749552977 0.6915987044780005" fill="#ff0200" stroke="none" /><path d="M 112.45986205192187 83.09580414077388 l 3.7135517923373977 -5.038146214577783 a27.258864449230128,27.258864449230128 0 0,0 0.37428628998200364,0.2808714097715609 l -3.7994910712301677 4.9736557775422074" fill="#ff4e07" stroke="none" /><path d="M 112.7482090630111 83.31218511350987 l 9.178645216300344 -12.015141226606886 a36.11989241701215,36.11989241701215 0 0,0 0.4894934372727223,0.38063305749785525 l -9.383548598208291 11.85580711748824" fill="#ffc412" stroke="none" /><path d="M 113.03279911837588 83.53348406188908 l 4.68296476143412 -5.916772995682933 a28.545751230942916,28.545751230942916 0 0,0 0.381628460367506,0.30741287361079317 l -4.7838439921568865 5.835511828278732" fill="#ff6008" stroke="none" /><path d="M 113.31354834802062 83.75963576809568 l 0.9701256697758154 -1.1833955768990594 a22.53021858130864,22.53021858130864 0 0,0 0.29699727429756484,0.24776568929312476 l -0.9902972782352729 1.1665677036940645" fill="#ff0b01" stroke="none" /><path d="M 113.59037401385872 83.9905735841838 l 4.296493850005909 -5.0612589519268445 a27.638991006289903,27.638991006289903 0 0,0 0.3590706621507447,0.31015668587557377 l -4.382743991919514 4.986758133586551" fill="#ff5407" stroke="none" /><path d="M 113.86319453409587 84.22622945171908 l 0.5093300609314662 -0.5795241129103043 a21.771534385761857,21.771534385761857 0 0,0 0.27860822424626996,0.24913319210457732 l -0.5192033120011117 0.57069539092234" fill="#ff0000" stroke="none" /><path d="M 114.13192950727249 84.46653392183569 l 3.5545341491699975 -3.9070556926706117 a26.282025861660042,26.282025861660042 0 0,0 0.33111626631198504,0.30647627281954865 l -3.6210801867959477 3.845461673718688" fill="#ff4106" stroke="none" /><path d="M 114.39649973595853 84.71141617570332 l 0.5121754153883946 -0.5439125422515828 a21.747104082271576,21.747104082271576 0 0,0 0.2695890259698135,0.25826018852859667 l -0.5214369272235202 0.535040223417406" fill="#ff0000" stroke="none" /><path d="M 114.91283532996326 85.21462403516908 l 9.646577211553451 -9.564128329105579 a34.584145265494705,34.584145265494705 0 0,0 0.4143727342721967,0.42518292960874143 l -9.80933674697646 9.397122707429094" fill="#ffb010" stroke="none" /><path d="M 115.6541949942343 86.00192230759917 l 0.6126116325406908 -0.547801099368671 a21.821814490498735,21.821814490498735 0 0,0 0.24730240062318157,0.28138473523364604 l -0.6219250971224626 0.5372040863237272" fill="#ff0100" stroke="none" /><path d="M 116.1254893667686 86.54754324733833 l 2.9202369810708326 -2.4361655514365887 a24.802983909987002,24.802983909987002 0 0,0 0.2699428983333653,0.3292864438653958 l -2.9616266986428252 2.3856768258726975" fill="#ff2c04" stroke="none" /><path d="M 117.01052211995028 87.68569379921539 l 0.6051728817802764 -0.43809849680706514 a21.747104082271576,21.747104082271576 0 0,0 0.2163162711182852,0.3042759253566715 l -0.6126042514285223 0.4276453447408896" fill="#ff0000" stroke="none" /><path d="M 117.21940702142032 87.97951657250589 l 4.002878699684246 -2.7943202116059176 a25.88172749437893,25.88172749437893 0 0,0 0.251188652014448,0.366491750152895 l -4.0502570885140186 2.7251937263829737" fill="#ff3b05" stroke="none" /><path d="M 117.62189284568427 88.57770195909679 l 4.082398767368159 -2.646161558865406 a25.864992362936047,25.864992362936047 0 0,0 0.23830563945045685,0.37465604673074904 l -4.127222098444506 2.575691837455985" fill="#ff3b05" stroke="none" /><line stroke="#e1ed5e" stroke-width="0.3" x1="172.87174338648825" x2="177.1583165268699" y1="56.24261187166439" y2="53.66864786411523" /><path d="M 173.72905801456457 55.72781907015455 a86.0,86.0 0 0,1 12.242430191666344,42.057860355516425" fill="none" id="id111" stroke="none" /><text fill="#e1ed5e" style="font-size:6.75px; font-family:Arial;" text-anchor="middle"><textPath startOffset="22.145653131862474" xlink:href="#id111">March</textPath></text><path d="M 118.00360718960297 89.18935116829356 l 4.266456254707861 -2.5618843957071094 a25.976535002419194,25.976535002419194 0 0,0 0.22627577007984614,0.3842657262039552 l -4.309805734917474 2.4882675012095974" fill="#ff3c05" stroke="none" /><path d="M 118.36410011445183 89.81374322990088 l 3.3999204391883606 -1.8858785552049135 a24.88792964414128,24.88792964414128 0 0,0 0.20402727746119645,0.3753872104574232 l -3.4317930662648983 1.827236511272887" fill="#ff2d04" stroke="none" /><path d="M 119.0197475246899 91.09779779509293 l 1.933538399435096 -0.904993601012811 a23.134849915091028,23.134849915091028 0 0,0 0.16526604240525947,0.3611361284274532 l -1.948788906695407 0.8716684903706736" fill="#ff1402" stroke="none" /><path d="M 119.16976305983485 91.42560881287824 l 2.6631061423464204 -1.1911735041289393 a23.917366730862277,23.917366730862277 0 0,0 0.16442178034814534,0.37622921058500025 l -2.683161804711536 1.1452822237680897" fill="#ff1f03" stroke="none" /><path d="M 119.58574465831526 92.42381321644754 l 5.71005460948853 -2.208771788894084 a27.12236853339911,27.12236853339911 0 0,0 0.16424443141548087,0.43567786774187534 l -5.747129724718452 2.110425640958051" fill="#ff4c07" stroke="none" /><path d="M 119.83427380445688 93.10060997987247 l 4.76929449242971 -1.659008197049529 a26.049601781665352,26.049601781665352 0 0,0 0.14329089371508777,0.42361406614541014 l -4.797070807717163 1.5768924564299573" fill="#ff3d05" stroke="none" /><path d="M 120.16314734710363 94.1308016681162 l 5.574744784787155 -1.6227269596505074 a26.80611937537355,26.80611937537355 0 0,0 0.12481632257870423,0.4429290959125968 l -5.601779599440441 1.5267899398348974" fill="#ff4806" stroke="none" /><path d="M 120.35273937422433 94.82641323984039 l 3.334591297546012 -0.8476400680183621 a24.44063843008529,24.44063843008529 0 0,0 0.09987198272412419,0.4075117709120914 l -3.348650806786427 0.7902724724981758" fill="#ff2703" stroke="none" /><path d="M 120.43855184770803 95.1765574152323 l 2.290895106043321 -0.5406450072422535 a23.353826121604826,23.353826121604826 0 0,0 0.0887324602654721,0.3909715921673413 l -2.2998384278664594 0.501239081135886" fill="#ff1702" stroke="none" /><path d="M 120.51834098615036 95.52812308129327 l 7.888987444131655 -1.7193680954611381 a29.0741779483336,29.0741779483336 0 0,0 0.10209506846713495,0.48856186144607616 l -7.917340223423158 1.5836897827296574" fill="#ff6709" stroke="none" /><path d="M 120.592083275326 95.88100663000786 l 1.7545575523117227 -0.35096064971246593 a22.789314277040425,22.789314277040425 0 0,0 0.0734398758797382,0.3842684633404609 l -1.7603237204736177 0.32078962133869054" fill="#ff0f01" stroke="none" /><path d="M 120.65975698304385 96.23510406497455 l 4.00626158796891 -0.7300743169230893 a25.072240221237678,25.072240221237678 0 0,0 0.07352754713826028,0.4240873527081983 l -4.018203952599405 0.6611939312942984" fill="#ff3004" stroke="none" /><path d="M 120.7213421655516 96.59031103205396 l 0.9681522099819828 -0.1593090777274114 a21.98117179124726,21.98117179124726 0 0,0 0.058070600572897826,0.37285491271607163 l -0.9707443026931458 0.1426659830798985" fill="#ff0300" stroke="none" /><path d="M 120.77682067341334 96.94652285012252 l 15.710564822653994 -2.308912005917693 a36.87932371664121,36.87932371664121 0 0,0 0.08667604053103062,0.6271446516612594 l -15.747885379740238 2.038879046056348" fill="#ffce13" stroke="none" /><path d="M 120.82617615685814 97.30363454192243 l 1.9774415436725747 -0.25601939758732456 a22.99394608517461,22.99394608517461 0 0,0 0.04732144659328671,0.39188946173172035 l -1.9815450765255251 0.22203625893219123" fill="#ff1202" stroke="none" /><path d="M 120.86939407059847 97.66154086499901 l 3.8659766995647677 -0.4331907528419647 a24.890170956388097,24.890170956388097 0 0,0 0.04393424228931563,0.4250239402174046 l -3.8728433343357493 0.3667622903416287" fill="#ff2d04" stroke="none" /><path d="M 120.93736805541906 98.37931529534042 l 1.617125500974132 -0.12517574119185418 a22.62196296261159,22.62196296261159 0 0,0 0.026646559731695094,0.38743513038287425 l -1.6190360218708932 0.09739718665464579" fill="#ff0d01" stroke="none" /><path d="M 120.96210409425399 98.7389718711861 l 6.621417333481021 -0.39832802435249637 a27.63338772567287,27.63338772567287 0 0,0 0.024420559719940126,0.4737523345618794 l -6.627279482657533 0.28460389641388634" fill="#ff5307" stroke="none" /><path d="M 120.98066250479742 99.09900007780936 l 5.801593966178307 -0.2491454076301497 a26.80694118986405,26.80694118986405 0 0,0 0.015797347041983427,0.45992252270981304 l -5.8050160002171385 0.1495166203562167" fill="#ff4806" stroke="none" /><path d="M 120.99303781780057 99.45929381324524 l 0.765527802823068 -0.01971728068665857 a21.765781684328367,21.765781684328367 0 0,0 0.00641423946485563,0.3735972921171509 l -0.7657534738865897 0.006573072600441298" fill="#ff0000" stroke="none" /><line stroke="#e1ed5e" stroke-width="0.3" x1="184.99686870605535" x2="189.99668451229388" y1="99.2704041080226" y2="99.22748670261217" /><path d="M 185.99683186730306 99.26182062694052 a86.0,86.0 0 0,1 -10.086455211305974,41.156179273409016" fill="none" id="id112" stroke="none" /><text fill="#e1ed5e" style="font-size:6.75px; font-family:Arial;" text-anchor="middle"><textPath startOffset="21.40746469413373" xlink:href="#id112">April</textPath></text><path d="M 120.99922638620191 99.81974689727618 l 1.8330270473445178 -0.015734332617017288 a22.833094576261537,22.833094576261537 0 0,0 0.0,0.3919748706816881 l -1.8330270473445178 -0.015734332617017066" fill="#ff1001" stroke="none" /><path d="M 120.99303781780057 100.54070618675476 l 4.884440810207662 0.12580586896658055 a25.886060698056106,25.886060698056106 0 0,0 -0.01525467159795679,0.44412311926775233 l -4.88156145161286 -0.20963525279844356" fill="#ff3b05" stroke="none" /><path d="M 120.98066250479742 100.90099992219065 l 5.980285986287801 0.25681921183809314 a26.985797907159863,26.985797907159863 0 0,0 -0.0238482626858588,0.46264992499108293 l -5.9749961341453695 -0.3594409302059067" fill="#ff4b06" stroke="none" /><path d="M 120.93736805541906 101.62068470465957 l 3.829630280128193 0.2964376039565533 a24.841086218182852,24.841086218182852 0 0,0 -0.03655942777414811,0.42487596809037664 l -3.823977229656304 -0.3621346194225873" fill="#ff2c04" stroke="none" /><path d="M 120.9064616781168 101.97986365728391 l 5.515919618161578 0.5223633227199055 a26.540598584534234,26.540598584534234 0 0,0 -0.046847451982531624,0.45320660134847657 l -5.506139773697381 -0.6169744463513135" fill="#ff4406" stroke="none" /><path d="M 120.82617615685814 102.69636545807757 l 4.453151826570974 0.5765496591551191 a25.490319665676854,25.490319665676854 0 0,0 -0.0599089071553197,0.43347100858716686 l -4.442598402860445 -0.652908975942371" fill="#ff3605" stroke="none" /><path d="M 120.77682067341334 103.0534771498775 l 3.8002647403002165 0.5585080475205082 a24.841086218182852,24.841086218182852 0 0,0 -0.0656260189071158,0.42136611831316667 l -3.7901172292548333 -0.6236623477651254" fill="#ff2c04" stroke="none" /><path d="M 120.7213421655516 103.40968896794604 l 1.696938682827632 0.27923061449838427 a22.71975888698094,22.71975888698094 0 0,0 -0.06662859512319774,0.384296030810477 l -1.6918952702122 -0.3083196782294493" fill="#ff0e01" stroke="none" /><path d="M 120.65975698304385 103.76489593502545 l 1.0148137623623896 0.18493287272748626 a22.031526606392365,22.031526606392365 0 0,0 -0.07099786153042043,0.371490812367801 l -1.01148960854981 -0.2023262501286018" fill="#ff0400" stroke="none" /><path d="M 120.592083275326 104.11899336999214 l 7.377566526327846 1.4757199260665486 a28.523711660515904,28.523711660515904 0 0,0 -0.10016208541105764,0.4793118377749814 l -7.351146730092424 -1.602148215126939" fill="#ff6008" stroke="none" /><path d="M 120.51834098615036 104.47187691870673 l 4.647854769856956 1.0129783144189706 a25.756961112639576,25.756961112639576 0 0,0 -0.09786313028906009,0.43120300901295106 l -4.629780778010232 -1.0926156573709387" fill="#ff3905" stroke="none" /><path d="M 120.43855184770803 104.8234425847677 l 1.3188680071546297 0.3112492585970927 a22.355097384424184,22.355097384424184 0 0,0 -0.09134981912031066,0.3727384352130874 l -1.3133306615180231 -0.33384351841827964" fill="#ff0901" stroke="none" /><path d="M 120.35273937422433 105.17358676015961 l 4.76123999221409 1.2102885873366638 a25.912657603384975,25.912657603384975 0 0,0 -0.1132883118236204,0.43017417257391977 l -4.73976219958574 -1.2918432642833868" fill="#ff3c05" stroke="none" /><path d="M 120.26092885502905 105.52220625578681 l 1.4205735359425105 0.3871836342310508 a22.47239272534082,22.47239272534082 0 0,0 -0.10463735463695575,0.37132105745871147 l -1.413717689230975 -0.41151261559277075" fill="#ff0b01" stroke="none" /><path d="M 120.16314734710363 105.8691983318838 l 4.307864933482696 1.253956698640565 a25.48665885567372,25.48665885567372 0 0,0 -0.1258842879677409,0.419027852998839 l -4.285704325511325 -1.3277221552301275" fill="#ff3605" stroke="none" /><path d="M 120.05942366710727 106.21446072829308 l 4.5520354365581905 1.41023221423234 a25.765478099177475,25.765478099177475 0 0,0 -0.13451454831134466,0.4213649067144769 l -4.52715617246959 -1.4881661546382006" fill="#ff3905" stroke="none" /><path d="M 119.94978838288452 106.5578916946017 l 1.6486581809534386 0.5419466905918341 a22.735448072708643,22.735448072708643 0 0,0 -0.12506074759439648,0.36971987842427034 l -1.639112011786677 -0.570168243490265" fill="#ff0e01" stroke="none" /><path d="M 119.83427380445688 106.89939002012753 l 5.704256572423403 1.9842365420599053 a27.03951469067519,27.03951469067519 0 0,0 -0.15626242404545904,0.43709381113851276 l -5.669353978334001 -2.0818653095793396" fill="#ff4b07" stroke="none" /><path d="M 119.71291397450082 107.23885506374661 l 4.554194245909194 1.6723632092611629 a25.851544489455158,25.851544489455158 0 0,0 -0.15654872547926563,0.4152640934411963 l -4.524814836615488 -1.750295582896518" fill="#ff3b05" stroke="none" /><path d="M 119.4528033332814 107.91128576633889 l 4.163504681852991 1.693261108093083 a25.494652869354027,25.494652869354027 0 0,0 -0.1683547359758636,0.4039900789524126 l -4.133824101340641 -1.7644836964867736" fill="#ff3605" stroke="none" /><path d="M 119.31412917781788 108.2440532568976 l 4.6239517141606195 1.9736900296102273 a26.02756221123834,26.02756221123834 0 0,0 -0.17892848176182857,0.40942338236385295 l -4.5893893503818255 -2.052775481749925" fill="#ff3d05" stroke="none" /><path d="M 119.16976305983485 108.57439118712176 l 6.8433691707241975 3.060951985923182 a28.496741203145902,28.496741203145902 0 0,0 -0.20356923245128122,0.4448355113032319 l -6.78981547341786 -3.1779764794411025" fill="#ff5f08" stroke="none" /><path d="M 119.0197475246899 108.90220220490707 l 4.984841307016068 2.3331574310765624 a26.503841063686473,26.503841063686473 0 0,0 -0.19640701967825927,0.4104151314840176 l -4.944055029377896 -2.4183850646256833" fill="#ff4406" stroke="none" /><path d="M 118.70294669586154 109.54985784667822 l 4.0179166334882845 2.0515768618485883 a25.51138800079691,25.51138800079691 0 0,0 -0.20250202518962598,0.3883243341939732 l -3.9821065393237096 -2.1202474391470645" fill="#ff3605" stroke="none" /><path d="M 118.5362547648365 109.86951160357373 l 0.8311744774635424 0.44255359316071186 a21.941649985295093,21.941649985295093 0 0,0 -0.1798741467657657,0.33094817040163155 l -0.8234549810824379 -0.4567565970369467" fill="#ff0300" stroke="none" /><line stroke="#e1ed5e" stroke-width="0.3" x1="174.33088141563837" x2="178.70328620479359" y1="141.23008692659167" y2="143.65538615756765" /><path d="M 175.20536237346943 141.71514677278685 a86.0,86.0 0 0,1 -30.301960400862466,31.631185727798858" fill="none" id="id113" stroke="none" /><text fill="#e1ed5e" style="font-size:6.75px; font-family:Arial;" text-anchor="middle"><textPath startOffset="22.145653131862474" xlink:href="#id113">May</textPath></text><path d="M 118.36410011445183 110.18625677009912 l 2.683284634087341 1.4883727544354537 a24.06843117629759,24.06843117629759 0 0,0 -0.20351192062808154,0.35958606361421797 l -2.6573393484378807 -1.5342155881487944" fill="#ff2103" stroke="none" /><path d="M 118.18653347947321 110.5 l 3.34459455427916 1.9310025662432286 a24.86200513248646,24.86200513248646 0 0,0 -0.21656735036287997,0.3677787070612712 l -3.3109534937865153 -1.9881324415980492" fill="#ff2d04" stroke="none" /><path d="M 118.00360718960297 110.81064883170644 l 4.056691437573028 2.4359266500503733 a25.73185841547525,25.73185841547525 0 0,0 -0.23064571847096343,0.37674244742364793 l -4.014277754646661 -2.505206213598578" fill="#ff3905" stroke="none" /><path d="M 117.423217284605 111.72311816256416 l 3.8419857803598907 2.5850594954037134 a25.63070052273568,25.63070052273568 0 0,0 -0.24875237234030786,0.3629371452992217 l -3.7970436712042623 -2.650631375772979" fill="#ff3805" stroke="none" /><path d="M 117.21940702142032 112.02048342749411 l 1.1687876513004776 0.8159045532311432 a22.42539987856594,22.42539987856594 0 0,0 -0.22306321162192758,0.3137663421175522 l -1.1546093411485894 -0.8358481220581995" fill="#ff0a01" stroke="none" /><path d="M 117.01052211995028 112.31430620078461 l 4.885318605459456 3.536593925324711 a27.031072414545523,27.031072414545523 0 0,0 -0.2753281808549802,0.37353555563796215 l -4.823888405020647 -3.6199357902315508" fill="#ff4b07" stroke="none" /><path d="M 116.79662413953412 112.60449989151573 l 1.5276104747658477 1.1463473793013321 a22.909896875919056,22.909896875919056 0 0,0 -0.23875169668150878,0.3125336349885224 l -1.5077068007300345 -1.1724019275307318" fill="#ff1101" stroke="none" /><path d="M 116.57777611688842 112.89097897827486 l 2.9673467479709834 2.3074267790585865 a24.75890476913298,24.75890476913298 0 0,0 -0.26378086368589443,0.33327850422616834 l -2.9272994536435273 -2.358025227199438" fill="#ff2b04" stroke="none" /><path d="M 116.35404254752997 113.17365903436017 l 1.9312275309520328 1.5556601945109805 a23.479862580284042,23.479862580284042 0 0,0 -0.2555427274554211,0.31172057682933946 l -1.9042379842579842 -1.588583053038813" fill="#ff1902" stroke="none" /><path d="M 116.1254893667686 113.45245675266167 l 5.171383261981966 4.314151843764579 a27.734620328820665,27.734620328820665 0 0,0 -0.3081256048466648,0.36297118773855797 l -5.096563093628187 -4.402289813952693" fill="#ff5507" stroke="none" /><path d="M 115.89218393027572 113.72728997021213 l 1.769376901313403 1.5283456255910002 a23.338062225468896,23.338062225468896 0 0,0 -0.2644857427765556,0.3009362243015726 l -1.742880094578262 -1.558494127703866" fill="#ff1702" stroke="none" /><path d="M 115.6541949942343 113.99807769240083 l 3.6770064024424083 3.288001798610642 a25.93267999278985,25.93267999278985 0 0,0 -0.29958703759917144,0.32929863424592387 l -3.620021664001357 -3.3506380084142378" fill="#ff3c05" stroke="none" /><path d="M 115.41159269507618 114.26474011684316 l 1.8580957556546418 1.7198256916749997 a23.531861024410144,23.531861024410144 0 0,0 -0.2769410558815259,0.29410180425027027 l -1.828298866036856 -1.7514689558697671" fill="#ff1a02" stroke="none" /><path d="M 115.16444852881244 114.52719865689866 l 5.8418273218763845 5.596338426877332 a29.089867134061304,29.089867134061304 0 0,0 -0.348542596366627,0.3576354087990073 l -5.74489792435895 -5.6957965277440765" fill="#ff6709" stroke="none" /><path d="M 114.91283532996324 114.78537596483092 l 2.666358846582637 2.64356959167029 a24.754720986272257,24.754720986272257 0 0,0 -0.3017813613054297,0.2992020489299027 l -2.6205855651472425 -2.6889516508288542" fill="#ff2b04" stroke="none" /><path d="M 114.65682725009322 115.03919595460226 l 4.14093921385286 4.248968430246984 a26.933052358951493,26.933052358951493 0 0,0 -0.333876884222154,0.31984650248415153 l -4.067389843765394 -4.319427063036716" fill="#ff4a06" stroke="none" /><path d="M 114.39649973595853 115.28858382429668 l 22.309387961029216 23.691796906648655 a53.54243432599353,53.54243432599353 0 0,0 -0.674558766382619,0.6243615235861115 l -21.899399423332632 -24.071276176367146" fill="#70ff27" stroke="none" /><path d="M 114.13192950727249 115.5334660781643 l 0.7058792002029239 0.7758848928584909 a22.04893413150929,22.04893413150929 0 0,0 -0.2821580820192503,0.2523074968146878 l -0.6924560913602957 -0.7878879195565657" fill="#ff0400" stroke="none" /><path d="M 113.86319453409587 115.77377054828091 l 2.568153926867665 2.922087739261396 a24.890245666796325,24.890245666796325 0 0,0 -0.32336046531646206,0.27931106837024716 l -2.5176139817883474 -2.965742940096361" fill="#ff2d04" stroke="none" /><path d="M 113.59037401385872 116.0094264158162 l 0.7723854613713742 0.9098681313598613 a22.193498771428843,22.193498771428843 0 0,0 -0.2925585749846645,0.24406276845849376 l -0.7566525522248146 -0.9229930837302253" fill="#ff0601" stroke="none" /><path d="M 113.31354834802062 116.24036423190432 l 2.7364061283057417 3.3379705431202695 a25.316244414507576,25.316244414507576 0 0,0 -0.33845314842243535,0.2726338985278145 l -2.678702209528054 -3.3844527354414877" fill="#ff3304" stroke="none" /><path d="M 113.03279911837588 116.46651593811092 l 1.2297187267599576 1.5537094395198296 a22.981469447000674,22.981469447000674 0 0,0 -0.3114427458231275,0.24217976289667242 l -1.2028660363015995 -1.5745902540372954" fill="#ff1202" stroke="none" /><path d="M 112.7482090630111 116.68781488649013 l 3.185268360664124 4.169618532597364 a26.24706139060973,26.24706139060973 0 0,0 -0.36039341437418765,0.27044593691244057 l -3.1132219573791704 -4.22368349677382" fill="#ff4006" stroke="none" /><path d="M 112.45986205192187 116.90419585922612 l 3.6498972369951517 4.951786585044702 a27.151580303015926,27.151580303015926 0 0,0 -0.37756081175413264,0.2733249110504534 l -3.5643554148670513 -5.013712267468232" fill="#ff4d07" stroke="none" /><path d="M 112.16784306229584 117.11559508785304 l 0.821188285260058 1.1551041634446897 a22.417256444069178,22.417256444069178 0 0,0 -0.31555481177540695,0.2202817658409386 l -0.8012383823108926 -1.1690307450907502" fill="#ff0a01" stroke="none" /><path d="M 111.8722381534696 117.32195027204791 l 0.5596419908075563 0.8165343896917482 a21.98991290900984,21.98991290900984 0 0,0 -0.3132030750242127,0.21073700668541662 l -0.5455426276863403 -0.826021070434286" fill="#ff0400" stroke="none" /><path d="M 111.5731344415666 117.5232005979908 l 2.1430973066944676 3.24492247073019 a24.88875145863178,24.88875145863178 0 0,0 -0.3585335672104963,0.23239712658617587 l -2.0870781072269615 -3.2812334390202604" fill="#ff2d04" stroke="none" /><path d="M 111.27062007382361 117.71928675628689 l 1.0281619339784773 1.616441333372221 a22.915724287760774,22.915724287760774 0 0,0 -0.333735738188667,0.2082757836182025 l -1.0002620670000955 -1.633852913831971" fill="#ff1101" stroke="none" /><path d="M 110.96478420261333 117.91015095944535 l 1.6636836789441962 2.7175022588729334 a24.186324200480044,24.186324200480044 0 0,0 -0.35596193093573947,0.21374491190991773 l -1.6167889914510203 -2.7456611713187744" fill="#ff2303" stroke="none" /><line stroke="#e1ed5e" stroke-width="0.3" x1="143.1302829299769" x2="145.66735839644613" y1="173.24464959558577" y2="177.55315839532614" /><path d="M 143.63769802327073 174.10635135553383 a86.0,86.0 0 0,1 -40.68552437913181,11.842963189579606" fill="none" id="id114" stroke="none" /><text fill="#e1ed5e" style="font-size:6.75px; font-family:Arial;" text-anchor="middle"><textPath startOffset="21.407464694133747" xlink:href="#id114">June</textPath></text><path d="M 110.65571695917076 118.09573695890943 l 0.9396171526203423 1.5956753450797705 a22.851772178318328,22.851772178318328 0 0,0 -0.3397378760385319,0.19614775418475885 l -0.9120868087214119 -1.611569996540701" fill="#ff1001" stroke="none" /><path d="M 110.34350942703117 118.27599006163325 l 3.7634528403758676 6.649660561857928 a28.64078287020786,28.64078287020786 0 0,0 -0.42996063121868583,0.23849191429645747 l -3.6487480210010874 -6.7132853915875295" fill="#ff6109" stroke="none" /><path d="M 110.02825361518725 118.45085714620011 l 0.4486013534111753 0.8253759632531062 a21.93940867304828,21.93940867304828 0 0,0 -0.3324459626092118,0.17700874999609498 l -0.43436657501540976 -0.8329551809717697" fill="#ff0300" stroke="none" /><path d="M 109.71004243097381 118.62028667847754 l 2.1152139140105404 4.056201581523969 a25.574593006157087,25.574593006157087 0 0,0 -0.3910145538110115,0.19965481726490233 l -2.0452721384859465 -4.091914350461708" fill="#ff3705" stroke="none" /><path d="M 109.3889696526874 118.78422872680471 l 3.7518757232636566 7.506264728436745 a29.391697183299023,29.391697183299023 0 0,0 -0.45324761379068057,0.22170612043259036 l -3.6224678602109064 -7.569564598966559" fill="#ff6c09" stroke="none" /><path d="M 109.06512990194946 118.94263497670748 l 2.5809071645976176 5.393103337352962 a26.97884983919474,26.97884983919474 0 0,0 -0.41947137901252296,0.19633378572944976 l -2.4879470717135885 -5.436613354652946" fill="#ff4a06" stroke="none" /><path d="M 108.73861861582097 119.09545874513695 l 2.070890203818531 4.525268831521137 a25.976609712827422,25.976609712827422 0 0,0 -0.4070740045591355,0.1820790244669975 l -1.9929027964037682 -4.560151606897985" fill="#ff3c05" stroke="none" /><path d="M 108.4095320186766 119.2426549942271 l 0.3497422940305061 0.8002788128961372 a21.873364672175473,21.873364672175473 0 0,0 -0.34535431015712414,0.14741121896939294 l -0.33595290870295075 -0.806164681524934" fill="#ff0200" stroke="none" /><path d="M 108.07796709384702 119.3841803445677 l 0.576522780281427 1.3834447969265755 a22.498765499445007,22.498765499445007 0 0,0 -0.3577791603458135,0.14550566981232466 l -0.5526891587451727 -1.3931377233181916" fill="#ff0b01" stroke="none" /><path d="M 107.74402155503746 119.51999308798841 l 1.7645498848168517 4.447818399037119 a25.78505222613299,25.78505222613299 0 0,0 -0.41284046530851803,0.1596955608046344 l -1.6879371570148043 -4.477453847979794" fill="#ff3a05" stroke="none" /><path d="M 106.72888874123015 119.89276391827305 l 1.468199960824658 4.340472302141714 a25.582064046979802,25.582064046979802 0 0,0 -0.41720358381571276,0.13714310471635796 l -1.3934736393612113 -4.365036328260092" fill="#ff3705" stroke="none" /><path d="M 106.38641147887787 120.00534299687104 l 0.6720055083299883 2.1050476835686465 a23.20970974413464,23.20970974413464 0 0,0 -0.38059433136778564,0.1179090967391266 l -0.6357705440905783 -2.1162733681144172" fill="#ff1502" stroke="none" /><path d="M 106.0420521117495 120.11202640906438 l 1.6701954652546898 5.559537502197325 a26.804998719250143,26.804998719250143 0 0,0 -0.44182294879963285,0.12860822119892257 l -1.5745125040734502 -5.587389417698766" fill="#ff4806" stroke="none" /><path d="M 105.3480935250658 120.30758222061773 l 1.5566028375938632 5.910674516279199 a27.112207917880216,27.112207917880216 0 0,0 -0.4510886635942771,0.11466497431716612 l -1.4549088807741888 -5.936524722431635" fill="#ff4c07" stroke="none" /><path d="M 104.64783097203109 120.47920084513623 l 0.1694868490588339 0.7467903293755875 a21.765781684328367,21.765781684328367 0 0,0 -0.3650822067087285,0.07956796773741427 l -0.15664222573096953 -0.7495897552467207" fill="#ff0000" stroke="none" /><path d="M 104.29559338865022 120.5559693870025 l 0.21668586523311334 1.036920306306656 a22.059318878252867,22.059318878252867 0 0,0 -0.37133555953598374,0.07427751176607571 l -0.1988538201661709 -1.0404872147355932" fill="#ff0500" stroke="none" /><path d="M 103.2317021107853 120.74984581791261 l 0.9313674302601915 5.98004702018414 a27.052140749665583,27.052140749665583 0 0,0 -0.4594675926177619,0.06752591347928744 l -0.8285747320347441 -5.995154006962309" fill="#ff4b07" stroke="none" /><path d="M 102.875027216393 120.80226474461374 l 0.2537643084853595 1.8361121236511815 a22.85356522811578,22.85356522811578 0 0,0 -0.38907887704367583,0.050374050263792484 l -0.2222076095509083 -1.8401977701153687" fill="#ff1001" stroke="none" /><path d="M 102.15924093988457 120.88869738790638 l 0.24933582124564754 2.41209789132837 a23.424950430237082,23.424950430237082 0 0,0 -0.4003440446236411,0.03791299726199287 l -0.20789221323699117 -2.4160226440955466" fill="#ff1802" stroke="none" /><path d="M 101.08105385017728 120.97215588758144 l 0.25303979799033943 4.908904480887107 a25.91542188848938,25.91542188848938 0 0,0 -0.4444793984473941,0.019087857846473003 l -0.16873463894211577 -4.91252490715941" fill="#ff3c05" stroke="none" /><path d="M 100.72087961077811 120.9876233191556 l 0.044616851544632206 1.2989709514667551 a22.29973697192786,22.29973697192786 0 0,0 -0.3826918240193899,0.009856783885384942 l -0.022311713454498484 -1.2995454527021852" fill="#ff0801" stroke="none" /><line stroke="#e1ed5e" stroke-width="0.3" x1="101.45913802915013" x2="101.54496967792366" y1="184.9874750549273" y2="189.98673829345242" /><path d="M 101.47630435890484 185.9873277026323 a86.0,86.0 0 0,1 -42.54439059252881,-10.42667462771756" fill="none" id="id115" stroke="none" /><text fill="#e1ed5e" style="font-size:6.75px; font-family:Arial;" text-anchor="middle"><textPath startOffset="22.145653131862474" xlink:href="#id115">July</textPath></text><path d="M 100.36049292484886 120.99690560180557 l 0.08991375563993681 5.237025498536809 a26.237797299989566,26.237797299989566 0 0,0 -0.4504066804887884,0.003866199647192233 l -6.414451698014871e-16 -5.237797299989566" fill="#ff4006" stroke="none" /><path d="M 100.0 121.0 l 2.006094424754292e-16 1.638100410788656 a22.638100410788656,22.638100410788656 0 0,0 -0.38861309667177163,-0.0033357760493609822 l 0.02812017182291927 -1.63785903293373" fill="#ff0d01" stroke="none" /><path d="M 99.63950707515114 120.99690560180557 l -0.09018949389323878 5.253085869424373 a26.253860037758404,26.253860037758404 0 0,0 -0.45054960056468024,-0.011604559501084185 l 0.18035240852866294 -5.250763592573241" fill="#ff4006" stroke="none" /><path d="M 98.91894614982273 120.97215588758144 l -0.26933914083658167 5.225107377699829 a26.232044598556072,26.232044598556072 0 0,0 -0.4495118763763789,-0.027041518246343668 l 0.35899536934540693 -5.219713881628794" fill="#ff4006" stroke="none" /><path d="M 98.55909050195518 120.95050786540614 l -0.2696707229624663 3.9209531272859777 a24.93021573519785,24.93021573519785 0 0,0 -0.42669964296059,-0.03302925100229783 l 0.3369393606982924 -3.9157461092886265" fill="#ff2e04" stroke="none" /><path d="M 98.19965949673042 120.92268563240118 l -0.22649862396634804 2.632257340660259 a23.64198416613697,23.64198416613697 0 0,0 -0.4040532590319579,-0.03826426372291614 l 0.27165144638332117 -2.6279813214321597" fill="#ff1b02" stroke="none" /><path d="M 97.84075906011543 120.88869738790638 l -0.39001260029770135 3.773018116970628 a24.79312213610102,24.79312213610102 0 0,0 -0.4229755023138808,-0.04739528727674103 l 0.45472400421238146 -3.765767069186916" fill="#ff2c04" stroke="none" /><path d="M 97.12497278360702 120.80226474461374 l -0.8191033193117474 5.926623582677706 a26.982958911647234,26.982958911647234 0 0,0 -0.4582925723906645,-0.0673532259699478 l 0.9207209973100968 -5.911689283408877" fill="#ff4a06" stroke="none" /><path d="M 96.41257539226777 120.69131181640829 l -0.1288655862428693 0.7432624567519521 a21.75435099186961,21.75435099186961 0 0,0 -0.36740536623596476,-0.06695349664488254 l 0.14160568602989124 -0.7409407861757036" fill="#ff0000" stroke="none" /><path d="M 95.35216902796893 120.47920084513623 l -0.8600176103803882 3.789396275234497 a24.885763042302692,24.885763042302692 0 0,0 -0.41579114672344003,-0.09812557848613586 l 0.9249409108437161 -3.7740745531021336" fill="#ff2d04" stroke="none" /><path d="M 93.27111125876986 119.89276391827306 l -8.790144357913698 25.986499887877525 a48.43291479692999,48.43291479692999 0 0,0 -0.7852918062566627,-0.2731652544676332 l 9.234941936215384 -25.8317762008413" fill="#a7ff21" stroke="none" /><path d="M 92.93061703081489 119.77432235084164 l -1.515758818627492 4.239847185577776 a25.502646883034334,25.502646883034334 0 0,0 -0.4109701127025281,-0.15091391791357625 l 1.588318082984139 -4.213202418655481" fill="#ff3605" stroke="none" /><path d="M 92.59220618246901 119.65005319985036 l -1.6327249982597127 4.330997037282853 a25.628533920897095,25.628533920897095 0 0,0 -0.41033447503957604,-0.15872618993380466 l 1.7068317357928169 -4.302330959211008" fill="#ff3805" stroke="none" /><path d="M 92.25597844496254 119.51999308798841 l -0.9699955087533044 2.445022330022777 a23.630404052861763,23.630404052861763 0 0,0 -0.37577466732002435,-0.15282428583614238 l 1.0118246372637696 -2.4280107876073433" fill="#ff1b02" stroke="none" /><path d="M 91.92203290615298 119.3841803445677 l -2.036610331997602 4.887123394835537 a26.294502499833975,26.294502499833975 0 0,0 -0.41515879737087436,-0.17720660372955635 l 2.1202042045389073 -4.851442141446577" fill="#ff4106" stroke="none" /><path d="M 91.26138138417905 119.09545874513695 l -2.1469956986084715 4.69157307249219 a26.159500792167503,26.159500792167503 0 0,0 -0.4067320118157329,-0.19037111863299205 l 2.227216424295694 -4.654025722288671" fill="#ff3f05" stroke="none" /><path d="M 90.93487009805054 118.94263497670748 l -0.36201135769938014 0.7564645052518157 a21.838624332349845,21.838624332349845 0 0,0 -0.3367721266784514,-0.1647321230249103 l 0.37494373363990097 -0.7501386321296843" fill="#ff0100" stroke="none" /><path d="M 90.6110303473126 118.78422872680471 l -2.3481999532191553 4.697972903226438 a26.25214169836918,26.25214169836918 0 0,0 -0.4013737176697194,-0.20494428014312335 l 2.428500892602457 -4.656970671410478" fill="#ff4006" stroke="none" /><path d="M 89.97174638481275 118.45085714620012 l -2.499737746787607 4.599235902759035 a26.234659462844025,26.234659462844025 0 0,0 -0.3938394698765275,-0.2184561149938905 l 2.578321404820237 -4.555646872331996" fill="#ff4006" stroke="none" /><line stroke="#e1ed5e" stroke-width="0.3" x1="58.13341422392154" x2="55.67067388415222" y1="173.97424548756322" y2="178.32567169271397" /><path d="M 57.64086615596768 174.84453072859336 a86.0,86.0 0 0,1 -31.369924170532247,-30.572349798747897" fill="none" id="id116" stroke="none" /><text fill="#e1ed5e" style="font-size:6.75px; font-family:Arial;" text-anchor="middle"><textPath startOffset="22.145653131862474" xlink:href="#id116">August</textPath></text><path d="M 89.34428304082925 118.09573695890944 l -2.7119475455561197 4.605479820718014 a26.3446331837544,26.3446331837544 0 0,0 -0.38772681702898576,-0.23281881332960294 l 2.790607119142533 -4.5582470068524925" fill="#ff4206" stroke="none" /><path d="M 89.03521579738668 117.91015095944536 l -2.344269135731913 3.8291874545529274 a25.48979669281926,25.48979669281926 0 0,0 -0.3712235323105468,-0.2316709397355191 l 2.4096567968321723 -3.7883807179758606" fill="#ff3605" stroke="none" /><path d="M 88.4268655584334 117.5232005979908 l -2.3424571107138825 3.546778623412666 a25.250499255267677,25.250499255267677 0 0,0 -0.35964371688830266,-0.2419843431115733 l 2.4029971156991907 -3.5060446062439716" fill="#ff3204" stroke="none" /><path d="M 88.1277618465304 117.32195027204791 l -2.9697771817102536 4.332993660981598 a26.253038223267904,26.253038223267904 0 0,0 -0.36954890335241714,-0.25797383515416367 l 3.0437211762364362 -4.281375010022306" fill="#ff4006" stroke="none" /><path d="M 87.54013794807813 116.9041958592261 l -3.582652139185833 4.860555695071387 a27.03824461373533,27.03824461373533 0 0,0 -0.3712570009271502,-0.2785981747901696 l 3.6655621290237494 -4.798338493017202" fill="#ff4b07" stroke="none" /><path d="M 87.2517909369889 116.68781488649013 l -2.77921830323979 3.638085973046957 a25.57817910575199,25.57817910575199 0 0,0 -0.3466331146588574,-0.26954400655037697 l 2.8412613625338756 -3.589840914875787" fill="#ff3705" stroke="none" /><path d="M 86.96720088162412 116.46651593811092 l -2.8831298494603614 3.6427403803718432 a25.645642604381113,25.645642604381113 0 0,0 -0.3428568764249654,-0.2761812300831043 l 2.9452374962405887 -3.5927108564953287" fill="#ff3805" stroke="none" /><path d="M 86.68645165197938 116.24036423190432 l -3.1770881530881927 3.8755309594599274 a26.01135005265305,26.01135005265305 0 0,0 -0.3428861570320842,-0.28604782736493123 l 3.2431486442821695 -3.8204209481831257" fill="#ff3d05" stroke="none" /><path d="M 86.13680546590413 115.77377054828092 l -3.1558538403042204 3.5907823581670977 a25.780494891231132,25.780494891231132 0 0,0 -0.3299105049083439,-0.2950080078181651 l 3.217029372035935 -3.53607882046555" fill="#ff3a05" stroke="none" /><path d="M 85.86807049272751 115.53346607816431 l -3.6203458210407673 3.9793942485646103 a26.37982178602939,26.37982178602939 0 0,0 -0.33234835631555165,-0.307616676932814 l 3.6881239486702864 -3.916659825499419" fill="#ff4206" stroke="none" /><path d="M 85.60350026404147 115.28858382429668 l -1.0169242872536561 1.0799383526405166 a22.483375155350213,22.483375155350213 0 0,0 -0.2787162458833272,-0.26700385873967536 l 1.0353130190022979 -1.0623223635952588" fill="#ff0b01" stroke="none" /><path d="M 85.34317274990678 115.03919595460226 l -3.392207930052607 3.480704173441933 a25.860285607217737,25.860285607217737 0 0,0 -0.3152591458664085,-0.3125646394432358 l 3.451458996048978 -3.4219595237700378" fill="#ff3b05" stroke="none" /><path d="M 85.08716467003676 114.78537596483092 l -1.5270139547195707 1.5139626318215236 a23.15031496959405,23.15031496959405 0 0,0 -0.27737737161266,-0.28461361888732156 l 1.5527781274830401 -1.4875263208664646" fill="#ff1402" stroke="none" /><path d="M 84.83555147118756 114.52719865689866 l -3.5927213752208162 3.4417458068161113 a25.97526492547933,25.97526492547933 0 0,0 -0.3056969139755971,-0.32463952904268556 l 3.6512741229326666 -3.3795648178289355" fill="#ff3c05" stroke="none" /><path d="M 84.3458050057657 113.99807769240083 l -3.710143122566201 3.3176328580764927 a25.97713268568501,25.97713268568501 0 0,0 -0.2943938175844117,-0.334966123283346 l 3.7665480041092056 -3.2534544569818467" fill="#ff3c05" stroke="none" /><path d="M 83.8745106332314 113.45245675266167 l -4.457774480426064 3.7188340178148374 a26.80529756088305,26.80529756088305 0 0,0 -0.2917350485140389,-0.35586932373176605 l 4.520956348178732 -3.641762412384576" fill="#ff4806" stroke="none" /><path d="M 83.4222238831116 112.89097897827486 l -4.184234340658467 3.2536859314111783 a26.300404622083924,26.300404622083924 0 0,0 -0.2740853117297631,-0.35878647131096175 l 4.239471629742526 -3.1813785468593463" fill="#ff4106" stroke="none" /><path d="M 83.20337586046588 112.60449989151573 l -3.4384979635024426 2.5803129752682383 a25.298986310207102,25.298986310207102 0 0,0 -0.2576858132537915,-0.349600295672147 l 3.4822857963400646 -2.5209063703272117" fill="#ff3304" stroke="none" /><path d="M 82.98947788004972 112.3143062007846 l -4.846103402720095 3.508205142731613 a26.982660070014326,26.982660070014326 0 0,0 -0.26839382333926226,-0.3775295244060161 l 4.905612324589318 -3.424498391616093" fill="#ff4a06" stroke="none" /><path d="M 82.576782715395 111.72311816256416 l -4.523702401514391 3.043748862162615 a26.452365592417962,26.452365592417962 0 0,0 -0.25025897980703343,-0.3789239921776575 l 4.575285820242151 -2.9656449916458962" fill="#ff4306" stroke="none" /><path d="M 82.37810715431573 111.42229804090323 l -4.288969975612856 2.7800585203270853 a26.111163158044533,26.111163158044533 0 0,0 -0.24057372010245115,-0.3782218462338671 l 4.336061387341197 -2.7060229994145466" fill="#ff3e05" stroke="none" /><path d="M 81.99639281039703 110.81064883170644 l -5.135619176393254 3.083791757100057 a26.990355242061725,26.990355242061725 0 0,0 -0.2351069307957078,-0.39926296777563314 l 5.187799817318732 -2.995177621030865" fill="#ff4b06" stroke="none" /><line stroke="#e1ed5e" stroke-width="0.3" x1="26.387840678322732" x2="22.057713659400548" y1="142.50000000000003" y2="145.00000000000006" /><path d="M 25.521815274538298 143.00000000000003 a86.0,86.0 0 0,1 -11.493303480769221,-40.785679425670985" fill="none" id="id117" stroke="none" /><text fill="#e1ed5e" style="font-size:6.75px; font-family:Arial;" text-anchor="middle"><textPath startOffset="21.40746469413373" xlink:href="#id117">September</textPath></text><path d="M 81.63589988554817 110.18625677009913 l -3.6404759168419236 2.019310623618914 a25.163013367233674,25.163013367233674 0 0,0 -0.20628236994575716,-0.37953632663264875 l 3.6746036364030106 -1.956519463511678" fill="#ff3104" stroke="none" /><path d="M 81.4637452351635 109.86951160357371 l -1.4798123829166872 0.7879167431391928 a22.676501560617417,22.676501560617417 0 0,0 -0.1799995159062807,-0.34517280557609337 l 1.493119967797917 -0.7623976944585965" fill="#ff0d01" stroke="none" /><path d="M 81.1358732173502 109.22738970284198 l -6.048311656363248 2.958532315889459 a27.733126120656124,27.733126120656124 0 0,0 -0.20551665076132636,-0.4294507568137645 l 6.098207565084486 -2.85426905701059" fill="#ff5507" stroke="none" /><path d="M 80.9802524753101 108.90220220490708 l -1.6036696436259592 0.7505983672442215 a22.770636674983635,22.770636674983635 0 0,0 -0.162664249828036,-0.35545074209742467 l 1.6163183583090512 -0.722958642932108" fill="#ff0f01" stroke="none" /><path d="M 80.83023694016515 108.57439118712176 l -6.092565423609244 2.7251270196767874 a27.674254318973123,27.674254318973123 0 0,0 -0.19024879352882415,-0.4353264710583973 l 6.1384480991550365 -2.620138478842541" fill="#ff5407" stroke="none" /><path d="M 80.5471966667186 107.91128576633889 l -4.334858841396016 1.7629493530298133 a25.67963584012447,25.67963584012447 0 0,0 -0.16256594357016893,-0.4097723737310372 l 4.364483459932309 -1.6882759620852108" fill="#ff3805" stroke="none" /><path d="M 80.41425534168474 107.57618678355246 l -4.917316637943756 1.902123711549331 a26.27238821899874,26.27238821899874 0 0,0 -0.15909722116055897,-0.42202428101533 l 4.949244542918751 -1.8174311503398561" fill="#ff4106" stroke="none" /><path d="M 80.16572619554312 106.89939002012753 l -0.7409133464100952 0.2577281224610521 a21.784459286385154,21.784459286385154 0 0,0 -0.11982964908289091,-0.3542550651803014 l 0.7452284170653535 -0.24497138280658903" fill="#ff0100" stroke="none" /><path d="M 80.05021161711548 106.5578916946017 l -4.563211033028559 1.5000181034444617 a25.80343098655687,25.80343098655687 0 0,0 -0.13471269000634056,-0.42198558275193865 l 4.588288438812155 -1.4214634870011313" fill="#ff3a05" stroke="none" /><path d="M 79.94057633289273 106.21446072829308 l -0.7136417766529006 0.22108804662972173 a21.747104082271576,21.747104082271576 0 0,0 -0.1074137935560617,-0.35754558430509736 l 0.717331890212592 -0.20880485873390087" fill="#ff0000" stroke="none" /><path d="M 79.83685265289637 105.86919833188381 l -14.631848963800351 4.259117986510612 a36.23913022854269,36.23913022854269 0 0,0 -0.16873889522155971,-0.5987948111405589 l 14.702806351096486 -4.007315251467057" fill="#ffc512" stroke="none" /><path d="M 79.73907114497094 105.5222062557868 l -1.9304028752829514 0.5261398877786571 a23.00081944273151,23.00081944273151 0 0,0 -0.1005579607120848,-0.3818349558636806 l 1.9391503167997688 -0.49292442754217375" fill="#ff1202" stroke="none" /><path d="M 79.64726062577567 105.17358676015961 l -1.7051286662304528 0.43343703910199954 a22.759355403341335,22.759355403341335 0 0,0 -0.09300174200264189,-0.3794788442930545 l 1.7123179347493882 -0.40410237020084544" fill="#ff0f01" stroke="none" /><path d="M 79.56144815229197 104.8234425847677 l -13.021440220600459 3.073024436518211 a34.37913990531938,34.37913990531938 0 0,0 -0.13062295016351824,-0.5755488199722385 l 13.072274032321644 -2.8490412826069464" fill="#ffae10" stroke="none" /><path d="M 79.48165901384964 104.47187691870673 l -1.272991885468267 0.27744265650760863 a22.3028748090734,22.3028748090734 0 0,0 -0.07831738302945884,-0.3747770290077655 l 1.2775669793220925 -0.255549176214434" fill="#ff0801" stroke="none" /><path d="M 79.407916724674 104.11899336999214 l -2.0865681922731705 0.4173720762050293 a23.1279018471259,23.1279018471259 0 0,0 -0.07453099379663626,-0.3899776533442166 l 2.0934254783519637 -0.38149185782749817" fill="#ff1402" stroke="none" /><path d="M 79.34024301695615 103.76489593502545 l -4.922217922187792 0.8969920731286332 a26.003281328564515,26.003281328564515 0 0,0 -0.07625794411525816,-0.43983555689676107 l 4.936890683795284 -0.8123634833112794" fill="#ff3d05" stroke="none" /><path d="M 79.2786578344484 103.40968896794605 l -7.415103799074684 1.2201525083598137 a28.514821121936873,28.514821121936873 0 0,0 -0.07533141560901285,-0.4836817273211726 l 7.434956706821964 -1.0926825991071911" fill="#ff6008" stroke="none" /><path d="M 79.22317932658666 103.0534771498775 l -2.9012193619664965 0.4263793372333848 a23.932383522915934,23.932383522915934 0 0,0 -0.056247350417122935,-0.40697780803204303 l 2.9081112289388322 -0.3765132210012561" fill="#ff2003" stroke="none" /><path d="M 79.17382384314188 102.69636545807758 l -4.558732934882764 0.5902192474335106 a25.59678199740055,25.59678199740055 0 0,0 -0.05267807220923385,-0.4362500060610933 l 4.56819309335166 -0.511875564449018" fill="#ff3705" stroke="none" /><path d="M 79.13060592940153 102.33845913500099 l -2.8110929479339584 0.3149888281947849 a23.82868547629664,23.82868547629664 0 0,0 -0.04206058861491371,-0.4068980405591604 l 2.8160859290305384 -0.26668626535269313" fill="#ff1e03" stroke="none" /><path d="M 79.0935383218832 101.97986365728391 l -5.377205333188731 0.5092269357122787 a26.401263673190584,26.401263673190584 0 0,0 -0.038855591254288474,-0.45156086829026554 l 5.38515454714076 -0.4168450200463511" fill="#ff4206" stroke="none" /><path d="M 79.06263194458094 101.62068470465958 l -2.7807705758805312 0.21524922939540755 a23.789088959936247,23.789088959936247 0 0,0 -0.028021325160032414,-0.40742391799135164 l 2.78405586220563 -0.16748188724971255" fill="#ff1d03" stroke="none" /><path d="M 79.03789590574601 101.26102812881392 l -5.257504399165183 0.316278409118651 a26.26700906960638,26.26700906960638 0 0,0 -0.023213044669604017,-0.4503268651755968 l 5.2621590332913595 -0.22597975056632347" fill="#ff4006" stroke="none" /><path d="M 79.01933749520258 100.90099992219065 l -0.765076527202323 0.032855677999756326 a21.765781684328367,21.765781684328367 0 0,0 -0.012826588623896837,-0.37343213274897763 l 0.765527802823068 -0.019717280686658834" fill="#ff0000" stroke="none" /><path d="M 79.00696218219943 100.54070618675478 l -4.515493752066594 0.11630310149418444 a25.516991281413947,25.516991281413947 0 0,0 -0.007519697425774895,-0.43798467631316473 l 4.5168248810910345 -0.03877150921196733" fill="#ff3605" stroke="none" /><line stroke="#e1ed5e" stroke-width="0.3" x1="15.003131293944662" x2="10.003315487706104" y1="100.72959589197737" y2="100.7725132973878" /><path d="M 14.003168132696942 100.73817937305945 a86.0,86.0 0 0,1 10.791469493833604,-42.45332614584628" fill="none" id="id118" stroke="none" /><text fill="#e1ed5e" style="font-size:6.75px; font-family:Arial;" text-anchor="middle"><textPath startOffset="22.145653131862435" xlink:href="#id118">October</textPath></text><path d="M 79.00077361379809 100.18025310272382 l -0.7657534738865897 0.006573072600441052 a21.765781684328367,21.765781684328367 0 0,0 0.0,-0.37365235064851693 l 0.7657534738865897 0.006573072600440771" fill="#ff0000" stroke="none" /><path d="M 79.00077361379809 99.81974689727619 l -7.490861958354565 -0.06430004064132627 a28.491137922528864,28.491137922528864 0 0,0 0.00839615980311477,-0.48903421579650547 l 7.488654366952784 0.19288117240688413" fill="#ff5f08" stroke="none" /><path d="M 79.00696218219943 99.45929381324524 l -7.809205130827576 -0.20113742301245863 a28.811794994639826,28.811794994639826 0 0,0 0.016978808630535473,-0.49431948777290663 l 7.80460163520019 0.3351631753495038" fill="#ff6409" stroke="none" /><path d="M 79.01933749520258 99.09900007780938 l -0.8218787942463174 -0.03529501175173709 a21.82263630498923,21.82263630498923 0 0,0 0.01928540208037824,-0.3741316482227395 l 0.8211518027093688 0.04939845335118857" fill="#ff0100" stroke="none" /><path d="M 79.03789590574601 98.7389718711861 l -6.87825565956685 -0.41377878026399323 a27.8906903716072,27.8906903716072 0 0,0 0.03285262857929801,-0.47767000938210397 l 6.870139069822488 0.5317922138004222" fill="#ff5708" stroke="none" /><path d="M 79.06263194458094 98.37931529534042 l -5.1937214500655156 -0.4020268876252084 a26.20925792404679,26.20925792404679 0 0,0 0.03857301020060742,-0.44827684810570323 l 5.186054817167165 0.4911247831065923" fill="#ff4006" stroke="none" /><path d="M 79.0935383218832 98.0201363427161 l -5.989184494988511 -0.5671819986070512 a27.015980912083638,27.015980912083638 0 0,0 0.04768656081771336,-0.461324218150683 l 5.978565541689134 0.6699107390406469" fill="#ff4b07" stroke="none" /><path d="M 79.13060592940154 97.66154086499901 l -2.3638364924283266 -0.264872809467688 a23.378629977136242,23.378629977136242 0 0,0 0.04811312446280983,-0.3984456901754458 l 2.358941281705848 0.30541217656657005" fill="#ff1802" stroke="none" /><path d="M 79.17382384314186 97.30363454192245 l -2.467856530280119 -0.3195134360537508 a23.488454277230165,23.488454277230165 0 0,0 0.055204000772551914,-0.39942864974795417 l 2.462008012952359 0.36183039400177197" fill="#ff1902" stroke="none" /><path d="M 79.22317932658666 96.9465228501225 l -5.951084638249292 -0.8746045049680757 a27.015009676776685,27.015009676776685 0 0,0 0.0713691631779921,-0.45824122438590925 l 5.935193982933033 0.976633911285435" fill="#ff4b07" stroke="none" /><path d="M 79.2786578344484 96.59031103205396 l -2.036488601290816 -0.33510342436760343 a23.063875027275227,23.063875027275227 0 0,0 0.06763775966147828,-0.3901166236922341 l 2.0304360241371033 0.3700130809804302" fill="#ff1302" stroke="none" /><path d="M 79.34024301695615 96.23510406497455 l -5.267741171037332 -0.9599579190540253 a26.354494957640384,26.354494957640384 0 0,0 0.08492887565784112,-0.4443837649687098 l 5.250486003097332 1.0502442490560495" fill="#ff4206" stroke="none" /><path d="M 79.407916724674 95.88100663000787 l -0.7692214738736142 -0.1538658380785337 a21.784459286385154,21.784459286385154 0 0,0 0.07649694743959151,-0.36606558570514847 l 0.7664668156096558 0.16704787506909125" fill="#ff0100" stroke="none" /><path d="M 79.48165901384962 95.52812308129327 l -1.897625841770345 -0.4135787200281999 a22.942171772273188,22.942171772273188 0 0,0 0.08716838665265764,-0.3840799952383289 l 1.890246593560026 0.44609304920553705" fill="#ff1101" stroke="none" /><path d="M 79.56144815229197 95.17655741523228 l -1.7635078717345491 -0.41618305594637245 a22.811951530733253,22.811951530733253 0 0,0 0.09321666599250181,-0.3803558075146754 l 1.7561036792257492 0.4463946880691655" fill="#ff0f01" stroke="none" /><path d="M 79.64726062577567 94.8264132398404 l -5.074186023699419 -1.2898382447742949 a26.23555598774275,26.23555598774275 0 0,0 0.11470000079101675,-0.43553458552125945 l 5.051296542103677 1.3767533346683387" fill="#ff4006" stroke="none" /><path d="M 79.73907114497095 94.47779374421319 l -2.120768955474962 -0.5780250094553477 a23.19812963085943,23.19812963085943 0 0,0 0.10801657601689307,-0.383312722008521 l 2.1105338873834865 0.6143456553668819" fill="#ff1502" stroke="none" /><path d="M 79.83685265289637 94.1308016681162 l -5.578116244671155 -1.623708342486557 a26.80963076456023,26.80963076456023 0 0,0 0.1324187410592424,-0.44077892212475855 l 5.549421183608283 1.719224868202039" fill="#ff4806" stroke="none" /><path d="M 79.94057633289273 93.78553927170692 l -2.7569409115654824 -0.8541073417399387 a23.88621249063155,23.88621249063155 0 0,0 0.12470341406739141,-0.39063166843382585 l 2.7418727817208337 0.9013080438651563" fill="#ff1f03" stroke="none" /><path d="M 80.05021161711548 93.44210830539832 l -2.8863761204965543 -0.9488091615217485 a24.038322881782044,24.038322881782044 0 0,0 0.1322274635141155,-0.390907000598953 l 2.869663235410074 0.9982178365948632" fill="#ff2103" stroke="none" /><path d="M 80.16572619554312 93.10060997987247 l -1.9278565273590684 -0.6706085746436571 a23.04116306317417,23.04116306317417 0 0,0 0.1331557919684092,-0.37246044877498674 l 1.916060565346716 0.7036039797995652" fill="#ff1302" stroke="none" /><path d="M 80.28708602549916 92.7611449362534 l -6.343948121230312 -2.3295856229533736 a27.75815410741222,27.75815410741222 0 0,0 0.16809454649586275,-0.4458907554137774 l 6.303022890920014 2.4381446585612956" fill="#ff5507" stroke="none" /><path d="M 80.41425534168474 92.42381321644754 l -2.1390755900899157 -0.8274403908241754 a23.293534822165512,23.293534822165512 0 0,0 0.14746063733244005,-0.3716971344956024 l 2.1245562777913443 0.8640385425333607" fill="#ff1602" stroke="none" /><path d="M 80.5471966667186 92.08871423366112 l -2.375566591467659 -0.9661222518974601 a23.564509472805412,23.564509472805412 0 0,0 0.15560897381206867,-0.37340488969109636 l 2.3586317731191118 1.0067596510298202" fill="#ff1a02" stroke="none" /><path d="M 80.68587082218212 91.75594674310238 l -5.711330022428696 -2.4378271698988407 a27.20985442143311,27.20985442143311 0 0,0 0.1870562406526421,-0.4280212852988663 l 5.668639899759076 2.535510524973574" fill="#ff4e07" stroke="none" /><path d="M 80.83023694016515 91.42560881287825 l -3.411932115942767 -1.5261138374367227 a24.737687013196467,24.737687013196467 0 0,0 0.1767160645491918,-0.3861564932119448 l 3.3852315865385285 1.5844593128633389" fill="#ff2b04" stroke="none" /><path d="M 80.9802524753101 91.09779779509293 l -2.193711807863022 -1.0267678930826012 a23.42211143472445,23.42211143472445 0 0,0 0.17356982674369587,-0.3626941816100359 l 2.175762723159421 1.0642745767577242" fill="#ff1802" stroke="none" /><path d="M 81.1358732173502 90.77261029715801 l -5.444037518197688 -2.6629515543494704 a27.060433604978797,27.060433604978797 0 0,0 0.20769538271325344,-0.41552989504766896 l 5.397522222272691 2.7560133055609097" fill="#ff4c07" stroke="none" /><path d="M 81.29705330413844 90.45014215332179 l -0.6653832298564694 -0.3397494182079305 a21.747104082271576,21.747104082271576 0 0,0 0.17262222731794363,-0.33102588197599364 l 0.6594529335635858 0.35112154328841066" fill="#ff0000" stroke="none" /><path d="M 81.46374523516351 90.13048839642627 l -5.201105287015997 -2.7692956119156924 a26.892409896875918,26.892409896875918 0 0,0 0.22045968684749329,-0.405620992907369 l 5.152800250553153 2.8581714382976813" fill="#ff4906" stroke="none" /><path d="M 81.63589988554816 89.8137432299009 l -2.110119722231085 -1.170447839661956 a23.412996764920734,23.412996764920734 0 0,0 0.1979698595386928,-0.3497937726993062 l 2.089716497671023 1.2064983824603674" fill="#ff1802" stroke="none" /><line stroke="#e1ed5e" stroke-width="0.3" x1="26.387840678322718" x2="22.05771365940052" y1="57.49999999999999" y2="54.99999999999999" /><path d="M 25.521815274538284 56.99999999999999 a86.0,86.0 0 0,1 29.574782752854787,-30.34633250058573" fill="none" id="id119" stroke="none" /><text fill="#e1ed5e" style="font-size:6.75px; font-family:Arial;" text-anchor="middle"><textPath startOffset="21.40746469413373" xlink:href="#id119">November</textPath></text><path d="M 81.81346652052679 89.5 l -1.7278431813209696 -0.9975707258531215 a22.995141451706242,22.995141451706242 0 0,0 0.2003055195619782,-0.3401625631855515 l 1.7104639516292122 1.0270844573322457" fill="#ff1202" stroke="none" /><path d="M 81.99639281039701 89.18935116829357 l -7.69359703957303 -4.619783967265858 a29.974064815429713,29.974064815429713 0 0,0 0.26867043970258664,-0.4388529718867565 l 7.61315863541505 4.751174055277157" fill="#ff730a" stroke="none" /><path d="M 82.37810715431573 88.57770195909679 l -4.873325129497168 -3.1588304710962167 a26.807538873129868,26.807538873129868 0 0,0 0.2536191822273069,-0.3840117669164418 l 4.818381508349132 3.2420221163517198" fill="#ff4806" stroke="none" /><path d="M 82.576782715395 88.27688183743585 l -4.821852696818368 -3.244357686868041 a26.81172265599059,26.81172265599059 0 0,0 0.2602144881405842,-0.3796607148013045 l 4.76544847186247 3.32665313673938" fill="#ff4806" stroke="none" /><path d="M 82.78059297857968 87.97951657250589 l -5.700956424218966 -3.979710342693193 a27.952625300027513,27.952625300027513 0 0,0 0.27804197055356433,-0.39110085173351 l 5.6317993551354295 4.076988421136223" fill="#ff5808" stroke="none" /><path d="M 82.98947788004972 87.6856937992154 l -2.328402662649614 -1.6855839664651813 a23.87448295653989,23.87448295653989 0 0,0 0.2431763660897344,-0.3299154439740919 l 2.2991242769760607 1.7253057197081365" fill="#ff1f03" stroke="none" /><path d="M 83.2033758604659 87.39550010848427 l -4.478795677287399 -3.3609717738231195 a26.59961980703369,26.59961980703369 0 0,0 0.27720353323316854,-0.36286832335517605 l 4.420440166699924 3.43736101041918" fill="#ff4506" stroke="none" /><path d="M 83.64595745247003 86.82634096563983 l -13.34340740362544 -10.748504474110451 a38.13408502281632,38.13408502281632 0 0,0 0.4150317346375807,-0.5062712330417556 l 13.156928849749228 10.9759779888507" fill="#ffdd14" stroke="none" /><path d="M 84.58840730492382 85.73525988315684 l -8.524848363331444 -7.890472376503311 a32.61604898156669,32.61604898156669 0 0,0 0.38385077296982034,-0.40763621895620517 l 8.388141756625352 8.035650055404027" fill="#ff970d" stroke="none" /><path d="M 84.83555147118756 85.47280134310135 l -7.83861086903789 -7.5092118959868275 a31.855048763364863,31.855048763364863 0 0,0 0.3816738437546384,-0.3916309873227008 l 7.708550224132449 7.642665575377259" fill="#ff8d0d" stroke="none" /><path d="M 85.08716467003674 85.21462403516908 l -0.5703356268930372 -0.5654609927066007 a21.803136888441944,21.803136888441944 0 0,0 0.2657990099977762,-0.2635272372384366 l 0.5605446967652845 0.5751682401737107" fill="#ff0100" stroke="none" /><path d="M 85.34317274990677 84.96080404539775 l -17.944313263928446 -18.412446216507842 a46.71024220402819,46.71024220402819 0 0,0 0.5790457732192567,-0.554712752198739 l 17.625595004843888 18.71777109901215" fill="#bbff1f" stroke="none" /><path d="M 85.60350026404147 84.71141617570332 l -0.5249798007731054 -0.5575103558078731 a21.765781684328367,21.765781684328367 0 0,0 0.2742179922739678,-0.253812079811867 l 0.5153320371851843 0.5664401817521056" fill="#ff0000" stroke="none" /><path d="M 86.13680546590413 84.22622945171909 l -11.978799897251148 -13.62967536510397 a39.145514529395584,39.145514529395584 0 0,0 0.5085571256600321,-0.43927953269238046 l 11.743063291828268 13.833299030261063" fill="#ffea16" stroke="none" /><path d="M 86.40962598614128 83.9905735841838 l -0.5076711952675691 -0.5980353915041337 a21.784459286385154,21.784459286385154 0 0,0 0.28716654508935024,-0.2395645453456339 l 0.4973303160163099 0.6066621207616495" fill="#ff0100" stroke="none" /><path d="M 86.68645165197937 83.75963576809568 l -6.90753917113054 -8.426074638620644 a31.89554180462398,31.89554180462398 0 0,0 0.42641184717858305,-0.3434871999761755 l 6.761876553596712 8.54341013239022" fill="#ff8d0d" stroke="none" /><path d="M 87.25179093698888 83.31218511350988 l -23.591676144374965 -30.882261375964916 a59.86233717874525,59.86233717874525 0 0,0 0.8219583810622828,-0.6168128928089172 l 23.05806477440193 31.282693296037834" fill="#31ff2f" stroke="none" /><path d="M 87.54013794807813 83.09580414077388 l -0.45435876898189687 -0.6164249322521324 a21.765781684328367,21.765781684328367 0 0,0 0.302667694089446,-0.21910806945376066 l 0.44371006451848305 0.6241337730789723" fill="#ff0000" stroke="none" /><path d="M 87.83215693770416 82.88440491214696 l -4.415889139661498 -6.211501091881545 a28.621208743252346,28.621208743252346 0 0,0 0.40288427624027323,-0.281244514385417 l 4.30860977224746 6.286390422072089" fill="#ff6109" stroke="none" /><path d="M 88.12776184653039 82.6780497279521 l -0.4223713138170241 -0.6162523695786779 a21.747104082271576,21.747104082271576 0 0,0 0.30974474067374025,-0.20841008499386282 l 0.41173028504629455 0.6234121286296502" fill="#ff0000" stroke="none" /><path d="M 88.4268655584334 82.4767994020092 l -8.260503535855296 -12.507455195483798 a35.9890744922064,35.9890744922064 0 0,0 0.5184386721745053,-0.33604568370517574 l 8.044579231423764 12.64741472089288" fill="#ffc212" stroke="none" /><path d="M 89.03521579738668 82.08984904055464 l -0.4317487152935442 -0.7052290792563871 a21.82689479825818,21.82689479825818 0 0,0 0.32123705753373966,-0.19289362315866662 l 0.4195789012023703 0.712536702950977" fill="#ff0100" stroke="none" /><line stroke="#e1ed5e" stroke-width="0.3" x1="56.869717070023135" x2="54.33264160355391" y1="26.7553504044142" y2="22.446841604673864" /><path d="M 56.362301976729285 25.89364864446614 a86.0,86.0 0 0,1 42.16139366436587,-11.88097634709845" fill="none" id="id120" stroke="none" /><text fill="#e1ed5e" style="font-size:6.75px; font-family:Arial;" text-anchor="middle"><textPath startOffset="22.145653131862474" xlink:href="#id120">December</textPath></text><path d="M 89.34428304082924 81.90426304109057 l -31.967150877512267 -54.287210876728295 a84.0,84.0 0 0,0 1.2488301285584011,-0.721012410895304 l 31.030528281093464 54.827970184899776" fill="#4dd2ff" stroke="none" /><path d="M 89.97174638481275 81.54914285379989 l -0.36568823544333967 -0.6728251648913908 a21.765781684328367,21.765781684328367 0 0,0 0.32981500786196627,-0.17560791478229945 l 0.35408441179481154 0.6790035473962658" fill="#ff0000" stroke="none" /><path d="M 90.28995756902619 81.37971332152246 l -4.900493714419518 -9.397342851715772 a31.598343800696348,31.598343800696348 0 0,0 0.48311276349233234,-0.24668081935391284 l 4.738453729213603 9.480081622742517" fill="#ff890c" stroke="none" /><path d="M 90.61103034731259 81.2157712731953 l -0.33402559789746206 -0.6682749506723242 a21.747104082271576,21.747104082271576 0 0,0 0.3353607983464293,-0.16404177161515265 l 0.3225045502889797 0.673910472384691" fill="#ff0000" stroke="none" /><path d="M 91.26138138417902 80.90454125486306 l -21.03679609600785 -45.96919600700942 a71.55406780384604,71.55406780384604 0 0,0 1.1213087945431437,-0.5015471613270818 l 20.24457389860909 46.323546919246354" fill="#3effb2" stroke="none" /><path d="M 91.92203290615298 80.6158196554323 l -0.2873848662985036 -0.6896190603292847 a21.747104082271576,21.747104082271576 0 0,0 0.3458261138238926,-0.1406444698509046 l 0.2755042912841702 0.6944507867594806" fill="#ff0000" stroke="none" /><path d="M 92.592206182469 80.34994680014964 l -0.2635425238906454 -0.6990778553553266 a21.747104082271576,21.747104082271576 0 0,0 0.35045028293083436,-0.12869019813442129 l 0.25150308930568405 0.7034989024984698" fill="#ff0000" stroke="none" /><path d="M 92.93061703081487 80.22567764915836 l -4.145424819789863 -11.595491010321267 a33.31421774644947,33.31421774644947 0 0,0 0.5401570881667586,-0.1878946746495672 l 3.9457619595781 11.66494411753942" fill="#ffa00e" stroke="none" /><path d="M 93.27111125876988 80.10723608172694 l -0.928472313847552 -2.7448634171718442 a23.897643183090306,23.897643183090306 0 0,0 0.3897333054293054,-0.12811307858168572 l 0.8812162707704856 2.7603974171555583" fill="#ff1f03" stroke="none" /><path d="M 93.61358852112211 79.99465700312896 l -2.41760212730706 -7.573104230239898 a28.94963569781893,28.94963569781893 0 0,0 0.4747180108332474,-0.14706885323799845 l 2.2872434836021966 7.613489671284539" fill="#ff6609" stroke="none" /><path d="M 94.30408787586887 79.78721728523814 l -1.432299778802059 -5.0827266257629855 a26.28068107431195,26.28068107431195 0 0,0 0.43528141303570067,-0.11863788473334438 l 1.3448369648316807 5.10656500464047" fill="#ff4106" stroke="none" /><path d="M 94.6519064749342 79.69241777938228 l -0.70135791570167 -2.6631702442072536 a23.753975068069483,23.753975068069483 0 0,0 0.3952149120780865,-0.10046208517435874 l 0.6555377103982054 2.674817561216875" fill="#ff1d02" stroke="none" /><path d="M 95.35216902796891 79.52079915486377 l -1.6479578378293231 -7.261206302103317 a28.445863415143204,28.445863415143204 0 0,0 0.477128675549175,-0.10398797411943198 l 1.5230667456610298 7.288425734356463" fill="#ff5f08" stroke="none" /><path d="M 95.70440661134978 79.44403061299748 l -0.429383084523223 -2.054753497869958 a23.099138339958447,23.099138339958447 0 0,0 0.3888393611610224,-0.07777876231363726 l 0.39404723783122386 2.0618216568464613" fill="#ff1402" stroke="none" /><path d="M 96.05791012581881 79.37332000966035 l -1.4377107356312087 -7.52271008755234 a28.65886278899883,28.65886278899883 0 0,0 0.48401443843735703,-0.08820355405255022 l 1.308361563642813 7.5462818155362505" fill="#ff6209" stroke="none" /><path d="M 96.41257539226777 79.30868818359171 l -0.5005809669820551 -2.887217993337132 a23.930291631485574,23.930291631485574 0 0,0 0.40535919484858113,-0.06670170125507006 l 0.45094426908040114 2.8953856930878703" fill="#ff1f03" stroke="none" /><path d="M 96.76829788921471 79.25015418208739 l -0.8506453938211122 -5.461753640163489 a26.52759897350271,26.52759897350271 0 0,0 0.45055850296932215,-0.06621658410231518 l 0.7567617852441051 5.47555129756469" fill="#ff4406" stroke="none" /><path d="M 97.12497278360702 79.19773525538626 l -0.10739722850045405 -0.7770728455597493 a21.784459286385154,21.784459286385154 0 0,0 0.3708774920476066,-0.048017516571631315 l 0.09404191456205341 0.7788019583317753" fill="#ff0100" stroke="none" /><path d="M 97.48249496171623 79.15144685158666 l -0.7182742306793338 -5.948341014507948 a26.991550608593357,26.991550608593357 0 0,0 0.4604811211040046,-0.05159787009140897 l 0.6160572079745299 5.959794645106328" fill="#ff4b06" stroke="none" /><path d="M 97.84075906011542 79.11130261209362 l -0.5769414891445699 -5.5813855483460815 a26.61112520990067,26.61112520990067 0 0,0 0.4547973550785414,-0.04306978237696542 l 0.48104457068101286 5.590467086228231" fill="#ff4506" stroke="none" /><path d="M 98.1996594967304 79.07731436759882 l -0.07045456730565408 -0.8187888682312847 a21.821814490498735,21.821814490498735 0 0,0 0.37349698657850916,-0.028911028921208115 l 0.05638858595192776 0.8198776641475465" fill="#ff0100" stroke="none" /><path d="M 98.5590905019552 79.04949213459386 l -0.4187570179842745 -6.088635136958984 a27.103018537668277,27.103018537668277 0 0,0 0.4644368711922819,-0.027939368872436688 l 0.3141757946595088 6.094926483656115" fill="#ff4c07" stroke="none" /><path d="M 98.9189461498227 79.02784411241856 l -0.3888150930590128 -7.542908932557608 a28.552923430132722,28.552923430132722 0 0,0 0.4897155942414798,-0.02103049473324445 l 0.25927373821671285 7.548471995716681" fill="#ff6008" stroke="none" /><path d="M 99.27912038922189 79.0123766808444 l -0.02692860500193363 -0.783996952945963 a21.784459286385154,21.784459286385154 0 0,0 0.37384900414195965,-0.009629024212983894 l 0.013466286789230071 0.784343694508992" fill="#ff0100" stroke="none" /></svg>