<?xml version="1.0" encoding="utf-8" ?>
<svg baseProfile="full" height="200mm" version="1.1" viewBox="0,0,200,200" width="200mm" xmlns="http://www.w3.org/2000/svg" xmlns:ev="http://www.w3.org/2001/xml-events" xmlns:xlink="http://www.w3.org/1999/xlink"><defs /><rect fill="#1a1a1a" height="200" width="200" x="0" y="0" /><rect fill="#1a1a1a" height="200" width="180" x="10" y="0" /><text alignment-baseline="middle" fill="#e1ed5e" style="dominant-baseline: central; font-size:9.0px; font-family:Arial;" text-anchor="middle" x="100.0" y="100.0">2025</text><line stroke="#e1ed5e" stroke-width="0.3" x1="100.0" x2="100.0" y1="15.0" y2="10.0" /><path d="M 100.0 14.0 a86.0,86.0 0 0,1 42.46469731375804,11.215312516191453" fill="none" id="id121" stroke="none" /><text fill="#e1ed5e" style="font-size:6.75px; font-family:Arial;" text-anchor="middle"><textPath startOffset="22.20632615414155" xlink:href="#id121">January</textPath></text><path d="M 100.0 79.0 l 0.0 -21.50661373535415 a42.50661373535415,42.50661373535415 0 0,0 0.7316814812051455,0.006297813508820383 l -0.3702010019326171 21.50342729845389" fill="#f1ff19" stroke="none" /><path d="M 100.36148047927253 79.00311137660856 l 0.1160924247720492 -6.743323229690695 a27.744322473842395,27.744322473842395 0 0,0 0.4774313888862417,0.012330644215132086 l -0.2321504488531587 6.740325793333204" fill="#ff4c07" stroke="none" /><path d="M 100.72285384407766 79.0124445844662 l 0.4087142465321262 -11.866732076601593 a32.87376846300969,32.87376846300969 0 0,0 0.5653648978250678,0.024345801777001342 l -0.6129199767465254 11.857938548300398" fill="#ff920d" stroke="none" /><path d="M 101.08401301168833 79.027996857942 l 0.15490629142099047 -2.9969153463811145 a24.000916118870443,24.000916118870443 0 0,0 0.41240197134788303,0.024877213132636692 l -0.20647031160848545 2.993804863868174" fill="#ff1702" stroke="none" /><path d="M 101.44485096284872 79.0497635885617 l 0.7738805051751766 -11.221212398029753 a32.247866407367525,32.247866407367525 0 0,0 0.5534498773975166,0.04295836227273948 l -0.9669205719350344 11.206228773568549" fill="#ff8a0c" stroke="none" /><path d="M 101.80526077348638 79.07773832637324 l 0.204242214972324 -2.367086865904441 a23.37588196531606,23.37588196531606 0 0,0 0.4005901214962653,0.0380408589353401 l -0.24495746355883347 2.363220462453923" fill="#ff0e01" stroke="none" /><path d="M 102.16513564639614 79.11191278185805 l 1.1101159060861687 -10.709812988932734 a31.76719330108166,31.76719330108166 0 0,0 0.5434206461805399,0.06105964135777515 l -1.2943032557764338 10.689117394104358" fill="#ff840c" stroke="none" /><path d="M 102.52436894288641 79.15227682838746 l 0.944801731767805 -7.802728286394413 a28.859721306996256,28.859721306996256 0 0,0 0.4926564299012596,0.06396094393539516 l -1.0789728901769107 7.785309019294881" fill="#ff5c08" stroke="none" /><path d="M 102.88285421437855 79.19881850522331 l 0.8990249306144996 -6.486897830895841 a27.548899853742427,27.548899853742427 0 0,0 0.4691591020363219,0.06914185607568103 l -1.0105530130794773 6.470461490659192" fill="#ff4906" stroke="none" /><path d="M 103.2404852339499 79.25152402106235 l 0.947831495944845 -6.068862409757296 a27.142432375962326,27.142432375962326 0 0,0 0.46099585251697045,0.07606826563018597 l -1.0521565546006906 6.051647881187486" fill="#ff4406" stroke="none" /><path d="M 103.59715602781102 79.31037775812273 l 0.7642406925891038 -4.395653429901724 a25.46159533261544,25.46159533261544 0 0,0 0.43115559641817414,0.0787909293682046 l -0.8397914101101788 4.381847019182781" fill="#ff2c04" stroke="none" /><path d="M 103.95276090670814 79.375362276772 l 3.141539757254012 -16.39186404533675 a37.69019109918192,37.69019109918192 0 0,0 0.6361271313882495,0.1276011181831357 l -3.4232332981093867 16.335358971076406" fill="#ffd113" stroke="none" /><path d="M 104.307194497241 79.44645832069477 l 2.0862548407456383 -9.95541897408736 a31.171667818512027,31.171667818512027 0 0,0 0.5242143471608023,0.11457295225849855 l -2.2573119120599685 9.918032523732991" fill="#ff7b0b" stroke="none" /><path d="M 104.66035177308747 79.52364482259891 l 1.4387036970762337 -6.321284171399839 a27.482939295070636,27.482939295070636 0 0,0 0.46037366936441576,0.1089555734618564 l -1.547301053403173 6.295582685797113" fill="#ff4806" stroke="none" /><path d="M 105.01212808612495 79.60689891045804 l 1.3013858987021425 -5.295015157774159 a26.452594866519874,26.452594866519874 0 0,0 0.441243278712288,0.11248273643519104 l -1.3923380660994555 5.2718294251701" fill="#ff3a05" stroke="none" /><path d="M 105.36241919743992 79.69619591428918 l 3.697277182712752 -13.999053189315598 a35.47906588019737,35.47906588019737 0 0,0 0.589125007656945,0.16103011891873478 l -3.937700079593408 13.93333652957057" fill="#ffb510" stroke="none" /><path d="M 105.71112130821622 79.79150937346287 l 0.4032231317205557 -1.4267830147566705 a22.482666066635595,22.482666066635595 0 0,0 0.3715097646085767,0.1084538877577593 l -0.4277231140525595 1.4196307980802076" fill="#ff0100" stroke="none" /><path d="M 106.0581310904928 79.89281104454417 l 4.7261943584857375 -15.686435566806454 a37.38295376010544,37.38295376010544 0 0,0 0.6145305928222501,0.19093764657151807 l -4.9955103240187055 15.602757785352415" fill="#ffcd13" stroke="none" /><path d="M 106.40334571778207 80.00007090966166 l 0.4410696124827785 -1.3776174772293945 a22.44650347964448,22.44650347964448 0 0,0 0.36696524881701426,0.12098267296490733 l -0.4647176835422102 1.369821080005251" fill="#ff0000" stroke="none" /><path d="M 106.74666289553966 80.11325718540242 l 0.6671951782615512 -1.9666521245635387 a23.07674504572558,23.07674504572558 0 0,0 0.37507182722618254,0.13085519579083285 l -0.7009490095510074 1.9548760756004984" fill="#ff0901" stroke="none" /><path d="M 107.08798089147638 80.2323363322302 l 4.338785023387822 -12.100433731731224 a33.854787122904575,33.854787122904575 0 0,0 0.5468639118712485,0.2014145939165817 l -4.546431261031646 12.023955870008319" fill="#ff9f0e" stroke="none" /><path d="M 107.4271985657038 80.35727306442388 l 0.5371734284650527 -1.4206636431008617 a22.518828653626706,22.518828653626706 0 0,0 0.36139163622667053,0.1402143403000146 l -0.5615482296913903 1.4112065989103002" fill="#ff0100" stroke="none" /><path d="M 107.76421540070413 80.48803036053334 l 5.516008039082855 -13.862080820153176 a35.91923688905318,35.91923688905318 0 0,0 0.5725118085162823,0.23354194160920996 l -5.753803717187526 13.765077992360387" fill="#ffba11" stroke="none" /><path d="M 108.09893153111575 80.62456947434976 l 4.07022758396082 -9.737384675204636 a31.5538340378341,31.5538340378341 0 0,0 0.499326264512432,0.2137854476898473 l -4.237237606263568 9.665879699551997" fill="#ff810b" stroke="none" /><path d="M 108.76106565485865 80.91482961587045 l 0.6336455977573401 -1.380338268512561 a22.518828653626706,22.518828653626706 0 0,0 0.35088816149893315,0.16474669672032088 l -0.6573119705558712 1.369226589152237" fill="#ff0100" stroke="none" /><path d="M 109.08828744355905 81.06846463323043 l 6.479030192059142 -13.49627088547515 a35.97087706327649,35.97087706327649 0 0,0 0.555884912279459,0.2727703122738624 l -6.710386371349033 13.382745413066456" fill="#ffbb11" stroke="none" /><path d="M 109.41281617654863 81.2277094730956 l 6.274036522762322 -12.512518482528016 a34.99738022147576,34.99738022147576 0 0,0 0.5361923832442163,0.27465856452284093 l -6.488489393595294 12.402667392692674" fill="#ffae10" stroke="none" /><path d="M 109.73455568895987 81.39251694778311 l 2.0817854248137593 -3.979307145420747 a25.490959353252222,25.490959353252222 0 0,0 0.3870437456442833,0.20674536474942576 l -2.149974216986354 3.9428830541695667" fill="#ff2c04" stroke="none" /><path d="M 110.05341064243156 81.56283822128135 l 7.26609156007753 -13.325438535924567 a36.17772706086565,36.17772706086565 0 0,0 0.544174880507344,0.3028327318366947 l -7.4943905296569095 13.198390406527693" fill="#ffbe11" stroke="none" /><path d="M 110.36928655335952 81.73862282372117 l 0.8928100643372198 -1.572330096939742 a22.808129349555603,22.808129349555603 0 0,0 0.3397360660425923,0.19679705789759377 l -0.9197428628451404 1.5567288816520988" fill="#ff0500" stroke="none" /><line stroke="#e1ed5e" stroke-width="0.3" x1="143.23703022742887" x2="145.7803849466894" y1="26.81831364943548" y2="22.513508569990506" /><path d="M 143.74570117128098 25.957352633546492 a86.0,86.0 0 0,1 28.547481713284135,27.462654790039103" fill="none" id="id122" stroke="none" /><text fill="#e1ed5e" style="font-size:6.75px; font-family:Arial;" text-anchor="middle"><textPath startOffset="19.985693538727396" xlink:href="#id122">February</textPath></text><path d="M 110.68208982089419 81.91981866633111 l 0.9565325773589447 -1.6189980369181804 a22.880454523537825,22.880454523537825 0 0,0 0.3373646029842648,0.20325839849971242 l -0.9842592465608471 1.6022930289598536" fill="#ff0601" stroke="none" /><path d="M 110.99172775467656 82.1063720568725 l 8.045940779386253 -13.098129245197214 a36.37199247818191,36.37199247818191 0 0,0 0.5306515183511923,0.3322939321094528 l -8.27021145010971 12.957690971764816" fill="#ffc011" stroke="none" /><path d="M 111.2981086023043 82.29822771554956 l 6.134135757227321 -9.610907290641256 a32.401629727253734,32.401629727253734 0 0,0 0.4675601059850563,0.30411409896315855 l -6.298662888996658 9.50389426751857" fill="#ff8c0c" stroke="none" /><path d="M 111.60114157652 82.49532879139004 l 1.0388294836080854 -1.567463721774902 a22.880454523537825,22.880454523537825 0 0,0 0.32642270309983507,0.2204020662525576 l -1.0656568811144622 1.549349743223674" fill="#ff0601" stroke="none" /><path d="M 111.90073688211348 82.69761687909136 l 5.80258369127449 -8.43632853260239 a31.23921953101143,31.23921953101143 0 0,0 0.44042667270679564,0.3085470300455557 l -5.946941503564937 8.3351966597929" fill="#ff7c0b" stroke="none" /><path d="M 112.19680574252982 82.90503203632743 l 4.006998206036923 -5.616184057424099 a27.899098346164354,27.899098346164354 0 0,0 0.3885343800400968,0.28228675069132586 l -4.103077902430808 5.546378071916098" fill="#ff4e07" stroke="none" /><path d="M 112.48926042617603 83.11751280151076 l 12.775330280840386 -17.269185088872128 a42.48101062376444,42.48101062376444 0 0,0 0.5841216766591893,0.43994833674736294 l -13.07069811125796 17.046720162618918" fill="#f1ff19" stroke="none" /><path d="M 112.77801427241765 83.33499621200491 l 0.8801639099047125 -1.14790409369635 a22.44650347964448,22.44650347964448 0 0,0 0.3045963210571069,0.2377422600118586 l -0.8997927861212496 1.1325834444612675" fill="#ff0000" stroke="none" /><path d="M 113.06298171725822 83.55741782278167 l 7.881374992914643 -9.920411648380695 a33.67006862855398,33.67006862855398 0 0,0 0.45069246959937465,0.3644286335223156 l -8.05097086107851 9.783276917594248" fill="#ff9d0e" stroke="none" /><path d="M 113.34407831869373 83.78471172551755 l 2.545599867538551 -3.093329842481221 a25.00609138687539,25.00609138687539 0 0,0 0.33001189323733554,0.27637546995229334 l -2.598469297735004 3.0490532151351086" fill="#ff2503" stroke="none" /><path d="M 113.6212207817346 84.01681056812373 l 8.120228283483355 -9.5283050590467 a33.519053665279095,33.519053665279095 0 0,0 0.43591721045141096,0.3780231093039413 l -8.28303929258153 9.387116956323087" fill="#ff9b0e" stroke="none" /><path d="M 113.89432698308785 84.25364557470407 l 2.6933491833550494 -3.0523558919990803 a25.0707500924155,25.0707500924155 0 0,0 0.32113125274221843,0.28831480943883675 l -2.7454914236932577 3.005542073790946" fill="#ff2603" stroke="none" /><path d="M 114.16331599549186 84.49514656593476 l 4.273745391149546 -4.678550978130906 a27.33669779327858,27.33669779327858 0 0,0 0.3446924789877608,0.32035409327568354 l -4.353645753932154 4.604292298780582" fill="#ff4606" stroke="none" /><path d="M 114.42810811169701 84.74124197986012 l 6.97137874543061 -7.372732482994988 a31.146787958662145,31.146787958662145 0 0,0 0.3863933414705929,0.37171008835566716 l -7.0972553305136215 7.251639307877019" fill="#ff7b0b" stroke="none" /><path d="M 114.68862486808459 84.99185889309783 l 10.491638826363786 -10.719859575885145 a35.999662482521416,35.999662482521416 0 0,0 0.43913451114674085,0.43724872799938863 l -10.674609137677848 10.537674997235639" fill="#ffbb11" stroke="none" /><path d="M 114.94478906791727 85.2469230424477 l 5.093951151142288 -5.028605824363604 a28.157877818672752,28.157877818672752 0 0,0 0.3375401954876895,0.34786484207090274 l -5.1797556103330855 4.940176786742587" fill="#ff5207" stroke="none" /><path d="M 115.19652480421416 85.50635884689758 l 1.460325974451477 -1.3927816334945806 a23.018017004452016,23.018017004452016 0 0,0 0.27099076128286165,0.2890740498521419 l -1.4840840577048016 1.367438166764384" fill="#ff0801" stroke="none" /><path d="M 115.68641384162765 86.03803664274999 l 8.081798826579552 -7.193344521991877 a31.81941207669683,31.81941207669683 0 0,0 0.3606323319249106,0.4122650969922506 l -8.204423022082311 7.053163868796679" fill="#ff840c" stroke="none" /><path d="M 115.9244219780498 86.31012108654704 l 8.03144315516487 -6.904456842831836 a31.591298477956894,31.591298477956894 0 0,0 0.35094831624133005,0.415412111632544 l -8.149102084893318 6.765185781570185" fill="#ff810b" stroke="none" /><path d="M 116.15771136456269 86.58626213691792 l 3.0729972366291913 -2.5511273506546623 a24.993940757646378,24.993940757646378 0 0,0 0.27195967390833814,0.3333904033378118 l -3.1164554026139384 2.49785277770875" fill="#ff2503" stroke="none" /><path d="M 116.38621287248628 86.86637796730983 l 9.83414314291214 -7.882109188953963 a33.603095517446434,33.603095517446434 0 0,0 0.35786643770895965,0.4544540339846357 l -9.968363661215065 7.711662761016289" fill="#ff9c0e" stroke="none" /><path d="M 116.60985879189232 87.15038557335679 l 1.2013109269437865 -0.9293505990114667 a22.518828653626706,22.518828653626706 0 0,0 0.23454331545327586,0.3086315102781035 l -1.2171301826211758 0.9085343128523297" fill="#ff0100" stroke="none" /><path d="M 116.82858285166822 87.43820079747576 l 9.008038440159444 -6.724105712958797 a32.24092319066523,32.24092319066523 0 0,0 0.32814717585341063,0.4475923790848385 l -9.122448228526482 6.568050890202465" fill="#ff8a0c" stroke="none" /><path d="M 117.04232023915458 87.72973835380427 l 3.8483769386030784 -2.7707842175947746 a25.742072357318506,25.742072357318506 0 0,0 0.25581169719369923,0.36182750411532905 l -3.8955012556006605 2.7041302131476526" fill="#ff3004" stroke="none" /><path d="M 117.2510076193507 88.02491185347247 l 9.5472636391572 -6.627399753090356 a32.62207685755155,32.62207685755155 0 0,0 0.3162407965367478,0.4640443468529774 l -9.65992890136268 6.462077382966972" fill="#ff8f0d" stroke="none" /><path d="M 117.45458315368197 88.32363383020206 l 5.3096786407646945 -3.5519468730735877 a27.388193317153924,27.388193317153924 0 0,0 0.2587576050281397,0.39410558479672875 l -5.37003288115076 3.4600232242991846" fill="#ff4706" stroke="none" /><path d="M 117.65298651832404 88.62581576622439 l 8.526172035265041 -5.493588942432228 a31.14273774891914,31.14273774891914 0 0,0 0.28647226240192974,0.45313032265722997 l -8.619471893912927 5.3460109720607925" fill="#ff7b0b" stroke="none" /><line stroke="#e1ed5e" stroke-width="0.3" x1="172.23445277983987" x2="176.4835382374775" y1="55.19839476539836" y2="52.563006222186495" /><path d="M 173.08426987136738 54.67131705675599 a86.0,86.0 0 0,1 12.851231095245387,41.99856678651699" fill="none" id="id123" stroke="none" /><text fill="#e1ed5e" style="font-size:6.75px; font-family:Arial;" text-anchor="middle"><textPath startOffset="22.20632615414155" xlink:href="#id123">March</textPath></text><path d="M 118.21658344932153 89.55222093294921 l 2.205022496262697 -1.264649210589899 a23.541940564779246,23.541940564779246 0 0,0 0.19858451810468322,0.3532596990522348 l -2.2264646556598136 1.2265060016028702" fill="#ff1001" stroke="none" /><path d="M 118.3937258080291 89.86733742301442 l 7.618226442848063 -4.196698308221649 a29.697680772754303,29.697680772754303 0 0,0 0.24280244098463985,0.4498760478445308 l -7.6893369830511675 4.064941277044659" fill="#ff6709" stroke="none" /><path d="M 118.56541770881063 90.18545643968196 l 1.3427470658423932 -0.7098385705561197 a22.518828653626706,22.518828653626706 0 0,0 0.17821032850078267,0.34424563145521553 l -1.3547668275032922 0.6866202168405594" fill="#ff0100" stroke="none" /><path d="M 118.73160827565052 90.50648371742162 l 10.863165549982108 -5.505647860635622 a33.178691396518744,33.178691396518744 0 0,0 0.2538011693409353,0.5116476702340468 l -10.956326732276452 5.317840601902625" fill="#ff960d" stroke="none" /><path d="M 118.89224826269711 90.83032412892265 l 4.537439728496276 -2.2023239911055517 a26.043668332824378,26.043668332824378 0 0,0 0.19227892272892144,0.404988448506004 l -4.5746768450669535 2.123893126959007" fill="#ff3404" stroke="none" /><path d="M 119.04729006885535 91.15688171328212 l 12.40402870721478 -5.75883985035234 a34.67567784760282,34.67567784760282 0 0,0 0.24668885372177413,0.5435461893292229 l -12.5013198778999 5.544471652181055" fill="#ffaa0f" stroke="none" /><path d="M 119.196687751892 91.48605970444005 l 2.8913178178200325 -1.2823309726430405 a24.162924508590624,24.162924508590624 0 0,0 0.16535412996449766,0.38166012994232623 l -2.9129626576272107 1.2323716981141115" fill="#ff1902" stroke="none" /><path d="M 119.34039704204932 91.81776055985345 l 9.329446989677635 -3.9469597727352657 a31.13000851829827,31.13000851829827 0 0,0 0.20453647917014764,0.4953013079985115 l -9.39600515573398 3.7857838942834507" fill="#ff7b0b" stroke="none" /><path d="M 119.47837535516314 92.15188598940014 l 3.6177390444119193 -1.4576384304873415 a24.90035198251338,24.90035198251338 0 0,0 0.1567612924906789,0.3989403906172312 l -3.6422938867842984 1.3951490349743259" fill="#ff2403" stroke="none" /><path d="M 119.61058180528143 92.48833698450437 l 1.4858786810053146 -0.5691529218483011 a22.59115382760893,22.59115382760893 0 0,0 0.1359722944887483,0.3643381480582078 l -1.4954555639956881 0.5434916367607601" fill="#ff0200" stroke="none" /><path d="M 119.7369772167798 92.82701384747503 l 3.323989867244957 -1.2080336835273242 a24.536701007730755,24.536701007730755 0 0,0 0.14084874826537067,0.3981983782426248 l -3.3442916963201372 1.150637678858085" fill="#ff1e03" stroke="none" /><path d="M 119.85752413597 93.16781622104841 l 11.470441785415412 -3.946522525523069 a33.13037818029862,33.13037818029862 0 0,0 0.18089613431036858,0.5408564166934309 l -11.536675213497551 3.7484930059073243" fill="#ff960d" stroke="none" /><path d="M 119.97218684219823 93.5106431181261 l 4.790072671819359 -1.556388957461092 a26.036580465774122,26.036580465774122 0 0,0 0.13482549271813238,0.4274336563047988 l -4.816153648305697 1.4737051347298742" fill="#ff3404" stroke="none" /><path d="M 120.08093135843002 93.85539295169968 l 14.374874864303091 -4.3985986423160375 a36.03278741220527,36.03278741220527 0 0,0 0.17637895507630416,0.5946621538419 l -14.448459716491097 4.150507101727608" fill="#ffbc11" stroke="none" /><path d="M 120.18372546131832 94.20196356495316 l 7.051904952605993 -2.0257509908196236 a28.337099599800702,28.337099599800702 0 0,0 0.13063838690663457,0.46997578497628223 l -7.08573011007899 1.9040639024243897" fill="#ff5407" stroke="none" /><path d="M 120.28053869075195 94.5502522615342 l 2.0255719613616177 -0.544307840331874 a23.097430045484497,23.097430045484497 0 0,0 0.0998729224999559,0.3848511111214478 l -2.0346412157318765 0.5093603036615757" fill="#ff0a01" stroke="none" /><path d="M 120.37134235888165 94.90015583598534 l 10.101081555563791 -2.528745573750498 a31.412799948568768,31.412799948568768 0 0,0 0.12679881369558332,0.5256629436597958 l -10.143113169520193 2.354497398431296" fill="#ff7f0b" stroke="none" /><path d="M 120.6074358757038 95.95851677861258 l 9.64198784061551 -1.8909646165446743 a30.82566418618107,30.82566418618107 0 0,0 0.0976355589686481,0.5215730601012991 l -9.673109123494017 1.7247134789808125" fill="#ff770a" stroke="none" /><path d="M 120.67395015179393 96.31383870115 l 8.686673289459788 -1.548832161258845 a29.823671225831337,29.823671225831337 0 0,0 0.08576171371242108,0.5061704890229669 l -8.712046864692432 1.3990758839200401" fill="#ff6909" stroke="none" /><path d="M 120.73433829027371 96.67025291283417 l 7.2170024945350475 -1.1589852879712699 a28.309471383339492,28.309471383339492 0 0,0 0.0731248563045218,0.48180143810078496 l -7.235883244278869 1.0345847374784027" fill="#ff5407" stroke="none" /><path d="M 120.78858239683441 97.02765380044208 l 9.479161699611586 -1.3553281178578982 a30.57556373455054,30.57556373455054 0 0,0 0.07000930644853894,0.5216506508153471 l -9.501087005117961 1.1919591249778867" fill="#ff730a" stroke="none" /><path d="M 120.83666639777658 97.38593545837742 l 7.347633586211199 -0.9217975685688077 a28.405229913691958,28.405229913691958 0 0,0 0.05668824564451079,0.4856702697539667 l -7.3624121848592985 0.7951835604899883" fill="#ff5507" stroke="none" /><path d="M 120.98425023603335 99.18683210126433 l 8.710381677557214 -0.3375389964499281 a29.716919269033575,29.716919269033575 0 0,0 0.01540794746848411,0.5113147646887193 l -8.714901319481342 0.18755408433620965" fill="#ff6809" stroke="none" /><line stroke="#e1ed5e" stroke-width="0.3" x1="184.98032266829074" x2="189.97916517819016" y1="98.17113171792111" y2="98.06355123074" /><path d="M 185.9800911702706 98.14961562048488 a86.0,86.0 0 0,1 -9.607161424134198,41.387399972396054" fill="none" id="id124" stroke="none" /><text fill="#e1ed5e" style="font-size:6.75px; font-family:Arial;" text-anchor="middle"><textPath startOffset="21.466115282336823" xlink:href="#id124">April</textPath></text><path d="M 120.99513854157772 99.54816195383933 l 5.216908668795759 -0.11227350632810776 a26.218116652469504,26.218116652469504 0 0,0 0.005826655419237074,0.4512808834194725 l -5.218068331332712 0.022456364848172563" fill="#ff3705" stroke="none" /><path d="M 120.99980553446 99.90962569577887 l 11.067384935602606 -0.04762935597004432 a32.06748742345586,32.06748742345586 0 0,0 -0.002375594147785634,0.5520044172096112 l -11.066565044165316 -0.14288453944325166" fill="#ff880c" stroke="none" /><path d="M 120.99824983174949 100.27111621757518 l 7.726577591218514 0.09976071854164706 a28.727221588260818,28.727221588260818 0 0,0 -0.010639929940352058,0.4943957355262634 l -7.723715598593154 -0.23274626985802532" fill="#ff5a08" stroke="none" /><path d="M 120.9904718944345 100.63252640178507 l 13.045156119113956 0.39310243725084876 a34.051077645092334,34.051077645092334 0 0,0 -0.022697260054731775,0.5857154290047659 l -13.036456726208021 -0.6175951132696209" fill="#ffa20f" stroke="none" /><path d="M 120.95626037817324 101.35467743843564 l 15.170509288879334 0.9806686065338248 a36.20217296967164,36.20217296967164 0 0,0 -0.04555171398512471,0.6215169463217677 l -15.151381016229871 -1.241658689352363" fill="#ffbe11" stroke="none" /><path d="M 120.92983693683757 101.71520430193887 l 10.226201849967966 0.8380392765836107 a31.2604831321622,31.2604831321622 0 0,0 -0.04856599441716515,0.5359217014543747 l -10.210261259273725 -1.013942366586556" fill="#ff7d0b" stroke="none" /><path d="M 120.89721153311464 102.0752229133903 l 3.805115480649359 0.3778716036360454 a24.823831948440187,24.823831948440187 0 0,0 -0.045885905912528904,0.42484650034205845 l -3.798047273235778 -0.44331442586289527" fill="#ff2303" stroke="none" /><path d="M 120.8583938346157 102.4346265915055 l 9.049366654237012 1.0562572011717213 a30.110802166540765,30.110802166540765 0 0,0 -0.06452098346957477,0.5142957210144198 l -9.02984416152059 -1.2118706764735359" fill="#ff6d0a" stroke="none" /><path d="M 120.81339534386255 102.79330883721812 l 6.30633936615016 0.8463565502376426 a27.362879506260146,27.362879506260146 0 0,0 -0.06666893794553291,0.4662823967128407 l -6.290836377188025 -0.9547844189308926" fill="#ff4706" stroke="none" /><path d="M 120.76222939487914 103.15116336523771 l 10.02232002621935 1.5211260361616112 a31.137096385348528,31.137096385348528 0 0,0 -0.08498684471864977,0.5292131631893106 l -9.994651427139413 -1.6934184290441268" fill="#ff7b0b" stroke="none" /><path d="M 120.70491114924044 103.5080841355445 l 2.9875564796763188 0.506189058955713 a24.03013548915926,24.03013548915926 0 0,0 -0.07260940894564166,0.4072321256158106 l -2.9784006283914883 -0.5575399353047419" fill="#ff1702" stroke="none" /><path d="M 120.5718875245553 104.21870165774334 l 3.2205908139550354 0.6604504224285456 a24.28761310853598,24.28761310853598 0 0,0 -0.08751169490219961,0.4088255044397223 l -3.208745080328393 -0.7157897462844369" fill="#ff1b02" stroke="none" /><path d="M 120.49622156327973 104.57218783832717 l 8.339518298794355 1.8603352830438962 a29.54449605425995,29.54449605425995 0 0,0 -0.11499763749248683,0.49540681254983726 l -8.306260095371314 -2.0036107529422984" fill="#ff6509" stroke="none" /><path d="M 120.41448212921028 104.9243191809786 l 4.244812485169695 1.0239207347057586 a25.366560054002797,25.366560054002797 0 0,0 -0.10604271276172932,0.42358792481870805 l -4.226558458112905 -1.0968364989218626" fill="#ff2a04" stroke="none" /><path d="M 120.32669344350535 105.2749913415812 l 16.407929212833103 4.2580306910972965 a37.951429627605705,37.951429627605705 0 0,0 -0.16953793423549335,0.6309137229498704 l -16.332203202255833 -4.5398353472227155" fill="#ffd413" stroke="none" /><path d="M 120.23288151984713 105.62410040840565 l 5.265400073252848 1.4636144966969722 a26.465034796444815,26.465034796444815 0 0,0 -0.12578120655956104,0.4378608809778985 l -5.239426229807187 -1.5540328531794527" fill="#ff3a05" stroke="none" /><path d="M 120.13307415673323 105.97154293290107 l 3.5327054280751797 1.0478132633306 a24.684822964046354,24.684822964046354 0 0,0 -0.12433301881056738,0.4063274993332574 l -3.51414563675848 -1.1084677352159147" fill="#ff2103" stroke="none" /><path d="M 120.02730092923936 106.31721596034902 l 30.55185028550287 9.63697689087966 a53.03571256368633,53.03571256368633 0 0,0 -0.28211905077327376,0.8682731580884203 l -30.38143898371335 -10.161448948945877" fill="#79ff26" stroke="none" /><path d="M 119.9155931802556 106.66101706037122 l 3.51141777065115 1.1744372093112723 a24.702614956845977,24.702614956845977 0 0,0 -0.1383454294573321,0.4020965760630704 l -3.4906815102505866 -1.234706488463643" fill="#ff2103" stroke="none" /><path d="M 119.67450827220406 107.3425965602758 l 8.143138543303476 3.0390483071123318 a29.69175010848776,29.69175010848776 0 0,0 -0.18282443513845636,0.47729690933832913 l -8.089619828571513 -3.1787687832838047" fill="#ff6709" stroke="none" /><path d="M 119.54520255179757 107.68017299344265 l 3.0808624044240207 1.2106068572205202 a24.310178562818432,24.310178562818432 0 0,0 -0.15639245575108335,0.388153249522243 l -3.059567334415545 -1.2634594745855767" fill="#ff1b02" stroke="none" /><path d="M 119.41010516605496 108.01547362559984 l 2.841504306866526 1.1734095531099136 a24.074253845288418,24.074253845288418 0 0,0 -0.16146833488743606,0.3816634466988492 l -2.820884990786781 -1.2221475254749263" fill="#ff1802" stroke="none" /><path d="M 119.26925614724726 108.34839909993367 l 9.545721905255464 4.135680980785356 a31.403108375255144,31.403108375255144 0 0,0 -0.21916216664493682,0.49415282866207016 l -9.473118653879254 -4.299382145940114" fill="#ff7f0b" stroke="none" /><path d="M 119.12269723197855 108.67885076344098 l 8.224024753870399 3.7324799241357223 a30.031389125508284,30.031389125508284 0 0,0 -0.21769236745060097,0.46888999266642445 l -8.158557769579966 -3.8734899840809773" fill="#ff6c09" stroke="none" /><path d="M 118.97047184881838 109.00673069616215 l 8.507971304653594 4.0393832542685715 a30.41818415596522,30.41818415596522 0 0,0 -0.22863863374823837,0.4710633060477127 l -8.437179414290641 -4.185235516281559" fill="#ff710a" stroke="none" /><path d="M 118.81262510543309 109.33194174019688 l 4.156130476955057 2.0616350593410915 a25.639370610263747,25.639370610263747 0 0,0 -0.19952476433200667,0.39368128894634596 l -4.120027042836781 -2.1328705599901316" fill="#ff2e04" stroke="none" /><path d="M 118.64920377521936 109.65438752849418 l 2.2623987864696584 1.1712068188989548 a23.54758192834986,23.54758192834986 0 0,0 -0.1894430906744545,0.3583549340633193 l -2.2419031875703106 -1.2099767680484086" fill="#ff1001" stroke="none" /><line stroke="#e1ed5e" stroke-width="0.3" x1="174.80103733775053" x2="179.2010983576182" y1="140.37084112569926" y2="142.7455964860345" /><path d="M 175.68104954172406 140.8457921977663 a86.0,86.0 0 0,1 -30.038265399797805,32.042727171017184" fill="none" id="id125" stroke="none" /><text fill="#e1ed5e" style="font-size:6.75px; font-family:Arial;" text-anchor="middle"><textPath startOffset="22.206326154141568" xlink:href="#id125">May</textPath></text><path d="M 118.48025628344425 109.97397251340804 l 1.9734399907394125 1.065084592042612 a23.24251434449284,23.24251434449284 0 0,0 -0.19304965739720165,0.3504412032394451 l -1.9548139238907012 -1.098896313679862" fill="#ff0c01" stroke="none" /><path d="M 118.30583269289576 110.29060199501025 l 8.874272666548645 4.9886617854915185 a31.180346839389895,31.180346839389895 0 0,0 -0.2670344351590826,0.4655970460993848 l -8.787086235237183 -5.140678677449218" fill="#ff7c0b" stroke="none" /><path d="M 118.12598468904814 110.60418214915192 l 3.2516926058983118 1.9023264819830843 a24.76727366238609,24.76727366238609 0 0,0 -0.21844632090902438,0.36612859885242754 l -3.2184654092910603 -1.958017174721616" fill="#ff2203" stroke="none" /><path d="M 117.94076556474637 110.91462005526583 l 9.90761892409354 6.027496196780683 a32.5970523473537,32.5970523473537 0 0,0 -0.2957567197507292,0.47685400322787047 l -9.802397564674848 -6.197146531373827" fill="#ff8f0d" stroke="none" /><path d="M 117.75023020441432 111.22182372390056 l 1.2226557026274232 0.7729717649799586 a22.44650347964448,22.44650347964448 0 0,0 -0.20928172454783364,0.32480988403580496 l -1.2091691147025392 -0.7939032489372164" fill="#ff0000" stroke="none" /><path d="M 117.55443506779139 111.5257021239791 l 8.485465179336545 5.571295439741815 a31.150982818753114,31.150982818753114 0 0,0 -0.2981548004749219,0.44570097253545016 l -8.388307273450902 -5.716533326483072" fill="#ff7b0b" stroke="none" /><path d="M 117.14729908036423 112.12312394758627 l 1.1811251326786414 0.8350543321116606 a22.44650347964448,22.44650347964448 0 0,0 -0.22576929168629814,0.3135737998119971 l -1.1665760486167405 -0.8552617373747888" fill="#ff0000" stroke="none" /><path d="M 116.93607887273984 112.41649034213515 l 3.1951351395563923 2.3424763724958106 a24.96182838039827,24.96182838039827 0 0,0 -0.257034007140563,0.3443390564619159 l -3.154339865720737 -2.3971283084670416" fill="#ff2503" stroke="none" /><path d="M 116.71984013943494 112.70617746262583 l 8.172675887806808 6.210793243774751 a31.264822642601132,31.264822642601132 0 0,0 -0.32931264902045454,0.4256809906507577 l -8.064556421568284 -6.350552228538762" fill="#ff7d0b" stroke="none" /><path d="M 116.498646956653 112.99209946851258 l 1.136445249153542 0.8949103375757449 a22.44650347964448,22.44650347964448 0 0,0 -0.2416548749402862,0.30150161262365055 l -1.1208724621584019 -0.9143397837776457" fill="#ff0000" stroke="none" /><path d="M 116.27256486870786 113.27417163493432 l 7.149484999877373 5.832116310825718 a30.226522444912327,30.226522444912327 0 0,0 -0.3323535686589452,0.40034128355477694 l -7.048035431324884 -5.954318851494266" fill="#ff6f0a" stroke="none" /><path d="M 116.0416608686014 113.55231037782055 l 2.962307468501823 2.5026155693299326 a24.87793117857889,24.87793117857889 0 0,0 -0.2791748013626085,0.324743364834853 l -2.918790157568436 -2.5532360333263133" fill="#ff2303" stroke="none" /><path d="M 115.80600337817218 113.82643327865902 l 7.739818430435307 6.7704707228605185 a31.28319323679262,31.28319323679262 0 0,0 -0.3580304118668601,0.4022509631867542 l -7.622129168920108 -6.9026958557881395" fill="#ff7d0b" stroke="none" /><path d="M 115.32070863581623 114.36230785411682 l 1.8796082605395434 1.7620276662595582 a23.576367347594786,23.576367347594786 0 0,0 -0.28010234264322853,0.2936861864270166 l -1.8489993665173505 -1.794120969269082" fill="#ff1101" stroke="none" /><path d="M 115.07121518719521 114.62390073753431 l 8.355429959772918 8.10744036452705 a32.64232790626657,32.64232790626657 0 0,0 -0.3947535805622717,0.3998832929755859 l -8.214635754155111 -8.250064151483302" fill="#ff8f0d" stroke="none" /><path d="M 114.81725581225074 114.88116024355365 l 7.1600196563531995 7.1908996647741 a31.147655860749932,31.147655860749932 0 0,0 -0.3831903988098627,0.3750324561235127 l -7.035179305167542 -7.313082223820184" fill="#ff7b0b" stroke="none" /><path d="M 114.29624159901734 115.38237550388516 l 5.63488555479587 6.0629868993852325 a29.27718221122165,29.27718221122165 0 0,0 -0.37209967250075116,0.33990422843135515 l -5.529686332828255 -6.159083894403171" fill="#ff6209" stroke="none" /><path d="M 113.75828350139079 115.86535959552629 l 4.949668950418036 5.7077089427075025 a28.55494302383516,28.55494302383516 0 0,0 -0.3741166971539265,0.31883036560298855 l -4.850686776687062 -5.792063698533438" fill="#ff5708" stroke="none" /><path d="M 113.20401910651253 116.32954008644616 l 4.5632724773855475 5.643443882029122 a28.257541908420258,28.257541908420258 0 0,0 -0.38086121482875224,0.30257918327536126 l -4.465453769839444 -5.72115697930961" fill="#ff5307" stroke="none" /><path d="M 112.92097659922987 116.55440617244103 l 0.8900113148186156 1.1402860062801916 a22.44650347964448,22.44650347964448 0 0,0 -0.30663128543242046,0.23511179424079987 l -0.8702513008927014 -1.1554371423483627" fill="#ff0000" stroke="none" /><path d="M 112.34349029814194 116.9893568818739 l 6.360596160594019 8.754609558859967 a31.821292531220365,31.821292531220365 0 0,0 -0.44591127545069276,0.3181458553554002 l -6.2089575572944415 -8.862799676059586" fill="#ff840c" stroke="none" /><path d="M 112.04921762599082 117.19931262002967 l 1.161949014865957 1.6585910368244123 a23.025104871502275,23.025104871502275 0 0,0 -0.3265651888958602,0.22461451470294674 l -1.1332269413472136 -1.6783463408924533" fill="#ff0801" stroke="none" /><path d="M 111.7513745106137 117.40417183066458 l 4.37490355185244 6.479375930896804 a28.818062006782494,28.818062006782494 0 0,0 -0.4135052959963871,0.27404876243178833 l -4.262723557116089 -6.55372271441991" fill="#ff5b08" stroke="none" /><path d="M 111.1453310114006 117.79835938074945 l 5.3977188186308 8.6198013564563 a31.17036596538035,31.17036596538035 0 0,0 -0.4571962410980566,0.2808472730395313 l -5.248543377600435 -8.71143709632421" fill="#ff7b0b" stroke="none" /><line stroke="#e1ed5e" stroke-width="0.3" x1="143.8653032363475" x2="146.44561519142675" y1="172.8068346515853" y2="177.08958963109032" /><path d="M 144.38136562736335 173.6633856474863 a86.0,86.0 0 0,1 -40.68145358897372,12.25698825130547" fill="none" id="id126" stroke="none" /><text fill="#e1ed5e" style="font-size:6.75px; font-family:Arial;" text-anchor="middle"><textPath startOffset="21.466115282336833" xlink:href="#id126">June</textPath></text><path d="M 110.21172684928248 118.3499491758327 l 1.7084765111407567 3.070044627147429 a24.51341230170848,24.51341230170848 0 0,0 -0.37047608894384354,0.20201310267036637 l -1.6553776103282645 -3.0989983815775655" fill="#ff1e03" stroke="none" /><path d="M 109.89434966115114 118.52300852407294 l 6.145595341765019 11.50504265560516 a34.04355582699818,34.04355582699818 0 0,0 -0.5192600305587928,0.27165230624371706 l -5.946644408679731 -11.609124380793595" fill="#ffa20f" stroke="none" /><path d="M 109.2508944713604 118.85261126421891 l 4.481001905814294 9.131937161976717 a31.172101769555923,31.172101769555923 0 0,0 -0.48374252754789543,0.23222581020797717 l -4.323146710266166 -9.207717248684254" fill="#ff7b0b" stroke="none" /><path d="M 108.2653958097858 119.30500536409082 l 4.565170237440157 10.66260321343932 a32.59878815152928,32.59878815152928 0 0,0 -0.5177441063967151,0.21641707846411723 l -4.380954671545981 -10.73960533492341" fill="#ff8f0d" stroke="none" /><path d="M 107.93186726928326 119.44442032107085 l 0.5463558859569715 1.339353412099944 a22.44650347964448,22.44650347964448 0 0,0 -0.3590146397793092,0.1428593343859352 l -0.5232201701357961 -1.348559590891948" fill="#ff0000" stroke="none" /><path d="M 107.59598834532513 119.57807347666477 l 3.558577343144593 9.171958345533415 a30.838104116106013,30.838104116106013 0 0,0 -0.49653720652145655,0.18774788450657443 l -3.4001699158628615 -9.23185448014662" fill="#ff770a" stroke="none" /><path d="M 106.91757812671514 119.82793768551818 l 2.998221272330432 8.593837823902167 a30.101833844966972,30.101833844966972 0 0,0 -0.49070327710603634,0.16647319388778345 l -2.8498482622871686 -8.644174004688074" fill="#ff6d0a" stroke="none" /><path d="M 106.57524785965236 119.94407469862006 l 4.090369914211672 12.406930484646216 a34.063806875713205,34.063806875713205 0 0,0 -0.5584496005834533,0.17879792684968482 l -3.876198968537278 -12.475501258155607" fill="#ffa20f" stroke="none" /><path d="M 106.2309692047433 120.05430185196036 l 0.5492422818461528 1.7677298904987926 a22.851090502901044,22.851090502901044 0 0,0 -0.3766349659230895,0.11347702564889024 l -0.5187323414828173 -1.7769222852534083" fill="#ff0601" stroke="none" /><path d="M 105.88484417918355 120.15858648285463 l 2.5114963205120238 8.603153156968865 a29.962246259181278,29.962246259181278 0 0,0 -0.49633007653064465,0.1402678373346931 l -2.3630350758767733 -8.645109787642077" fill="#ff6b09" stroke="none" /><path d="M 105.18746579009965 120.34920634021253 l 2.6928232547716715 10.563311309667212 a31.90113952329674,31.90113952329674 0 0,0 -0.5332757258381831,0.13106619887707663 l -2.5105942441902775 -10.608098766858317" fill="#ff850c" stroke="none" /><path d="M 104.48393922423573 120.51570834832081 l 2.0869276686890577 9.548478972117074 a30.773879361609794,30.773879361609794 0 0,0 -0.518479108718085,0.10865233830982347 l -1.9222570985415945 -9.582987291153438" fill="#ff760a" stroke="none" /><path d="M 104.13013068566511 120.58985236759428 l 2.2138004208618054 11.036411994193898 a32.25625612754946,32.25625612754946 0 0,0 -0.5453340741880935,0.1045145732241837 l -2.0234987321020075 -11.07288376576655" fill="#ff8a0c" stroke="none" /><path d="M 103.41894727170886 120.7198165907248 l 0.24138843349424163 1.4628842364752799 a22.482666066635595,22.482666066635595 0 0,0 -0.38238104806990475,0.05972005564508196 l -0.21617152181581978 -1.4668225994674675" fill="#ff0100" stroke="none" /><path d="M 102.70371172650421 120.8252237178851 l 1.1453619465693892 8.822101314070236 a29.896141050161525,29.896141050161525 0 0,0 -0.5109002466424228,0.061862904880338146 l -0.9933342768755861 -8.840509747675926" fill="#ff6a09" stroke="none" /><path d="M 101.98527174616119 120.90594882070398 l 0.7899233060434078 8.318305159158768 a29.355727350166347,29.355727350166347 0 0,0 -0.5034586672377355,0.04344053225286238 l -0.6466203210641306 -8.330669943690294" fill="#ff6309" stroke="none" /><path d="M 101.26447882468166 120.96189622390904 l 0.7034179340723831 11.660909971959303 a32.682106751956795,32.682106751956795 0 0,0 -0.5618395469924182,0.029040687019517144 l -0.5025903186664853 -11.671290465741022" fill="#ff900d" stroke="none" /><line stroke="#e1ed5e" stroke-width="0.3" x1="102.19456741930631" x2="102.32365962044197" y1="184.97166512339345" y2="189.96999836594603" /><path d="M 102.22038585953345 185.97133177190398 a86.0,86.0 0 0,1 -42.740103519485714,-10.115201625700543" fill="none" id="id127" stroke="none" /><text fill="#e1ed5e" style="font-size:6.75px; font-family:Arial;" text-anchor="middle"><textPath startOffset="22.20632615414155" xlink:href="#id127">July</textPath></text><path d="M 99.45781275523022 120.99299961872073 l -0.041544206139275536 1.6085540780513712 a22.60909047075652,22.60909047075652 0 0,0 -0.38896210734433784,-0.013396641434776455 l 0.06922666515825643 -1.607600638190501" fill="#ff0200" stroke="none" /><path d="M 99.09653310690486 120.98055641714683 l -0.3916185555325353 9.094273692978255 a30.10270174705476,30.10270174705476 0 0,0 -0.5174968811274705,-0.026748677694278307 l 0.5481035050734947 -9.086185208521776" fill="#ff6d0a" stroke="none" /><path d="M 97.2962882734958 120.8252237178851 l -1.0714453994248836 8.25276227705385 a29.32202381909063,29.32202381909063 0 0,0 -0.4999703989597657,-0.06929134155516958 l 1.2133443895714804 -8.233096370006077" fill="#ff6209" stroke="none" /><path d="M 96.93821686468263 120.77559828337769 l -1.2668072976498315 8.595866642167055 a29.688712451180507,29.688712451180507 0 0,0 -0.5049401592000452,-0.07886126824818596 l 1.414583320458394 -8.572787066571763" fill="#ff6709" stroke="none" /><path d="M 96.22490169976321 120.6578951692458 l -1.706362495332194 9.337467463322499 a30.492100483775054,30.492100483775054 0 0,0 -0.5155087224511538,-0.09879847357886119 l 1.8668388323550429 -9.30671179139517" fill="#ff720a" stroke="none" /><path d="M 95.86986931433489 120.58985236759428 l -0.5511955376614035 2.7478633510352086 a23.802600491811184,23.802600491811184 0 0,0 -0.4010268235327559,-0.08403906998206137 l 0.5984138226235461 -2.737968300326606" fill="#ff1402" stroke="none" /><path d="M 95.51606077576429 120.51570834832081 l -1.6992790551278585 7.774840771477119 a28.95837284430801,28.95837284430801 0 0,0 -0.4860591873327367,-0.11062548856407632 l 1.8328583918534578 -7.744438549335356" fill="#ff5d08" stroke="none" /><path d="M 94.81253420990036 120.34920634021253 l -2.035357318519991 7.98422731378233 a29.239573120750897,29.239573120750897 0 0,0 -0.4866433454197489,-0.1285269305578942 l 2.1724911067512296 -7.948009033920854" fill="#ff6108" stroke="none" /><path d="M 94.11515582081647 120.15858648285463 l -2.9335110432734144 10.048768372392265 a31.468201031839147,31.468201031839147 0 0,0 -0.5186634231649908,-0.15626903473867482 l 3.106049440878651 -9.996783968547865" fill="#ff7f0b" stroke="none" /><path d="M 93.42475214034765 119.94407469862007 l -2.924397318112927 8.870296573728274 a30.33992831771645,30.33992831771645 0 0,0 -0.49458456017472846,-0.1677899358354592 l 3.0766516112248814 -8.81864365099469" fill="#ff700a" stroke="none" /><path d="M 93.08242187328487 119.8279376855182 l -4.9080905576084355 14.068119210003385 a35.899709092077984,35.899709092077984 0 0,0 -0.5817127991960616,-0.20858151344164852 l 5.149522917434224 -13.981550155521779" fill="#ffba11" stroke="none" /><path d="M 92.7421414339146 119.70592522655815 l -3.5405500950013016 9.613002898540921 a31.24428229319018,31.24428229319018 0 0,0 -0.5030772511571332,-0.19022076977841426 l 3.7054975669187176 -9.550633878655875" fill="#ff7c0b" stroke="none" /><path d="M 92.40401165467489 119.57807347666478 l -1.9216830408747496 4.952989665427951 a26.31271798003825,26.31271798003825 0 0,0 -0.42085178102615717,-0.16746560906120675 l 2.006655897942765 -4.919177211960678" fill="#ff3805" stroke="none" /><path d="M 92.06813273071674 119.44442032107085 l -3.9885618742516793 9.777681714353228 a31.559909352448607,31.559909352448607 0 0,0 -0.501244309748313,-0.2095201621269128 l 4.156277643497455 -9.707576509206342" fill="#ff810b" stroke="none" /><path d="M 91.40352486487194 119.15986991738527 l -4.549549453593369 10.140060239034442 a32.113920185152445,32.113920185152445 0 0,0 -0.5024024077234884,-0.23062830410383547 l 4.723419857084277 -10.060244864596532" fill="#ff880c" stroke="none" /><path d="M 91.07499286063937 119.00905698771935 l -0.6147644706160469 1.3093650989283934 a22.44650347964448,22.44650347964448 0 0,0 -0.3483348157954582,-0.16722187985371767 l 0.6372119544117473 -1.2985889425751134" fill="#ff0000" stroke="none" /><path d="M 90.10565033884886 118.52300852407294 l -1.00294523914491 1.8775931567086106 a23.128674520644818,23.128674520644818 0 0,0 -0.3495482706936986,-0.1906015875334906 l 1.0351163217072492 -1.860050917415354" fill="#ff0a01" stroke="none" /><line stroke="#e1ed5e" stroke-width="0.3" x1="58.666819895761336" x2="56.23545636021788" y1="174.27360380694188" y2="178.64263932499728" /><path d="M 58.180547188652646 175.14741091055294 a86.0,86.0 0 0,1 -31.652253787137756,-30.449443065178592" fill="none" id="id128" stroke="none" /><text fill="#e1ed5e" style="font-size:6.75px; font-family:Arial;" text-anchor="middle"><textPath startOffset="22.20632615414155" xlink:href="#id128">August</textPath></text><path d="M 89.7882731507175 118.34994917583269 l -4.890917586115124 8.788727945137392 a31.057972645011972,31.057972645011972 0 0,0 -0.4649100951374728,-0.26398808542721536 l 5.041476448173805 -8.703236693915544" fill="#ff7a0b" stroke="none" /><path d="M 89.1626897886671 117.98757091392108 l -5.2452588390054355 8.705985478741534 a31.164001350069917,31.164001350069917 0 0,0 -0.45710288710281655,-0.28078992739091535 l 5.39434092604056 -8.61440708452224" fill="#ff7b0b" stroke="none" /><path d="M 88.8546689885994 117.79835938074946 l -4.933719209189689 7.878824548058894 a30.296099262283228,30.296099262283228 0 0,0 -0.43960822724811793,-0.280578769973137 l 5.06860923848473 -7.792731349261953" fill="#ff700a" stroke="none" /><path d="M 87.95078237400918 117.19931262002967 l -5.831988098328643 8.324705355398411 a31.164290650765842,31.164290650765842 0 0,0 -0.43670471835689595,-0.3115772213182304 l 5.974420144534426 -8.22308387223596" fill="#ff7b0b" stroke="none" /><path d="M 87.65650970185807 116.9893568818739 l -2.173366649607062 2.991382563074169 a24.697552194667225,24.697552194667225 0 0,0 -0.3417847553162985,-0.25284419106351397 l 2.2245363753419247 -2.9535284232708885" fill="#ff2103" stroke="none" /><path d="M 87.36589467227662 116.77436683061367 l -7.193062127528625 9.5502657000804 a32.95607451100146,32.95607451100146 0 0,0 -0.450197666611161,-0.34519237334410585 l 7.3563885226332735 -9.425033984908927" fill="#ff930d" stroke="none" /><path d="M 86.79598089348748 116.32954008644616 l -3.1167006408835 3.8544542871539265 a25.95687812404571,25.95687812404571 0 0,0 -0.3450161930545742,-0.28392483830107457 l 3.1825869624827625 -3.800234329995671" fill="#ff3304" stroke="none" /><path d="M 86.51685102203217 116.09983520530335 l -6.640450794254627 7.929168746197342 a31.342499879458042,31.342499879458042 0 0,0 -0.41063827462944524,-0.34995484624633305 l 6.775954545461129 -7.813689509728057" fill="#ff7e0b" stroke="none" /><path d="M 86.24171649860922 115.8653595955263 l -7.2678035537260675 8.380865014000623 a32.093235185393524,32.093235185393524 0 0,0 -0.4142436579508705,-0.3655218648574028 l 7.4109895645835255 -8.254520007370932" fill="#ff880c" stroke="none" /><path d="M 85.44109423537348 115.13401014063109 l -7.517843168377541 7.814812224579198 a31.843857985502822,31.843857985502822 0 0,0 -0.39175534414729046,-0.38341505781822366 l 7.651248464900625 -7.684247063838404" fill="#ff850c" stroke="none" /><path d="M 85.18274418774928 114.88116024355367 l -2.8429624895260117 2.855223727599429 a25.029235442549705,25.029235442549705 0 0,0 -0.3026861423013246,-0.3066194640948561 l 2.8916892568828696 -2.8058637695239086" fill="#ff2603" stroke="none" /><path d="M 84.67929136418377 114.36230785411682 l -10.875260798011427 10.194949025380172 a35.906652308780274,35.906652308780274 0 0,0 -0.41883159332781805,-0.4545589743130312 l 11.049138799334973 -10.006238796265798" fill="#ffba11" stroke="none" /><path d="M 83.95833913139862 113.55231037782056 l -5.567820919479962 4.703804540376966 a28.28878638358058,28.28878638358058 0 0,0 -0.31104733019647696,-0.3746765467860216 l 5.647964249569975 -4.607266736477183" fill="#ff5407" stroke="none" /><path d="M 83.50135304334701 112.99209946851258 l -7.016072034699224 5.524907951091385 a29.930278532281136,29.930278532281136 0 0,0 -0.3152558842907135,-0.40751072736661303 l 7.110134736208006 -5.40331922961152" fill="#ff6b09" stroke="none" /><path d="M 83.06392112726016 112.41649034213515 l -21.57827382886872 15.819861882395225 a47.75611951333194,47.75611951333194 0 0,0 -0.48033607042577503,-0.6671447904414637 l 21.847389691670106 -15.446083486502623" fill="#b4ff20" stroke="none" /><path d="M 82.24976979558568 111.22182372390057 l -12.7261341463678 8.045553912970412 a36.05607611822755,36.05607611822755 0 0,0 -0.327140831206957,-0.5274551838139423 l 12.862739617242713 -7.825302397791206" fill="#ffbc11" stroke="none" /><path d="M 82.05923443525364 110.91462005526583 l -9.482881341090415 5.769098676065044 a32.099889101399896,32.099889101399896 0 0,0 -0.28311968331167425,-0.47452487424412504 l 9.580781900100321 -5.605011707934807" fill="#ff880c" stroke="none" /><line stroke="#e1ed5e" stroke-width="0.3" x1="26.63291911575756" x2="22.317208475507996" y1="142.92168965132927" y2="145.44649492493687" /><path d="M 25.769776987707644 143.4266507060508 a86.0,86.0 0 0,1 -11.730757126820373,-40.83630448921669" fill="none" id="id129" stroke="none" /><text fill="#e1ed5e" style="font-size:6.75px; font-family:Arial;" text-anchor="middle"><textPath startOffset="21.46611528233685" xlink:href="#id129">September</textPath></text><path d="M 81.69416730710424 110.29060199501025 l -1.3239725344031712 0.7442695796709384 a22.518828653626706,22.518828653626706 0 0,0 -0.18703880708150672,-0.3395297639469564 l 1.3365877509361943 -0.7213692973261595" fill="#ff0100" stroke="none" /><path d="M 81.51974371655577 109.97397251340807 l -6.713616625916745 3.6234036295503786 a28.62900400199296,28.62900400199296 0 0,0 -0.23032373419792426,-0.4356857053369597 l 6.774992868339556 -3.5073029091272927" fill="#ff5908" stroke="none" /><path d="M 80.87730276802145 108.67885076344099 l -1.3171927660116587 0.5978089442205977 a22.44650347964448,22.44650347964448 0 0,0 -0.15665405721677364,-0.35321354356052426 l 1.3272879079597122 -0.5750470641673776" fill="#ff0000" stroke="none" /><path d="M 80.32549172779594 107.34259656027581 l -8.88036850062558 3.314185152916678 a30.478648001414356,30.478648001414356 0 0,0 -0.179208265977918,-0.49310418108360154 l 8.936101027608723 -3.1608331748269594" fill="#ff720a" stroke="none" /><path d="M 80.20201598880116 107.00284435728193 l -1.3637072743878524 0.48236374905795354 a22.44650347964448,22.44650347964448 0 0,0 -0.12571022011766278,-0.3653727433115983 l 1.3718083254487436 -0.45881830265705836" fill="#ff0000" stroke="none" /><path d="M 79.97269907076064 106.31721596034903 l -12.560925524433003 3.962095515519744 a34.17099278355486,34.17099278355486 0 0,0 -0.17211315206601552,-0.5624757393520731 l 12.627265449005149 -3.745292803615623" fill="#ffa40f" stroke="none" /><path d="M 79.35854240842038 103.8639653848113 l -1.4218066776739955 0.26615425592168396 a22.44650347964448,22.44650347964448 0 0,0 -0.06782430965853439,-0.3803947476193878 l 1.4261774296717185 -0.2416407575690825" fill="#ff0000" stroke="none" /><path d="M 79.23777060512086 103.15116336523772 l -1.64464441069524 0.2496140042217269 a22.663479001591153,22.663479001591153 0 0,0 -0.0552189719229425,-0.38620136101888114 l 1.6486974336347817 -0.22126717122244513" fill="#ff0300" stroke="none" /><path d="M 79.04373962182676 101.35467743843564 l -1.5156651778681682 0.0979772814246514 a22.518828653626706,22.518828653626706 0 0,0 -0.02167560480134327,-0.3870324845757074 l 1.517127133557043 -0.0718730805135064" fill="#ff0100" stroke="none" /><path d="M 79.0095281055655 100.63252640178507 l -1.7350166076959546 0.05228295092280658 a22.735804175573378,22.735804175573378 0 0,0 -0.008420840937312166,-0.3912833892977873 l 1.735659511318274 -0.022409745834890485" fill="#ff0400" stroke="none" /><line stroke="#e1ed5e" stroke-width="0.3" x1="15.007084014347285" x2="10.007500721073583" y1="101.09737516637583" y2="101.16192664675087" /><path d="M 14.007167355692545 101.11028546245083 a86.0,86.0 0 0,1 10.666146001902534,-42.60595125391555" fill="none" id="id130" stroke="none" /><text fill="#e1ed5e" style="font-size:6.75px; font-family:Arial;" text-anchor="middle"><textPath startOffset="22.20632615414155" xlink:href="#id130">October</textPath></text><path d="M 79.00175016825051 100.2711162175752 l -13.10336148069731 0.16918237618050572 a34.10445362349122,34.10445362349122 0 0,0 -0.0025264948067659078,-0.5870684159968759 l 13.10433227279358 0.05639551802004556" fill="#ffa30f" stroke="none" /><path d="M 79.00019446554 99.90962569577889 l -39.6375891933741 -0.17058346271233196 a60.637956251305866,60.637956251305866 0 0,0 0.01347604334386287,-1.043734408102972 l 39.62878014291252 0.8528541288757759" fill="#30ff34" stroke="none" /><path d="M 79.00486145842228 99.54816195383935 l -4.629764210312894 -0.09963752374529822 a25.630836239733842,25.630836239733842 0 0,0 0.013289351254073687,-0.44100887047034 l 4.627363164603175 0.17931654164063263" fill="#ff2e04" stroke="none" /><path d="M 79.01574976396665 99.18683210126434 l -13.73971575990767 -0.5324324513879434 a34.75002812645655,34.75002812645655 0 0,0 0.028307028334671486,-0.5975166286191192 l 13.7285151233395 0.7688601866300717" fill="#ffab0f" stroke="none" /><path d="M 79.03285615573316 98.82574320788736 l -11.439827502653372 -0.6406831204747464 a32.45775406226394,32.45775406226394 0 0,0 0.03604264962171916,-0.5575638367936524 l 11.42710426202724 0.8375060215214106" fill="#ff8d0d" stroke="none" /><path d="M 79.05617556472873 98.46500227214037 l -18.003207287910968 -1.3194764101722376 a39.051495523875346,39.051495523875346 0 0,0 0.05490550299823899,-0.6699862071178583 l 17.97782730109323 1.6291765344978744" fill="#ffe215" stroke="none" /><path d="M 79.12142395522702 97.74499172005258 l -8.982907955828445 -0.9702065780233137 a30.035150034555357,30.035150034555357 0 0,0 0.0599410731158314,-0.5135385090599689 l 8.964876529709025 1.1246888254081444" fill="#ff6c09" stroke="none" /><path d="M 79.16333360222342 97.38593545837743 l -6.091930842808423 -0.7642633472262927 a27.139684019351,27.139684019351 0 0,0 0.06214212342650309,-0.46303099934734976 l 6.077872720324085 0.8690126886383019" fill="#ff4406" stroke="none" /><path d="M 79.21141760316559 97.0276538004421 l -17.88264947119692 -2.5568566523243192 a39.06451405519215,39.06451405519215 0 0,0 0.10090569824531996,-0.6648424760617747 l 17.8359878795123 2.864298240778186" fill="#ffe215" stroke="none" /><path d="M 79.32604984820605 96.31383870115002 l -10.193312689500521 -1.8174656738181618 a31.3540719072952,31.3540719072952 0 0,0 0.09930920930437545,-0.5305137671179462 l 10.160517756286286 1.9926575183986805" fill="#ff7e0b" stroke="none" /><path d="M 79.3925641242962 95.95851677861259 l -9.786063357835834 -1.9192203776675305 a30.972484289364985,30.972484289364985 0 0,0 0.10710683887406924,-0.5222909845695571 l 9.75157722304677 2.08738701840049" fill="#ff790b" stroke="none" /><path d="M 79.46518482838121 95.60439243477599 l -5.050333102446766 -1.081055865684046 a26.16474067407062,26.16474067407062 0 0,0 0.09806247398502137,-0.43959484275601096 l 5.030976241459707 1.1678288779900163" fill="#ff3605" stroke="none" /><path d="M 79.54389044137918 95.25157060432595 l -6.147076586190203 -1.4269066694074348 a27.310516080297017,27.310516080297017 0 0,0 0.1102398081694651,-0.45701517531523306 l 6.121603977759924 1.5325070763820647" fill="#ff4606" stroke="none" /><path d="M 79.62865764111835 94.90015583598534 l -8.434078959502084 -2.111421407716049 a29.69435381475112,29.69435381475112 0 0,0 0.12839791662477779,-0.4947695495618166 l 8.396484711006998 2.2562873828267294" fill="#ff6709" stroke="none" /><path d="M 79.71946130924805 94.55025226153421 l -1.9061330629502968 -0.5122124469881665 a22.973753997974896,22.973753997974896 0 0,0 0.10591253889323478,-0.3810237540727873 l 1.8970337534907011 0.5449475044798964" fill="#ff0801" stroke="none" /><path d="M 80.02781315780177 93.51064311812611 l -7.168806884991145 -2.3292865554236886 a28.537729632427393,28.537729632427393 0 0,0 0.15581968139350513,-0.4658810142631801 l 7.127649909825868 2.452340672609191" fill="#ff5708" stroke="none" /><path d="M 80.2630227832202 92.82701384747504 l -6.913491072352062 -2.5125618367449887 a28.35590414503608,28.35590414503608 0 0,0 0.17066934156286856,-0.45730898393035785 l 6.869217142287566 2.6311939577046877" fill="#ff5507" stroke="none" /><path d="M 80.38941819471856 92.48833698450439 l -7.431284523347849 -2.8464889856874858 a28.95779424291615,28.95779424291615 0 0,0 0.18230510381487364,-0.46394660424061296 l 7.381185869651285 2.973984594823862" fill="#ff5d08" stroke="none" /><path d="M 80.65960295795068 91.81776055985345 l -10.456344964655619 -4.423710536219543 a32.35360581172954,32.35360581172954 0 0,0 0.22140541548730336,-0.5110342249266029 l 10.378648839325635 4.603043905732746" fill="#ff8b0c" stroke="none" /><path d="M 80.803312248108 91.48605970444005 l -10.278683767054897 -4.558708306385899 a32.244250148668414,32.244250148668414 0 0,0 0.22939125064119834,-0.5054332138253536 l 10.198690199450347 4.734963529053324" fill="#ff8a0c" stroke="none" /><path d="M 81.10775173730289 90.83032412892265 l -8.01183181611593 -3.888679624882284 a29.90568797312718,29.90568797312718 0 0,0 0.2287642537439252,-0.4611747761637697 l 7.9437075494185905 4.026013989545015" fill="#ff6a09" stroke="none" /><path d="M 81.26839172434947 90.50648371742162 l -3.367692282348898 -1.7068070742624202 a24.77551873222006,24.77551873222006 0 0,0 0.19606940485046975,-0.3787436825329843 l 3.3378134443383143 1.7645234790557398" fill="#ff2203" stroke="none" /><line stroke="#e1ed5e" stroke-width="0.3" x1="26.266209847984243" x2="21.928928074336255" y1="57.711370442889674" y2="55.22380399835377" /><path d="M 25.398753493254645 57.213857153982495 a86.0,86.0 0 0,1 29.58750427330803,-30.492523968695096" fill="none" id="id131" stroke="none" /><text fill="#e1ed5e" style="font-size:6.75px; font-family:Arial;" text-anchor="middle"><textPath startOffset="21.46611528233685" xlink:href="#id131">November</textPath></text><path d="M 81.78341655067845 89.55222093294921 l -10.212266881200268 -5.857053735974511 a32.77265786978254,32.77265786978254 0 0,0 0.2848729350487034,-0.48694018891687624 l 10.10993427168124 6.0319733372452795" fill="#ff910d" stroke="none" /><path d="M 81.96595687620814 89.24020034530311 l -8.757545629566485 -5.225086565124556 a31.197849531493596,31.197849531493596 0 0,0 0.2791230025910188,-0.4588048258077046 l 8.66630682868925 5.375059164139334" fill="#ff7c0b" stroke="none" /><path d="M 83.39014120810768 87.1503855733568 l -17.181377698278975 -13.291749286223709 a42.72257670486507,42.72257670486507 0 0,0 0.4549871403121021,-0.5777874635288581 l 16.950036477372905 13.585529143705614" fill="#efff19" stroke="none" /><path d="M 83.84228863543731 86.58626213691792 l -7.57514798148175 -6.288703084553562 a30.845336633504235,30.845336633504235 0 0,0 0.3426614123815874,-0.40560303128663666 l 7.465775955613038 6.4181650654693145" fill="#ff770b" stroke="none" /><path d="M 84.31358615837235 86.03803664274999 l -6.05532534512308 -5.389646826764024 a29.1064948006236,29.1064948006236 0 0,0 0.3363274315593971,-0.3713811501990597 l 5.961654272947638 5.49308076423264" fill="#ff5f08" stroke="none" /><path d="M 84.5562425177563 85.77008943001954 l -10.340292642898707 -9.52756735173094 a35.06044777318825,35.06044777318825 0 0,0 0.4127661140895379,-0.4403101112256955 l 10.174759206838713 9.704146879834687" fill="#ffaf10" stroke="none" /><path d="M 84.80347519578584 85.50635884689758 l -7.348315083683474 -7.00843405153416 a31.154599077452225,31.154599077452225 0 0,0 0.37346313989507546,-0.38488659399867586 l 7.22658768008528 7.13388484108296" fill="#ff7b0b" stroke="none" /><path d="M 85.05521093208273 85.24692304244772 l -22.040366687544886 -21.75763233835569 a51.97050740127613,51.97050740127613 0 0,0 0.6339515925403155,-0.6312292029327948 l 21.662579294837258 22.133797391938593" fill="#85ff25" stroke="none" /><path d="M 85.83668400450813 84.49514656593479 l -5.084846794624279 -5.566479227775485 a28.539320786255004,28.539320786255004 0 0,0 0.3655601768084047,-0.3282035361396243 l 4.988275630219904 5.6531817726843885" fill="#ff5708" stroke="none" /><path d="M 86.10567301691215 84.25364557470407 l -4.3560439229765135 -4.936677507793977 a27.58376058760186,27.58376058760186 0 0,0 0.3587283844341327,-0.31108572001307816 l 4.270421739895608 5.010928221226736" fill="#ff4a06" stroke="none" /><path d="M 86.93701828274178 83.55741782278169 l -13.507059450301933 -17.001549859841425 a42.7138976839872,42.7138976839872 0 0,0 0.5796223943898837,-0.45240447263937766 l 13.212404500752623 17.231532721704024" fill="#efff19" stroke="none" /><path d="M 87.51073957382395 83.11751280151077 l -6.122485611449807 -8.276133368281718 a31.29462061428181,31.29462061428181 0 0,0 0.43582182721800994,-0.31664309210688946 l 5.979118467878015 8.380295695205275" fill="#ff7d0b" stroke="none" /><path d="M 88.09926311788651 82.69761687909137 l -1.972694834155352 -2.868084736205977 a24.481010623764444,24.481010623764444 0 0,0 0.3492569456696886,-0.23581984876558879 l 1.9230331940791239 2.9016164972702314" fill="#ff1e03" stroke="none" /><path d="M 89.00827224532344 82.1063720568725 l -32.97518326402967 -53.68088382938249 a84.0,84.0 0 0,0 1.2385517351294033,-0.746213562165523 l 32.046269462682616 54.240544001006626" fill="#4dd2ff" stroke="none" /><line stroke="#e1ed5e" stroke-width="0.3" x1="56.762969772571076" x2="54.21961505331055" y1="26.818313649435495" y2="22.513508569990535" /><path d="M 56.25429882871897 25.957352633546506 a86.0,86.0 0 0,1 42.265352541879196,-11.944610805530505" fill="none" id="id132" stroke="none" /><text fill="#e1ed5e" style="font-size:6.75px; font-family:Arial;" text-anchor="middle"><textPath startOffset="22.20632615414155" xlink:href="#id132">December</textPath></text><path d="M 89.94658935756843 81.56283822128135 l -5.808607508642239 -10.652527799263797 a33.13327118725791,33.13327118725791 0 0,0 0.5030813163227696,-0.2687286163703171 l 5.624381145791164 10.750935142135864" fill="#ff960d" stroke="none" /><path d="M 90.58718382345135 81.22770947309562 l -4.544846260978135 -9.063937169383838 a31.139555441263923,31.139555441263923 0 0,0 0.4812228796767608,-0.23613397712936512 l 4.388152114290948 9.140826306648032" fill="#ff7b0b" stroke="none" /><path d="M 91.23893434514133 80.91482961587045 l -5.162944330526819 -11.246996211840342 a33.3754158697504,33.3754158697504 0 0,0 0.5241813789262607,-0.23518490520376473 l 4.9685808331337835 11.334201447560634" fill="#ff990e" stroke="none" /><path d="M 91.56875222667455 80.76684994638697 l -5.155293171288927 -11.760124930435866 a33.8404667384561,33.8404667384561 0 0,0 0.535511273387895,-0.22927798007176992 l 4.952098140110724 11.847122438470423" fill="#ff9f0e" stroke="none" /><path d="M 92.23578459929587 80.48803036053334 l -3.3435116403663185 -8.402458490540395 a30.04325045404137,30.04325045404137 0 0,0 0.48214672291157423,-0.18706543789092436 l 3.198381752455068 8.458766632321872" fill="#ff6c0a" stroke="none" /><path d="M 95.33964822691252 79.52364482259891 l -2.2145854490136863 -9.730303726550316 a30.97913820537135,30.97913820537135 0 0,0 0.5209765741276442,-0.1138653004798694 l 2.0467661507325214 9.766982525126053" fill="#ff790b" stroke="none" /><path d="M 97.11714578562143 79.19881850522333 l -1.4417282780919578 -10.40276384049038 a31.502193863610792,31.502193863610792 0 0,0 0.5377653580854577,-0.06981737744861378 l 1.2624481914986423 10.426039541103131" fill="#ff800b" stroke="none" /><path d="M 97.83486435360386 79.11191278185805 l -1.4037665884285464 -13.54279995427323 a34.61535865250164,34.61535865250164 0 0,0 0.5931998950378532,-0.056331477779094155 l 1.170441566300457 13.564956976567505" fill="#ffa90f" stroke="none" /><path d="M 98.19473922651362 79.07773832637324 l -0.162697421047056 -1.8855990595734378 a22.89260515276684,22.89260515276684 0 0,0 0.3928914041957881,-0.030495934617700563 l 0.13021582748893373 1.8881202563796005" fill="#ff0701" stroke="none" /><path d="M 98.55514903715128 79.0497635885617 l -0.7282492327021729 -10.559562185900395 a31.584644561950526,31.584644561950526 0 0,0 0.5427113538982368,-0.03273783094755938 l 0.5463758299643132 10.570533286228262" fill="#ff810b" stroke="none" /><path d="M 99.27714615592234 79.0124445844662 l -0.2776394890831316 -8.061068237255826 a29.065848052845595,29.065848052845595 0 0,0 0.5001725386557708,-0.012917981020752343 l 0.13884031523248175 8.064653010418937" fill="#ff5f08" stroke="none" /></svg>