<?xml version="1.0" encoding="utf-8" ?>
<svg baseProfile="full" height="200mm" version="1.1" viewBox="0,0,200,200" width="200mm" xmlns="http://www.w3.org/2000/svg" xmlns:ev="http://www.w3.org/2001/xml-events" xmlns:xlink="http://www.w3.org/1999/xlink"><defs /><rect fill="#1a1a1a" height="200" width="200" x="0" y="0" /><rect fill="#1a1a1a" height="200" width="180" x="10" y="0" /><text alignment-baseline="middle" fill="#e1ed5e" style="dominant-baseline: central; font-size:9.0px; font-family:Arial;" text-anchor="middle" x="100.0" y="100.0">2019</text><line stroke="#e1ed5e" stroke-width="0.3" x1="100.0" x2="100.0" y1="15.0" y2="10.0" /><path d="M 100.0 14.0 a86.0,86.0 0 0,1 42.46469731375804,11.215312516191453" fill="none" id="id49" stroke="none" /><text fill="#e1ed5e" style="font-size:6.75px; font-family:Arial;" text-anchor="middle"><textPath startOffset="22.20632615414155" xlink:href="#id49">January</textPath></text><path d="M 100.0 79.0 l 0.0 -4.45106741985181 a25.45106741985181,25.45106741985181 0 0,0 0.43809828804406975,0.003770850277761031 l -0.07661780877154137 4.450407946182608" fill="#ff3304" stroke="none" /><path d="M 100.36148047927253 79.00311137660856 l 0.12054505781167739 -7.001958053352697 a28.002995622722715,28.002995622722715 0 0,0 0.4818827025146046,0.012445608513498295 l -0.24105439552114974 6.998845652696839" fill="#ff5708" stroke="none" /><path d="M 101.80526077348638 79.07773832637324 l 0.7362736912674874 -8.533122227187036 a29.564827721125866,29.564827721125866 0 0,0 0.5066494580351902,0.04811247089866862 l -0.8830482763929219 8.51918421177319" fill="#ff6c09" stroke="none" /><path d="M 102.52436894288641 79.15227682838746 l 1.351992900361174 -11.165552403162975 a32.24710830704522,32.24710830704522 0 0,0 0.5504815893470474,0.07146830922464673 l -1.5439892182160675 11.140625770774193" fill="#ff900d" stroke="none" /><path d="M 103.2404852339499 79.25152402106235 l 1.4545322336560087 -9.313212353020328 a30.426112048516863,30.426112048516863 0 0,0 0.5167669304024783,0.08527097134632997 l -1.614628370197362 9.286795118734373" fill="#ff780b" stroke="none" /><path d="M 103.95276090670814 79.375362276772 l 2.449278600777464 -12.77979746727445 a34.012385982931065,34.012385982931065 0 0,0 0.5740539088819179,0.11514981370292432 l -2.668898919126507 12.735743697494318" fill="#ffa70f" stroke="none" /><path d="M 105.01212808612495 79.60689891045804 l 2.056223106208745 -8.366259789658843 a29.61523977208813,29.61523977208813 0 0,0 0.49399786912496174,0.12593105616133576 l -2.199929864018732 8.329625737328639" fill="#ff6d0a" stroke="none" /><path d="M 105.36241919743992 79.69619591428918 l 2.624297904012094 -9.936416483635048 a31.277125669429978,31.277125669429978 0 0,0 0.5193523685688328,0.14195862097924275 l -2.7949481618046375 9.889771321829512" fill="#ff830c" stroke="none" /><path d="M 106.0581310904928 79.89281104454417 l 2.5294187403848776 -8.39524595963352 a29.768016530946618,29.768016530946618 0 0,0 0.48935022532723405,0.15204349704401104 l -2.67355433842283 8.350462327706989" fill="#ff6f0a" stroke="none" /><path d="M 106.40334571778207 80.00007090966166 l 3.133635451159241 -9.78745949076495 a31.276868901768033,31.276868901768033 0 0,0 0.5113279219261382,0.16857677656301126 l -3.301646195327797 9.732068989942704" fill="#ff830c" stroke="none" /><path d="M 107.4271985657038 80.35727306442388 l 3.3322772133364564 -8.812880226127088 a30.421832587484413,30.421832587484413 0 0,0 0.4882223682639994,0.18942269389685296 l -3.483482746600123 8.75421482833969" fill="#ff780b" stroke="none" /><path d="M 107.76421540070413 80.48803036053334 l 3.3146913277454035 -8.330031202548332 a29.965299684542586,29.965299684542586 0 0,0 0.4776128170016385,0.19483026019861502 l -3.4575880143354296 8.271740056166138" fill="#ff710a" stroke="none" /><path d="M 108.76106565485865 80.91482961587045 l 2.378925802801002 -5.182269608090481 a26.70221064729905,26.70221064729905 0 0,0 0.41607357763162456,0.19535212363562326 l -2.4677775917322244 5.140552501814855" fill="#ff4406" stroke="none" /><path d="M 109.08828744355905 81.06846463323043 l 3.430619413918067 -7.146219039379588 a28.927016848849437,28.927016848849437 0 0,0 0.44703086319642854,0.2193561031367641 l -3.5531215441249273 7.086107776107991" fill="#ff6309" stroke="none" /><path d="M 109.73455568895987 81.39251694778311 l 3.22656176446116 -6.167532989433967 a27.960543369280806,27.960543369280806 0 0,0 0.4245408454788176,0.22677501687423054 l -3.332247656468289 6.111079246057982" fill="#ff5608" stroke="none" /><line stroke="#e1ed5e" stroke-width="0.3" x1="143.23703022742887" x2="145.7803849466894" y1="26.81831364943548" y2="22.513508569990506" /><path d="M 143.74570117128098 25.957352633546492 a86.0,86.0 0 0,1 28.547481713284135,27.462654790039103" fill="none" id="id50" stroke="none" /><text fill="#e1ed5e" style="font-size:6.75px; font-family:Arial;" text-anchor="middle"><textPath startOffset="19.985693538727396" xlink:href="#id50">February</textPath></text><path d="M 110.68208982089419 81.91981866633111 l 5.7190309709179346 -9.679858411676319 a32.243085613674715,32.243085613674715 0 0,0 0.4754134480088598,0.28643128298796117 l -5.8848064851444315 9.579980519229744" fill="#ff900d" stroke="none" /><path d="M 111.2981086023043 82.29822771554956 l 5.330728325362772 -8.352135941284532 a30.90832171765339,30.90832171765339 0 0,0 0.44601145991032537,0.29009826014156703 l -5.473706811057378 8.259138756983436" fill="#ff7e0b" stroke="none" /><path d="M 111.90073688211348 82.69761687909136 l 8.083458075801012 -11.752472973293191 a35.2640427457022,35.2640427457022 0 0,0 0.4971707118758796,0.34829985575614847 l -8.284559927260542 11.611588274773107" fill="#ffb711" stroke="none" /><path d="M 112.48926042617603 83.11751280151076 l 6.687733808690612 -9.040213476170782 a32.245054165749636,32.245054165749636 0 0,0 0.44337540060140396,0.3339411595969483 l -6.842355363050399 8.923755727067986" fill="#ff900d" stroke="none" /><path d="M 113.06298171725822 83.55741782278167 l 8.081428190009467 -10.172221779041836 a33.99167339153401,33.99167339153401 0 0,0 0.45499732702219176,0.36790952884213346 l -8.255328915596149 10.031606152935572" fill="#ffa70f" stroke="none" /><path d="M 113.6212207817346 84.01681056812373 l 5.485450664834304 -6.436647529627167 a29.456985303108112,29.456985303108112 0 0,0 0.3830897790214263,0.3322116813380122 l -5.5954342425024945 6.341270854869483" fill="#ff6a09" stroke="none" /><path d="M 114.16331599549186 84.49514656593476 l 8.762439842400418 -9.592410811456595 a33.99210133763725,33.99210133763725 0 0,0 0.42861144987871364,0.39834763089898123 l -8.92625917607398 9.440158594482973" fill="#ffa70f" stroke="none" /><path d="M 114.94478906791727 85.2469230424477 l 8.003957287957745 -7.901282333097423 a32.24693712860392,32.24693712860392 0 0,0 0.38655745054231705,0.3983814321430592 l -8.13877900220317 7.762336705404249" fill="#ff900d" stroke="none" /><path d="M 115.19652480421416 85.50635884689758 l 9.40370057018329 -8.96875195687276 a33.99492578191867,33.99492578191867 0 0,0 0.40022174002281463,0.42692864760250754 l -9.556689632176568 8.805553892392197" fill="#ffa70f" stroke="none" /><path d="M 115.68641384162765 86.03803664274999 l 8.406454526128268 -7.48230993031182 a32.25404103391779,32.25404103391779 0 0,0 0.3655582951698279,0.41789632452003905 l -8.534004684875944 7.336498049588833" fill="#ff900d" stroke="none" /><path d="M 116.15771136456269 86.58626213691792 l 4.843006582922381 -4.020545936659011 a27.294402464969554,27.294402464969554 0 0,0 0.2969910533866155,0.36407591483455454 l -4.911496128385405 3.9365858522163553" fill="#ff4d07" stroke="none" /><path d="M 116.60985879189232 87.15038557335679 l 8.281235648128025 -6.406477405247994 a31.470043772772847,31.470043772772847 0 0,0 0.3277740826336063,0.4313122714997286 l -8.390285670985744 6.262980357867232" fill="#ff860c" stroke="none" /><path d="M 117.04232023915458 87.72973835380427 l 6.959582980797741 -5.010814426934824 a29.57578314136894,29.57578314136894 0 0,0 0.2939091762390843,0.41571368644122964 l -7.044804776840708 4.890274240161801" fill="#ff6c0a" stroke="none" /><path d="M 117.45458315368197 88.32363383020206 l 7.417546916212682 -4.962020181907627 a29.924216858631063,29.924216858631063 0 0,0 0.2827173956681671,0.43059798972824104 l -7.501860947238774 4.833604128201712" fill="#ff710a" stroke="none" /><line stroke="#e1ed5e" stroke-width="0.3" x1="172.23445277983987" x2="176.4835382374775" y1="55.19839476539836" y2="52.563006222186495" /><path d="M 173.08426987136738 54.67131705675599 a86.0,86.0 0 0,1 12.851231095245387,41.99856678651699" fill="none" id="id51" stroke="none" /><text fill="#e1ed5e" style="font-size:6.75px; font-family:Arial;" text-anchor="middle"><textPath startOffset="22.20632615414155" xlink:href="#id51">March</textPath></text><path d="M 117.84615892207809 88.93136811851018 l 7.274318342813161 -4.511713264290051 a29.559863546328224,29.559863546328224 0 0,0 0.2644681602461918,0.4347161182241602 l -7.3509023013455765 4.385829372858809" fill="#ff6c09" stroke="none" /><path d="M 118.03404312379186 89.2402003453031 l 21.528865719550126 -12.844944438977537 a46.06959626341917,46.06959626341917 0 0,0 0.40045519518786327,0.6845077380348018 l -21.746780589208317 12.472457288588839" fill="#c3ff1e" stroke="none" /><path d="M 118.56541770881063 90.18545643968196 l 6.571118814492465 -3.473799127840544 a28.43282468882205,28.43282468882205 0 0,0 0.2250127262806845,0.43465296706197143 l -6.629940973933265 3.3601734385182276" fill="#ff5c08" stroke="none" /><path d="M 118.89224826269711 90.83032412892265 l 7.758620512451801 -3.7657791871362094 a29.62422664025628,29.62422664025628 0 0,0 0.21871398115935697,0.46066742334091626 l -7.822292687452914 3.631669348154753" fill="#ff6d0a" stroke="none" /><path d="M 119.34039704204932 91.81776055985345 l 7.888669842329221 -3.3374178086346737 a29.565598024111708,29.565598024111708 0 0,0 0.19425768293179566,0.47041038760053794 l -7.944949212147214 3.2011328505808327" fill="#ff6c09" stroke="none" /><path d="M 119.61058180528143 92.48833698450437 l 11.200166446400328 -4.290126468362224 a32.993703078766536,32.993703078766536 0 0,0 0.19858346083313763,0.5321049455477276 l -11.272354495735092 4.096698385785164" fill="#ff9a0e" stroke="none" /><path d="M 119.85752413597 93.16781622104841 l 8.992368902678901 -3.093916267232091 a30.509732717090944,30.509732717090944 0 0,0 0.1665870723638864,0.49807414276523077 l -9.044293268814558 2.938669021544546" fill="#ff790b" stroke="none" /><path d="M 120.08093135843002 93.85539295169968 l 14.801132196129712 -4.5290300331106685 a36.478553786711664,36.478553786711664 0 0,0 0.17856096243654956,0.6020187979266836 l -14.876899055677965 4.273581848437455" fill="#ffc712" stroke="none" /><path d="M 120.28053869075195 94.5502522615342 l 8.683771606277434 -2.3334865702676897 a29.99183234294378,29.99183234294378 0 0,0 0.12968420907953282,0.49972615910169643 l -8.72265214722727 2.1836639856171427" fill="#ff720a" stroke="none" /><path d="M 120.45610955862082 95.25157060432595 l 9.371152236725683 -2.1753038926921455 a30.620313990169468,30.620313990169468 0 0,0 0.1147614563231606,0.5144531062364972 l -9.407208080050882 2.0136726169056844" fill="#ff7a0b" stroke="none" /><path d="M 120.6074358757038 95.95851677861258 l 8.53036878649099 -1.6729564284849663 a29.692869195216787,29.692869195216787 0 0,0 0.09404760474090874,0.5024060651474798 l -8.557902115141758 1.5258722858749239" fill="#ff6e0a" stroke="none" /><path d="M 120.73433829027371 96.67025291283417 l 12.68374498758452 -2.0368946592607284 a33.846257305651335,33.846257305651335 0 0,0 0.08742666609374408,0.5760324953926553 l -12.716927547117564 1.8182630514759912" fill="#ffa50f" stroke="none" /><path d="M 120.83666639777658 97.38593545837742 l 7.864173242499954 -0.9866000649983917 a28.925818599760348,28.925818599760348 0 0,0 0.05772718317134182,0.4945712520153997 l -7.879990778674885 0.8510850746581393" fill="#ff6309" stroke="none" /><path d="M 120.98425023603335 99.18683210126433 l 11.689390008724256 -0.4529795729643772 a32.6981634998655,32.6981634998655 0 0,0 0.016953694996467133,0.5626105998514133 l -11.69545539817637 0.25169882568796487" fill="#ff960d" stroke="none" /><line stroke="#e1ed5e" stroke-width="0.3" x1="184.98032266829074" x2="189.97916517819016" y1="98.17113171792111" y2="98.06355123074" /><path d="M 185.9800911702706 98.14961562048488 a86.0,86.0 0 0,1 -9.607161424134198,41.387399972396054" fill="none" id="id52" stroke="none" /><text fill="#e1ed5e" style="font-size:6.75px; font-family:Arial;" text-anchor="middle"><textPath startOffset="21.466115282336823" xlink:href="#id52">April</textPath></text><path d="M 120.99980553446 99.90962569577887 l 8.573564016652922 -0.03689700275694718 a29.573643410852718,29.573643410852718 0 0,0 -0.0021908474863588058,0.5090757994289196 l -8.57292887187706 -0.11068827487565708" fill="#ff6c0a" stroke="none" /><path d="M 120.9904718944345 100.63252640178507 l 8.886118714999762 0.2677740988816964 a29.890152348812755,29.890152348812755 0 0,0 -0.01992373245885608,0.5141430056480435 l -8.880192849689704 -0.420694351543746" fill="#ff700a" stroke="none" /><path d="M 120.95626037817324 101.35467743843564 l 13.681297124595678 0.8844013296631775 a34.70985254199986,34.70985254199986 0 0,0 -0.043673988210143955,0.5958968699822292 l -13.664046577721196 -1.119771336142177" fill="#ffb010" stroke="none" /><path d="M 120.89721153311464 102.0752229133903 l 8.926357208404102 0.8864427190504641 a29.97026385934023,29.97026385934023 0 0,0 -0.05539888887741858,0.5129249078633421 l -8.909776018025632 -1.0399639487985977" fill="#ff710a" stroke="none" /><path d="M 120.81339534386255 102.79330883721812 l 8.599168151854395 1.1540708276788914 a29.676264886410877,29.676264886410877 0 0,0 -0.07230544072361542,0.5057040840148055 l -8.578028660114176 -1.301920383674106" fill="#ff6d0a" stroke="none" /><path d="M 120.64145759157962 103.86396538481128 l 45.4271405290571 8.503706569968132 a67.21621059839092,67.21621059839092 0 0,0 -0.22267791792628247,1.1354299061090138 l -45.27403267815515 -9.28440020314509" fill="#38ff82" stroke="none" /><path d="M 120.49622156327973 104.57218783832717 l 5.229101888655033 1.1664801723023732 a26.35762844496613,26.35762844496613 0 0,0 -0.1025932205954426,0.4419689092111229 l -5.208248102129038 -1.2563177388620612" fill="#ff4006" stroke="none" /><path d="M 120.32669344350535 105.2749913415812 l 8.293202777827105 2.1521735922569745 a29.56790893306923,29.56790893306923 0 0,0 -0.13208678169344637,0.49154405217019853 l -8.254927919791882 -2.294608577602721" fill="#ff6c09" stroke="none" /><path d="M 120.13307415673323 105.97154293290107 l 8.262784047638819 2.450771764989687 a29.618577751693444,29.618577751693444 0 0,0 -0.14918345536069844,0.4875401638157218 l -8.219373819771988 -2.592638901357466" fill="#ff6d0a" stroke="none" /><path d="M 119.9155931802556 106.66101706037122 l 17.382373364465632 5.813750285140235 a39.32884601276503,39.32884601276503 0 0,0 -0.22025870950109172,0.640174910626696 l -17.27972382402131 -6.112097898856231" fill="#ffeb16" stroke="none" /><path d="M 119.67450827220406 107.3425965602758 l 8.366785952078368 3.122514316613832 a29.93046487173844,29.93046487173844 0 0,0 -0.18429430106387515,0.4811342654489213 l -8.311797371420987 -3.266072148895897" fill="#ff710a" stroke="none" /><path d="M 119.41010516605496 108.01547362559984 l 8.751468808821521 3.6139509200106867 a30.468307534296827,30.468307534296827 0 0,0 -0.20435386766365188,0.48303217800023696 l -8.687963959965561 -3.764057623677087" fill="#ff780b" stroke="none" /><path d="M 119.26925614724726 108.34839909993367 l 11.935632874193404 5.1711091483045974 a34.00767857579537,34.00767857579537 0 0,0 -0.23733945156552855,0.5351378074949317 l -11.844852337896603 -5.375795292292216" fill="#ffa70f" stroke="none" /><path d="M 118.81262510543309 109.33194174019688 l 7.6926444795074795 3.815911373797522 a29.587080918494607,29.587080918494607 0 0,0 -0.23024572004008026,0.4542966490561983 l -7.62582008968113 -3.9477622345564147" fill="#ff6c0a" stroke="none" /><line stroke="#e1ed5e" stroke-width="0.3" x1="174.80103733775053" x2="179.2010983576182" y1="140.37084112569926" y2="142.7455964860345" /><path d="M 175.68104954172406 140.8457921977663 a86.0,86.0 0 0,1 -30.038265399797805,32.042727171017184" fill="none" id="id53" stroke="none" /><text fill="#e1ed5e" style="font-size:6.75px; font-family:Arial;" text-anchor="middle"><textPath startOffset="22.206326154141568" xlink:href="#id53">May</textPath></text><path d="M 118.48025628344425 109.97397251340804 l 13.385791972113047 7.22444100083502 a36.21091629374221,36.21091629374221 0 0,0 -0.3007637160478739,0.5459735073537176 l -13.259451846613663 -7.453785026586543" fill="#ffc312" stroke="none" /><path d="M 118.12598468904814 110.60418214915192 l 7.397170040978447 4.327540812178867 a29.570048663585453,29.570048663585453 0 0,0 -0.2608065961442907,0.437126856705213 l -7.32158256913593 -4.454229762770184" fill="#ff6c09" stroke="none" /><path d="M 117.75023020441432 111.22182372390056 l 7.236808166182387 4.57516238546509 a29.5617465091825,29.5617465091825 0 0,0 -0.27562124745611394,0.42777029679704526 l -7.156982055349223 -4.699054282183588" fill="#ff6c09" stroke="none" /><path d="M 117.55443506779139 111.5257021239791 l 9.40138667258859 6.172661320182043 a32.24668036094197,32.24668036094197 0 0,0 -0.30864202920773454,0.46137795656512526 l -9.293741537970135 -6.333576190952975" fill="#ff900d" stroke="none" /><path d="M 117.14729908036423 112.12312394758627 l 7.484882219071766 5.291804525576872 a30.166605531509063,30.166605531509063 0 0,0 -0.30341888969945874,0.42142230002651315 l -7.392683536996705 -5.419860431054516" fill="#ff740a" stroke="none" /><path d="M 116.498646956653 112.99209946851258 l 5.875034784285708 4.626381575346814 a28.477930208104077,28.477930208104077 0 0,0 -0.3065880915144913,0.3825157842384432 l -5.794528780716362 -4.726825193163507" fill="#ff5d08" stroke="none" /><path d="M 116.27256486870786 113.27417163493432 l 6.637610500533996 5.414560134853958 a29.565940380994306,29.565940380994306 0 0,0 -0.325090185756219,0.3915920709437603 l -6.543424314884233 -5.528013462911489" fill="#ff6c09" stroke="none" /><path d="M 115.80600337817218 113.82643327865902 l 7.442977275276361 6.5108064467011735 a30.888807375345415,30.888807375345415 0 0,0 -0.3535167379800671,0.39717980272581394 l -7.329801687647955 -6.637960419167854" fill="#ff7e0b" stroke="none" /><path d="M 115.32070863581623 114.36230785411682 l 8.207410979432856 7.693988964472793 a32.249847162105986,32.249847162105986 0 0,0 -0.38314883742738753,0.4017300242337502 l -8.073755590626504 -7.834126105289051" fill="#ff900d" stroke="none" /><path d="M 114.81725581225074 114.88116024355365 l 11.875822971881576 11.92704147839104 a37.83120582984863,37.83120582984863 0 0,0 -0.46541399180107257,0.4555055476377247 l -11.668759027704708 -12.129697128951337" fill="#ffd814" stroke="none" /><path d="M 114.29624159901734 115.38237550388516 l 7.056408753123986 7.592508030706202 a31.365282566698458,31.365282566698458 0 0,0 -0.3986384784833779,0.36414679846746817 l -6.924670725173744 -7.712847595760253" fill="#ff840c" stroke="none" /><path d="M 113.75828350139079 115.86535959552629 l 5.635301139719393 6.4983454514285475 a29.601459907563644,29.601459907563644 0 0,0 -0.3878277887757698,0.3305152553389037 l -5.522607874366575 -6.594385096990398" fill="#ff6c0a" stroke="none" /><path d="M 113.20401910651253 116.32954008644616 l 5.64840209571503 6.985434336493215 a29.983359010099527,29.983359010099527 0 0,0 -0.40412214814163677,0.32105907550382 l -5.5273224548560425 -7.081627326002161" fill="#ff720a" stroke="none" /><path d="M 112.34349029814194 116.9893568818739 l 5.038807150252279 6.935323062348111 a29.572530750984278,29.572530750984278 0 0,0 -0.4143994117315798,0.29566297728368707 l -4.918680410671815 -7.021030301476017" fill="#ff6c0a" stroke="none" /><path d="M 111.7513745106137 117.40417183066458 l 5.059607607256464 7.493445138089673 a30.041645269361503,30.041645269361503 0 0,0 -0.4310622767208327,0.2856845719030536 l -4.929870631795668 -7.579427731084045" fill="#ff720a" stroke="none" /><path d="M 111.1453310114006 117.79835938074945 l 5.048645345169494 8.062354015987399 a30.51264275059301,30.51264275059301 0 0,0 -0.44754898248653807,0.2749211388551275 l -4.909117162750648 -8.148063621670904" fill="#ff790b" stroke="none" /><line stroke="#e1ed5e" stroke-width="0.3" x1="143.8653032363475" x2="146.44561519142675" y1="172.8068346515853" y2="177.08958963109032" /><path d="M 144.38136562736335 173.6633856474863 a86.0,86.0 0 0,1 -40.68145358897372,12.25698825130547" fill="none" id="id54" stroke="none" /><text fill="#e1ed5e" style="font-size:6.75px; font-family:Arial;" text-anchor="middle"><textPath startOffset="21.466115282336833" xlink:href="#id54">June</textPath></text><path d="M 110.8373102113329 117.98757091392108 l 1.9917297555393954 3.3058369208317773 a24.859474726725846,24.859474726725846 0 0,0 -0.3684317735388102,0.2176759859418 l -1.934530110972203 -3.339631479067327" fill="#ff2a04" stroke="none" /><path d="M 110.21172684928248 118.3499491758327 l 5.470410394672243 9.830046787849177 a32.24967598366469,32.24967598366469 0 0,0 -0.4873957848496509,0.26576704317579014 l -5.300391797953943 -9.922754482784738" fill="#ff900d" stroke="none" /><path d="M 109.89434966115114 118.52300852407294 l 5.6355829650790765 10.550258973578169 a32.96109358569927,32.96109358569927 0 0,0 -0.5027494351511927,0.26301474306539024 l -5.453142627401388 -10.645703135588276" fill="#ff990e" stroke="none" /><path d="M 109.2508944713604 118.85261126421891 l 3.868697087184226 7.884107046026514 a29.782138752353703,29.782138752353703 0 0,0 -0.46217246377387744,0.22187086878583168 l -3.732411955410116 -7.949532191311906" fill="#ff6f0a" stroke="none" /><path d="M 108.92500713936063 119.00905698771935 l 3.728046901665288 7.940235217752753 a29.77186804587582,29.77186804587582 0 0,0 -0.46576245137426214,0.21380869722028042 l -3.590816454523607 -8.003230985307107" fill="#ff6f0a" stroke="none" /><path d="M 107.93186726928326 119.44442032107085 l 3.238979961705054 7.94013384853451 a29.575355195265693,29.575355195265693 0 0,0 -0.4730351656507353,0.18823045474564876 l -3.1018237200124523 -7.994711147686227" fill="#ff6c0a" stroke="none" /><path d="M 107.2578585660854 119.70592522655815 l 3.8872278549215795 10.554273102760995 a32.24736507470716,32.24736507470716 0 0,0 -0.5225308360073666,0.18736096703557764 l -3.704977458284478 -10.619621610836534" fill="#ff900d" stroke="none" /><path d="M 106.57524785965236 119.94407469862006 l 2.684066139596842 8.141322840867996 a29.57235957254298,29.57235957254298 0 0,0 -0.4848158179105786,0.1552227149160471 l -2.543528976595323 -8.18631840244375" fill="#ff6c0a" stroke="none" /><path d="M 106.2309692047433 120.05430185196036 l 2.5506142984846583 8.209122428465713 a29.596238965104053,29.596238965104053 0 0,0 -0.48780947467948726,0.14697299315879137 l -2.408929849364925 -8.25181079073023" fill="#ff6c0a" stroke="none" /><path d="M 105.53697534728816 120.25689768951611 l 3.4317521379458187 12.554986719995743 a34.01555278409508,34.01555278409508 0 0,0 -0.5661314662424384,0.149520465723454 l -3.2151302288918826 -12.612198535022781" fill="#ffa70f" stroke="none" /><path d="M 104.83641907484287 120.43548508189849 l 2.129867041041444 8.999399239414306 a30.24800088034627,30.24800088034627 0 0,0 -0.5077052776890014,0.1155520682555455 l -1.9746416139595804 -9.034728041247535" fill="#ff750a" stroke="none" /><path d="M 104.48393922423573 120.51570834832081 l 0.19444694424419895 0.8896679008882269 a21.910669307705476,21.910669307705476 0 0,0 -0.36915151842206934,0.07735928987832845 l -0.1791039643927516 -0.8928831714930965" fill="#ff0000" stroke="none" /><path d="M 104.13013068566511 120.58985236759428 l 1.7368202953082439 8.658533153335167 a29.83101019734429,29.83101019734429 0 0,0 -0.5043321290523313,0.09665645285346296 l -1.5875205516842081 -8.687146804537099" fill="#ff700a" stroke="none" /><path d="M 103.7750983002368 120.6578951692458 l 1.5421623820337458 8.438940204552843 a29.578693174871006,29.578693174871006 0 0,0 -0.5016419998449031,0.08721689175614407 l -1.3966714107167926 -8.464235674829993" fill="#ff6c0a" stroke="none" /><path d="M 103.06178313531738 120.77559828337769 l 1.6661122739503083 11.30533345073392 a32.427444794952685,32.427444794952685 0 0,0 -0.5529209924733328,0.07662981132924619 l -1.4712626902901451 -11.332337827555769" fill="#ff920d" stroke="none" /><path d="M 102.70371172650421 120.8252237178851 l 1.6755083103667496 12.905530964160244 a34.0138409996821,34.0138409996821 0 0,0 -0.5812683224512634,0.070383498888627 l -1.453112564864106 -12.932459991774222" fill="#ffa70f" stroke="none" /><path d="M 101.98527174616119 120.90594882070398 l 5.955815238483573 62.71784646211194 a84.0,84.0 0 0,0 -1.4406227290338331,0.12430299088534635 l -4.8753481917081976 -62.81107370527595" fill="#4dd2ff" stroke="none" /><path d="M 101.26447882468166 120.96189622390904 l 1.1599378968999419 19.22886911697959 a40.26382265913482,40.26382265913482 0 0,0 -0.692177161487208,0.035777652919613795 l -0.8287726669992542 -19.245986576661405" fill="#fff617" stroke="none" /><path d="M 100.90346689309514 120.98055641714683 l 0.5042311335798159 11.709393920468942 a32.72024551879295,32.72024551879295 0 0,0 -0.5629123235308834,0.01938783859704963 l -0.3025984583742801 -11.716338557492087" fill="#ff960d" stroke="none" /><line stroke="#e1ed5e" stroke-width="0.3" x1="102.19456741930631" x2="102.32365962044197" y1="184.97166512339345" y2="189.96999836594603" /><path d="M 102.22038585953345 185.97133177190398 a86.0,86.0 0 0,1 -42.740103519485714,-10.115201625700543" fill="none" id="id55" stroke="none" /><text fill="#e1ed5e" style="font-size:6.75px; font-family:Arial;" text-anchor="middle"><textPath startOffset="22.20632615414155" xlink:href="#id55">July</textPath></text><path d="M 100.54218724476979 120.99299961872073 l 0.7716375597113366 29.877108237189457 a50.88707113686939,50.88707113686939 0 0,0 -0.875839941531616,0.01507837887362802 l -0.2572379282870526 -29.885964093342242" fill="#8eff24" stroke="none" /><path d="M 99.81925306533755 120.99922214144158 l -0.44718655990196854 51.95424158968868 a72.95616609199618,72.95616609199618 0 0,0 -1.2556809188825298,-0.021617685768230848 l 1.3414271686771662 -51.93884642664129" fill="#3fffc1" stroke="none" /><path d="M 99.45781275523022 120.99299961872073 l -0.2454822701286696 9.504851419737967 a30.508020932677965,30.508020932677965 0 0,0 -0.5248536701743106,-0.018077021623155342 l 0.40905629197762333 -9.499217599688718" fill="#ff790b" stroke="none" /><path d="M 99.09653310690486 120.98055641714683 l -0.4179820402673168 9.70649377880317 a30.715489203531167,30.715489203531167 0 0,0 -0.5280313374757816,-0.027293188758637763 l 0.5850014461565872 -9.69786078328233" fill="#ff7c0b" stroke="none" /><path d="M 98.73552117531835 120.96189622390904 l -0.5160925605086024 8.555523812774393 a29.571075734233247,29.571075734233247 0 0,0 -0.5078300530281453,-0.03502293371165186 l 0.6632853743156778 -8.545372534546456" fill="#ff6c0a" stroke="none" /><path d="M 98.37488393609728 120.93702456842531 l -1.0004056533386583 12.888628823249944 a33.927395886826595,33.927395886826595 0 0,0 -0.5818640196606116,-0.05020567597242552 l 1.2221139907408116 -12.869498894998854" fill="#ffa60f" stroke="none" /><path d="M 97.65516085044442 120.86867818915974 l -0.8849221378241133 7.875659752701912 a28.92521947521581,28.92521947521581 0 0,0 -0.4943080024702303,-0.05985381518089299 l 1.0203575633457331 -7.85926040879567" fill="#ff6309" stroke="none" /><path d="M 96.93821686468263 120.77559828337769 l -0.6549144617568035 4.443894020607552 a25.491893478101385,25.491893478101385 0 0,0 -0.4335614342423693,-0.06771337938741764 l 0.7313117596076899 -4.431962333873029" fill="#ff3304" stroke="none" /><path d="M 94.46302465271185 120.25689768951611 l -2.3116202965630404 8.457009993266547 a29.767246227960776,29.767246227960776 0 0,0 -0.4930998654315739,-0.13935494741238916 l 2.4568513300992283 -8.415966252515638" fill="#ff6f0a" stroke="none" /><path d="M 94.11515582081647 120.15858648285463 l -3.601354442051071 12.336471920922039 a33.851392658890276,33.851392658890276 0 0,0 -0.557943530918651,-0.1681038089852154 l 3.8131729474099676 -12.272652742831097" fill="#ffa50f" stroke="none" /><path d="M 93.42475214034765 119.94407469862007 l -0.7611870825714487 2.308836466467793 a23.431076223314506,23.431076223314506 0 0,0 -0.38196031338549874,-0.12958167649229307 l 0.8008171288941733 -2.295391803077377" fill="#ff1602" stroke="none" /><path d="M 93.08242187328487 119.8279376855182 l -4.283486353784386 12.277808641090894 a34.00357029320422,34.00357029320422 0 0,0 -0.5509880875966432,-0.1975647249949757 l 4.494194002010755 -12.20225637505596" fill="#ffa70f" stroke="none" /><path d="M 92.7421414339146 119.70592522655815 l -1.5399410620066993 4.1811180453435 a25.455689237766855,25.455689237766855 0 0,0 -0.40987269439814034,-0.15497878160905887 l 1.6116839771651228 -4.153991013627809" fill="#ff3304" stroke="none" /><path d="M 92.40401165467489 119.57807347666478 l -5.284945159489829 13.621538099951781 a35.610850267771994,35.610850267771994 0 0,0 -0.5695682890082746,-0.22664297674622838 l 5.518634524539962 -13.528548278799486" fill="#ffbc11" stroke="none" /><path d="M 91.7346041902142 119.30500536409082 l -5.119796870560794 11.958012456247149 a34.00793534345732,34.00793534345732 0 0,0 -0.5361582995140446,-0.23503604226695546 l 5.324875844732582 -11.868111860685742" fill="#ffa70f" stroke="none" /><path d="M 91.40352486487194 119.15986991738527 l -3.5825828870150915 7.984879965855593 a29.751754579023306,29.751754579023306 0 0,0 -0.4654477886324944,-0.21366425098876773 l 3.7194986714150056 -7.922028644532751" fill="#ff6e0a" stroke="none" /><path d="M 91.07499286063937 119.00905698771935 l -4.003481792963879 8.526874249335224 a30.419949624630135,30.419949624630135 0 0,0 -0.47207029632084535,-0.22662242989867273 l 4.149664757284967 -8.45669754293699" fill="#ff780b" stroke="none" /><path d="M 90.42595943632237 118.69057910512821 l -5.583120574391539 10.89944794521006 a33.24619127968112,33.24619127968112 0 0,0 -0.5070979772964834,-0.26528969479101216 l 5.769909454214518 -10.801728831474332" fill="#ff9d0e" stroke="none" /><line stroke="#e1ed5e" stroke-width="0.3" x1="58.666819895761336" x2="56.23545636021788" y1="174.27360380694188" y2="178.64263932499728" /><path d="M 58.180547188652646 175.14741091055294 a86.0,86.0 0 0,1 -31.652253787137756,-30.449443065178592" fill="none" id="id56" stroke="none" /><text fill="#e1ed5e" style="font-size:6.75px; font-family:Arial;" text-anchor="middle"><textPath startOffset="22.20632615414155" xlink:href="#id56">August</textPath></text><path d="M 89.7882731507175 118.34994917583269 l -6.1625044196346215 11.073704238777706 a33.67293913383709,33.67293913383709 0 0,0 -0.5040538065766107,-0.2862149063704728 l 6.352206993132439 -10.9659861666126" fill="#ffa30f" stroke="none" /><path d="M 89.4739219176387 118.17145234162733 l -4.80224051542382 8.290237254204387 a30.580686181008975,30.580686181008975 0 0,0 -0.4532234316918266,-0.26777239215241594 l 4.944231818144029 -8.206346289758221" fill="#ff7a0b" stroke="none" /><path d="M 88.8546689885994 117.79835938074946 l -6.906291363278653 11.028892326846426 a34.01281392903431,34.01281392903431 0 0,0 -0.49353920798898265,-0.31500007353799553 l 7.095112373314559 -10.908377824484628" fill="#ffa70f" stroke="none" /><path d="M 88.54995079064634 117.60387380957326 l -6.129951597029079 9.424491755436156 a32.242657667571464,32.242657667571464 0 0,0 -0.46264421595739297,-0.30661535911853316 l 6.291270511726434 -9.317578375226304" fill="#ff900d" stroke="none" /><path d="M 87.95078237400918 117.19931262002967 l -5.953106514870046 8.497592390457443 a31.375382094735038,31.375382094735038 0 0,0 -0.43966273946570794,-0.3136876908390362 l 6.098496582184642 -8.393860437774187" fill="#ff840c" stroke="none" /><path d="M 87.65650970185807 116.9893568818739 l -6.681617556621031 9.196457604435968 a32.367446751277726,32.367446751277726 0 0,0 -0.4479269759570534,-0.3313656683914319 l 6.838929502996648 -9.08008198730477" fill="#ff920d" stroke="none" /><path d="M 87.36589467227662 116.77436683061367 l -5.395027337611004 7.163005632357151 a29.967439415058813,29.967439415058813 0 0,0 -0.40937130708534875,-0.3138884617849927 l 5.517527373189839 -7.069077828744791" fill="#ff710a" stroke="none" /><path d="M 86.79598089348748 116.32954008644616 l -5.436692629689793 6.723611160969783 a29.646651016066322,29.646651016066322 0 0,0 -0.3940602803426221,-0.32428478323467413 l 5.5516230385771035 -6.629031258877928" fill="#ff6d0a" stroke="none" /><path d="M 86.24171649860922 115.8653595955263 l -7.37074533181642 8.499572287814338 a32.25036069742988,32.25036069742988 0 0,0 -0.4162717565980573,-0.36731142611055884 l 7.5159594413210655 -8.37143771993149" fill="#ff900d" stroke="none" /><path d="M 85.97065885151581 115.62618273729859 l -4.719502885802528 5.25668409815 a28.064448683148704,28.064448683148704 0 0,0 -0.3566863808331775,-0.3258245519386427 l 4.809288816102559 -5.174666779624781" fill="#ff5708" stroke="none" /><path d="M 85.44109423537348 115.13401014063109 l -7.7972310338393225 8.105236440342802 a32.24685153938327,32.24685153938327 0 0,0 -0.39671312528239816,-0.38826729013353506 l 7.935594111497514 -7.9698190472866965" fill="#ff900d" stroke="none" /><path d="M 84.9287848128048 114.62390073753433 l -9.625115687985469 9.339441754369858 a34.41148851881741,34.41148851881741 0 0,0 -0.4088305210830078,-0.4286571668726494 l 9.784452760447435 -9.172377470914709" fill="#ffac10" stroke="none" /><path d="M 84.67929136418377 114.36230785411682 l -6.307917355008421 5.913319881246512 a29.646223069963074,29.646223069963074 0 0,0 -0.34580708715939723,-0.37530529538233937 l 6.408770850163547 -5.8038633310628285" fill="#ff6d0a" stroke="none" /><path d="M 84.19399662182784 113.82643327865904 l -5.968721749434646 5.221189130036907 a28.9300980607928,28.9300980607928 0 0,0 -0.3246473479465577,-0.3776382096174242 l 6.057711606951982 -5.117673821257953" fill="#ff6309" stroke="none" /><path d="M 83.72743513129214 113.27417163493432 l -11.272371342731558 9.195316973286431 a35.547171887609124,35.547171887609124 0 0,0 -0.38269423051882956,-0.47746989450018534 l 11.428983485305249 -8.999919245207986" fill="#ffbb11" stroke="none" /><path d="M 83.28015986056508 112.70617746262583 l -10.356354490298921 7.870271301771391 a34.007507397354075,34.007507397354075 0 0,0 -0.3501781105933986,-0.46912080442882903 l 10.490293867587406 -7.690837617833254" fill="#ffa70f" stroke="none" /><path d="M 83.06392112726016 112.41649034213515 l -4.801862025534198 3.5204296054784177 a26.95409972366909,26.95409972366909 0 0,0 -0.2711071685696174,-0.37654414544015585 l 4.861748986479423 -3.4372518545871236" fill="#ff4806" stroke="none" /><path d="M 82.6465618267979 111.8261652097733 l -4.999833921616587 3.4073283569693826 a27.050473186119874,27.050473186119874 0 0,0 -0.2589076717895429,-0.38703184027115606 l 5.05774469881686 -3.3207596024924055" fill="#ff4906" stroke="none" /><path d="M 82.44556493220864 111.52570212397912 l -7.224378585455673 4.743304770860503 a29.64237155503387,29.64237155503387 0 0,0 -0.27637296135458245,-0.4289369734608411 l 7.304956410187302 -4.618246197478213" fill="#ff6d0a" stroke="none" /><path d="M 82.05923443525364 110.91462005526583 l -11.112748184281836 6.760660450277513 a34.00767857579537,34.00767857579537 0 0,0 -0.29994630692118185,-0.5027272632792416 l 11.227475366901249 -6.568371093112161" fill="#ffa70f" stroke="none" /><line stroke="#e1ed5e" stroke-width="0.3" x1="26.63291911575756" x2="22.317208475507996" y1="142.92168965132927" y2="145.44649492493687" /><path d="M 25.769776987707644 143.4266507060508 a86.0,86.0 0 0,1 -11.730757126820373,-40.83630448921669" fill="none" id="id57" stroke="none" /><text fill="#e1ed5e" style="font-size:6.75px; font-family:Arial;" text-anchor="middle"><textPath startOffset="21.46611528233685" xlink:href="#id57">September</textPath></text><path d="M 81.87401531095188 110.60418214915194 l -9.114853059282549 5.332430969214435 a31.560083632895605,31.560083632895605 0 0,0 -0.27028657345906215,-0.47126742334895844 l 9.205291628893988 -5.17474370000717" fill="#ff870c" stroke="none" /><path d="M 81.51974371655577 109.97397251340807 l -8.287260404612049 4.4727143508883485 a30.417210769569365,30.417210769569365 0 0,0 -0.2447100698244632,-0.46289923071023553 l 8.363022982661398 -4.329400105091986" fill="#ff770b" stroke="none" /><path d="M 81.18737489456691 109.33194174019688 l -7.679149822644624 3.809217392976541 a29.57201721566038,29.57201721566038 0 0,0 -0.22227841013454558,-0.4579593615674993 l 7.743581489393889 -3.676469075443757" fill="#ff6c0a" stroke="none" /><path d="M 81.02952815118164 109.00673069616217 l -9.542450888535585 4.5305296578454275 a31.563336023280268,31.563336023280268 0 0,0 -0.2287971866646257,-0.4928087853223289 l 9.619022692040037 -4.365600805244271" fill="#ff870c" stroke="none" /><path d="M 80.73074385275274 108.34839909993369 l -19.64347669657369 8.510530033961455 a42.40783263639254,42.40783263639254 0 0,0 -0.2844334103141318,-0.6723165617114827 l 19.78706108808013 -8.171138946583813" fill="#eeff19" stroke="none" /><path d="M 80.45479744820244 107.68017299344265 l -8.259301473664912 3.245444193000111 a29.874061575330742,29.874061575330742 0 0,0 -0.1839470025460005,-0.480227578609846 l 8.313942755804423 -3.1027930475571073" fill="#ff700a" stroke="none" /><path d="M 80.32549172779594 107.34259656027581 l -13.641884080881765 5.091199726169445 a35.56095175213362,35.56095175213362 0 0,0 -0.20909118080725042,-0.5753291284926941 l 13.727499522694238 -4.855622800670634" fill="#ffbb11" stroke="none" /><path d="M 80.20201598880116 107.00284435728193 l -7.472315185798171 2.6430701330549353 a28.925989778201647,28.925989778201647 0 0,0 -0.16199817247423634,-0.4708425188737761 l 7.516704189215635 -2.514054911091862" fill="#ff6309" stroke="none" /><path d="M 80.0844068197444 106.66101706037122 l -8.206401673107061 2.7447327857157773 a29.653241386056294,29.653241386056294 0 0,0 -0.1577379450146735,-0.4854674765595181 l 8.252431869137984 -2.6030664091784557" fill="#ff6d0a" stroke="none" /><path d="M 79.86692584326677 105.97154293290107 l -22.990014802300035 6.81892190686898 a44.97995989533661,44.97995989533661 0 0,0 -0.21377767572011133,-0.7441881341779896 l 23.10398511490625 -6.422176297186394" fill="#d0ff1d" stroke="none" /><path d="M 79.67330655649465 105.27499134158121 l -9.122895858292 2.3674876977107857 a30.425084977869073,30.425084977869073 0 0,0 -0.1271894391746802,-0.5080585850336812 l 9.16229661176174 -2.2101012732797125" fill="#ff780b" stroke="none" /><path d="M 79.58551787078972 104.9243191809786 l -14.19898046022702 3.425034805589805 a35.60622844985694,35.60622844985694 0 0,0 -0.1385920458494606,-0.5970509062286438 l 14.255833072007036 -3.180115242012587" fill="#ffbc11" stroke="none" /><path d="M 79.50377843672027 104.57218783832718 l -6.69190047600328 1.4927934827994747 a27.85638128775096,27.85638128775096 0 0,0 -0.10037046989505606,-0.46889742029972054 l 6.716604984622776 -1.3773822430835903" fill="#ff5507" stroke="none" /><path d="M 79.4281124754447 104.21870165774334 l -8.408081353522013 1.7242553315637468 a29.583058225124105,29.583058225124105 0 0,0 -0.09800454016698314,-0.4997230388910575 l 8.436515826664662 -1.5792685656047343" fill="#ff6c0a" stroke="none" /><path d="M 79.23777060512086 103.15116336523772 l -17.007125866047165 2.5812368680548747 a38.201892744479494,38.201892744479494 0 0,0 -0.0930779092968283,-0.6509866808348128 l 17.049037826360593 -2.2881047152396614" fill="#ffdd14" stroke="none" /><path d="M 79.1416061653843 102.43462659150553 l -14.516322669827918 1.694369444889177 a35.614872961142495,35.614872961142495 0 0,0 -0.06583273336590328,-0.6095293494209921 l 14.543337704694874 -1.4442437735834028" fill="#ffbc11" stroke="none" /><path d="M 79.07016306316243 101.71520430193888 l -4.790119186458876 0.3925512205474282 a25.806177096324554,25.806177096324554 0 0,0 -0.03247085745726213,-0.44303905178795355 l 4.796166602580473 -0.310039032262714" fill="#ff3805" stroke="none" /><path d="M 79.04373962182676 101.35467743843564 l -28.557835112469327 1.8460667227498768 a49.61744063776197,49.61744063776197 0 0,0 -0.047759501662402344,-0.8527779852007494 l 28.58538096501926 -1.3542170212136897" fill="#9bff22" stroke="none" /><path d="M 79.0095281055655 100.63252640178507 l -8.5615405460895 0.2579932677354854 a29.56542684567041,29.56542684567041 0 0,0 -0.010950382699839152,-0.5088212553589149 l 8.564712991474346 -0.11058219658644165" fill="#ff6c09" stroke="none" /><line stroke="#e1ed5e" stroke-width="0.3" x1="15.007084014347285" x2="10.007500721073583" y1="101.09737516637583" y2="101.16192664675087" /><path d="M 14.007167355692545 101.11028546245083 a86.0,86.0 0 0,1 10.666146001902534,-42.60595125391555" fill="none" id="id58" stroke="none" /><text fill="#e1ed5e" style="font-size:6.75px; font-family:Arial;" text-anchor="middle"><textPath startOffset="22.20632615414155" xlink:href="#id58">October</textPath></text><path d="M 79.00175016825051 100.2711162175752 l -3.8700219980261976 0.04996729415283274 a24.87034455774827,24.87034455774827 0 0,0 -0.0018424220209277602,-0.42811399197308586 l 3.8703087173366284 0.016656176023928528" fill="#ff2b04" stroke="none" /><path d="M 79.00486145842228 99.54816195383935 l -13.40718581408179 -0.2885371120914856 a34.41029026972832,34.41029026972832 0 0,0 0.017841416872702173,-0.5920697671535278 l 13.400232702753444 0.5192770266700077" fill="#ffac10" stroke="none" /><path d="M 79.03285615573316 98.82574320788736 l -21.003975082689397 -1.1763195113938605 a42.03688895409972,42.03688895409972 0 0,0 0.04667978125822463,-0.7221155551044841 l 20.98061471042676 1.5376941307513565" fill="#f2ff19" stroke="none" /><path d="M 79.08570108090925 98.10471618934814 l -6.619221579337434 -0.5998433677824204 a27.646345340278287,27.646345340278287 0 0,0 0.04702890094935544,-0.4735746145473168 l 6.60791555270585 0.7136935130341676" fill="#ff5207" stroke="none" /><path d="M 79.12142395522702 97.74499172005258 l -4.42320357521377 -0.47773184649233824 a25.448927689335584,25.448927689335584 0 0,0 0.050788360757011715,-0.4351236590368452 l 4.41432486145317 0.5537992438540452" fill="#ff3304" stroke="none" /><path d="M 79.16333360222342 97.38593545837743 l -12.73980269509229 -1.5982722887026664 a33.83966693566136,33.83966693566136 0 0,0 0.07748317032461569,-0.5773396177946896 l 12.710403525709841 1.8173302485620153" fill="#ffa50f" stroke="none" /><path d="M 79.21141760316559 97.0276538004421 l -8.469704883138741 -1.2109962401576726 a29.55584085295772,29.55584085295772 0 0,0 0.07634429431994587,-0.5030135121354836 l 8.447604695379493 1.356608864685248" fill="#ff6c09" stroke="none" /><path d="M 79.26566170972629 96.67025291283419 l -8.450900447681517 -1.3571381326789527 a29.559178832563028,29.559178832563028 0 0,0 0.08500113260425278,-0.5016814962685436 l 8.426287453557041 1.5024054172633243" fill="#ff6c09" stroke="none" /><path d="M 79.3925641242962 95.95851677861259 l -21.16604841741553 -4.151037036243449 a42.569253906536574,42.569253906536574 0 0,0 0.1472099614793359,-0.7178480527269419 l 21.0914591600212 4.514760745133793" fill="#ecff1a" stroke="none" /><path d="M 79.46518482838121 95.60439243477599 l -8.374935195829677 -1.7927080520271228 a29.564656542684567,29.564656542684567 0 0,0 0.11080497220315282,-0.496716963715083 l 8.342835836624486 1.936603185292165" fill="#ff6c09" stroke="none" /><path d="M 79.62865764111835 94.90015583598534 l -12.454965554814578 -3.1180264058559413 a33.839324578778765,33.839324578778765 0 0,0 0.14632070470401803,-0.563833363196518 l 12.399448518240252 3.331956194601323" fill="#ffa50f" stroke="none" /><path d="M 79.71946130924805 94.55025226153421 l -9.09746953398802 -2.4446546896321295 a30.42020639229208,30.42020639229208 0 0,0 0.1402418295655063,-0.5045244778141981 l 9.054040933856152 2.6008904708652705" fill="#ff780b" stroke="none" /><path d="M 80.02781315780177 93.51064311812611 l -28.85514494231547 -9.375604929413619 a51.34009488176461,51.34009488176461 0 0,0 0.2803235341503384,-0.8381316868566157 l 28.68948411439336 9.870909719192557" fill="#89ff24" stroke="none" /><path d="M 80.2630227832202 92.82701384747504 l -8.055497010350374 -2.927599696362058 a29.570990145012594,29.570990145012594 0 0,0 0.1779827365615801,-0.4769052465356726 l 8.003909685287166 3.0658280799270723" fill="#ff6c09" stroke="none" /><path d="M 80.38941819471856 92.48833698450439 l -9.902321553003093 -3.792998255523759 a31.603905313867898,31.603905313867898 0 0,0 0.19896381578198255,-0.5063412091443298 l 9.835564187339418 3.9628884695638518" fill="#ff870c" stroke="none" /><path d="M 80.65960295795068 91.81776055985345 l -6.12330033265871 -2.5905522713319464 a27.64874183845646,27.64874183845646 0 0,0 0.18920862206416914,-0.43671958661525184 l 6.07780100075186 2.6955710025337973" fill="#ff5207" stroke="none" /><path d="M 80.95270993114464 91.15688171328213 l -16.383162954259635 -7.606239385831886 a39.06274912576725,39.06274912576725 0 0,0 0.28839805609359503,-0.607439856807165 l 16.24980670432429 7.887121658279583" fill="#ffe715" stroke="none" /><path d="M 81.26839172434947 90.50648371742162 l -11.604896969999285 -5.881570697031171 a34.01024625241484,34.01024625241484 0 0,0 0.2691515287168062,-0.519915084269922 l 11.501936008122366 6.080458503561428" fill="#ffa70f" stroke="none" /><path d="M 81.43458229118936 90.18545643968196 l -6.069675930395397 -3.208713089585308 a27.865624923581052,27.865624923581052 0 0,0 0.2278239099807027,-0.42212310473884496 l 6.013543921196223 3.312717177656626" fill="#ff5507" stroke="none" /><line stroke="#e1ed5e" stroke-width="0.3" x1="26.266209847984243" x2="21.928928074336255" y1="57.711370442889674" y2="55.22380399835377" /><path d="M 25.398753493254645 57.213857153982495 a86.0,86.0 0 0,1 29.58750427330803,-30.492523968695096" fill="none" id="id59" stroke="none" /><text fill="#e1ed5e" style="font-size:6.75px; font-family:Arial;" text-anchor="middle"><textPath startOffset="21.46611528233685" xlink:href="#id59">November</textPath></text><path d="M 81.78341655067845 89.55222093294921 l -5.279852767853714 -3.028160323177762 a27.086591837233755,27.086591837233755 0 0,0 0.23544739483133753,-0.40245591916114065 l 5.2269456985520515 3.1185956546927946" fill="#ff4a06" stroke="none" /><path d="M 82.15384107792192 88.93136811851018 l -29.60001895309388 -18.358668378302607 a55.831046878438855,55.831046878438855 0 0,0 0.513572263314875,-0.8123479859183285 l 29.279619093533043 18.865464011935153" fill="#5aff2a" stroke="none" /><path d="M 82.7489923806493 88.02491185347247 l -3.519906399822116 -2.443404486014752 a25.28485315335143,25.28485315335143 0 0,0 0.25126808396269323,-0.3554008854224578 l 3.4773256960555443 2.503631871768996" fill="#ff3104" stroke="none" /><path d="M 83.17141714833178 87.43820079747576 l -4.118701653268595 -3.0744301881804548 a26.1396326999731,26.1396326999731 0 0,0 0.272255551675655,-0.3582563925681145 l 4.065170161368831 3.144871356629596" fill="#ff3d05" stroke="none" /><path d="M 83.6137871275137 86.86637796730984 l -29.72382800125422 -23.8237795011589 a59.09302325581396,59.09302325581396 0 0,0 0.6429926153199188,-0.7882329180795827 l 29.309336893857907 24.331896588846565" fill="#39ff2e" stroke="none" /><path d="M 84.07557802195018 86.31012108654704 l -5.31028245185426 -4.565134223541958 a28.002824444281416,28.002824444281416 0 0,0 0.31737619335905853,-0.36281585303185415 l 5.230914394917357 4.655865632776755" fill="#ff5708" stroke="none" /><path d="M 84.5562425177563 85.77008943001954 l -6.299223655028584 -5.804117901645493 a29.56551243489106,29.56551243489106 0 0,0 0.34807432459970966,-0.37130142070252753 l 6.198382008458418 5.911688739226071" fill="#ff6c09" stroke="none" /><path d="M 84.80347519578584 85.50635884689758 l -6.20234592073138 -5.915469308980464 a29.570990145012594,29.570990145012594 0 0,0 0.35447976081821786,-0.36532255317384327 l 6.099601896210044 6.021356057704431" fill="#ff6c09" stroke="none" /><path d="M 85.31137513191541 84.99185889309783 l -6.074612465721695 -6.206751270051779 a29.68473821925513,29.68473821925513 0 0,0 0.3682557959568833,-0.3542617839418332 l 5.966873426152384 6.310396140755926" fill="#ff6e0a" stroke="none" /><path d="M 86.10567301691215 84.25364557470407 l -5.810283876807612 -6.584758610270052 a29.78171080625046,29.78171080625046 0 0,0 0.38731285276644756,-0.3358738892748332 l 5.696077225394391 6.683797492964565" fill="#ff6f0a" stroke="none" /><path d="M 86.37877921826538 84.01681056812374 l -5.7528142693829 -6.750372944343274 a29.869182989753746,29.869182989753746 0 0,0 0.3941913782285427,-0.330123942929251 l 5.635765354195247 6.848398044666338" fill="#ff700a" stroke="none" /><path d="M 86.93701828274178 83.55741782278169 l -14.105057953418841 -17.75426005588823 a43.67523781576309,43.67523781576309 0 0,0 0.592667663007735,-0.4625865117162326 l 13.79735773525168 17.994424956827686" fill="#dfff1b" stroke="none" /><path d="M 87.22198572758235 83.33499621200491 l -4.173147244691835 -5.44259171714733 a27.858349839825888,27.858349839825888 0 0,0 0.3830574126759079,-0.28851090161449383 l 4.078843678257536 5.513619208267679" fill="#ff5507" stroke="none" /><path d="M 87.80319425747018 82.90503203632743 l -4.976045010282846 -6.974394102216305 a29.567566576186636,29.567566576186636 0 0,0 0.4168588448331349,-0.29203626049939746 l 4.85525502586605 7.059015205479645" fill="#ff6c09" stroke="none" /><path d="M 88.70189139769569 82.29822771554957 l -4.609210935713753 -7.221669154283269 a29.567224219304038,29.567224219304038 0 0,0 0.4313729151576352,-0.27012567989748504 l 4.484218868183875 7.299939175503684" fill="#ff6c09" stroke="none" /><line stroke="#e1ed5e" stroke-width="0.3" x1="56.762969772571076" x2="54.21961505331055" y1="26.818313649435495" y2="22.513508569990535" /><path d="M 56.25429882871897 25.957352633546506 a86.0,86.0 0 0,1 42.265352541879196,-11.944610805530505" fill="none" id="id60" stroke="none" /><text fill="#e1ed5e" style="font-size:6.75px; font-family:Arial;" text-anchor="middle"><textPath startOffset="22.20632615414155" xlink:href="#id60">December</textPath></text><path d="M 89.3179101791058 81.91981866633112 l -5.720511220406075 -9.682363837076524 a32.24599564717678,32.24599564717678 0 0,0 0.48031680015933137,-0.27823049295652696 l 5.552997687781423 9.779398487423098" fill="#ff900d" stroke="none" /><path d="M 89.63071344664047 81.73862282372117 l -4.661399132135283 -8.209201981550232 a30.440319859144594,30.440319859144594 0 0,0 0.4578744649736,-0.25480664402764525 l 4.519400578089637 8.288224023138062" fill="#ff780b" stroke="none" /><path d="M 89.94658935756843 81.56283822128135 l -5.386215200562268 -9.877893638266947 a32.25095982197442,32.25095982197442 0 0,0 0.4896846806406261,-0.26157259754379025 l 5.2153854733933365 9.969144962312486" fill="#ff900d" stroke="none" /><path d="M 90.26544431104013 81.39251694778311 l -5.211695707096443 -9.962092019576337 a32.24300002445406,32.24300002445406 0 0,0 0.49399271935920613,-0.2530422576371003 l 5.039442500148474 10.050326802525943" fill="#ff900d" stroke="none" /><path d="M 90.91171255644093 81.06846463323043 l -3.45873347651094 -7.204782588737577 a28.991979067322035,28.991979067322035 0 0,0 0.45175272611302025,-0.21210396225278844 l 3.334202539098311 7.263251533630372" fill="#ff6409" stroke="none" /><path d="M 91.56875222667455 80.76684994638697 l -3.5715917142140348 -8.147425056946897 a29.89588682659624,29.89588682659624 0 0,0 0.4730899413209852,-0.20255242331710646 l 3.430818015102741 8.20769700822679" fill="#ff700a" stroke="none" /><path d="M 92.23578459929587 80.48803036053334 l -3.516930914903354 -8.838272213503066 a30.512300393710415,30.512300393710415 0 0,0 0.4896742336794006,-0.18998599512194456 l 3.364273516224277 8.89750091251556" fill="#ff790b" stroke="none" /><path d="M 93.25333710446033 80.11325718540243 l -2.9706346614201804 -8.75636569108093 a30.246545863595237,30.246545863595237 0 0,0 0.4944837506097641,-0.16302351811060092 l 2.819468088568007 8.806202933450765" fill="#ff750a" stroke="none" /><path d="M 93.94186890950719 79.89281104454417 l -4.240331274940587 -14.07383579281768 a35.698750397378525,35.698750397378525 0 0,0 0.5898959810923928,-0.17220681289374803 l 3.997445076124773 14.144740934630127" fill="#ffbd11" stroke="none" /><path d="M 94.63758080256005 79.69619591428918 l -2.238155115187738 -8.474358549569969 a29.764935319003254,29.764935319003254 0 0,0 0.49649487005298865,-0.12656759729593203 l 2.09195135644975 8.511629143034764" fill="#ff6f0a" stroke="none" /><path d="M 95.33964822691252 79.52364482259891 l -2.1095215506429064 -9.2686806980515 a30.505710023720443,30.505710023720443 0 0,0 0.513014926178083,-0.11212519261108525 l 1.9496639003113023 9.303619388758454" fill="#ff790b" stroke="none" /><path d="M 96.40284397218896 79.31037775812273 l -2.4434206957306066 -14.053727662020359 a35.26455628102609,35.26455628102609 0 0,0 0.5989446325673105,-0.09883099632924927 l 2.2011468570244106 14.093704921289234" fill="#ffb711" stroke="none" /><path d="M 97.47563105711357 79.15227682838746 l -1.3526513651854202 -11.170990392888127 a32.252586017166756,32.252586017166756 0 0,0 0.5517239426325328,-0.061992613461449686 l 1.1601607190431695 11.192618959820175" fill="#ff900d" stroke="none" /><path d="M 98.91598698831166 79.02799685794201 l -0.4908671478028884 -9.4966271207591 a30.5093047709877,30.5093047709877 0 0,0 0.5247007197843019,-0.022594716731198155 l 0.32732559562926233 9.503669564014492" fill="#ff790b" stroke="none" /><path d="M 99.63851952072746 79.00311137660856 l -0.15586983813886757 -9.05382674531732 a30.055168366224045,30.055168366224045 0 0,0 0.517350317411401,-0.004452997515284189 l 2.217876591087329e-15 9.055168366224045" fill="#ff730a" stroke="none" /></svg>