<?xml version="1.0" encoding="utf-8" ?>
<svg baseProfile="full" height="200mm" version="1.1" viewBox="0,0,200,200" width="200mm" xmlns="http://www.w3.org/2000/svg" xmlns:ev="http://www.w3.org/2001/xml-events" xmlns:xlink="http://www.w3.org/1999/xlink"><defs /><rect fill="#1a1a1a" height="200" width="200" x="0" y="0" /><rect fill="#1a1a1a" height="200" width="180" x="10" y="0" /><text alignment-baseline="middle" fill="#e1ed5e" style="dominant-baseline: central; font-size:9.0px; font-family:Arial;" text-anchor="middle" x="100.0" y="100.0">2015</text><line stroke="#e1ed5e" stroke-width="0.3" x1="100.0" x2="100.0" y1="15.0" y2="10.0" /><path d="M 100.0 14.0 a86.0,86.0 0 0,1 42.46469731375804,11.215312516191453" fill="none" id="id1" stroke="none" /><text fill="#e1ed5e" style="font-size:6.75px; font-family:Arial;" text-anchor="middle"><textPath startOffset="22.20632615414155" xlink:href="#id1">January</textPath></text><line stroke="#e1ed5e" stroke-width="0.3" x1="143.23703022742887" x2="145.7803849466894" y1="26.81831364943548" y2="22.513508569990506" /><path d="M 143.74570117128098 25.957352633546492 a86.0,86.0 0 0,1 28.547481713284135,27.462654790039103" fill="none" id="id2" stroke="none" /><text fill="#e1ed5e" style="font-size:6.75px; font-family:Arial;" text-anchor="middle"><textPath startOffset="19.985693538727396" xlink:href="#id2">February</textPath></text><line stroke="#e1ed5e" stroke-width="0.3" x1="172.23445277983987" x2="176.4835382374775" y1="55.19839476539836" y2="52.563006222186495" /><path d="M 173.08426987136738 54.67131705675599 a86.0,86.0 0 0,1 12.851231095245387,41.99856678651699" fill="none" id="id3" stroke="none" /><text fill="#e1ed5e" style="font-size:6.75px; font-family:Arial;" text-anchor="middle"><textPath startOffset="22.20632615414155" xlink:href="#id3">March</textPath></text><line stroke="#e1ed5e" stroke-width="0.3" x1="184.98032266829074" x2="189.97916517819016" y1="98.17113171792111" y2="98.06355123074" /><path d="M 185.9800911702706 98.14961562048488 a86.0,86.0 0 0,1 -9.607161424134198,41.387399972396054" fill="none" id="id4" stroke="none" /><text fill="#e1ed5e" style="font-size:6.75px; font-family:Arial;" text-anchor="middle"><textPath startOffset="21.466115282336823" xlink:href="#id4">April</textPath></text><line stroke="#e1ed5e" stroke-width="0.3" x1="174.80103733775053" x2="179.2010983576182" y1="140.37084112569926" y2="142.7455964860345" /><path d="M 175.68104954172406 140.8457921977663 a86.0,86.0 0 0,1 -30.038265399797805,32.042727171017184" fill="none" id="id5" stroke="none" /><text fill="#e1ed5e" style="font-size:6.75px; font-family:Arial;" text-anchor="middle"><textPath startOffset="22.206326154141568" xlink:href="#id5">May</textPath></text><line stroke="#e1ed5e" stroke-width="0.3" x1="143.8653032363475" x2="146.44561519142675" y1="172.8068346515853" y2="177.08958963109032" /><path d="M 144.38136562736335 173.6633856474863 a86.0,86.0 0 0,1 -40.68145358897372,12.25698825130547" fill="none" id="id6" stroke="none" /><text fill="#e1ed5e" style="font-size:6.75px; font-family:Arial;" text-anchor="middle"><textPath startOffset="21.466115282336833" xlink:href="#id6">June</textPath></text><line stroke="#e1ed5e" stroke-width="0.3" x1="102.19456741930631" x2="102.32365962044197" y1="184.97166512339345" y2="189.96999836594603" /><path d="M 102.22038585953345 185.97133177190398 a86.0,86.0 0 0,1 -42.740103519485714,-10.115201625700543" fill="none" id="id7" stroke="none" /><text fill="#e1ed5e" style="font-size:6.75px; font-family:Arial;" text-anchor="middle"><textPath startOffset="22.20632615414155" xlink:href="#id7">July</textPath></text><path d="M 92.7421414339146 119.70592522655815 l -7.892734384199995 21.429686482857196 a43.836959491427166,43.836959491427166 0 0,0 -0.7058372112084136,-0.2668872371896951 l 8.260441816168692 -21.290650995560867" fill="#e7ff1a" stroke="none" /><path d="M 91.7346041902142 119.30500536409082 l -4.137462155111443 9.663630264818396 a31.512104593281666,31.512104593281666 0 0,0 -0.4968098251837296,-0.2177868274656133 l 4.303192654952916 -9.590978884058332" fill="#ff780b" stroke="none" /><path d="M 91.40352486487194 119.15986991738527 l -12.966547148769164 28.899909875021052 a52.675481618210526,52.675481618210526 0 0,0 -0.8240753119022457,-0.3782925573526639 l 13.46209045643883 -28.67243024733431" fill="#81ff25" stroke="none" /><path d="M 90.42595943632237 118.69057910512821 l -4.7647865253404404 9.301884494702369 a31.451231783136866,31.451231783136866 0 0,0 -0.47971979366126505,-0.25096672308593504 l 4.924197221528201 -9.218488352671718" fill="#ff770b" stroke="none" /><line stroke="#e1ed5e" stroke-width="0.3" x1="58.666819895761336" x2="56.23545636021788" y1="174.27360380694188" y2="178.64263932499728" /><path d="M 58.180547188652646 175.14741091055294 a86.0,86.0 0 0,1 -31.652253787137756,-30.449443065178592" fill="none" id="id8" stroke="none" /><text fill="#e1ed5e" style="font-size:6.75px; font-family:Arial;" text-anchor="middle"><textPath startOffset="22.20632615414155" xlink:href="#id8">August</textPath></text><path d="M 89.7882731507175 118.34994917583269 l -5.264448785994862 9.459944345119986 a31.826124331132096,31.826124331132096 0 0,0 -0.4764086394100163,-0.2705172589587371 l 5.4265061923260856 -9.367923920366616" fill="#ff7c0b" stroke="none" /><path d="M 89.4739219176387 118.17145234162733 l -10.572512432954845 18.251613212772604 a42.09263862141577,42.09263862141577 0 0,0 -0.6238372158179133,-0.3685740231251996 l 10.88511751980114 -18.066920617353656" fill="#fcff18" stroke="none" /><path d="M 88.54995079064634 117.60387380957326 l -12.780446851999258 19.649293160134167 a44.44002012434446,44.44002012434446 0 0,0 -0.637662021522393,-0.42260761721777246 l 13.116783572261614 -19.426387521825077" fill="#dfff1b" stroke="none" /><path d="M 88.24862548938628 117.40417183066458 l -11.8119062230935 17.493821286075185 a42.10817168331479,42.10817168331479 0 0,0 -0.5972204303329843,-0.41077365772965085 l 12.111283538049374 -17.287906838980433" fill="#fcff18" stroke="none" /><path d="M 87.95078237400918 117.19931262002967 l -11.486569658655357 16.39617679946381 a41.01938800669034,41.01938800669034 0 0,0 -0.574804043749147,-0.4101074232210976 l 11.767101030253391 -16.19602511439849" fill="#fff517" stroke="none" /><path d="M 86.24171649860922 115.8653595955263 l -20.07551277579208 23.15007022644409 a51.64232309568392,51.64232309568392 0 0,0 -0.6665736470835175,-0.5881737423621928 l 20.471028775782187 -22.80107334230961" fill="#8cff24" stroke="none" /><line stroke="#e1ed5e" stroke-width="0.3" x1="26.63291911575756" x2="22.317208475507996" y1="142.92168965132927" y2="145.44649492493687" /><path d="M 25.769776987707644 143.4266507060508 a86.0,86.0 0 0,1 -11.730757126820373,-40.83630448921669" fill="none" id="id9" stroke="none" /><text fill="#e1ed5e" style="font-size:6.75px; font-family:Arial;" text-anchor="middle"><textPath startOffset="21.46611528233685" xlink:href="#id9">September</textPath></text><path d="M 80.58989483394504 108.01547362559985 l -6.375506932187606 2.6327888091069642 a27.897729014373578,27.897729014373578 0 0,0 -0.17947191704750914,-0.4454345797271224 l 6.419881463492503 -2.522654861537036" fill="#ff4506" stroke="none" /><path d="M 80.45479744820244 107.68017299344265 l -44.979610750303806 17.67447489093814 a69.32755369268394,69.32755369268394 0 0,0 -0.4268785368691512,-1.1144451569409037 l 45.27718356676647 -16.897606167164078" fill="#3aff97" stroke="none" /><path d="M 80.32549172779594 107.34259656027581 l -24.77291283609533 9.245339302091173 a47.441889289450714,47.441889289450714 0 0,0 -0.27894868282491697,-0.767546971442037 l 24.92838577992547 -8.817544533643018" fill="#bcff1f" stroke="none" /><path d="M 80.0844068197444 106.66101706037122 l -58.10547200042276 19.43409552467927 a82.26932303571071,82.26932303571071 0 0,0 -0.4376248041302986,-1.3468706551313705 l 58.431389055569305 -18.4310259695701" fill="#4be2ff" stroke="none" /><path d="M 79.97269907076064 106.31721596034903 l -25.861518319292408 8.157504441698013 a48.11757748205801,48.11757748205801 0 0,0 -0.24235959378398195,-0.792045175318305 l 25.998104685582522 -7.71113229382766" fill="#b4ff20" stroke="none" /><path d="M 79.86692584326677 105.97154293290107 l -26.829833135106185 7.95782597340092 a48.98511997974238,48.98511997974238 0 0,0 -0.23281312652361458,-0.8104530356415213 l 26.962838898515905 -7.494815462254802" fill="#aaff21" stroke="none" /><path d="M 79.76711848015287 105.62410040840567 l -26.551485826107886 7.380472333212135 a48.55817068376125,48.55817068376125 0 0,0 -0.21692073338895593,-0.8072427454338472 l 26.674594635838616 -6.92233865460275" fill="#afff20" stroke="none" /><path d="M 79.67330655649465 105.27499134158121 l -39.22824141821447 10.180142402484814 a61.52764765071601,61.52764765071601 0 0,0 -0.25721101532252805,-1.027430149451075 l 39.39766374783206 -9.503384413636347" fill="#31ff3b" stroke="none" /><path d="M 79.58551787078972 104.9243191809786 l -10.467137431613587 2.5248510002946523 a31.767350583406078,31.767350583406078 0 0,0 -0.12364977421777434,-0.5326799911149207 l 10.509047771761917 -2.3443023518311574" fill="#ff7c0b" stroke="none" /><path d="M 79.4281124754447 104.21870165774334 l -43.439532280038954 8.908197005386711 a65.34353322182758,65.34353322182758 0 0,0 -0.21647399932615766,-1.1037962588248758 l 43.58643621234078 -8.159137019493881" fill="#35ff69" stroke="none" /><path d="M 79.29508885075956 103.50808413554451 l -20.81156282028312 3.526154391075545 a42.10817168331479,42.10817168331479 0 0,0 -0.11493173942577037,-0.7156800511151962 l 20.869176314070184 -3.167395110267135" fill="#fcff18" stroke="none" /><path d="M 79.23777060512086 103.15116336523772 l -20.81418097076043 3.159048255611001 a42.05254652921695,42.05254652921695 0 0,0 -0.10245992620647669,-0.716604485249294 l 20.865474947983504 -2.8002982983813065" fill="#fcff18" stroke="none" /><path d="M 79.18660465613746 102.79330883721812 l -10.443035504899829 1.401531219740231 a31.536663623581468,31.536663623581468 0 0,0 -0.06757629840242818,-0.5386495871804186 l 10.465613312549104 -1.2215638782724039" fill="#ff780b" stroke="none" /><path d="M 79.07016306316243 101.71520430193888 l -17.054803855260037 1.397644569785443 a38.11197665042947,38.11197665042947 0 0,0 -0.04795474186708782,-0.6543043525565729 l 17.076335155791458 -1.1038670807321094" fill="#ffd013" stroke="none" /><path d="M 79.04373962182676 101.35467743843564 l -20.969107812684435 1.3555079363088318 a42.01287424950189,42.01287424950189 0 0,0 -0.040439690394556624,-0.7220778378422765 l 20.989333853966524 -0.9943583821311176" fill="#fdff18" stroke="none" /><path d="M 79.0095281055655 100.63252640178507 l -21.01425047481562 0.6332429449844693 a42.02378937407957,42.02378937407957 0 0,0 -0.015564685690001938,-0.7232297837563297 l 21.022037223190626 -0.2714233454380108" fill="#fdff18" stroke="none" /><line stroke="#e1ed5e" stroke-width="0.3" x1="15.007084014347285" x2="10.007500721073583" y1="101.09737516637583" y2="101.16192664675087" /><path d="M 14.007167355692545 101.11028546245083 a86.0,86.0 0 0,1 10.666146001902534,-42.60595125391555" fill="none" id="id10" stroke="none" /><text fill="#e1ed5e" style="font-size:6.75px; font-family:Arial;" text-anchor="middle"><textPath startOffset="22.20632615414155" xlink:href="#id10">October</textPath></text><path d="M 79.00175016825051 100.2711162175752 l -17.802133939968453 0.2298499759381754 a38.803617717419556,38.803617717419556 0 0,0 -0.0028746139647656426,-0.6679590483931 l 17.803452851222723 0.07661855065860006" fill="#ffd914" stroke="none" /><path d="M 79.01574976396665 99.18683210126434 l -31.497140486691123 -1.220556524900926 a52.52078071794598,52.52078071794598 0 0,0 0.04278290718303266,-0.9030795518447008 l 31.47146397127459 1.762547183368636" fill="#83ff25" stroke="none" /><path d="M 79.16333360222342 97.38593545837743 l -20.951078047984602 -2.6284180582671075 a42.115308495538656,42.115308495538656 0 0,0 0.09643202539900468,-0.7185305977257107 l 20.902730023527763 2.9886669980574774" fill="#fcff18" stroke="none" /><path d="M 79.26566170972629 96.67025291283419 l -27.84290293604056 -4.471318237969078 a49.19964415894234,49.19964415894234 0 0,0 0.14147975831552193,-0.8350215422881531 l 27.761811316204813 4.949925568573059" fill="#a8ff21" stroke="none" /><path d="M 79.3925641242962 95.95851677861259 l -20.70472820724862 -4.06056397106824 a42.09914571491401,42.09914571491401 0 0,0 0.14558426681877593,-0.7099205882083442 l 20.631764644514853 4.416360215439987" fill="#fcff18" stroke="none" /><path d="M 79.46518482838121 95.60439243477599 l -2.1551929401733623 -0.4613327323947177 a23.20401553972559,23.20401553972559 0 0,0 0.08696601271754038,-0.38985158269129394 l 2.1469325404537845 0.49836248463597094" fill="#ff0100" stroke="none" /><path d="M 79.54389044137918 95.25157060432595 l -15.073102192111628 -3.4988843468947155 a36.473868338808664,36.473868338808664 0 0,0 0.1472279848922161,-0.6103550472746718 l 15.010641406958596 3.7578246258287837" fill="#ffbb11" stroke="none" /><path d="M 79.71946130924805 94.55025226153421 l -2.1285058299249218 -0.5719680334839514 a23.20401553972559,23.20401553972559 0 0,0 0.1069740800109135,-0.3848426822751251 l 2.1183449793476474 0.6085220191780191" fill="#ff0100" stroke="none" /><path d="M 79.81627453868168 94.20196356495316 l -42.98626330948603 -12.348360631072433 a65.72472295707917,65.72472295707917 0 0,0 0.321719711140693,-1.0846789305308924 l 42.76733770123363 13.086468948349864" fill="#36ff6d" stroke="none" /><path d="M 79.91906864156998 93.8553929516997 l -10.087367172822065 -3.0866550122883134 a31.549048091852306,31.549048091852306 0 0,0 0.16337076058676908,-0.5179299561462442 l 10.032740928467092 3.259835134860972" fill="#ff790b" stroke="none" /><path d="M 80.14247586403 93.16781622104843 l -22.04788975281255 -7.585801417026465 a44.31638534787795,44.31638534787795 0 0,0 0.2543906534919992,-0.7191966340357029 l 21.914046018510742 7.964195677488779" fill="#e1ff1b" stroke="none" /><path d="M 80.2630227832202 92.82701384747504 l -2.002408778248865 -0.7277330403899087 a23.13054835506807,23.13054835506807 0 0,0 0.13921881797722999,-0.3730372169374086 l 1.9895853717700074 0.7620933943566587" fill="#ff0000" stroke="none" /><path d="M 80.65960295795068 91.81776055985345 l -42.08060666094274 -17.80281959764644 a66.69155110717213,66.69155110717213 0 0,0 0.4563902604334422,-1.0534116452902633 l 41.767925690666615 18.524530387523303" fill="#37ff79" stroke="none" /><path d="M 80.803312248108 91.48605970444005 l -9.609600904620974 -4.261962762718695 a31.512314499523548,31.512314499523548 0 0,0 0.22418413206433319,-0.49396001827095437 l 9.534814455593288 4.42674478983172" fill="#ff780b" stroke="none" /><path d="M 81.10775173730289 90.83032412892265 l -24.815974663257858 -12.04485781272789 a48.58461887023796,48.58461887023796 0 0,0 0.37164916885611443,-0.7492220460742371 l 24.604965481448332 12.47023944730109" fill="#afff20" stroke="none" /><path d="M 81.43458229118936 90.18545643968196 l -10.720082198643667 -5.667134203980082 a33.125863780844554,33.125863780844554 0 0,0 0.2708305960744372,-0.5018079624868917 l 10.620943503350757 5.850823149799446" fill="#ff8e0d" stroke="none" /><line stroke="#e1ed5e" stroke-width="0.3" x1="26.266209847984243" x2="21.928928074336255" y1="57.711370442889674" y2="55.22380399835377" /><path d="M 25.398753493254645 57.213857153982495 a86.0,86.0 0 0,1 29.58750427330803,-30.492523968695096" fill="none" id="id11" stroke="none" /><text fill="#e1ed5e" style="font-size:6.75px; font-family:Arial;" text-anchor="middle"><textPath startOffset="21.46611528233685" xlink:href="#id11">November</textPath></text><path d="M 81.78341655067845 89.55222093294921 l -38.69659866576077 -22.193706884221378 a65.60927452404593,65.60927452404593 0 0,0 0.5703018252088171,-0.9748306853346498 l 38.308837166081624 22.85651698190992" fill="#36ff6c" stroke="none" /><path d="M 81.96595687620814 89.24020034530311 l -12.00440904891401 -7.16228942410263 a34.9787061779072,34.9787061779072 0 0,0 0.31294982320081266,-0.5144072247265973 l 11.87934342742698 7.367864422036301" fill="#ffa70f" stroke="none" /><path d="M 82.34701348167596 88.62581576622439 l -1.8218570951811108 -1.173860197915596 a23.16728194739683,23.16728194739683 0 0,0 0.21887936609405928,-0.33336829101141047 l 1.8013810937291312 1.2050465529046734" fill="#ff0100" stroke="none" /><path d="M 82.54541684631803 88.32363383020206 l -17.32169676791373 -11.587470887364129 a41.84012141243578,41.84012141243578 0 0,0 0.40560119395339955,-0.5951697035680295 l 17.11967110829159 11.883918614202575" fill="#ffff18" stroke="none" /><path d="M 82.7489923806493 88.02491185347247 l -17.00379609459567 -11.803481950234481 a41.69906441789334,41.69906441789334 0 0,0 0.41438421476188003,-0.5861170846247555 l 16.79809926002991 12.094425535191023" fill="#fffd17" stroke="none" /><path d="M 83.17141714833178 87.43820079747576 l -16.655718328049787 -12.43276341537122 a41.78428635209606,41.78428635209606 0 0,0 0.4352013688461339,-0.572673987670471 l 16.439241018979544 12.717622178922717" fill="#fffe18" stroke="none" /><path d="M 83.39014120810768 87.1503855733568 l -16.50299440023012 -12.766942668502349 a41.864890348977454,41.864890348977454 0 0,0 0.44585294728236435,-0.5661879659729164 l 16.280787372353785 13.049123028428314" fill="#ffff18" stroke="none" /><path d="M 83.84228863543731 86.58626213691792 l -17.74907371583403 -14.734848071298094 a44.06827616997741,44.06827616997741 0 0,0 0.4895552910654292,-0.5794790509338935 l 17.492807811281477 15.038186071861103" fill="#e4ff1a" stroke="none" /><path d="M 84.31358615837235 86.03803664274999 l -15.56150120566675 -13.85078270985976 a41.83277469397002,41.83277469397002 0 0,0 0.48338041953180994,-0.5337607323823771 l 15.320777145518894 14.116596229511693" fill="#ffff18" stroke="none" /><path d="M 84.80347519578584 85.50635884689758 l -39.497425369322315 -37.670554100346116 a75.58129035697388,75.58129035697388 0 0,0 0.9060243703943437,-0.9337377554819619 l 38.84313673522485 38.34485605137821" fill="#42ffda" stroke="none" /><path d="M 85.31137513191541 84.99185889309783 l -16.25246075150591 -16.605994535470593 a44.235781350996554,44.235781350996554 0 0,0 0.5487696320872137,-0.5279159512782843 l 15.964207875806268 16.88329357351119" fill="#e2ff1b" stroke="none" /><path d="M 85.83668400450813 84.49514656593479 l -13.84497242326884 -15.156356625085886 a41.52799083076226,41.52799083076226 0 0,0 0.5319320590804903,-0.47757385473568514 l 13.582029376592379 15.39242948859085" fill="#fffb17" stroke="none" /><path d="M 86.37877921826538 84.01681056812374 l -13.627665281028287 -15.99075143051462 a42.00993556211559,42.00993556211559 0 0,0 0.5544160482797035,-0.46430749628226425 l 13.350391695789472 16.222960084190696" fill="#fdff18" stroke="none" /><path d="M 87.80319425747018 82.90503203632743 l -16.926728423680686 -23.724398522115724 a50.14380243491241,50.14380243491241 0 0,0 0.7069532592307904,-0.4952659364976741 l 16.515844024866237 24.01224930137734" fill="#9dff22" stroke="none" /><path d="M 88.09926311788651 82.69761687909137 l -11.783249748427528 -17.131569547014127 a41.79268260177121,41.79268260177121 0 0,0 0.5962329293165783,-0.40257913540100637 l 11.48661212470441 17.3318605947138" fill="#fffe18" stroke="none" /><path d="M 88.70189139769569 82.29822771554957 l -20.396177691747457 -31.956542964975867 a58.91074653321516,58.91074653321516 0 0,0 0.8594821170109739,-0.5382076228232333 l 19.84307642236424 32.302894929122026" fill="#40ff2d" stroke="none" /><line stroke="#e1ed5e" stroke-width="0.3" x1="56.762969772571076" x2="54.21961505331055" y1="26.818313649435495" y2="22.513508569990535" /><path d="M 56.25429882871897 25.957352633546506 a86.0,86.0 0 0,1 42.265352541879196,-11.944610805530505" fill="none" id="id12" stroke="none" /><text fill="#e1ed5e" style="font-size:6.75px; font-family:Arial;" text-anchor="middle"><textPath startOffset="22.20632615414155" xlink:href="#id12">December</textPath></text><path d="M 89.3179101791058 81.91981866633112 l -12.633832847669565 -21.38364240097792 a45.83694616404672,45.83694616404672 0 0,0 0.6827593587583345,-0.39549828966007095 l 12.26387675644591 21.59794484802804" fill="#cfff1d" stroke="none" /><path d="M 89.94658935756843 81.56283822128135 l -11.917418703597688 -21.85560546941058 a45.89362084935395,45.89362084935395 0 0,0 0.6968289685984929,-0.37222190230989655 l 11.539444688470889 22.057506098222227" fill="#ceff1d" stroke="none" /><path d="M 90.58718382345135 81.22770947309562 l -3.090353243567039 -6.163193653301873 a27.8945804207454,27.8945804207454 0 0,0 0.43107584958191825,-0.21152704724798654 l 2.9838061269746947 6.215475860684689" fill="#ff4506" stroke="none" /><path d="M 90.91171255644093 81.06846463323043 l -19.116944077412217 -39.82192521458767 a65.17287944718025,65.17287944718025 0 0,0 1.0155231517838716,-0.47680173644134427 l 18.42864271432874 40.14509193366902" fill="#35ff67" stroke="none" /><path d="M 91.90106846888425 80.62456947434976 l -8.001248055925878 -19.141738046614694 a41.74671313479979,41.74671313479979 0 0,0 0.6653951560897198,-0.2714313912463805 l 7.670569030247778 19.276630324044653" fill="#fffe18" stroke="none" /><path d="M 92.57280143429618 80.3572730644239 l -8.202128174095446 -21.692184824344338 a44.1910713214764,44.1910713214764 0 0,0 0.7138282112042729,-0.2629089544306193 l 7.8275176371186035 21.83015704658128" fill="#e2ff1b" stroke="none" /><path d="M 93.25333710446033 80.11325718540243 l -20.239988686619004 -59.66022844379273 a84.0,84.0 0 0,0 1.3732687110303627,-0.45274510296306447 l 19.21003715334623 59.99978727101503" fill="#4dd2ff" stroke="none" /><path d="M 93.59665428221793 80.00007090966166 l -0.985674972384108 -3.0786139656741023 a24.232556124930863,24.232556124930863 0 0,0 0.3983539443302074,-0.12377050959103435 l 0.9325356553431717 3.095124610147662" fill="#ff1001" stroke="none" /><path d="M 93.94186890950719 79.89281104454417 l -5.939525473376 -19.713531981230112 a41.588863640907064,41.588863640907064 0 0,0 0.6872258341505467,-0.20062006596172632 l 5.599309421502032 19.81285037611054" fill="#fffc17" stroke="none" /><path d="M 94.63758080256005 79.69619591428918 l -7.991475752395048 -30.258238317101384 a52.29576122665209,52.29576122665209 0 0,0 0.8723209674832324,-0.22237403764802702 l 7.469445896226816 30.391315350918273" fill="#85ff25" stroke="none" /><path d="M 96.04723909329186 79.375362276772 l -3.9532481962306485 -20.627180292866104 a42.00258884364984,42.00258884364984 0 0,0 0.711253596148146,-0.12997704847750108 l 3.597599478979609 20.692172822694342" fill="#fdff18" stroke="none" /><path d="M 97.11714578562143 79.19881850522333 l -3.4605603946973558 -24.969609800144752 a46.208270305930014,46.208270305930014 0 0,0 0.7888087774192198,-0.1024100182725149 l 3.030236888770278 25.025478141581406" fill="#caff1d" stroke="none" /></svg>