<?xml version="1.0" encoding="utf-8" ?>
<svg baseProfile="full" height="200mm" version="1.1" viewBox="0,0,200,200" width="200mm" xmlns="http://www.w3.org/2000/svg" xmlns:ev="http://www.w3.org/2001/xml-events" xmlns:xlink="http://www.w3.org/1999/xlink"><defs /><rect fill="#1a1a1a" height="200" width="200" x="0" y="0" /><rect fill="#1a1a1a" height="200" width="180" x="10" y="0" /><text alignment-baseline="middle" fill="#e1ed5e" style="dominant-baseline: central; font-size:9.0px; font-family:Arial;" text-anchor="middle" x="100.0" y="100.0">2026</text><line stroke="#e1ed5e" stroke-width="0.3" x1="100.0" x2="100.0" y1="15.0" y2="10.0" /><path d="M 100.0 14.0 a86.0,86.0 0 0,1 42.46469731375804,11.215312516191453" fill="none" id="id133" stroke="none" /><text fill="#e1ed5e" style="font-size:6.75px; font-family:Arial;" text-anchor="middle"><textPath startOffset="22.20632615414155" xlink:href="#id133">January</textPath></text><path d="M 100.0 79.0 l 0.0 -9.720706260032102 a30.720706260032102,30.720706260032102 0 0,0 0.5288064582127128,0.0045516041359939 l -0.16732597894018433 9.719266032504667" fill="#ff750a" stroke="none" /><path d="M 101.08401301168833 79.027996857942 l 0.529069576257715 -10.235715527402052 a31.249379833649495,31.249379833649495 0 0,0 0.5369505806765159,0.03239032537483841 l -0.7051822057738427 10.225091932646908" fill="#ff7c0b" stroke="none" /><path d="M 101.80526077348638 79.07773832637324 l 1.4271059766471725 -16.539596449406908 a37.6010506347585,37.6010506347585 0 0,0 0.6443653961170004,0.06119025862381354 l -1.711596499854417 16.512580646267914" fill="#ffd013" stroke="none" /><path d="M 102.52436894288641 79.15227682838746 l 1.37124525054166 -11.32454963219194 a32.407266890412956,32.407266890412956 0 0,0 0.5532156128346847,0.07182326394034154 l -1.5659755918841907 11.299268045087462" fill="#ff8c0c" stroke="none" /><path d="M 102.88285421437855 79.19881850522331 l 0.3683870741518954 -2.6580901495274447 a23.683496279001897,23.683496279001897 0 0,0 0.40333109148921836,0.05944051848840797 l -0.41408714606976954 2.6513551468780676" fill="#ff1101" stroke="none" /><path d="M 103.59715602781102 79.31037775812273 l 2.9162576562004023 -16.773325593965144 a38.02495257551438,38.02495257551438 0 0,0 0.6438980312230347,0.11766824951337128 l -3.2045508085263377 16.720641863101033" fill="#ffd513" stroke="none" /><path d="M 106.0581310904928 79.89281104454417 l 3.1661504777833414 -10.5085850681085 a31.97519334597986,31.97519334597986 0 0,0 0.5256335454016743,0.16331690120929168 l -3.346569395895734 10.452528032016689" fill="#ff860c" stroke="none" /><path d="M 107.08798089147638 80.2323363322302 l 2.5647406206718006 -7.152802858917844 a28.59871589085072,28.59871589085072 0 0,0 0.4619614233516781,0.17014429087324867 l -2.687484369796055 7.107595300238271" fill="#ff5808" stroke="none" /><path d="M 107.76421540070413 80.48803036053334 l 3.6733452432215468 -9.231351419554636 a30.935356778053407,30.935356778053407 0 0,0 0.4930744244596517,0.2011374380985817 l -3.8317035372695862 9.166753095272476" fill="#ff780b" stroke="none" /><path d="M 108.09893153111575 80.62456947434976 l 1.2032495679110704 -2.8785869245233435 a24.119947468262076,24.119947468262076 0 0,0 0.3816881097594216,0.16341892910938174 l -1.2526214354608072 2.857448467451171" fill="#ff1802" stroke="none" /><path d="M 108.43124777332544 80.76684994638697 l 5.869176746920119 -13.388618161813087 a35.61856121406683,35.61856121406683 0 0,0 0.5594113525183253,0.25099156742544326 l -6.0987702179052246 13.285606263871111" fill="#ffb610" stroke="none" /><path d="M 109.08828744355905 81.06846463323043 l 0.7947586213697911 -1.6555375302494915 a22.83642200496133,22.83642200496133 0 0,0 0.3529083380611998,0.17317058882254602 l -0.8231382264414228 1.6416117812921136" fill="#ff0500" stroke="none" /><path d="M 109.41281617654863 81.2277094730956 l 0.8602890021759259 -1.7157028016952847 a22.919305413687436,22.919305413687436 0 0,0 0.35114505469543766,0.17987013556292197 l -0.8896945444601191 1.7006401408198621" fill="#ff0601" stroke="none" /><path d="M 109.73455568895987 81.39251694778311 l 5.580663650999254 -10.667369690417475 a33.038961038961034,33.038961038961034 0 0,0 0.5016493516586125,0.2679637104387987 l -5.763458049186178 10.569727253476922" fill="#ff940d" stroke="none" /><line stroke="#e1ed5e" stroke-width="0.3" x1="143.23703022742887" x2="145.7803849466894" y1="26.81831364943548" y2="22.513508569990506" /><path d="M 143.74570117128098 25.957352633546492 a86.0,86.0 0 0,1 28.547481713284135,27.462654790039103" fill="none" id="id134" stroke="none" /><text fill="#e1ed5e" style="font-size:6.75px; font-family:Arial;" text-anchor="middle"><textPath startOffset="19.985693538727396" xlink:href="#id134">February</textPath></text><path d="M 111.60114157652 82.49532879139004 l 4.1044500810218185 -6.193101660430852 a28.429738800525318,28.429738800525318 0 0,0 0.4055912516135989,0.2738570236098365 l -4.210446027041959 6.1215327245223445" fill="#ff5507" stroke="none" /><path d="M 111.90073688211348 82.69761687909136 l 2.874276907218251 -4.1788874703226435 a26.0719392966584,26.0719392966584 0 0,0 0.3675756836383753,0.2575102566031204 l -2.945783730440277 4.128792370955588" fill="#ff3404" stroke="none" /><path d="M 112.77801427241765 83.33499621200491 l 7.91605944186693 -10.324073660605386 a34.009630818619584,34.009630818619584 0 0,0 0.4615065521120531,0.360213184219088 l -8.092598549138414 10.186282087163073" fill="#ffa10e" stroke="none" /><path d="M 113.06298171725822 83.55741782278167 l 1.6718016945547778 -2.104323296297116 a23.687582080840507,23.687582080840507 0 0,0 0.31707137234042504,0.2563829989300242 l -1.707776465459694 2.0752342001029622" fill="#ff1201" stroke="none" /><line stroke="#e1ed5e" stroke-width="0.3" x1="172.23445277983987" x2="176.4835382374775" y1="55.19839476539836" y2="52.563006222186495" /><path d="M 173.08426987136738 54.67131705675599 a86.0,86.0 0 0,1 12.851231095245387,41.99856678651699" fill="none" id="id135" stroke="none" /><text fill="#e1ed5e" style="font-size:6.75px; font-family:Arial;" text-anchor="middle"><textPath startOffset="22.20632615414155" xlink:href="#id135">March</textPath></text><path d="M 118.3937258080291 89.86733742301442 l 9.80684293652599 -5.402354664759454 a32.19641033124179,32.19641033124179 0 0,0 0.26323156610062665,0.4877281140380622 l -9.898382601845082 5.232745567388933" fill="#ff890c" stroke="none" /><path d="M 118.89224826269711 90.83032412892265 l 10.260360300766038 -4.980041388947028 a32.40507806799941,32.40507806799941 0 0,0 0.23924484916007252,0.503910667374552 l -10.344563343767867 4.802688305931936" fill="#ff8c0c" stroke="none" /><path d="M 119.47837535516314 92.15188598940014 l 7.074383294515899 -2.850369480908834 a28.627024660732527,28.627024660732527 0 0,0 0.1802227289449746,0.45864718733220855 l -7.122399573342574 2.728173288680841" fill="#ff5808" stroke="none" /><path d="M 119.7369772167798 92.82701384747503 l 8.153693595917044 -2.963287164648551 a29.67547059681891,29.67547059681891 0 0,0 0.17034697885550487,0.48159384839538544 l -8.20349365558236 2.822495689826551" fill="#ff6609" stroke="none" /><path d="M 119.97218684219823 93.5106431181261 l 29.79014879248286 -9.679406096386614 a52.32321610973296,52.32321610973296 0 0,0 0.2709458487402148,0.8589723831364259 l -29.952350124991284 9.16518354682377" fill="#81ff25" stroke="none" /><path d="M 120.37134235888165 94.90015583598534 l 8.158275802128957 -2.042375730815285 a29.41003939880344,29.41003939880344 0 0,0 0.11871460400264482,0.4921486753437262 l -8.192223206392422 1.9016418238121529" fill="#ff6309" stroke="none" /><path d="M 120.53481517161879 95.60439243477599 l 13.420051709754633 -2.8726472738174036 a34.72406245439953,34.72406245439953 0 0,0 0.12008027924429117,0.5855540872383306 l -13.467511284913922 2.6412175304156613" fill="#ffaa0f" stroke="none" /><path d="M 120.6074358757038 95.95851677861258 l 5.077076055734743 -0.9957045513436086 a26.173792499635198,26.173792499635198 0 0,0 0.08290146955460903,0.442862965288873 l -5.093463249199211 0.9081635085921729" fill="#ff3505" stroke="none" /><path d="M 120.73433829027371 96.67025291283417 l 8.73270456769069 -1.4023933240728446 a29.84459360863855,29.84459360863855 0 0,0 0.07709015790322757,0.5079278212392861 l -8.755550619033217 1.2518663904414762" fill="#ff6909" stroke="none" /><path d="M 120.83666639777658 97.38593545837742 l 8.498680760019525 -1.066202222621737 a29.565299868670657,29.565299868670657 0 0,0 0.05900339432566792,0.505505049816648 l -8.51577450734878 0.9197534344802363" fill="#ff6509" stroke="none" /><path d="M 120.87857604477298 97.74499172005257 l 1.484725822143981 -0.1603590692778414 a22.493360572012257,22.493360572012257 0 0,0 0.03826321393801461,0.38530534259242366 l -1.4872661617642242 0.1347781959809828" fill="#ff0000" stroke="none" /><path d="M 120.94382443527127 98.46500227214037 l 62.831473305813795 -4.6049931835789 a84.0,84.0 0 0,0 0.09327763598233796,1.442963742987859 l -62.90143153280055 3.5227703763380056" fill="#4dd2ff" stroke="none" /><line stroke="#e1ed5e" stroke-width="0.3" x1="184.98032266829074" x2="189.97916517819016" y1="98.17113171792111" y2="98.06355123074" /><path d="M 185.9800911702706 98.14961562048488 a86.0,86.0 0 0,1 -9.607161424134198,41.387399972396054" fill="none" id="id136" stroke="none" /><text fill="#e1ed5e" style="font-size:6.75px; font-family:Arial;" text-anchor="middle"><textPath startOffset="21.466115282336823" xlink:href="#id136">April</textPath></text><path d="M 120.99513854157772 99.54816195383933 l 13.568578588011631 -0.2920104588137638 a34.571720414417044,34.571720414417044 0 0,0 0.007683141576305348,0.5950677822039369 l -13.571594736705652 0.05840641854936415" fill="#ffa80f" stroke="none" /><path d="M 120.99980553446 99.90962569577887 l 3.7974258005099375 -0.01634251869567508 a24.79746096600029,24.79746096600029 0 0,0 -0.0018370227256309466,0.42685938589634315 l -3.797144480494804 -0.04902634540435275" fill="#ff2203" stroke="none" /><path d="M 120.95626037817324 101.35467743843564 l 10.605181513011184 0.6855517094621701 a31.627316503720998,31.627316503720998 0 0,0 -0.03979535915430936,0.5429760581004983 l -10.591809595192537 -0.8680009040594387" fill="#ff810b" stroke="none" /><line stroke="#e1ed5e" stroke-width="0.3" x1="174.80103733775053" x2="179.2010983576182" y1="140.37084112569926" y2="142.7455964860345" /><path d="M 175.68104954172406 140.8457921977663 a86.0,86.0 0 0,1 -30.038265399797805,32.042727171017184" fill="none" id="id137" stroke="none" /><text fill="#e1ed5e" style="font-size:6.75px; font-family:Arial;" text-anchor="middle"><textPath startOffset="22.206326154141568" xlink:href="#id137">May</textPath></text><line stroke="#e1ed5e" stroke-width="0.3" x1="143.8653032363475" x2="146.44561519142675" y1="172.8068346515853" y2="177.08958963109032" /><path d="M 144.38136562736335 173.6633856474863 a86.0,86.0 0 0,1 -40.68145358897372,12.25698825130547" fill="none" id="id138" stroke="none" /><text fill="#e1ed5e" style="font-size:6.75px; font-family:Arial;" text-anchor="middle"><textPath startOffset="21.466115282336833" xlink:href="#id138">June</textPath></text><line stroke="#e1ed5e" stroke-width="0.3" x1="102.19456741930631" x2="102.32365962044197" y1="184.97166512339345" y2="189.96999836594603" /><path d="M 102.22038585953345 185.97133177190398 a86.0,86.0 0 0,1 -42.740103519485714,-10.115201625700543" fill="none" id="id139" stroke="none" /><text fill="#e1ed5e" style="font-size:6.75px; font-family:Arial;" text-anchor="middle"><textPath startOffset="22.20632615414155" xlink:href="#id139">July</textPath></text><line stroke="#e1ed5e" stroke-width="0.3" x1="58.666819895761336" x2="56.23545636021788" y1="174.27360380694188" y2="178.64263932499728" /><path d="M 58.180547188652646 175.14741091055294 a86.0,86.0 0 0,1 -31.652253787137756,-30.449443065178592" fill="none" id="id140" stroke="none" /><text fill="#e1ed5e" style="font-size:6.75px; font-family:Arial;" text-anchor="middle"><textPath startOffset="22.20632615414155" xlink:href="#id140">August</textPath></text><line stroke="#e1ed5e" stroke-width="0.3" x1="26.63291911575756" x2="22.317208475507996" y1="142.92168965132927" y2="145.44649492493687" /><path d="M 25.769776987707644 143.4266507060508 a86.0,86.0 0 0,1 -11.730757126820373,-40.83630448921669" fill="none" id="id141" stroke="none" /><text fill="#e1ed5e" style="font-size:6.75px; font-family:Arial;" text-anchor="middle"><textPath startOffset="21.46611528233685" xlink:href="#id141">September</textPath></text><line stroke="#e1ed5e" stroke-width="0.3" x1="15.007084014347285" x2="10.007500721073583" y1="101.09737516637583" y2="101.16192664675087" /><path d="M 14.007167355692545 101.11028546245083 a86.0,86.0 0 0,1 10.666146001902534,-42.60595125391555" fill="none" id="id142" stroke="none" /><text fill="#e1ed5e" style="font-size:6.75px; font-family:Arial;" text-anchor="middle"><textPath startOffset="22.20632615414155" xlink:href="#id142">October</textPath></text><line stroke="#e1ed5e" stroke-width="0.3" x1="26.266209847984243" x2="21.928928074336255" y1="57.711370442889674" y2="55.22380399835377" /><path d="M 25.398753493254645 57.213857153982495 a86.0,86.0 0 0,1 29.58750427330803,-30.492523968695096" fill="none" id="id143" stroke="none" /><text fill="#e1ed5e" style="font-size:6.75px; font-family:Arial;" text-anchor="middle"><textPath startOffset="21.46611528233685" xlink:href="#id143">November</textPath></text><line stroke="#e1ed5e" stroke-width="0.3" x1="56.762969772571076" x2="54.21961505331055" y1="26.818313649435495" y2="22.513508569990535" /><path d="M 56.25429882871897 25.957352633546506 a86.0,86.0 0 0,1 42.265352541879196,-11.944610805530505" fill="none" id="id144" stroke="none" /><text fill="#e1ed5e" style="font-size:6.75px; font-family:Arial;" text-anchor="middle"><textPath startOffset="22.20632615414155" xlink:href="#id144">December</textPath></text></svg>