<?xml version="1.0" encoding="utf-8" ?>
<svg baseProfile="full" height="200mm" version="1.1" viewBox="0,0,200,200" width="200mm" xmlns="http://www.w3.org/2000/svg" xmlns:ev="http://www.w3.org/2001/xml-events" xmlns:xlink="http://www.w3.org/1999/xlink"><defs /><rect fill="#1a1a1a" height="200" width="200" x="0" y="0" /><rect fill="#1a1a1a" height="200" width="180" x="10" y="0" /><text alignment-baseline="middle" fill="#e1ed5e" style="dominant-baseline: central; font-size:9.0px; font-family:Arial;" text-anchor="middle" x="100.0" y="100.0">2022</text><line stroke="#e1ed5e" stroke-width="0.3" x1="100.0" x2="100.0" y1="15.0" y2="10.0" /><path d="M 100.0 14.0 a86.0,86.0 0 0,1 42.46469731375804,11.215312516191453" fill="none" id="id85" stroke="none" /><text fill="#e1ed5e" style="font-size:6.75px; font-family:Arial;" text-anchor="middle"><textPath startOffset="22.20632615414155" xlink:href="#id85">January</textPath></text><path d="M 100.0 79.0 l 0.0 -6.358509553326584 a27.358509553326584,27.358509553326584 0 0,0 0.47093176883421617,0.004053458412821652 l -0.10945128956168781 6.357567471522321" fill="#ff4a06" stroke="none" /><path d="M 100.72285384407766 79.0124445844662 l 0.42371494363676804 -12.302266817593418 a33.309561454605976,33.309561454605976 0 0,0 0.5728596899248525,0.024668543290532044 l -0.635415465950952 12.293150547778692" fill="#ff9b0e" stroke="none" /><path d="M 102.16513564639614 79.11191278185805 l 0.7196810980749233 -6.943103805463272 a27.980303097743313,27.980303097743313 0 0,0 0.4786407865999703,0.05378086934019062 l -0.8390885881846188 6.9296869826524805" fill="#ff5207" stroke="none" /><path d="M 102.52436894288641 79.15227682838746 l 0.8322589848084809 -6.873284101861675 a27.92348823662602,27.92348823662602 0 0,0 0.47667425054832596,0.06188599836376565 l -0.9504479638646529 6.857939780333772" fill="#ff5207" stroke="none" /><path d="M 102.88285421437855 79.19881850522331 l 1.013697349383249 -7.314314556776995 a28.384225061008532,28.384225061008532 0 0,0 0.4833847308719515,0.07123834397769559 l -1.1394510606838564 7.29578172863833" fill="#ff5808" stroke="none" /><path d="M 103.59715602781102 79.31037775812273 l 1.2643450252435458 -7.272084044573437 a28.381177053437863,28.381177053437863 0 0,0 0.4805945251926143,0.08782557759605354 l -1.3893346715390609 7.249242985626645" fill="#ff5808" stroke="none" /><path d="M 104.307194497241 79.44645832069477 l 1.5367684800870038 -7.333319873793341 a28.492612210221566,28.492612210221566 0 0,0 0.47916063380532264,0.10472595555323282 l -1.6627718380458543 7.305780420144238" fill="#ff5908" stroke="none" /><path d="M 105.01212808612495 79.60689891045804 l 3.045769082830017 -12.392475957168818 a33.7612761765793,33.7612761765793 0 0,0 0.5631559500621787,0.1435609908611387 l -3.2586339215772204 12.338211970138813" fill="#ffa10e" stroke="none" /><path d="M 105.36241919743992 79.69619591428918 l 3.163305437805815 -11.977268376022462 a33.38795620932362,33.38795620932362 0 0,0 0.5544024192713074,0.1515391238595649 l -3.369005746300833 11.921042711336604" fill="#ff9c0e" stroke="none" /><path d="M 106.0581310904928 79.89281104454417 l 3.042190513084218 -10.097156791650693 a31.54549659300487,31.54549659300487 0 0,0 0.5185698499528326,0.161122176649029 l -3.215545735747769 10.043294480119144" fill="#ff830c" stroke="none" /><path d="M 107.08798089147638 80.2323363322302 l 4.269117209676411 -11.906137227409083 a33.648377976161676,33.648377976161676 0 0,0 0.5435297389808964,0.20018658990282254 l -4.4734292744298845 11.830887369699935" fill="#ff9f0e" stroke="none" /><path d="M 108.09893153111575 80.62456947434976 l 3.150071230459766 -7.536054113080571 a29.167928767579262,29.167928767579262 0 0,0 0.4615703086229382,0.19762031778089859 l -3.279325296873019 7.480714267336881" fill="#ff6309" stroke="none" /><path d="M 109.08828744355905 81.06846463323043 l 4.96225549222103 -10.336723605337461 a32.46611679965011,32.46611679965011 0 0,0 0.5017232261943707,0.24619340813352966 l -5.139449985425832 10.2497750370691" fill="#ff8f0d" stroke="none" /><path d="M 109.73455568895987 81.39251694778311 l 5.823484672369842 -11.131519075786905 a33.562789923577256,33.562789923577256 0 0,0 0.5096029437839187,0.2722122439017987 l -6.014232662682072 11.029628105383352" fill="#ff9e0e" stroke="none" /><path d="M 110.36928655335952 81.73862282372117 l 4.0422741130987605 -7.118859320681856 a29.18646065360894,29.18646065360894 0 0,0 0.434743821915286,0.25183168242537324 l -4.164214667479375 7.048223480866433" fill="#ff6309" stroke="none" /><line stroke="#e1ed5e" stroke-width="0.3" x1="143.23703022742887" x2="145.7803849466894" y1="26.81831364943548" y2="22.513508569990506" /><path d="M 143.74570117128098 25.957352633546492 a86.0,86.0 0 0,1 28.547481713284135,27.462654790039103" fill="none" id="id86" stroke="none" /><text fill="#e1ed5e" style="font-size:6.75px; font-family:Arial;" text-anchor="middle"><textPath startOffset="19.985693538727396" xlink:href="#id86">February</textPath></text><path d="M 110.99172775467656 82.1063720568725 l 5.758154119415956 -9.373800893874845 a32.00111276466866,32.00111276466866 0 0,0 0.46688228827952244,0.2923616460887735 l -5.918655560067741 9.273294906463127" fill="#ff890c" stroke="none" /><path d="M 111.60114157652 82.49532879139004 l 6.88974868134655 -10.395768776843303 a33.4715935370628,33.4715935370628 0 0,0 0.47752058544934994,0.3224240309013632 l -7.067673961202441 10.27563283364327" fill="#ff9d0e" stroke="none" /><path d="M 112.77801427241765 83.33499621200491 l 8.329865372297057 -10.863756685768273 a34.68969928260546,34.68969928260546 0 0,0 0.4707349984215153,0.36741613294281306 l -8.515632925878002 10.718762163602236" fill="#ffad10" stroke="none" /><path d="M 113.34407831869373 83.78471172551755 l 8.687566187252228 -10.556846772443958 a34.67189891839274,34.67189891839274 0 0,0 0.4575740697403752,0.38320512428178294 l -8.867997793951721 10.405740490768355" fill="#ffad10" stroke="none" /><path d="M 113.89432698308785 84.25364557470407 l 4.2343560498378086 -4.798769397380654 a27.399840535984872,27.399840535984872 0 0,0 0.3509645736096157,0.31509945947635865 l -4.316331611043414 4.725170929134998" fill="#ff4a06" stroke="none" /><path d="M 114.94478906791727 85.2469230424477 l 5.510296445105616 -5.439610230972585 a28.742914591925008,28.742914591925008 0 0,0 0.34455327467223296,0.3550924366376391 l -5.6031139834809585 5.3439535987848314" fill="#ff5d08" stroke="none" /><path d="M 115.68641384162765 86.03803664274999 l 9.452994211301048 -8.41380063837376 a33.65508359281715,33.65508359281715 0 0,0 0.3814373203361022,0.4360487952521406 l -9.596423395215 8.24983628691867" fill="#ff9f0e" stroke="none" /><path d="M 116.60985879189232 87.15038557335679 l 8.326449878481892 -6.441455753584599 a31.527208547580848,31.527208547580848 0 0,0 0.3283694784251387,0.43209574256987504 l -8.436095297131144 6.2971752351336905" fill="#ff830c" stroke="none" /><path d="M 117.04232023915458 87.72973835380427 l 10.103969186107816 -7.274733946954191 a33.450379404370935,33.450379404370935 0 0,0 0.33241295449830105,0.47017455019130844 l -10.22769476041 7.09973289643109" fill="#ff9c0e" stroke="none" /><line stroke="#e1ed5e" stroke-width="0.3" x1="172.23445277983987" x2="176.4835382374775" y1="55.19839476539836" y2="52.563006222186495" /><path d="M 173.08426987136738 54.67131705675599 a86.0,86.0 0 0,1 12.851231095245387,41.99856678651699" fill="none" id="id87" stroke="none" /><text fill="#e1ed5e" style="font-size:6.75px; font-family:Arial;" text-anchor="middle"><textPath startOffset="22.20632615414155" xlink:href="#id87">March</textPath></text><path d="M 118.03404312379186 89.2402003453031 l 10.65256961287762 -6.355730329327018 a33.40453737050806,33.40453737050806 0 0,0 0.29036548218003133,0.49632873239962805 l -10.760394769527979 6.171422184573495" fill="#ff9c0e" stroke="none" /><path d="M 118.56541770881063 90.18545643968196 l 10.915573577677524 -5.770480042209401 a33.346990987573804,33.346990987573804 0 0,0 0.2639026349823515,0.5097758922642682 l -11.013285645819993 5.5817314276847885" fill="#ff9b0e" stroke="none" /><path d="M 119.196687751892 91.48605970444005 l 9.889360388414666 -4.386039143650683 a31.818354230731266,31.818354230731266 0 0,0 0.2177425285939298,0.5025797769609547 l -9.963393626851277 4.215160222103125" fill="#ff870c" stroke="none" /><path d="M 119.47837535516314 92.15188598940014 l 10.362085110784513 -4.1750312258676034 a32.171557348020535,32.171557348020535 0 0,0 0.202537494845671,0.5154358325616119 l -10.432416155511884 3.996046388410207" fill="#ff8c0c" stroke="none" /><path d="M 119.85752413597 93.16781622104841 l 12.009257665182014 -4.131907626322953 a33.70019410486307,33.70019410486307 0 0,0 0.18400740268953528,0.5501587131374254 l -12.07860236164332 3.924575810263213" fill="#ffa00e" stroke="none" /><path d="M 120.67395015179393 96.31383870115 l 12.709455598792157 -2.266093466112705 a33.909897025725186,33.909897025725186 0 0,0 0.09751216940116524,0.5755223436530932 l -12.746579629713546 2.0469853341437743" fill="#ffa30f" stroke="none" /><path d="M 120.83666639777658 97.38593545837742 l 12.251442565482757 -1.537005055548205 a33.347478668785115,33.347478668785115 0 0,0 0.06655147901091109,0.5701724298621762 l -12.276084397497256 1.325888887361176" fill="#ff9b0e" stroke="none" /><path d="M 120.87857604477298 97.74499172005257 l 12.210991755468559 -1.318858501456333 a33.282007466167116,33.282007466167116 0 0,0 0.05661566522652451,0.5701120225170475 l -12.231884546377312 1.1084709482348505" fill="#ff9a0e" stroke="none" /><path d="M 120.94382443527127 98.46500227214037 l 12.173521196686192 -0.8922118037570517 a33.20617303780884,33.20617303780884 0 0,0 0.03687373001175308,0.5704202825826091 l -12.187075517702361 0.6825324569214073" fill="#ff990e" stroke="none" /><line stroke="#e1ed5e" stroke-width="0.3" x1="184.98032266829074" x2="189.97916517819016" y1="98.17113171792111" y2="98.06355123074" /><path d="M 185.9800911702706 98.14961562048488 a86.0,86.0 0 0,1 -9.607161424134198,41.387399972396054" fill="none" id="id88" stroke="none" /><text fill="#e1ed5e" style="font-size:6.75px; font-family:Arial;" text-anchor="middle"><textPath startOffset="21.466115282336823" xlink:href="#id88">April</textPath></text><path d="M 120.99513854157772 99.54816195383933 l 12.272094465201684 -0.2641087209057865 a33.27493608860316,33.27493608860316 0 0,0 0.007394947137332423,0.572746805304069 l -12.274822419456733 0.05282565754125479" fill="#ff9a0e" stroke="none" /><path d="M 120.99980553446 99.90962569577887 l 12.212277883290847 -0.05255649224210238 a33.21239097325301,33.21239097325301 0 0,0 -0.0024604098409131124,0.5717125972868792 l -12.21137317616043 -0.15766558324846144" fill="#ff990e" stroke="none" /><path d="M 120.9904718944345 100.63252640178507 l 25.817097121147846 0.7779718163889944 a46.82881615385955,46.82881615385955 0 0,0 -0.03121445463129313,0.8055063757224822 l -25.79988053366535 -1.2222554391254827" fill="#bdff1f" stroke="none" /><path d="M 120.92983693683757 101.71520430193887 l 12.409996593134247 1.0170016903536747 a33.451598607399205,33.451598607399205 0 0,0 -0.05197009094017255,0.573485622926973 l -12.390651905916998 -1.2304687018292182" fill="#ff9d0e" stroke="none" /><path d="M 120.89721153311464 102.0752229133903 l 13.110585797463099 1.3019626093055923 a34.175073684373494,34.175073684373494 0 0,0 -0.06317131935520696,0.5848879610486718 l -13.08623217660684 -1.5274468922390554" fill="#ffa60f" stroke="none" /><path d="M 120.81339534386255 102.79330883721812 l 12.555560881023426 1.6850474699475055 a33.668129065219624,33.668129065219624 0 0,0 -0.08203151305321471,0.5737282112350872 l -12.52469531695361 -1.9009211531630021" fill="#ff9f0e" stroke="none" /><path d="M 120.76222939487914 103.15116336523771 l 12.20996571325248 1.8531534313891838 a33.349795154538825,33.349795154538825 0 0,0 -0.09102627384136044,0.5668206941015151 l -12.176257685049832 -2.0630533551839036" fill="#ff9b0e" stroke="none" /><path d="M 120.5718875245553 104.21870165774334 l 12.179482954597564 2.4976611829948347 a33.43294480106671,33.43294480106671 0 0,0 -0.12046361460215932,0.5627659030190058 l -12.134685301270961 -2.706940905430009" fill="#ff9c0e" stroke="none" /><path d="M 120.49622156327973 104.57218783832717 l 12.877574219603058 2.8726606048945835 a34.194093251614476,34.194093251614476 0 0,0 -0.13309551575737474,0.5733719984494944 l -12.82621813791513 -3.093901260692643" fill="#ffa60f" stroke="none" /><path d="M 120.32669344350535 105.2749913415812 l 12.493734892064545 3.242255980433886 a33.90758053997148,33.90758053997148 0 0,0 -0.1514731122405164,0.5636878000278277 l -12.43607370348225 -3.4568347136372624" fill="#ffa30f" stroke="none" /><path d="M 120.13307415673323 105.97154293290107 l 11.873982816272362 3.5218664382749774 a33.38527396266142,33.38527396266142 0 0,0 -0.16815562751417484,0.5495423201358168 l -11.811600416252054 -3.7257357309628514" fill="#ff9c0e" stroke="none" /><path d="M 119.9155931802556 106.66101706037122 l 11.968063957273108 4.002867375200469 a33.619726704997376,33.619726704997376 0 0,0 -0.18828514865192453,0.5472447763069388 l -11.897387977677953 -4.208284854596708" fill="#ff9f0e" stroke="none" /><path d="M 119.26925614724726 108.34839909993367 l 11.466775667629955 4.967976912614696 a33.49670911944513,33.49670911944513 0 0,0 -0.2337733977913313,0.527097297644819 l -11.37956118510735 -5.164622546752203" fill="#ff9d0e" stroke="none" /><path d="M 118.81262510543309 109.33194174019688 l 11.03448816759668 5.473622109397446 a33.31748627428972,33.31748627428972 0 0,0 -0.25927561553914996,0.5115753869427624 l -10.93863388227126 -5.662751708042903" fill="#ff9b0e" stroke="none" /><path d="M 118.64920377521936 109.65438752849418 l 9.849956733272084 5.0991613683941726 a32.09157762936615,32.09157762936615 0 0,0 -0.25818054988512107,0.4883803025020538 l -9.76072367516207 -5.267956685982361" fill="#ff8a0c" stroke="none" /><line stroke="#e1ed5e" stroke-width="0.3" x1="174.80103733775053" x2="179.2010983576182" y1="140.37084112569926" y2="142.7455964860345" /><path d="M 175.68104954172406 140.8457921977663 a86.0,86.0 0 0,1 -30.038265399797805,32.042727171017184" fill="none" id="id89" stroke="none" /><text fill="#e1ed5e" style="font-size:6.75px; font-family:Arial;" text-anchor="middle"><textPath startOffset="22.206326154141568" xlink:href="#id89">May</textPath></text><path d="M 118.30583269289576 110.29060199501025 l 11.591711350672481 6.516266697723411 a34.29772550901726,34.29772550901726 0 0,0 -0.29373226044335077,0.5121469548488967 l -11.477827094076751 -6.7148334984306235" fill="#ffa80f" stroke="none" /><path d="M 118.12598468904814 110.60418214915192 l 10.910402402447955 6.382874993048366 a33.640331236175115,33.640331236175115 0 0,0 -0.2967063187040918,0.4972968566636233 l -10.798915208045637 -6.569733943598093" fill="#ff9f0e" stroke="none" /><path d="M 117.75023020441432 111.22182372390056 l 10.431542054425849 6.594896221352117 a33.34138265364378,33.34138265364378 0 0,0 -0.31086097961277276,0.48246314367599485 l -10.316476211436026 -6.773480964949566" fill="#ff9b0e" stroke="none" /><path d="M 117.55443506779139 111.5257021239791 l 10.43317036072814 6.8500987540813725 a33.48098140038047,33.48098140038047 0 0,0 -0.3204558709179944,0.47903804699887154 l -10.313711384399424 -7.028673715286051" fill="#ff9d0e" stroke="none" /><path d="M 116.93607887273984 112.41649034213515 l 9.917188528099963 7.27067206674895 a33.29688174311199,33.29688174311199 0 0,0 -0.34286073957780244,0.4593179901657606 l -9.790566521827069 -7.440302936424025" fill="#ff9a0e" stroke="none" /><path d="M 116.498646956653 112.99209946851258 l 9.685564746467259 7.6270388066021795 a33.32809334063565,33.32809334063565 0 0,0 -0.35880404427055357,0.44766321387139935 l -9.55284279014185 -7.792629854051829" fill="#ff9b0e" stroke="none" /><path d="M 116.0416608686014 113.55231037782055 l 9.484066862055613 8.01232608090825 a33.41551019776247,33.41551019776247 0 0,0 -0.374981679743655,0.4361884089718187 l -9.344742672741178 -8.174391589041596" fill="#ff9c0e" stroke="none" /><path d="M 115.56566222782051 114.09645910891815 l 9.07161291706114 8.215366533441179 a33.2387257586636,33.2387257586636 0 0,0 -0.38771167943951285,0.42078445404491754 l -8.928854829625905 -8.370302242287432" fill="#ff9a0e" stroke="none" /><path d="M 115.32070863581623 114.36230785411682 l 8.910620514651525 8.353208591373741 a33.2137320965841,33.2137320965841 0 0,0 -0.39460040773104493,0.4137369499143603 l -8.765513555541515 -8.50535265787061" fill="#ff990e" stroke="none" /><path d="M 114.81725581225074 114.88116024355365 l 8.610497063359542 8.647632746581968 a33.203368870843825,33.203368870843825 0 0,0 -0.4084805680507892,0.399784209600797 l -8.460366542932958 -8.794567059105338" fill="#ff990e" stroke="none" /><path d="M 114.55890576462653 115.13401014063108 l 8.477356079415326 8.812227714484639 a33.227874851712016,33.227874851712016 0 0,0 -0.4156081915662668,0.39298348608126266 l -8.324412053458252 -8.956845837311823" fill="#ff9a0e" stroke="none" /><path d="M 114.0293411484842 115.62618273729858 l 8.211111258197251 9.145712805675332 a33.290907648273475,33.290907648273475 0 0,0 -0.42970262365452816,0.3791626047077586 l -8.052466281636136 -9.285698552155381" fill="#ff9a0e" stroke="none" /><path d="M 113.48314897796784 116.09983520530334 l 7.8451719980334245 9.367691221983007 a33.218852749302826,33.218852749302826 0 0,0 -0.44154162370503486,0.36335869630854756 l -7.682760245783698 -9.501345037148733" fill="#ff990e" stroke="none" /><path d="M 113.20401910651253 116.32954008644616 l 7.730595432307039 9.560503282041779 a33.29493101826676,33.29493101826676 0 0,0 -0.4487562264387172,0.35651908674033195 l -7.564881713150971 -9.692156282787236" fill="#ff9a0e" stroke="none" /><path d="M 112.34349029814194 116.9893568818739 l 5.024003190295565 6.91494715951231 a29.547344749976297,29.547344749976297 0 0,0 -0.41404648069265504,0.29541117035831455 l -4.904229381754025 -7.000402591714844" fill="#ff6809" stroke="none" /><path d="M 112.04921762599082 117.19931262002967 l 6.999226408039498 9.990846445545841 a33.19861397903358,33.19861397903358 0 0,0 -0.47085612446274566,0.32385913590084625 l -6.82621339895387 -10.109846370811782" fill="#ff990e" stroke="none" /><path d="M 111.45004920935366 117.60387380957326 l 3.4757578292782862 5.343802554950338 a27.374724953602552,27.374724953602552 0 0,0 -0.39721794558679496,0.25352328659012024 l -3.383258081644561 -5.402840270364267" fill="#ff4a06" stroke="none" /><line stroke="#e1ed5e" stroke-width="0.3" x1="143.8653032363475" x2="146.44561519142675" y1="172.8068346515853" y2="177.08958963109032" /><path d="M 144.38136562736335 173.6633856474863 a86.0,86.0 0 0,1 -40.68145358897372,12.25698825130547" fill="none" id="id90" stroke="none" /><text fill="#e1ed5e" style="font-size:6.75px; font-family:Arial;" text-anchor="middle"><textPath startOffset="21.466115282336833" xlink:href="#id90">June</textPath></text><path d="M 109.89434966115114 118.52300852407294 l 3.466969735408458 6.490442743682288 a28.35837795680925,28.35837795680925 0 0,0 -0.4325450690075282,0.2262871367622791 l -3.354733763874434 -6.549159299389284" fill="#ff5808" stroke="none" /><path d="M 109.57404056367764 118.69057910512821 l 4.493878041914708 8.773013073483531 a30.857012642941882,30.857012642941882 0 0,0 -0.4748249074357297,0.23808706579165884 l -4.342199226796218 -8.849067980184492" fill="#ff7a0b" stroke="none" /><path d="M 108.2653958097858 119.30500536409082 l 3.8448820016407623 8.980267778355156 a30.76874234369527,30.76874234369527 0 0,0 -0.48867874890435004,0.20426775667503835 l -3.689731793238951 -9.045120578050168" fill="#ff790b" stroke="none" /><path d="M 107.93186726928326 119.44442032107085 l 4.692798763439277 11.504069412745002 a33.42441037986883,33.42441037986883 0 0,0 -0.5345978567774009,0.21272752005409593 l -4.494079830620009 -11.583143777205168" fill="#ff9c0e" stroke="none" /><path d="M 107.2578585660854 119.70592522655815 l 4.289689077701119 11.647001858835441 a33.41185258867767,33.41185258867767 0 0,0 -0.5413999942404653,0.19412677584547314 l -4.08856952283092 -11.719116175720876" fill="#ff9c0e" stroke="none" /><path d="M 106.2309692047433 120.05430185196036 l 3.6252008449990596 11.667666719368405 a33.21787738688022,33.21787738688022 0 0,0 -0.5475018409321284,0.16495781344676516 l -3.4238240296266853 -11.728339901920897" fill="#ff990e" stroke="none" /><path d="M 105.53697534728816 120.25689768951611 l 3.226126003103036 11.802708207894193 a33.23567775109293,33.23567775109293 0 0,0 -0.5531517625544884,0.14609240800877538 l -3.02248379773705 -11.856491965206553" fill="#ff9a0e" stroke="none" /><path d="M 104.13013068566511 120.58985236759428 l 1.4195703190987898 7.076953617257234 a28.217925767952764,28.217925767952764 0 0,0 -0.4770608332016591,0.09142984409745047 l -1.2975418713254263 -7.100340659703153" fill="#ff5607" stroke="none" /><path d="M 103.41894727170886 120.7198165907248 l 1.8391932979909922 11.146047242260213 a32.29676949902367,32.29676949902367 0 0,0 -0.5492975136358844,0.08578897475599558 l -1.6470599207465908 -11.176054524363314" fill="#ff8d0d" stroke="none" /><path d="M 102.34483914955558 120.86867818915974 l 1.3668770771462044 12.164978502900581 a33.24152992562862,33.24152992562862 0 0,0 -0.5691700285816874,0.05899680065833262 l -1.1572744519589142 -12.186704672014672" fill="#ff9a0e" stroke="none" /><path d="M 101.62511606390274 120.93702456842531 l 0.9449984605787176 12.174795650438494 a33.21141561083039,33.21141561083039 0 0,0 -0.5703463445958765,0.039334423199954394 l -0.7352893552039107 -12.189258418154735" fill="#ff990e" stroke="none" /><path d="M 100.90346689309514 120.98055641714683 l 0.5279692737113778 12.260647532609799 a33.27201000133532,33.27201000133532 0 0,0 -0.5724047653504702,0.019714777486458997 l -0.31684415668625526 -12.267919108522351" fill="#ff9a0e" stroke="none" /><line stroke="#e1ed5e" stroke-width="0.3" x1="102.19456741930631" x2="102.32365962044197" y1="184.97166512339345" y2="189.96999836594603" /><path d="M 102.22038585953345 185.97133177190398 a86.0,86.0 0 0,1 -42.740103519485714,-10.115201625700543" fill="none" id="id91" stroke="none" /><text fill="#e1ed5e" style="font-size:6.75px; font-family:Arial;" text-anchor="middle"><textPath startOffset="22.20632615414155" xlink:href="#id91">July</textPath></text><path d="M 100.54218724476979 120.99299961872073 l 0.22061300589489155 8.541936007001958 a29.54478442361693,29.54478442361693 0 0,0 -0.508508383053637,0.008754432969442196 l -0.07354493294858658 -8.54446791725056" fill="#ff6809" stroke="none" /><path d="M 99.81925306533755 120.99922214144158 l -0.10674902467090348 12.402127242892888 a33.402586645662836,33.402586645662836 0 0,0 -0.5749067274093049,-0.00989754068273691 l 0.3202154419728764 -12.398452224930992" fill="#ff9c0e" stroke="none" /><path d="M 99.45781275523022 120.99299961872073 l -0.25335004322536736 9.809484476329496 a30.81275557301575,30.81275557301575 0 0,0 -0.5300962617787768,-0.01825758707821605 l 0.4221666566787872 -9.803670090825186" fill="#ff790b" stroke="none" /><path d="M 98.73552117531835 120.96189622390904 l -0.7351939193307644 12.187676330080418 a33.20983064689365,33.20983064689365 0 0,0 -0.5703191256902383,-0.039332546024859694 l 0.9448758057999328 -12.173215439539273" fill="#ff990e" stroke="none" /><path d="M 98.37488393609728 120.93702456842531 l -1.3022069163091972 16.776856007726423 a37.82731827585339,37.82731827585339 0 0,0 -0.6487487438879919,-0.055976771415005955 l 1.5907999779387307 -16.75195498403275" fill="#ffd513" stroke="none" /><path d="M 97.65516085044442 120.86867818915974 l -1.3693138936393308 12.186665764140137 a33.263353659834614,33.263353659834614 0 0,0 -0.5684431164694214,-0.06883054505285019 l 1.5788844331601413 -12.161289690361938" fill="#ff9a0e" stroke="none" /><path d="M 96.93821686468263 120.77559828337769 l -1.8366041530757204 12.462198791858341 a33.59680568806594,33.59680568806594 0 0,0 -0.571408289956692,-0.08924222328622396 l 2.0508483066409293 -12.42873826122501" fill="#ff9e0e" stroke="none" /><path d="M 96.22490169976321 120.6578951692458 l -2.196957866960388 12.022077757305233 a33.221169235056536,33.221169235056536 0 0,0 -0.5616471885828351,-0.1076410204234726 l 2.4035726701149183 -11.982479538533292" fill="#ff990e" stroke="none" /><path d="M 95.51606077576429 120.51570834832081 l -2.024888644258192 9.264627102636217 a30.48332691477771,30.48332691477771 0 0,0 -0.5116551674728275,-0.11645105031060403 l 2.184063961123882 -9.228399318747925" fill="#ff750a" stroke="none" /><path d="M 95.16358092515715 120.4354850818985 l -2.3315626174856035 9.851630379794464 a31.12377426552694,31.12377426552694 0 0,0 -0.5202808915384298,-0.1278723847689448 l 2.5007967937672437 -9.81003673671149" fill="#ff7d0b" stroke="none" /><path d="M 94.11515582081647 120.15858648285463 l -3.421295759776833 11.719679290888859 a33.20885528447103,33.20885528447103 0 0,0 -0.5473531373403672,-0.1649130102744017 l 3.6225238715574464 -11.659050911508732" fill="#ff990e" stroke="none" /><path d="M 93.42475214034765 119.94407469862007 l -3.831267725015273 11.621020428294061 a33.236287352607064,33.236287352607064 0 0,0 -0.5417993869330039,-0.18380776855845116 l 4.030736844885503 -11.553349672837486" fill="#ff9a0e" stroke="none" /><path d="M 92.40401165467489 119.57807347666478 l -3.7246628109663282 9.600030815447287 a31.297266856449486,31.297266856449486 0 0,0 -0.5005758245035749,-0.19918945127761423 l 3.889359711511761 -9.534494519763605" fill="#ff800b" stroke="none" /><path d="M 91.7346041902142 119.30500536409082 l -4.8059105554680706 11.224886404448696 a33.21044024840778,33.21044024840778 0 0,0 -0.5235852453220083,-0.22952438479716983 l 4.998416475447822 -11.140497466357074" fill="#ff990e" stroke="none" /><path d="M 91.07499286063937 119.00905698771935 l -26.7750214180819 57.02717096315804 a84.0,84.0 0 0,0 -1.3035493279990318,-0.6257828940017505 l 27.752683414081172 -56.55783379265673" fill="#4dd2ff" stroke="none" /><path d="M 90.42595943632237 118.69057910512821 l -4.32306754291901 8.4395543710442 a30.482351552355095,30.482351552355095 0 0,0 -0.46494164355261597,-0.24323549340759798 l 4.467700088998122 -8.363889458691885" fill="#ff750a" stroke="none" /><path d="M 90.10565033884886 118.52300852407294 l -3.826109059823965 7.162780087246952 a29.12062369008246,29.12062369008246 0 0,0 -0.44010579349475354,-0.23998076934070445 l 3.9488376651873596 -7.095858666146482" fill="#ff6209" stroke="none" /><line stroke="#e1ed5e" stroke-width="0.3" x1="58.666819895761336" x2="56.23545636021788" y1="174.27360380694188" y2="178.64263932499728" /><path d="M 58.180547188652646 175.14741091055294 a86.0,86.0 0 0,1 -31.652253787137756,-30.449443065178592" fill="none" id="id92" stroke="none" /><text fill="#e1ed5e" style="font-size:6.75px; font-family:Arial;" text-anchor="middle"><textPath startOffset="22.20632615414155" xlink:href="#id92">August</textPath></text><path d="M 89.1626897886671 117.98757091392108 l -5.520971045422317 9.163607597887955 a31.698262732446864,31.698262732446864 0 0,0 -0.4649392498859126,-0.28560366145157884 l 5.677889495240539 -9.067215469607998" fill="#ff850c" stroke="none" /><path d="M 88.8546689885994 117.79835938074946 l -5.0265511666280185 8.027071068401424 a30.471012964192198,30.471012964192198 0 0,0 -0.4421462933454038,-0.28219868384086605 l 5.163979262020345 -7.939357955736755" fill="#ff750a" stroke="none" /><path d="M 87.65650970185807 116.9893568818739 l -4.774974418346267 6.5721884601241625 a29.12367169765313,29.12367169765313 0 0,0 -0.40303698628254697,-0.2981571271983168 l 4.887396375047379 -6.4890213841860795" fill="#ff6209" stroke="none" /><path d="M 86.79598089348748 116.32954008644616 l -6.817204010150651 8.430903141175412 a31.842250610085323,31.842250610085323 0 0,0 -0.4232439676019486,-0.3483009710337864 l 6.961318106297289 -8.312307051284444" fill="#ff870c" stroke="none" /><path d="M 85.97065885151581 115.62618273729859 l -7.104442653926618 7.913081447086385 a31.634376493765615,31.634376493765615 0 0,0 -0.4020585399295803,-0.3672709435096975 l 7.239600743323053 -7.789617736990111" fill="#ff840c" stroke="none" /><path d="M 85.70375840098266 115.38237550388516 l -6.451265791244701 6.9413903080034585 a30.476377457516584,30.476377457516584 0 0,0 -0.38119296455567186,-0.3604417408525825 l 6.56979459019119 -6.829313930404946" fill="#ff750a" stroke="none" /><path d="M 85.18274418774928 114.88116024355367 l -9.981562994002278 10.024611863153794 a35.14653465729751,35.14653465729751 0 0,0 -0.42503771300149107,-0.43056095924894316 l 10.152641332059302 -9.851310409924187" fill="#ffb310" stroke="none" /><path d="M 83.72743513129214 113.27417163493432 l -8.002995229199202 6.528358198174224 a31.327990772761844,31.327990772761844 0 0,0 -0.33727131262057375,-0.4207978203292012 l 8.114184453874637 -6.389632544266763" fill="#ff800b" stroke="none" /><path d="M 83.28015986056508 112.70617746262583 l -9.751738179483903 7.410795488728515 a33.24811362198126,33.24811362198126 0 0,0 -0.3423585702092912,-0.45864525223329067 l 9.877858016388279 -7.241837356985917" fill="#ff9a0e" stroke="none" /><path d="M 83.06392112726016 112.41649034213515 l -5.154361886094865 3.7788608012199765 a27.391184194484172,27.391184194484172 0 0,0 -0.2755034101255679,-0.3826501404552186 l 5.21864508859604 -3.68957705531362" fill="#ff4a06" stroke="none" /><path d="M 82.05923443525364 110.91462005526583 l -9.142887806667144 5.562256875692327 a31.701920341531668,31.701920341531668 0 0,0 -0.27960961544490026,-0.46864179860068533 l 9.237278297810276 -5.404052983205531" fill="#ff850c" stroke="none" /><line stroke="#e1ed5e" stroke-width="0.3" x1="26.63291911575756" x2="22.317208475507996" y1="142.92168965132927" y2="145.44649492493687" /><path d="M 25.769776987707644 143.4266507060508 a86.0,86.0 0 0,1 -11.730757126820373,-40.83630448921669" fill="none" id="id93" stroke="none" /><text fill="#e1ed5e" style="font-size:6.75px; font-family:Arial;" text-anchor="middle"><textPath startOffset="21.46611528233685" xlink:href="#id93">September</textPath></text><path d="M 81.69416730710424 110.29060199501025 l -1.8410658915704674 1.0349529931021892 a23.112025405868817,23.112025405868817 0 0,0 -0.1919658312447338,-0.3484737439541237 l 1.8586081322667176 -1.0031087307502429" fill="#ff0d01" stroke="none" /><path d="M 81.35079622478065 109.6543875284942 l -11.499808786623587 5.953262770240756 a33.94939920384107,33.94939920384107 0 0,0 -0.2641931418023222,-0.5212781327858463 l 11.600580598212176 -5.754430425752225" fill="#ffa30f" stroke="none" /><path d="M 81.02952815118164 109.00673069616217 l -1.5837759986492472 0.7519393305848415 a22.753213954649517,22.753213954649517 0 0,0 -0.16493412916056785,-0.3552534409829017 l 1.5964847446496417 -0.7245658223231126" fill="#ff0801" stroke="none" /><path d="M 80.87730276802145 108.67885076344099 l -11.19637621788399 5.081483909281197 a33.295540619780894,33.295540619780894 0 0,0 -0.2323694436438427,-0.5239317516753149 l 11.282186746259114 -4.888003821113187" fill="#ff9a0e" stroke="none" /><path d="M 80.32549172779594 107.34259656027581 l -11.442018195937267 4.270201942825504 a33.21287865446432,33.21287865446432 0 0,0 -0.19528498742875192,-0.5373404138391791 l 11.513827444371243 -4.072613731980208" fill="#ff990e" stroke="none" /><path d="M 80.20201598880116 107.00284435728193 l -11.515206745060386 4.073101611354315 a33.21434169809824,33.21434169809824 0 0,0 -0.18601481561338154,-0.5406461257775892 l 11.583612391616997 -3.8742827824874286" fill="#ff990e" stroke="none" /><path d="M 79.67330655649465 105.27499134158121 l -7.097433657430838 1.8418588933045072 a28.332530852609963,28.332530852609963 0 0,0 -0.11844169744025397,-0.47311570521070434 l 7.128086669166151 -1.719415348696411" fill="#ff5708" stroke="none" /><path d="M 79.58551787078972 104.9243191809786 l -10.689166980126316 2.578408291513949 a31.995748271344276,31.995748271344276 0 0,0 -0.12453877887276663,-0.5365097999012141 l 10.731966324929637 -2.394029834264161" fill="#ff890c" stroke="none" /><path d="M 79.29508885075956 103.50808413554451 l -9.34538055034369 1.5834108638756277 a30.478572022967462,30.478572022967462 0 0,0 -0.08318944180616858,-0.5180207335375435 l 9.371251746511149 -1.4223109006448704" fill="#ff750a" stroke="none" /><path d="M 79.18660465613746 102.79330883721812 l -12.621175332285588 1.693853405909991 a33.734331789654576,33.734331789654576 0 0,0 -0.07228542938573947,-0.5761859944727127 l 12.648462270918175 -1.4763496571498698" fill="#ffa00e" stroke="none" /><path d="M 79.1416061653843 102.43462659150553 l -12.136459183435006 1.4165878010068162 a33.218852749302826,33.218852749302826 0 0,0 -0.06140378145254242,-0.5685227552793931 l 12.1590452663886 -1.2074687238426411" fill="#ff990e" stroke="none" /><path d="M 79.07016306316243 101.71520430193888 l -8.149023309004903 0.6678140818003591 a29.17634126847431,29.17634126847431 0 0,0 -0.03671139723318394,-0.5008978479058651 l 8.159311264902422 -0.5274430973977333" fill="#ff6309" stroke="none" /><path d="M 79.0235259727143 100.99374915477108 l -1.2197857135954295 0.057786690952471076 a22.22115375311332,22.22115375311332 0 0,0 -0.014811845625196171,-0.3822279206297548 l 1.2205996920718267 -0.03678152330871948" fill="#ff0000" stroke="none" /><line stroke="#e1ed5e" stroke-width="0.3" x1="15.007084014347285" x2="10.007500721073583" y1="101.09737516637583" y2="101.16192664675087" /><path d="M 14.007167355692545 101.11028546245083 a86.0,86.0 0 0,1 10.666146001902534,-42.60595125391555" fill="none" id="id94" stroke="none" /><text fill="#e1ed5e" style="font-size:6.75px; font-family:Arial;" text-anchor="middle"><textPath startOffset="22.20632615414155" xlink:href="#id94">October</textPath></text><path d="M 79.00486145842228 99.54816195383935 l -5.151037346096125 -0.11085588435396462 a26.152230077158134,26.152230077158134 0 0,0 0.013559689130779373,-0.4499800684898655 l 5.1483659625097005 0.19950610026882454" fill="#ff3905" stroke="none" /><line stroke="#e1ed5e" stroke-width="0.3" x1="26.266209847984243" x2="21.928928074336255" y1="57.711370442889674" y2="55.22380399835377" /><path d="M 25.398753493254645 57.213857153982495 a86.0,86.0 0 0,1 29.58750427330803,-30.492523968695096" fill="none" id="id95" stroke="none" /><text fill="#e1ed5e" style="font-size:6.75px; font-family:Arial;" text-anchor="middle"><textPath startOffset="21.46611528233685" xlink:href="#id95">November</textPath></text><path d="M 83.84228863543731 86.58626213691792 l -1.0921044549653809 -0.9066384803814838 a22.419396165509713,22.419396165509713 0 0,0 0.24905748464004193,-0.2948055050392773 l 1.0763363568382147 0.9253029350498769" fill="#ff0300" stroke="none" /><path d="M 84.07557802195018 86.31012108654704 l -7.076805225406389 -6.083775396271505 a30.332389579878118,30.332389579878118 0 0,0 0.34377883414941085,-0.39299863561318005 l 6.971034527679135 6.204689588087628" fill="#ff730a" stroke="none" /><path d="M 84.31358615837235 86.03803664274999 l -7.720276164091916 -6.871565037054863 a31.33542791123428,31.33542791123428 0 0,0 0.3620828979370705,-0.39982097945385636 l 7.6008496255388005 7.003438803778275" fill="#ff800b" stroke="none" /><path d="M 84.80347519578584 85.50635884689758 l -8.83460066032414 -8.425974579805992 a33.20848952356255,33.20848952356255 0 0,0 0.39808397912006177,-0.4102605330528924 l 8.68825241750096 8.576799308409008" fill="#ff990e" stroke="none" /><path d="M 86.37877921826538 84.01681056812374 l -4.583383118495553 -5.378158227933013 a28.066256911236216,28.066256911236216 0 0,0 0.37039769374849507,-0.31019741644694476 l 4.490127887787948 5.45625680177377" fill="#ff5407" stroke="none" /><path d="M 87.51073957382395 83.11751280151077 l -5.288752752737041 -7.149126337130577 a29.892744967884646,29.892744967884646 0 0,0 0.4162987272809423,-0.302458729724111 l 5.164908709102317 7.239104301671356" fill="#ff6d0a" stroke="none" /><path d="M 87.80319425747018 82.90503203632743 l -7.797674524433266 -10.929172686707357 a34.425741826985416,34.425741826985416 0 0,0 0.48535191198584254,-0.34002003114343327 l 7.608391472863763 11.061777560614733" fill="#ffa90f" stroke="none" /><line stroke="#e1ed5e" stroke-width="0.3" x1="56.762969772571076" x2="54.21961505331055" y1="26.818313649435495" y2="22.513508569990535" /><path d="M 56.25429882871897 25.957352633546506 a86.0,86.0 0 0,1 42.265352541879196,-11.944610805530505" fill="none" id="id96" stroke="none" /><text fill="#e1ed5e" style="font-size:6.75px; font-family:Arial;" text-anchor="middle"><textPath startOffset="22.20632615414155" xlink:href="#id96">December</textPath></text><path d="M 92.57280143429618 80.3572730644239 l -3.0476134373295682 -8.06002936707327 a29.6169612428904,29.6169612428904 0 0,0 0.47840936716653487,-0.17620220739016798 l 2.908421744390464 8.11129484226976" fill="#ff6909" stroke="none" /><path d="M 93.25333710446033 80.11325718540243 l -3.3086694708608424 -9.752771087617377 a31.29872990008341,31.29872990008341 0 0,0 0.511685315080655,-0.16869460346698104 l 3.140301333537778 9.808279415343593" fill="#ff800b" stroke="none" /><path d="M 94.28887869178378 79.79150937346287 l -2.323757513931143 -8.222488965707113 a29.544540583011276,29.544540583011276 0 0,0 0.4905830315814964,-0.13409487441260418 l 2.1818765931259243 8.261270380946014" fill="#ff6809" stroke="none" /></svg>