<?xml version="1.0" encoding="utf-8" ?>
<svg baseProfile="full" height="200mm" version="1.1" viewBox="0,0,200,200" width="200mm" xmlns="http://www.w3.org/2000/svg" xmlns:ev="http://www.w3.org/2001/xml-events" xmlns:xlink="http://www.w3.org/1999/xlink"><defs /><rect fill="#1a1a1a" height="200" width="200" x="0" y="0" /><rect fill="#1a1a1a" height="200" width="180" x="10" y="0" /><text alignment-baseline="middle" fill="#e1ed5e" style="dominant-baseline: central; font-size:9.0px; font-family:Arial;" text-anchor="middle" x="100.0" y="100.0">2018</text><line stroke="#e1ed5e" stroke-width="0.3" x1="100.0" x2="100.0" y1="15.0" y2="10.0" /><path d="M 100.0 14.0 a86.0,86.0 0 0,1 42.46469731375804,11.215312516191453" fill="none" id="id37" stroke="none" /><text fill="#e1ed5e" style="font-size:6.75px; font-family:Arial;" text-anchor="middle"><textPath startOffset="22.20632615414155" xlink:href="#id37">January</textPath></text><line stroke="#e1ed5e" stroke-width="0.3" x1="143.23703022742887" x2="145.7803849466894" y1="26.81831364943548" y2="22.513508569990506" /><path d="M 143.74570117128098 25.957352633546492 a86.0,86.0 0 0,1 28.547481713284135,27.462654790039103" fill="none" id="id38" stroke="none" /><text fill="#e1ed5e" style="font-size:6.75px; font-family:Arial;" text-anchor="middle"><textPath startOffset="19.985693538727396" xlink:href="#id38">February</textPath></text><path d="M 111.90073688211348 82.69761687909136 l 8.443854831830064 -12.27645084206865 a35.899997640897396,35.899997640897396 0 0,0 0.5061367328804816,0.35458112645052736 l -8.653922704294196 12.129284872854186" fill="#ffbc11" stroke="none" /><path d="M 112.77801427241765 83.33499621200491 l 7.785005723001767 -10.15315424583895 a33.7942508669702,33.7942508669702 0 0,0 0.45858387237436693,0.3579319863250461 l -7.9586221505355645 10.01764387029068" fill="#ffa10e" stroke="none" /><path d="M 113.34407831869373 83.78471172551755 l 10.339701063886267 -12.564467130563225 a37.27191606312958,37.27191606312958 0 0,0 0.4918871723804176,0.41194136095081374 l -10.554445773225803 12.384624612218591" fill="#ffce13" stroke="none" /><path d="M 113.6212207817346 84.01681056812373 l 8.225785467485274 -9.652166238219458 a33.68179244615348,33.68179244615348 0 0,0 0.4380336376065281,0.37985845407723934 l -8.390712903738567 9.509142790722546" fill="#ff9f0e" stroke="none" /><path d="M 114.42810811169701 84.74124197986012 l 20.04240496343652 -21.19627917334465 a50.17156573639387,50.17156573639387 0 0,0 0.6224063604062698,0.5987544255789186 l -20.40429456745521 20.84814166100343" fill="#97ff23" stroke="none" /><path d="M 114.94478906791727 85.2469230424477 l 9.7893498185156 -9.663771805719325 a34.755720823798626,34.755720823798626 0 0,0 0.41663128438610153,0.42937516148370664 l -9.95424536660481 9.493832448685504" fill="#ffad10" stroke="none" /><path d="M 115.19652480421416 85.50635884689758 l 12.108481549306054 -11.54842891684924 a37.73264880039633,37.73264880039633 0 0,0 0.44422589581285643,0.47386921289829004 l -12.305474767089374 11.338290287072894" fill="#ffd313" stroke="none" /><path d="M 115.68641384162765 86.03803664274999 l 10.302061264409929 -9.169527422267175 a34.79176201372998,34.79176201372998 0 0,0 0.3943201161776611,0.4507760579154824 l -10.458373244165438 8.990835808148745" fill="#ffae10" stroke="none" /><path d="M 116.15771136456269 86.58626213691792 l 4.953013788273554 -4.111871235294262 a27.437377621552763,27.437377621552763 0 0,0 0.29854676952351433,0.36598303886844585 l -5.023059049873478 4.0260040268177155" fill="#ff4a06" stroke="none" /><path d="M 116.60985879189232 87.15038557335679 l 9.890230681829252 -7.651218017223367 a33.5043112599967,33.5043112599967 0 0,0 0.3489618561324488,0.4591928978213124 l -10.020468478185814 7.479840343521021" fill="#ff9d0e" stroke="none" /><path d="M 117.2510076193507 88.02491185347247 l 10.418202117331576 -7.231976904551452 a33.68228785769893,33.68228785769893 0 0,0 0.3265185594347902,0.47912569569652436 l -10.5411451424351 7.051573185584521" fill="#ff9f0e" stroke="none" /><path d="M 117.45458315368197 88.32363383020206 l 15.64299433147281 -10.46449108512913 a39.82043690580103,39.82043690580103 0 0,0 0.3762146982680184,0.5730007960690399 l -15.820805665098753 10.193672225082416" fill="#ffed16" stroke="none" /><line stroke="#e1ed5e" stroke-width="0.3" x1="172.23445277983987" x2="176.4835382374775" y1="55.19839476539836" y2="52.563006222186495" /><path d="M 173.08426987136738 54.67131705675599 a86.0,86.0 0 0,1 12.851231095245387,41.99856678651699" fill="none" id="id39" stroke="none" /><text fill="#e1ed5e" style="font-size:6.75px; font-family:Arial;" text-anchor="middle"><textPath startOffset="22.20632615414155" xlink:href="#id39">March</textPath></text><path d="M 118.21658344932153 89.55222093294921 l 10.780225903565327 -6.18279595878575 a33.42739861756588,33.42739861756588 0 0,0 0.28197182078922306,0.5015964059227562 l -10.885055365646982 5.9963160429282" fill="#ff9c0e" stroke="none" /><path d="M 118.56541770881063 90.18545643968196 l 11.189552312607544 -5.915317948403961 a33.65689801599471,33.65689801599471 0 0,0 0.2663551885404913,0.5145134451064755 l -11.289716934308153 5.721831781037141" fill="#ff9f0e" stroke="none" /><path d="M 119.196687751892 91.48605970444005 l 14.875859285997514 -6.597605766320343 a37.273278444879566,37.273278444879566 0 0,0 0.2550722089118929,0.588741825915633 l -14.987222204752086 6.340564795818107" fill="#ffce13" stroke="none" /><path d="M 119.47837535516314 92.15188598940014 l 21.378469296836656 -8.613688839773227 a44.04852674042793,44.04852674042793 0 0,0 0.27730949301395097,0.7057224121281728 l -21.523572339732308 8.244417422749269" fill="#ddff1b" stroke="none" /><path d="M 119.61058180528143 92.48833698450437 l 8.989551952248807 -3.4433697886208567 a30.626465592488614,30.626465592488614 0 0,0 0.18433546291921019,0.49392739479729075 l -9.047492003669642 3.288119256794233" fill="#ff760a" stroke="none" /><path d="M 120.08093135843002 93.85539295169968 l 11.86870730664243 -3.6317310820343485 a33.41191700677062,33.41191700677062 0 0,0 0.16354990640424968,0.5514089793814544 l -11.929463110158382 3.4268927159063645" fill="#ff9b0e" stroke="none" /><path d="M 120.18372546131832 94.20196356495316 l 18.09400111966456 -5.197736064566016 a39.825762579914596,39.825762579914596 0 0,0 0.18360289000089633,0.660517282824035 l -18.18079078023182 4.885507478323029" fill="#ffee16" stroke="none" /><path d="M 120.37134235888165 94.90015583598534 l 14.821954945788727 -3.7105880946825547 a36.2793590318243,36.2793590318243 0 0,0 0.14644284159333784,0.6071001214149413 l -14.883630587642884 3.4549027416082074" fill="#ffc111" stroke="none" /><path d="M 120.45610955862082 95.25157060432595 l 13.400298431757841 -3.110580279295976 a34.75658779400316,34.75658779400316 0 0,0 0.13026374038307223,0.5839468059846465 l -13.451856559142952 2.8794553037613655" fill="#ffad10" stroke="none" /><path d="M 120.6074358757038 95.95851677861258 l 14.68672980405248 -2.8803278796130973 a35.96650664087381,35.96650664087381 0 0,0 0.1139183882242362,0.6085565850757517 l -14.734133916186574 2.627093217074783" fill="#ffbd11" stroke="none" /><path d="M 120.73433829027371 96.67025291283417 l 18.437194309625475 -2.9608465526379444 a39.6734235296893,39.6734235296893 0 0,0 0.10247854350344066,0.6752055611407528 l -18.485428746568218 2.6430418791051093" fill="#ffec16" stroke="none" /><path d="M 120.78858239683441 97.02765380044208 l 12.390684644639428 -1.7716169246356497 a33.5166965486329,33.5166965486329 0 0,0 0.07674366040108013,0.5718294099028447 l -12.419344304098344 1.5580691726681406" fill="#ff9d0e" stroke="none" /><path d="M 120.87857604477298 97.74499172005257 l 12.318478077703208 -1.3304676526791201 a33.39011889877091,33.39011889877091 0 0,0 0.05679957242267782,0.5719639428845801 l -12.339554775808114 1.1182281790901052" fill="#ff9b0e" stroke="none" /><path d="M 120.94382443527127 98.46500227214037 l 16.231476289492882 -1.1896241443954971 a37.27501238528863,37.27501238528863 0 0,0 0.04139196472038205,0.640315373707082 l -16.24954884521768 0.91004970643538" fill="#ffce13" stroke="none" /><path d="M 120.96714384426684 98.82574320788733 l 1.2675058647510862 -0.0709861763615257 a22.269492085210786,22.269492085210786 0 0,0 0.018140507430984058,0.3829174406246013 l -1.2685399804155668 0.04915762911392459" fill="#ff0000" stroke="none" /><path d="M 120.98425023603335 99.18683210126433 l 13.948494344655309 -0.54052290213795 a34.95896341031872,34.95896341031872 0 0,0 0.018125898815498795,0.6015103378678721 l -13.955731937926451 0.3003424168450788" fill="#ffb010" stroke="none" /><line stroke="#e1ed5e" stroke-width="0.3" x1="184.98032266829074" x2="189.97916517819016" y1="98.17113171792111" y2="98.06355123074" /><path d="M 185.9800911702706 98.14961562048488 a86.0,86.0 0 0,1 -9.607161424134198,41.387399972396054" fill="none" id="id40" stroke="none" /><text fill="#e1ed5e" style="font-size:6.75px; font-family:Arial;" text-anchor="middle"><textPath startOffset="21.466115282336823" xlink:href="#id40">April</textPath></text><path d="M 120.99513854157772 99.54816195383933 l 16.272359170076168 -0.3501987357345308 a37.276127061265896,37.276127061265896 0 0,0 0.008284162841621841,0.6416175415513723 l -16.275976340035506 0.0700449361226958" fill="#ffce13" stroke="none" /><path d="M 120.99824983174949 100.27111621757518 l 19.4230962564704 0.25077882360895115 a40.424715138361364,40.424715138361364 0 0,0 -0.014972423824885946,0.6957097021327292 l -19.415901769960506 -0.5850783415317952" fill="#fff517" stroke="none" /><path d="M 120.9904718944345 100.63252640178507 l 13.756535999040738 0.4145391423433002 a34.762780438321265,34.762780438321265 0 0,0 -0.02317165629992445,0.59795748816086 l -13.74736220988961 -0.6512738775181663" fill="#ffad10" stroke="none" /><path d="M 120.9764740272857 100.99374915477107 l 16.261604593860255 0.770384755767313 a37.27984264785675,37.27984264785675 0 0,0 -0.03588388848818557,0.6407309343893536 l -16.24593435448454 -1.05018740649209" fill="#ffce13" stroke="none" /><path d="M 120.92983693683757 101.71520430193887 l 12.642877625945284 1.0360863373350577 a33.68526032697162,33.68526032697162 0 0,0 -0.05233310560377459,0.5774914594902976 l -12.623169924064433 -1.2535591853739259" fill="#ff9f0e" stroke="none" /><path d="M 120.89721153311464 102.0752229133903 l 21.163917316204955 2.1017084543595175 a42.26801764608743,42.26801764608743 0 0,0 -0.07813081738733527,0.7233943337448744 l -21.124604197316568 -2.4656991099891834" fill="#f3ff19" stroke="none" /><path d="M 120.8583938346157 102.4346265915055 l 11.320583372081641 1.3213574126347807 a32.39743801457925,32.39743801457925 0 0,0 -0.06942075309165979,0.5533517058287718 l -11.296161109743133 -1.5160268727509474" fill="#ff8e0d" stroke="none" /><path d="M 120.76222939487914 103.15116336523771 l 12.541755062113438 1.9035103762635428 a33.68538417985798,33.68538417985798 0 0,0 -0.09194224404073659,0.5725244414073922 l -12.507131063711414 -2.11911404736414" fill="#ff9f0e" stroke="none" /><path d="M 120.5718875245553 104.21870165774334 l 59.27235964737901 12.155053910550803 a81.50585057444148,81.50585057444148 0 0,0 -0.2936770730141437,1.3719615149902744 l -59.05434853564043 -13.173529244957248" fill="#4ae9ff" stroke="none" /><path d="M 120.41448212921028 104.9243191809786 l 4.012197754569605 0.9678101181139623 a25.12727358512822,25.12727358512822 0 0,0 -0.1050423963517543,0.41959215800712635 l -3.9949440439227892 -1.0367301155184845" fill="#ff2904" stroke="none" /><path d="M 120.32669344350535 105.2749913415812 l 4.996437338333151 1.2966281885301698 a26.161940597796598,26.161940597796598 0 0,0 -0.11687152257673587,0.4349224127815957 l -4.973377739414638 -1.3824415344873138" fill="#ff3805" stroke="none" /><path d="M 120.23288151984713 105.62410040840565 l 11.048516519858486 3.0711377522109005 a32.4674148953738,32.4674148953738 0 0,0 -0.15430890799201133,0.5371695521470863 l -10.994014974980375 -3.260864779862569" fill="#ff8f0d" stroke="none" /><path d="M 119.9155931802556 106.66101706037122 l 9.127960631397322 3.052959605160708 a30.624979357852276,30.624979357852276 0 0,0 -0.17151325593608172,0.49849780532574367 l -9.074056544518008 -3.209630113575752" fill="#ff760a" stroke="none" /><path d="M 119.79798401119884 107.00284435728193 l 24.976220080277173 8.834464244261676 a47.49262780438322,47.49262780438322 0 0,0 -0.2792470149976159,0.7683678534527175 l -24.82044880427433 -9.263079894720525" fill="#b5ff1f" stroke="none" /><path d="M 119.41010516605496 108.01547362559984 l 10.601972621103632 4.378123209368452 a32.470387364646484,32.470387364646484 0 0,0 -0.21778200955314797,0.5147723388180163 l -10.525039630358176 -4.559970073852631" fill="#ff8f0d" stroke="none" /><path d="M 119.26925614724726 108.34839909993367 l 11.683313349086765 5.0617917942666795 a33.73269598244828,33.73269598244828 0 0,0 -0.23542034915606516,0.5308107381898316 l -11.594451915199429 -5.262150868949199" fill="#ffa00e" stroke="none" /><path d="M 119.12269723197855 108.67885076344098 l 9.111239598008035 4.135143059674129 a31.005703130529145,31.005703130529145 0 0,0 -0.22475500186643999,0.48410227887668794 l -9.038709979301764 -4.291365405829648" fill="#ff7b0b" stroke="none" /><path d="M 118.81262510543309 109.33194174019688 l 7.7588930714509425 3.848773773219277 a29.66103234329661,29.66103234329661 0 0,0 -0.2308212076692395,0.45543214074505506 l -7.691493193995434 -3.9817601256670265" fill="#ff6909" stroke="none" /><path d="M 118.64920377521936 109.65438752849418 l 11.01138495100327 5.700413745474454 a33.39940786524806,33.39940786524806 0 0,0 -0.2687021993146399,0.5082832980355879 l -10.911630243463737 -5.889112058596177" fill="#ff9b0e" stroke="none" /><line stroke="#e1ed5e" stroke-width="0.3" x1="174.80103733775053" x2="179.2010983576182" y1="140.37084112569926" y2="142.7455964860345" /><path d="M 175.68104954172406 140.8457921977663 a86.0,86.0 0 0,1 -30.038265399797805,32.042727171017184" fill="none" id="id41" stroke="none" /><text fill="#e1ed5e" style="font-size:6.75px; font-family:Arial;" text-anchor="middle"><textPath startOffset="22.206326154141568" xlink:href="#id41">May</textPath></text><path d="M 118.48025628344425 109.97397251340804 l 14.324607344007356 7.731128709642792 a37.2777371487886,37.2777371487886 0 0,0 -0.3096246076673597,0.562058599463039 l -14.189406326888486 -7.976557827503636" fill="#ffce13" stroke="none" /><path d="M 118.12598468904814 110.60418214915192 l 10.68908846088156 6.2534004630420155 a33.3839262544528,33.3839262544528 0 0,0 -0.2944448374573671,0.4935064840139544 l -10.579862747725967 -6.4364690409420735" fill="#ff9b0e" stroke="none" /><path d="M 117.94076556474637 110.91462005526583 l 5.33177933430589 3.2436935560218743 a27.240946943782586,27.240946943782586 0 0,0 -0.24716017341521523,0.39850089705780717 l -5.275154521222712 -3.334990784444955" fill="#ff4706" stroke="none" /><path d="M 117.55443506779139 111.5257021239791 l 9.589113779393463 6.295917164376043 a32.471254334851025,32.471254334851025 0 0,0 -0.3107914897487485,0.4645911084313052 l -9.479319184233994 -6.460045187013155" fill="#ff8f0d" stroke="none" /><path d="M 117.35343817320211 111.8261652097733 l 10.486919026263614 7.146712697984266 a33.69058600108519,33.69058600108519 0 0,0 -0.33071175406855874,0.47641494738390117 l -10.362346365032918 -7.3261689075551875" fill="#ff9f0e" stroke="none" /><path d="M 116.93607887273984 112.41649034213515 l 9.997676322455566 7.3296807622554825 a33.396683101748096,33.396683101748096 0 0,0 -0.3438884024051158,0.4606947124612059 l -9.87002665335536 -7.500688354226003" fill="#ff9b0e" stroke="none" /><path d="M 116.71984013943494 112.70617746262583 l 10.105111810426846 7.679340404704312 a33.69194838283517,33.69194838283517 0 0,0 -0.354877585567803,0.4587271173263326 l -9.971427407640975 -7.8521455161438976" fill="#ff9f0e" stroke="none" /><path d="M 116.498646956653 112.99209946851258 l 8.441014332702672 6.6469994850935885 a31.743990186133193,31.743990186133193 0 0,0 -0.3417498848091056,0.4263855277463501 l -8.325346535838712 -6.791312846418188" fill="#ff850c" stroke="none" /><path d="M 116.27256486870786 113.27417163493432 l 5.549943109017117 4.527307034116261 a28.16228856542971,28.16228856542971 0 0,0 -0.30965643247190683,0.37300112087561216 l -5.471190676651666 -4.622169412105643" fill="#ff5407" stroke="none" /><path d="M 116.0416608686014 113.55231037782055 l 6.368280890835057 5.380048856079875 a29.33666163391446,29.33666163391446 0 0,0 -0.3292097170580714,0.3829452756193019 l -6.274728664206206 -5.488871230860705" fill="#ff6409" stroke="none" /><path d="M 115.80600337817218 113.82643327865902 l 4.855920887331424 4.247757295044866 a27.451620703484394,27.451620703484394 0 0,0 -0.31417876661394917,0.35298317487700914 l -4.782083271069136 -4.330714639662741" fill="#ff4a06" stroke="none" /><path d="M 115.56566222782051 114.09645910891815 l 8.206958596821687 7.432324727046316 a32.072200334992566,32.072200334992566 0 0,0 -0.3741047940732018,0.40601686737228493 l -8.077807394752764 -7.572492849219936" fill="#ff8a0c" stroke="none" /><path d="M 115.32070863581623 114.36230785411682 l 7.61842829460597 7.141850624053442 a31.442532260728015,31.442532260728015 0 0,0 -0.37355741938605697,0.39167346076339915 l -7.494364323840948 -7.271931201399348" fill="#ff810b" stroke="none" /><path d="M 114.81725581225074 114.88116024355365 l 7.045877965830407 7.076265699574185 a30.985886668711224,30.985886668711224 0 0,0 -0.38120025221618037,0.373084678811261 l -6.923027761238432 -7.196500481308018" fill="#ff7b0b" stroke="none" /><path d="M 114.55890576462653 115.13401014063108 l 12.339298590503551 12.826724275575796 a38.79840288754158,38.79840288754158 0 0,0 -0.4852833391154947,0.458865686992493 l -12.116679416997249 -13.03722459931421" fill="#ffe115" stroke="none" /><path d="M 114.29624159901734 115.38237550388516 l 5.233310077896435 5.630902373110617 a28.687300950718345,28.687300950718345 0 0,0 -0.3646025499203042,0.3330557847091775 l -5.135607978509268 -5.7201509244063775" fill="#ff5c08" stroke="none" /><path d="M 113.75828350139079 115.86535959552629 l 8.139617203705638 9.386196606114988 a33.42393073674774,33.42393073674774 0 0,0 -0.43790844067508916,0.3731950733640437 l -7.9768432864535015 -9.524916069701979" fill="#ff9c0e" stroke="none" /><path d="M 113.20401910651253 116.32954008644616 l 5.185324118440181 6.412741254783695 a29.24686829130199,29.24686829130199 0 0,0 -0.3941955681588341,0.31317280001298414 l -5.074171057563996 -6.501047968801805" fill="#ff6309" stroke="none" /><path d="M 112.92097659922987 116.55440617244103 l 8.408891952031306 10.773505529171352 a34.666670598504325,34.666670598504325 0 0,0 -0.4735653273090549,0.36310969911908203 l -8.222197896228757 -10.916654570117807" fill="#ffac0f" stroke="none" /><path d="M 112.63410532772338 116.77436683061366 l 10.269141133023027 13.634391667028494 a38.0690332397556,38.0690332397556 0 0,0 -0.5268301533861063,0.3897363527448806 l -10.032926009218356 -13.809137968513143" fill="#ffd814" stroke="none" /><path d="M 112.34349029814194 116.9893568818739 l 0.7643884506032839 1.0520904436273322 a22.300455306801293,22.300455306801293 0 0,0 -0.3124959320628066,0.22295755024521252 l -0.7461651906915926 -1.065092255716764" fill="#ff0000" stroke="none" /><path d="M 111.7513745106137 117.40417183066458 l 6.94023886352494 10.278721831012108 a33.40238033452074,33.40238033452074 0 0,0 -0.479284872242941,0.3176438787173439 l -6.762279292542035 -10.39666373082077" fill="#ff9b0e" stroke="none" /><path d="M 111.45004920935366 117.60387380957326 l 6.7577548092030435 10.389707565629092 a33.394082191134494,33.394082191134494 0 0,0 -0.48456116893234263,0.30926986423083164 l -6.577911838223771 -10.504491858683732" fill="#ff9b0e" stroke="none" /><line stroke="#e1ed5e" stroke-width="0.3" x1="143.8653032363475" x2="146.44561519142675" y1="172.8068346515853" y2="177.08958963109032" /><path d="M 144.38136562736335 173.6633856474863 a86.0,86.0 0 0,1 -40.68145358897372,12.25698825130547" fill="none" id="id42" stroke="none" /><text fill="#e1ed5e" style="font-size:6.75px; font-family:Arial;" text-anchor="middle"><textPath startOffset="21.466115282336833" xlink:href="#id42">June</textPath></text><path d="M 110.8373102113329 117.98757091392108 l 8.936965150094439 14.833412651089317 a38.317605982684185,38.317605982684185 0 0,0 -0.5678890517660191,0.3355188616372159 l -8.680308227300037 -14.985050085020282" fill="#ffdb14" stroke="none" /><path d="M 110.5260780823613 118.17145234162733 l 6.750481720020537 11.653538563801176 a34.46751515723419,34.46751515723419 0 0,0 -0.5159478995637538,0.2929686827853315 l -6.548885053535584 -11.768010412381136" fill="#ffa90f" stroke="none" /><path d="M 109.89434966115114 118.52300852407294 l 8.871220826966782 16.607630074165105 a39.828487343414565,39.828487343414565 0 0,0 -0.6074965159382862,0.31781346508042724 l -8.584033408502 -16.757872958190248" fill="#ffee16" stroke="none" /><path d="M 109.2508944713604 118.85261126421891 l 7.179487623477285 14.631243460913009 a37.29780131637925,37.29780131637925 0 0,0 -0.5788038552596305,0.27786102437698157 l -6.926571100217421 -14.75265876178955" fill="#ffce13" stroke="none" /><path d="M 108.59647513512805 119.15986991738527 l 6.6654166945729685 14.85591650132586 a37.282691264243084,37.282691264243084 0 0,0 -0.5877870605099456,0.2576685738581361 l -6.40870895940527 -14.968449628478451" fill="#ffce13" stroke="none" /><path d="M 107.93186726928326 119.44442032107085 l 4.793195075050732 11.750183980145565 a33.690214442426104,33.690214442426104 0 0,0 -0.538849189278136,0.21441921299364194 l -4.590224809730729 -11.830950037545277" fill="#ff9f0e" stroke="none" /><path d="M 107.59598834532513 119.57807347666477 l 4.659439712143662 12.00934610445796 a33.881567151855435,33.881567151855435 0 0,0 -0.5455412772072763,0.20627703092830532 l -4.452028214176111 -12.087771385492895" fill="#ffa20e" stroke="none" /><path d="M 106.91757812671514 119.82793768551818 l 4.251865104342352 12.187172272120419 a33.907576257991465,33.907576257991465 0 0,0 -0.5527423636118838,0.18752022038701177 l -4.041453007793241 -12.258555479405553" fill="#ffa20f" stroke="none" /><path d="M 106.57524785965236 119.94407469862006 l 5.247641579277746 15.917172688032068 a37.75989643539597,37.75989643539597 0 0,0 -0.6190441121087391,0.19819837592847578 l -4.972876122078067 -16.005143910620248" fill="#ffd413" stroke="none" /><path d="M 105.88484417918355 120.15858648285463 l 2.4285099439810582 8.318882580338185 a29.666110311637453,29.666110311637453 0 0,0 -0.4914245305232967,0.13888148103284195 l -2.2849542453531555 -8.359452854709547" fill="#ff6909" stroke="none" /><path d="M 105.53697534728816 120.25689768951611 l 3.2684469352861414 11.957538370498762 a33.396187690202645,33.396187690202645 0 0,0 -0.5558231795898498,0.14679795352794595 l -3.0621333128847943 -12.012027673330293" fill="#ff9b0e" stroke="none" /><path d="M 104.83641907484287 120.43548508189849 l 1.9967956363402062 8.437128132730322 a29.6701974568874,29.6701974568874 0 0,0 -0.49800698890895023,0.11334476930412325 l -1.851268498038394 -8.47024963561213" fill="#ff6909" stroke="none" /><path d="M 103.7750983002368 120.6578951692458 l 2.2292441276699773 12.198752941923237 a33.40077024699804,33.40077024699804 0 0,0 -0.5664627941473384,0.09848681772320964 l -2.018932362050589 -12.235318338167453" fill="#ff9b0e" stroke="none" /><path d="M 103.41894727170886 120.7198165907248 l 2.0653904910110343 12.51686813543225 a33.68612729717616,33.68612729717616 0 0,0 -0.5729274554509276,0.0894794856932072 l -1.8496271719515895 -12.550565928472563" fill="#ff9f0e" stroke="none" /><path d="M 102.70371172650421 120.8252237178851 l 2.0953462909573175 16.139315019373967 a37.27476467951591,37.27476467951591 0 0,0 -0.6369948026519651,0.07713119957311086 l -1.817224065253972 -16.172991747672427" fill="#ffce13" stroke="none" /><path d="M 100.90346689309514 120.98055641714683 l 0.4934390504321619 11.458777200511227 a32.46939654155559,32.46939654155559 0 0,0 -0.5585967697080697,0.019239202197603313 l -0.29612192904943985 -11.465573201134925" fill="#ff8f0d" stroke="none" /><line stroke="#e1ed5e" stroke-width="0.3" x1="102.19456741930631" x2="102.32365962044197" y1="184.97166512339345" y2="189.96999836594603" /><path d="M 102.22038585953345 185.97133177190398 a86.0,86.0 0 0,1 -42.740103519485714,-10.115201625700543" fill="none" id="id43" stroke="none" /><text fill="#e1ed5e" style="font-size:6.75px; font-family:Arial;" text-anchor="middle"><textPath startOffset="22.20632615414155" xlink:href="#id43">July</textPath></text><path d="M 99.81925306533755 120.99922214144158 l -0.05336083245888183 6.199474290111473 a27.19970393262403,27.19970393262403 0 0,0 -0.46814616305882134,-0.008059560748613494 l 0.1600666854103711 -6.197637252083699" fill="#ff4706" stroke="none" /><path d="M 99.09653310690486 120.98055641714683 l -0.37301125518549616 8.662169852001385 a29.6701974568874,29.6701974568874 0 0,0 -0.5100616806887671,-0.026364362759483086 l 0.5220610042877522 -8.6544656824797" fill="#ff6909" stroke="none" /><path d="M 98.37488393609728 120.93702456842531 l -1.0303570920620326 13.274505267609866 a34.31443298969072,34.31443298969072 0 0,0 -0.5885018107006768,-0.05077841251373041 l 1.2587032205042512 -13.254802602817472" fill="#ffa70f" stroke="none" /><path d="M 97.65516085044442 120.86867818915974 l -1.3847406690659732 12.323961498022802 a33.401513364316216,33.401513364316216 0 0,0 -0.5708041511921723,-0.0691164334771221 l 1.5966722433095348 -12.298299535820332" fill="#ff9b0e" stroke="none" /><path d="M 97.2962882734958 120.8252237178851 l -1.6329968517750353 12.57808827599668 a33.68365023944891,33.68365023944891 0 0,0 -0.5743405759623574,-0.07959837042513214 l 1.8492660189242238 -12.548115340078944" fill="#ff9f0e" stroke="none" /><path d="M 94.46302465271185 120.25689768951611 l -2.538101482208102 9.285586231818755 a30.626217886715892,30.626217886715892 0 0,0 -0.5073288876964493,-0.14337621123430475 l 2.6975615380091655 -9.240521227245928" fill="#ff760a" stroke="none" /><path d="M 93.76903079525671 120.05430185196036 l -3.8091170526507825 12.259598892762547 a33.83772323008327,33.83772323008327 0 0,0 -0.5547431351827671,-0.17761123367470466 l 4.01958153292449 -12.192214812428135" fill="#ffa10e" stroke="none" /><path d="M 93.42475214034765 119.94407469862007 l -3.5185153506922617 10.672378362046732 a32.23742008539951,32.23742008539951 0 0,0 -0.5255164108214122,-0.17828369899184546 l 3.7017014944508997 -10.610231676156765" fill="#ff8c0c" stroke="none" /><path d="M 92.7421414339146 119.70592522655815 l -2.1460328104619792 5.826727224241504 a27.209364457760266,27.209364457760266 0 0,0 -0.43810935225502295,-0.1656554694957633 l 2.2460123834772854 -5.788923504639108" fill="#ff4706" stroke="none" /><path d="M 92.40401165467489 119.57807347666478 l -2.4460412114861834 6.3044823646812675 a27.762367595366722,27.762367595366722 0 0,0 -0.44403781687915056,-0.17669181123235828 l 2.554200104407192 -6.261443709042843" fill="#ff4f07" stroke="none" /><path d="M 92.06813273071674 119.44442032107085 l -2.3450457332202945 5.748716331329827 a27.208621340442093,27.208621340442093 0 0,0 -0.4321357983220882,-0.18063279874588448 l 2.443652991039845 -5.707498489563969" fill="#ff4706" stroke="none" /><path d="M 91.40352486487194 119.15986991738527 l -3.584484135350877 7.989117478350154 a29.75639906579537,29.75639906579537 0 0,0 -0.465520448753821,-0.2136976056867149 l 3.7214725798721173 -7.926232802329365" fill="#ff6a09" stroke="none" /><path d="M 91.07499286063937 119.00905698771935 l -4.257533071433894 9.0679690803905 a31.017716860506262,31.017716860506262 0 0,0 -0.4813467139235378,-0.2310756740749345 l 4.412992453357674 -8.993339129816002" fill="#ff7b0b" stroke="none" /><path d="M 90.7491055286396 118.85261126421891 l -3.860195366944788 7.866781194213218 a29.762839415886198,29.762839415886198 0 0,0 -0.4579878692147208,-0.22964462529646507 l 3.995037143842269 -7.7991687280074515" fill="#ff6a09" stroke="none" /><path d="M 90.10565033884886 118.52300852407294 l -4.123559912097382 7.719631710733264 a29.751940361886337,29.751940361886337 0 0,0 -0.4496470082622565,-0.2451834003766841 l 4.255829732228279 -7.647507658596814" fill="#ff6a09" stroke="none" /><line stroke="#e1ed5e" stroke-width="0.3" x1="58.666819895761336" x2="56.23545636021788" y1="174.27360380694188" y2="178.64263932499728" /><path d="M 58.180547188652646 175.14741091055294 a86.0,86.0 0 0,1 -31.652253787137756,-30.449443065178592" fill="none" id="id44" stroke="none" /><text fill="#e1ed5e" style="font-size:6.75px; font-family:Arial;" text-anchor="middle"><textPath startOffset="22.20632615414155" xlink:href="#id44">August</textPath></text><path d="M 89.7882731507175 118.34994917583269 l -4.82370331064417 8.667947340937319 a30.9197492273939,30.9197492273939 0 0,0 -0.46284101410087247,-0.26281320721493573 l 4.97219309166625 -8.583630967927752" fill="#ff7a0b" stroke="none" /><path d="M 89.4739219176387 118.17145234162733 l -4.390004550674575 7.578583195747577 a29.7582568590908,29.7582568590908 0 0,0 -0.4410345541304324,-0.2605709884428066 l 4.519806975833389 -7.5018936350110215" fill="#ff6a09" stroke="none" /><path d="M 89.1626897886671 117.98757091392108 l -3.844280709446017 6.380667391237686 a28.44925570313053,28.44925570313053 0 0,0 -0.417283928714695,-0.25632987091337306 l 3.9535438380930206 -6.313549053495935" fill="#ff5808" stroke="none" /><path d="M 88.8546689885994 117.79835938074946 l -5.160588787032305 8.241120317908297 a30.72356625539645,30.72356625539645 0 0,0 -0.4458109401922075,-0.2845376348452606 l 5.301681529271436 -8.151068254239233" fill="#ff770b" stroke="none" /><path d="M 88.54995079064634 117.60387380957326 l -4.0615003871721855 6.244352228189943 a28.449007997357803,28.449007997357803 0 0,0 -0.40820980501681314,-0.270539199764822 l 4.1683848909289605 -6.173515007333802" fill="#ff5808" stroke="none" /><path d="M 86.51685102203217 116.09983520530335 l -2.8318779718994924 3.381462946349657 a25.410648989124535,25.410648989124535 0 0,0 -0.33292127616621325,-0.2837227341216913 l 2.8896647246427625 -3.3322158220050144" fill="#ff2d04" stroke="none" /><path d="M 85.97065885151581 115.62618273729859 l -4.149906846718632 4.62225574553074 a27.211841515487507,27.211841515487507 0 0,0 -0.3458501314438174,-0.31592589504645546 l 4.228856527629304 -4.550137083897709" fill="#ff4706" stroke="none" /><path d="M 85.44109423537348 115.13401014063109 l -6.076571764236323 6.316607867856763 a29.76494491495435,29.76494491495435 0 0,0 -0.3661797588719199,-0.35838396467912337 l 6.184401475484036 -6.21107380025507" fill="#ff6a09" stroke="none" /><path d="M 84.67929136418377 114.36230785411682 l -5.608599552559331 5.257748536252835 a28.687672509377435,28.687672509377435 0 0,0 -0.3346261155911515,-0.3631705590137127 l 5.698272076146211 -5.160426722437778" fill="#ff5c08" stroke="none" /><path d="M 84.43433777217949 114.09645910891817 l -8.176755579099202 7.40497249505905 a32.03145273537946,32.03145273537946 0 0,0 -0.3665941046598086,-0.4118723628227194 l 8.30300853340735 -7.263125962495466" fill="#ff890c" stroke="none" /><path d="M 83.95833913139862 113.55231037782056 l -7.735392638878707 6.535011729463936 a31.126335841845762,31.126335841845762 0 0,0 -0.34224740259711317,-0.41225904389075524 l 7.846736041369358 -6.40089142845942" fill="#ff7d0b" stroke="none" /><path d="M 83.50135304334701 112.99209946851258 l -4.8764401863258415 3.840023737670787 a27.206887400033025,27.206887400033025 0 0,0 -0.286570381790616,-0.3704308485405864 l 4.941817385334526 -3.755514895016948" fill="#ff4706" stroke="none" /><path d="M 83.06392112726016 112.41649034213515 l -9.24923899795251 6.78097259425424 a32.46865342423742,32.46865342423742 0 0,0 -0.32657312940723193,-0.4535815138535756 l 9.36459191973535 -6.620757474949526" fill="#ff8f0d" stroke="none" /><path d="M 82.85270091963577 112.12312394758628 l -8.103291145181208 5.729019041191384 a30.92396022553021,30.92396022553021 0 0,0 -0.3035541479926215,-0.43729239032154654 l 8.200706200335963 -5.5886853886828245" fill="#ff7a0b" stroke="none" /><path d="M 82.44556493220864 111.52570212397912 l -10.360943224711722 6.802676638144388 a33.39457760267994,33.39457760267994 0 0,0 -0.31135694686583665,-0.4832328958667341 l 10.476505034954604 -6.623322142356206" fill="#ff9b0e" stroke="none" /><path d="M 82.05923443525364 110.91462005526583 l -8.791034380475017 5.3481998752721855 a31.29006935761636,31.29006935761636 0 0,0 -0.2759771069409186,-0.4625535054065133 l 8.881792363114167 -5.196084275979561" fill="#ff7f0b" stroke="none" /><line stroke="#e1ed5e" stroke-width="0.3" x1="26.63291911575756" x2="22.317208475507996" y1="142.92168965132927" y2="145.44649492493687" /><path d="M 25.769776987707644 143.4266507060508 a86.0,86.0 0 0,1 -11.730757126820373,-40.83630448921669" fill="none" id="id45" stroke="none" /><text fill="#e1ed5e" style="font-size:6.75px; font-family:Arial;" text-anchor="middle"><textPath startOffset="21.46611528233685" xlink:href="#id45">September</textPath></text><path d="M 81.69416730710424 110.29060199501025 l -14.948820485997144 8.403461590466328 a38.1489183514591,38.1489183514591 0 0,0 -0.316860538781068,-0.5751939162526805 l 15.091257434229728 -8.144897155815825" fill="#ffd914" stroke="none" /><path d="M 81.35079622478065 109.6543875284942 l -11.26226863433665 5.830292121659881 a33.68191629903984,33.68191629903984 0 0,0 -0.262111598368415,-0.5171710501146707 l 11.360958902491332 -5.635566859842526" fill="#ff9f0e" stroke="none" /><path d="M 81.18737489456691 109.33194174019688 l -7.955722419495468 3.946410333689619 a29.880747363702845,29.880747363702845 0 0,0 -0.22459898387041982,-0.4627404307946365 l 8.022474659980608 -3.8088809469296976" fill="#ff6c09" stroke="none" /><path d="M 80.87730276802145 108.67885076344099 l -8.766693607045196 3.978770598172846 a30.627332562693148,30.627332562693148 0 0,0 -0.21374803037917417,-0.4819453806730179 l 8.83388272215565 -3.827276881007132" fill="#ff760a" stroke="none" /><path d="M 80.73074385275274 108.34839909993369 l -7.954381121955444 3.4462330923214664 a29.668835075137416,29.668835075137416 0 0,0 -0.1989917290238278,-0.47035766620583946 l 8.012523832171578 -3.308800900449468" fill="#ff6909" stroke="none" /><path d="M 80.45479744820244 107.68017299344265 l -11.675640678383074 4.5878746961878445 a33.54468730095072,33.54468730095072 0 0,0 -0.20654856939332858,-0.5392331376548576 l 11.75288352736991 -4.386217991699828" fill="#ff9d0e" stroke="none" /><path d="M 80.32549172779594 107.34259656027581 l -12.905811847173512 4.816494946941168 a34.77528957984383,34.77528957984383 0 0,0 -0.2044716466489779,-0.5626181545001029 l 12.986807754827716 -4.593628995434948" fill="#ffad10" stroke="none" /><path d="M 80.0844068197444 106.66101706037122 l -20.055132475226845 6.70768770763656 a42.14713722899809,42.14713722899809 0 0,0 -0.22419818218860058,-0.690011054386477 l 20.167622908431696 -6.361477753272279" fill="#f4ff19" stroke="none" /><path d="M 79.97269907076064 106.31721596034903 l -11.816457172037758 3.7272676985142197 a33.39036660454363,33.39036660454363 0 0,0 -0.168181278236481,-0.549626148180457 l 11.87886522278037 -3.523314577781715" fill="#ff9b0e" stroke="none" /><path d="M 79.76711848015287 105.62410040840567 l -23.09008571852614 6.4183127051033155 a44.9655335110524,44.9655335110524 0 0,0 -0.20087158080905765,-0.7475178782527399 l 23.197145375676975 -6.019903893675036" fill="#d3ff1c" stroke="none" /><path d="M 79.58551787078972 104.9243191809786 l -9.365286350353994 2.2590658395599124 a30.633896765670336,30.633896765670336 0 0,0 -0.11923797071274714,-0.5136740570828888 l 9.402784886997296 -2.097523125128449" fill="#ff760a" stroke="none" /><path d="M 79.50377843672027 104.57218783832718 l -25.581715684202482 5.706632755395428 a47.21049092925051,47.21049092925051 0 0,0 -0.1701060561168005,-0.7946788629556479 l 25.676155779043725 -5.2654400730236155" fill="#b9ff1f" stroke="none" /><path d="M 79.35854240842038 103.8639653848113 l -12.33841922327596 2.3096830526869856 a33.552737738564254,33.552737738564254 0 0,0 -0.10138288470343171,-0.568609058224814 l 12.37634855031858 -2.0969552437289583" fill="#ff9d0e" stroke="none" /><path d="M 79.29508885075956 103.50808413554451 l -8.632134334024194 1.4625637992264582 a29.75516053693175,29.75516053693175 0 0,0 -0.08121493336548008,-0.5057254675925604 l 8.656031021750966 -1.313759101940684" fill="#ff6a09" stroke="none" /><path d="M 79.18660465613746 102.79330883721812 l -10.01045312635348 1.3434755223945953 a31.100202882823375,31.100202882823375 0 0,0 -0.06664105675447024,-0.5311947910537285 l 10.0320956923548 -1.1709629770534582" fill="#ff7d0b" stroke="none" /><path d="M 79.1416061653843 102.43462659150553 l -8.70116689657814 1.0156147434698732 a29.760238505272596,29.760238505272596 0 0,0 -0.05501066502640276,-0.509330437161005 l 8.717359863105596 -0.8656879844240862" fill="#ff6a09" stroke="none" /><path d="M 79.07016306316243 101.71520430193888 l -12.571406397640596 1.0302292559529678 a33.613549505768006,33.613549505768006 0 0,0 -0.0422945549261486,-0.5770755987869238 l 12.587277511231079 -0.8136805206692833" fill="#ff9e0e" stroke="none" /><path d="M 79.0235259727143 100.99374915477108 l -30.98890647424297 1.468082747176732 a52.02366179905164,52.02366179905164 0 0,0 -0.03467715745034198,-0.8948633493079143 l 31.00958576454451 -0.9344421508548207" fill="#83ff25" stroke="none" /><path d="M 79.0095281055655 100.63252640178507 l -8.662549720099316 0.2610370758835362 a29.666481870296536,29.666481870296536 0 0,0 -0.010987811254453774,-0.510560413219175 l 8.665759594038777 -0.11188684687423237" fill="#ff6909" stroke="none" /><line stroke="#e1ed5e" stroke-width="0.3" x1="15.007084014347285" x2="10.007500721073583" y1="101.09737516637583" y2="101.16192664675087" /><path d="M 14.007167355692545 101.11028546245083 a86.0,86.0 0 0,1 10.666146001902534,-42.60595125391555" fill="none" id="id46" stroke="none" /><text fill="#e1ed5e" style="font-size:6.75px; font-family:Arial;" text-anchor="middle"><textPath startOffset="22.20632615414155" xlink:href="#id46">October</textPath></text><path d="M 79.00019446554 99.90962569577889 l -4.46052039635033 -0.019196198108728947 a25.460561702328434,25.460561702328434 0 0,0 0.005658298106844325,-0.438241424038375 l 4.45952909112577 0.09597388020757594" fill="#ff2e04" stroke="none" /><path d="M 79.00486145842228 99.54816195383935 l -12.423531105673494 -0.2673678008881441 a33.42640779447498,33.42640779447498 0 0,0 0.017331282919831003,-0.5751409047852221 l 12.417088128298017 0.4811788530983606" fill="#ff9c0e" stroke="none" /><path d="M 79.03285615573316 98.82574320788736 l -12.829137897021097 -0.7184909124685559 a33.84924154851495,33.84924154851495 0 0,0 0.037587824183820506,-0.5814670033589102 l 12.814869481832863 0.9392169800804778" fill="#ffa10e" stroke="none" /><path d="M 79.08570108090925 98.10471618934814 l -41.246521258177346 -3.737819005492614 a62.41553822925759,62.41553822925759 0 0,0 0.10617440131618192,-1.0691617316817632 l 41.176069731178934 4.4472562678788075" fill="#32ff4a" stroke="none" /><path d="M 79.16333360222342 97.38593545837743 l -8.612839422695565 -1.0805240007086678 a29.680353393569085,29.680353393569085 0 0,0 0.06795953050191428,-0.5063774391407021 l 8.592963893135817 1.2286197819140294" fill="#ff6909" stroke="none" /><path d="M 79.26566170972629 96.67025291283419 l -12.232031839035475 -1.9643536155312797 a33.38875651702092,33.38875651702092 0 0,0 0.0960135643913055,-0.5666774920537512 l 12.196406413123945 2.1746168959008587" fill="#ff9b0e" stroke="none" /><path d="M 79.46518482838121 95.60439243477599 l -32.71562921250147 -7.002988147966788 a54.456751751633675,54.456751751633675 0 0,0 0.2040977156423901,-0.914930039684517 l 32.59023710985704 7.565096357201265" fill="#69ff28" stroke="none" /><path d="M 79.71946130924805 94.55025226153421 l -13.516013308839922 -3.6319973589514527 a34.995500011795514,34.995500011795514 0 0,0 0.16133463675175636,-0.5804065278719353 l 13.451491901521806 3.8641151902423307" fill="#ffb010" stroke="none" /><path d="M 79.91906864156998 93.8553929516997 l -10.981529873782497 -3.3602617657092497 a32.48413503503267,32.48413503503267 0 0,0 0.1682129309329985,-0.5332809593861615 l 10.922061459081295 3.5487928915218254" fill="#ff8f0d" stroke="none" /><path d="M 80.14247586403 93.16781622104843 l -15.385493897393866 -5.293536148674459 a37.270677534265964,37.270677534265964 0 0,0 0.213945969185086,-0.6048540651602964 l 15.292094847398971 5.557587840261366" fill="#ffcd13" stroke="none" /><path d="M 80.38941819471856 92.48833698450439 l -11.575905902151518 -4.43405020307102 a33.396063837316284,33.396063837316284 0 0,0 0.2102464308502864,-0.5350542338395082 l 11.49786592141954 4.6326534418062915" fill="#ff9b0e" stroke="none" /><path d="M 80.95270993114464 91.15688171328213 l -57.141870206566075 -26.529354860153617 a84.0,84.0 0 0,0 0.6201672246329939,-1.3062303374378712 l 56.676744788091334 27.50902761323202" fill="#4dd2ff" stroke="none" /><path d="M 81.43458229118936 90.18545643968196 l -7.751102406324193 -4.097593353434347 a29.767545825567954,29.767545825567954 0 0,0 0.24337364401871459,-0.45093440031596355 l 7.679420663087007 4.230408737082784" fill="#ff6a09" stroke="none" /><line stroke="#e1ed5e" stroke-width="0.3" x1="26.266209847984243" x2="21.928928074336255" y1="57.711370442889674" y2="55.22380399835377" /><path d="M 25.398753493254645 57.213857153982495 a86.0,86.0 0 0,1 29.58750427330803,-30.492523968695096" fill="none" id="id47" stroke="none" /><text fill="#e1ed5e" style="font-size:6.75px; font-family:Arial;" text-anchor="middle"><textPath startOffset="21.46611528233685" xlink:href="#id47">November</textPath></text><path d="M 81.78341655067845 89.55222093294921 l -10.885191826505174 -6.242997191113171 a33.548402887541585,33.548402887541585 0 0,0 0.2916160182901205,-0.4984663039790056 l 10.776116133744729 6.429442907446069" fill="#ff9d0e" stroke="none" /><path d="M 81.96595687620814 89.24020034530311 l -10.673052911051604 -6.367951448191298 a33.42838944065677,33.42838944065677 0 0,0 0.29907934593501206,-0.49160780709805474 l 10.561857766830375 6.550727028496428" fill="#ff9c0e" stroke="none" /><path d="M 82.34701348167596 88.62581576622439 l -10.424419826686837 -6.716669245506004 a33.400894099884404,33.400894099884404 0 0,0 0.3155642748319455,-0.48062604018952326 l 10.307258916496972 6.895113349673195" fill="#ff9b0e" stroke="none" /><path d="M 83.39014120810768 87.1503855733568 l -10.955751418809443 -8.475519464052722 a34.851459104956476,34.851459104956476 0 0,0 0.37116126734141003,-0.4713371175067594 l 10.808236070874063 8.662848975512528" fill="#ffae10" stroke="none" /><path d="M 83.84228863543731 86.58626213691792 l -10.583569673565439 -8.786221393224787 a34.75534926513954,34.75534926513954 0 0,0 0.386097814671673,-0.45701803105155087 l 10.430761245406643 8.967098373905454" fill="#ffad10" stroke="none" /><path d="M 84.07557802195018 86.31012108654704 l -9.398410597934866 -8.079608995666549 a33.393958338248126,33.393958338248126 0 0,0 0.37847779961169375,-0.43266555145925384 l 9.25794093474533 8.240190103328747" fill="#ff9b0e" stroke="none" /><path d="M 84.5562425177563 85.77008943001954 l -12.077310547049857 -11.128059295672987 a37.422397320059446,37.422397320059446 0 0,0 0.4405733098916157,-0.46997288890669386 l 11.883969915187786 11.334301601457732" fill="#ffcf13" stroke="none" /><path d="M 85.05521093208273 85.24692304244772 l -4.7841905082538005 -4.722818798385078 a27.722610818844508,27.722610818844508 0 0,0 0.33816859131820426,-0.3367163879174595 l 4.702186116768283 4.804471036952647" fill="#ff4e07" stroke="none" /><path d="M 85.57189188830299 84.74124197986013 l -37.25128252582917 -39.39590011393645 a75.21895420981858,75.21895420981858 0 0,0 0.9484469554264607,-0.8814780795855923 l 36.56762768660785 40.03128277959669" fill="#42ffd7" stroke="none" /><path d="M 86.10567301691215 84.25364557470407 l -5.079710746624314 -5.756804621892883 a28.677516572695744,28.677516572695744 0 0,0 0.3729527435911016,-0.32342094410483885 l 4.9798642043864385 5.8433905594174025" fill="#ff5b08" stroke="none" /><path d="M 86.37877921826538 84.01681056812374 l -4.3943853239146105 -5.156387536348248 a27.77487673688929,27.77487673688929 0 0,0 0.36655227378660027,-0.3069769878172157 l 4.304975513168899 5.231265681559276" fill="#ff4f07" stroke="none" /><path d="M 86.65592168130627 83.78471172551755 l -4.096026682480915 -4.977357884909491 a27.446047323598105,27.446047323598105 0 0,0 0.3673805059762531,-0.2970628195644702 l 4.009742777940161 5.047126801738095" fill="#ff4a06" stroke="none" /><path d="M 86.93701828274178 83.55741782278169 l -4.651967267755116 -5.85550494836394 a28.47848498431197,28.47848498431197 0 0,0 0.3864495761385736,-0.30163002393776 l 4.550485136457117 5.934713361524922" fill="#ff5908" stroke="none" /><path d="M 87.22198572758235 83.33499621200491 l -4.747103594292509 -6.191141885923228 a28.8016171648305,28.8016171648305 0 0,0 0.3960275111582468,-0.2982797108930506 l 4.639829929375872 6.271938186322133" fill="#ff5d08" stroke="none" /><path d="M 87.51073957382395 83.11751280151077 l -9.131016770096528 -12.342946537270985 a36.35329920498242,36.35329920498242 0 0,0 0.5062710770709263,-0.3678274681911088 l 8.917200376671818 12.49829324027876" fill="#ffc212" stroke="none" /><path d="M 87.80319425747018 82.90503203632743 l -4.8033788450861605 -6.732386266332277 a29.27027648682441,29.27027648682441 0 0,0 0.4126674954059661,-0.28909995237416947 l 4.686780210096535 6.81407106147039" fill="#ff6409" stroke="none" /><path d="M 88.09926311788651 82.69761687909137 l -3.6469502016715234 -5.302270795267713 a27.43539597537097,27.43539597537097 0 0,0 0.39140551625327913,-0.26427875177079446 l 3.5551399910117047 5.364261459337173" fill="#ff4a06" stroke="none" /><path d="M 88.39885842347998 82.49532879139004 l -3.560955751197154 -5.373036713841476 a27.44592347071174,27.44592347071174 0 0,0 0.39604856282983897,-0.2576010020720168 l 3.467940162583028 5.433536640073028" fill="#ff4a06" stroke="none" /><path d="M 88.70189139769569 82.29822771554957 l -3.464408587434274 -5.428003400723928 a27.439359267734552,27.439359267734552 0 0,0 0.4003282928957658,-0.2506855402851415 l 3.3704611421662656 5.486833282331999" fill="#ff4a06" stroke="none" /><path d="M 89.00827224532344 82.1063720568725 l -3.370266662565048 -5.486516685550821 a27.438987709075466,27.438987709075466 0 0,0 0.40457864091987844,-0.24375410429291913 l 3.2753259554275203 5.54371739930236" fill="#ff4a06" stroke="none" /><line stroke="#e1ed5e" stroke-width="0.3" x1="56.762969772571076" x2="54.21961505331055" y1="26.818313649435495" y2="22.513508569990535" /><path d="M 56.25429882871897 25.957352633546506 a86.0,86.0 0 0,1 42.265352541879196,-11.944610805530505" fill="none" id="id48" stroke="none" /><text fill="#e1ed5e" style="font-size:6.75px; font-family:Arial;" text-anchor="middle"><textPath startOffset="22.20632615414155" xlink:href="#id48">December</textPath></text><path d="M 89.3179101791058 81.91981866633112 l -3.2736879459478025 -5.5409449541239235 a27.435767534030056,27.435767534030056 0 0,0 0.40866655866507084,-0.23672604837996966 l 3.1778246548174116 5.596475159893941" fill="#ff4a06" stroke="none" /><path d="M 89.63071344664047 81.73862282372117 l -3.178864298778151 -5.598306079542886 a27.43787303309821,27.43787303309821 0 0,0 0.4127125303931168,-0.2296740763293953 l 3.0820276793129886 5.652195553432466" fill="#ff4a06" stroke="none" /><path d="M 89.94658935756843 81.56283822128135 l -3.8539576207707764 -7.067854151165004 a29.05031376064545,29.05031376064545 0 0,0 0.44108744964232083,-0.23561363977318503 l 3.73172512460015 7.133146517439938" fill="#ff6108" stroke="none" /><path d="M 90.26544431104013 81.39251694778311 l -8.030508958652378 -15.350218759164159 a38.32392247988865,38.32392247988865 0 0,0 0.5871581015412091,-0.30076518495379817 l 7.765090369522405 15.486176469430463" fill="#ffdb14" stroke="none" /><path d="M 90.58718382345135 81.22770947309562 l -3.6161033529218987 -7.211714479826715 a29.067529311849775,29.067529311849775 0 0,0 0.44920230755771007,-0.2204216214543649 l 3.491429778353763 7.27289126141591" fill="#ff6108" stroke="none" /><path d="M 91.23893434514133 80.91482961587045 l -3.619011055145801 -7.883680516787572 a29.67465616079643,29.67465616079643 0 0,0 0.4660586776276553,-0.20910694336715735 l 3.482770259051371 7.944807790671258" fill="#ff6909" stroke="none" /><path d="M 91.56875222667455 80.76684994638697 l -5.179899741367524 -11.816256818307039 a33.90175517233244,33.90175517233244 0 0,0 0.5364811372944047,-0.2296932251814055 l 4.975734846282811 11.903669571451232" fill="#ffa20f" stroke="none" /><path d="M 91.90106846888425 80.62456947434976 l -3.182282640528941 -7.613114887768028 a29.251450848097384,29.251450848097384 0 0,0 0.46623487794289725,-0.19018891317351774 l 3.0507638929976633 7.666764687125124" fill="#ff6309" stroke="none" /><path d="M 92.23578459929587 80.48803036053334 l -3.0088647146044223 -7.561469373363817 a29.13812545707613,29.13812545707613 0 0,0 0.4676208961612455,-0.1814296427840554 l 2.8782606534435007 7.612141720038424" fill="#ff6209" stroke="none" /><path d="M 92.57280143429618 80.3572730644239 l -3.1399884096425157 -8.304333641527885 a29.878146453089244,29.878146453089244 0 0,0 0.48262835000207077,-0.17775609437395665 l 2.996577733867875 8.357153003708163" fill="#ff6c09" stroke="none" /><path d="M 92.91201910852362 80.23233633223022 l -2.966981078655643 -8.274610918044543 a29.790458609544928,29.790458609544928 0 0,0 0.48419141098312013,-0.16892487594443842 l 2.8241076636092375 8.32445664716119" fill="#ff6b09" stroke="none" /><path d="M 93.25333710446033 80.11325718540243 l -2.811096276416561 -8.286103743693467 a29.749958715704544,29.749958715704544 0 0,0 0.48636532688954864,-0.1603470014510544 l 2.6680481272846026 8.333264469403755" fill="#ff6a09" stroke="none" /><path d="M 93.59665428221793 80.00007090966166 l -2.5231423880649366 -7.880672240761725 a29.274735190733445,29.274735190733445 0 0,0 0.48124127608862666,-0.1495240070432315 l 2.387115739265581 7.922936382687482" fill="#ff6409" stroke="none" /><path d="M 93.94186890950719 79.89281104454417 l -2.502986125017003 -8.307515010294543 a29.6763901012055,29.6763901012055 0 0,0 0.49038084132257787,-0.14315561471012864 l 2.3596150659710036 8.349368953923369" fill="#ff6909" stroke="none" /><path d="M 94.28887869178378 79.79150937346287 l -2.2446219772790656 -7.942472194156698 a29.253556347165535,29.253556347165535 0 0,0 0.4857512783794949,-0.13277417374196251 l 2.1075728096758484 7.979932908724956" fill="#ff6309" stroke="none" /><path d="M 94.63758080256005 79.69619591428918 l -2.011334153315651 -7.615543115188794 a28.876672013965887,28.876672013965887 0 0,0 0.48167816813575653,-0.12279049006959966 l 1.879947096494895 7.649036601427257" fill="#ff5e08" stroke="none" /><path d="M 94.98787191387505 79.60689891045804 l -2.0687192423227865 -8.417103455786968 a29.6675965462738,29.6675965462738 0 0,0 0.4969694157014884,-0.11761660425869865 l 1.9235261396587642 8.451465972186538" fill="#ff6909" stroke="none" /><path d="M 95.33964822691252 79.52364482259891 l -1.9717908882582913 -8.663528533768053 a29.885082214725514,29.885082214725514 0 0,0 0.5025778201619296,-0.10984404548914505 l 1.8223703439428405 8.696186077353067" fill="#ff6c09" stroke="none" /><path d="M 95.692805502759 79.44645832069477 l -1.6926891300169675 -8.077359080532823 a29.252813229847362,29.252813229847362 0 0,0 0.4937228393448597,-0.09903615686925625 l 1.5533998812049714 8.10529919347929" fill="#ff6309" stroke="none" /><path d="M 96.40284397218896 79.31037775812273 l -2.1307436224798955 -12.25531511632112 a33.43916464177027,33.43916464177027 0 0,0 0.5679415904206051,-0.09371522873072712 l 1.9194728259204048 12.290176607991473" fill="#ff9c0e" stroke="none" /><path d="M 97.47563105711357 79.15227682838746 l -0.9921736481860695 -8.193953428970975 a29.25380405293826,29.25380405293826 0 0,0 0.5004257364198945,-0.05622866228356164 l 0.850981208256457 8.209818044725136" fill="#ff6309" stroke="none" /><path d="M 98.91598698831166 79.02799685794201 l -0.5922765895386735 -11.458558488542987 a32.47385524546463,32.47385524546463 0 0,0 0.5584871680743613,-0.024049632266250186 l 0.3949485890749881 11.46705584733343" fill="#ff8f0d" stroke="none" /><path d="M 99.63851952072746 79.00311137660856 l -0.21301330278489233 -12.373051521000612 a33.37488499374838,33.37488499374838 0 0,0 0.5744937820574251,-0.004944849356328149 l 3.030972659482114e-15 12.374884993748381" fill="#ff9b0e" stroke="none" /></svg>