<?xml version="1.0" encoding="utf-8" ?>
<svg baseProfile="full" height="200mm" version="1.1" viewBox="0,0,200,200" width="200mm" xmlns="http://www.w3.org/2000/svg" xmlns:ev="http://www.w3.org/2001/xml-events" xmlns:xlink="http://www.w3.org/1999/xlink"><defs /><rect fill="#1a1a1a" height="200" width="200" x="0" y="0" /><rect fill="#1a1a1a" height="200" width="180" x="10" y="0" /><text alignment-baseline="middle" fill="#e1ed5e" style="dominant-baseline: central; font-size:9.0px; font-family:Arial;" text-anchor="middle" x="100.0" y="100.0">2023</text><line stroke="#e1ed5e" stroke-width="0.3" x1="100.0" x2="100.0" y1="15.0" y2="10.0" /><path d="M 100.0 14.0 a86.0,86.0 0 0,1 42.46469731375804,11.215312516191453" fill="none" id="id97" stroke="none" /><text fill="#e1ed5e" style="font-size:6.75px; font-family:Arial;" text-anchor="middle"><textPath startOffset="22.20632615414155" xlink:href="#id97">January</textPath></text><path d="M 102.52436894288641 79.15227682838746 l 2.543354609855855 -21.004517973863166 a42.15794006952983,42.15794006952983 0 0,0 0.7196666948273978,0.0934333915610357 l -2.904536033191099 20.957626259137996" fill="red" stroke="none" /><path d="M 104.66035177308747 79.52364482259891 l 6.781229379257157 -29.79493138499834 a51.55688151842166,51.55688151842166 0 0,0 0.8636423662981135,0.20439624493702394 l -7.293095432517794 29.673789227920444" fill="red" stroke="none" /><path d="M 107.08798089147638 80.2323363322302 l 8.185248943650521 -22.8278335724109 a45.25094402037212,45.25094402037212 0 0,0 0.7309485708183795,0.2692145273611535 l -8.576979840241476 22.683555777243424" fill="red" stroke="none" /><path d="M 107.76421540070413 80.48803036053334 l 14.554142167531165 -36.57548965934091 a60.36482564489855,60.36482564489855 0 0,0 0.9621467072777198,0.39248379996367594 l -15.181572744397272 36.31954497319366" fill="red" stroke="none" /><path d="M 108.43124777332544 80.76684994638697 l 19.42872195496691 -44.32031115157469 a69.39178873916327,69.39178873916327 0 0,0 1.0898406075119793,0.4889797124994319 l -20.18874468094567 43.97931110855873" fill="red" stroke="none" /><path d="M 110.05341064243156 81.56283822128135 l 18.853368629477593 -34.5755903005097 a60.38173375192705,60.38173375192705 0 0,0 0.9082445310618953,0.5054370982004553 l -19.445737249611522 34.24593780474906" fill="red" stroke="none" /><line stroke="#e1ed5e" stroke-width="0.3" x1="143.23703022742887" x2="145.7803849466894" y1="26.81831364943548" y2="22.513508569990506" /><path d="M 143.74570117128098 25.957352633546492 a86.0,86.0 0 0,1 28.547481713284135,27.462654790039103" fill="none" id="id98" stroke="none" /><text fill="#e1ed5e" style="font-size:6.75px; font-family:Arial;" text-anchor="middle"><textPath startOffset="19.985693538727396" xlink:href="#id98">February</textPath></text><path d="M 114.94478906791727 85.2469230424477 l 16.874135881221566 -16.657674063950495 a44.711064230834054,44.711064230834054 0 0,0 0.5359701273698378,0.552364329358902 l -17.158370272294516 16.36474553904148" fill="red" stroke="none" /><path d="M 115.4437574822437 85.77008943001954 l 17.862317821448016 -16.45837714455265 a45.288692352342736,45.288692352342736 0 0,0 0.523313771784756,0.5778561373341489 l -18.14297523384881 16.148468219948953" fill="red" stroke="none" /><path d="M 116.60985879189232 87.15038557335679 l 15.755723972761002 -12.188844023250894 a40.92010935032674,40.92010935032674 0 0,0 0.42620059255127035,0.5608300211255669 l -15.963200505536385 11.915829226244293" fill="red" stroke="none" /><path d="M 117.04232023915458 87.72973835380427 l 25.667668705146795 -18.480406801441784 a52.62838364987923,52.62838364987923 0 0,0 0.5229942622785457,0.7397382944674233 l -25.981975587229222 18.035842006642568" fill="red" stroke="none" /><path d="M 117.65298651832404 88.62581576622439 l 17.412903521779135 -11.219493794780254 a41.7143971688751,41.7143971688751 0 0,0 0.38371763677440496,0.6069491513873164 l -17.603448754799498 10.91809699567873" fill="red" stroke="none" /><line stroke="#e1ed5e" stroke-width="0.3" x1="172.23445277983987" x2="176.4835382374775" y1="55.19839476539836" y2="52.563006222186495" /><path d="M 173.08426987136738 54.67131705675599 a86.0,86.0 0 0,1 12.851231095245387,41.99856678651699" fill="none" id="id99" stroke="none" /><text fill="#e1ed5e" style="font-size:6.75px; font-family:Arial;" text-anchor="middle"><textPath startOffset="22.20632615414155" xlink:href="#id99">March</textPath></text><path d="M 118.3937258080291 89.86733742301442 l 22.694614903243735 -12.50191927014689 a46.91029777991374,46.91029777991374 0 0,0 0.38352943771720094,0.710621800063224 l -22.906452440179404 12.109416486751208" fill="red" stroke="none" /><path d="M 119.04729006885535 91.15688171328212 l 20.238733911783275 -9.396271979285471 a43.31358952433856,43.31358952433856 0 0,0 0.3081404723303251,0.6789466852124401 l -20.397476701076947 9.046503285230967" fill="red" stroke="none" /><path d="M 119.34039704204932 91.81776055985345 l 25.929716993705163 -10.969948165823773 a49.154750684999904,49.154750684999904 0 0,0 0.3229661705259914,0.7820881993755422 l -26.114704851117352 10.521985395994928" fill="red" stroke="none" /><path d="M 119.97218684219823 93.5106431181261 l 40.31098564367034 -13.097833210190418 a63.38547862613048,63.38547862613048 0 0,0 0.3282296766342508,1.040577771778107 l -40.5304708040728 12.40200527198589" fill="red" stroke="none" /><path d="M 120.28053869075195 94.5502522615342 l 29.118488571396522 -7.824664801032787 a51.15148016152891,51.15148016152891 0 0,0 0.22117819185382223,0.8522897974755254 l -29.248863095120647 7.322278578008412" fill="red" stroke="none" /><path d="M 120.78858239683441 97.02765380044208 l 23.197540265624184 -3.31677838014194 a44.433456706133484,44.433456706133484 0 0,0 0.10173992257720559,0.7580805969748315 l -23.251196187259225 2.916979441102444" fill="red" stroke="none" /><path d="M 120.91429891909075 98.10471618934814 l 25.242209969980195 -2.2874853269649273 a46.34564564751996,46.34564564751996 0 0,0 0.0651609100219911,0.7951281488010374 l -25.27784536382168 1.852643260956121" fill="red" stroke="none" /><line stroke="#e1ed5e" stroke-width="0.3" x1="184.98032266829074" x2="189.97916517819016" y1="98.17113171792111" y2="98.06355123074" /><path d="M 185.9800911702706 98.14961562048488 a86.0,86.0 0 0,1 -9.607161424134198,41.387399972396054" fill="none" id="id100" stroke="none" /><text fill="#e1ed5e" style="font-size:6.75px; font-family:Arial;" text-anchor="middle"><textPath startOffset="21.466115282336823" xlink:href="#id100">April</textPath></text><path d="M 120.99513854157772 99.54816195383933 l 24.201693570084984 -0.5208465719257236 a45.207297511531095,45.207297511531095 0 0,0 0.010046768367315766,0.7781332819758077 l -24.207073345570013 0.10417703188945314" fill="red" stroke="none" /><path d="M 120.9764740272857 100.99374915477107 l 23.889920475766775 1.1317721104824372 a44.916713997715625,44.916713997715625 0 0,0 -0.043234795049286893,0.7719863090975317 l -23.86689932982996 -1.5428301359153924" fill="red" stroke="none" /><path d="M 118.97047184881838 109.00673069616215 l 17.906854246549383 8.501750251622962 a40.82259282606932,40.82259282606932 0 0,0 -0.3068434921018366,0.6321884777700219 l -17.757857497832834 -8.80872768535826" fill="red" stroke="none" /><line stroke="#e1ed5e" stroke-width="0.3" x1="174.80103733775053" x2="179.2010983576182" y1="140.37084112569926" y2="142.7455964860345" /><path d="M 175.68104954172406 140.8457921977663 a86.0,86.0 0 0,1 -30.038265399797805,32.042727171017184" fill="none" id="id101" stroke="none" /><text fill="#e1ed5e" style="font-size:6.75px; font-family:Arial;" text-anchor="middle"><textPath startOffset="22.206326154141568" xlink:href="#id101">May</textPath></text><path d="M 118.48025628344425 109.97397251340804 l 24.24398222408618 13.084710980724662 a48.54959773809598,48.54959773809598 0 0,0 -0.40324738843636054,0.7320111411337347 l -24.01515842619831 -13.5000926402562" fill="red" stroke="none" /><path d="M 118.30583269289576 110.29060199501025 l 20.557343057123497 11.556285858432632 a44.582877186850496,44.582877186850496 0 0,0 -0.3818162603732704,0.6657288333491612 l -20.355374800597847 -11.908434537640108" fill="red" stroke="none" /><path d="M 117.14729908036423 112.12312394758627 l 20.410892899802807 14.43048163710934 a45.996866788583134,45.996866788583134 0 0,0 -0.46264132157886995,0.6425683319195828 l -20.159471785848332 -14.779683574480053" fill="red" stroke="none" /><path d="M 116.71984013943494 112.70617746262583 l 22.76821901236205 17.302619454875998 a49.596720738489196,49.596720738489196 0 0,0 -0.5224026912234789,0.6752758989977938 l -22.4670095039205 -17.691973347987044" fill="red" stroke="none" /><path d="M 116.0416608686014 113.55231037782055 l 30.190189688547424 25.505265594119493 a60.521717149651415,60.521717149651415 0 0,0 -0.6791617133311435,0.7900185080375213 l -29.746685465645502 -26.02116120131854" fill="red" stroke="none" /><path d="M 115.32070863581623 114.36230785411682 l 20.15811249221699 18.897103538299486 a48.63059936711626,48.63059936711626 0 0,0 -0.5777626640290373,0.6057818433697546 l -19.829843276808987 -19.24129249825175" fill="red" stroke="none" /><path d="M 114.55890576462653 115.13401014063108 l 14.478123415312453 15.050036735385632 a41.883478239160155,41.883478239160155 0 0,0 -0.5238708983095127,0.49535263272444313 l -14.216916682612132 -15.297024004855995" fill="red" stroke="none" /><path d="M 114.29624159901734 115.38237550388516 l 16.140523598094163 17.366773854204425 a44.709098171877244,44.709098171877244 0 0,0 -0.5682323069049641,0.5190667396997263 l -15.839191741722335 -17.642033360490732" fill="red" stroke="none" /><path d="M 113.48314897796784 116.09983520530334 l 19.62196689903725 23.430018758572697 a51.56120684812663,51.56120684812663 0 0,0 -0.6853463352189608,0.5639933757442556 l -19.2157504352736 -23.76430725317413" fill="red" stroke="none" /><path d="M 112.92097659922987 116.55440617244103 l 12.16992300965169 15.592153351714755 a40.77933952901965,40.77933952901965 0 0,0 -0.5570676658040666,0.4271357315546786 l -11.89972661535413 -15.799328425096805" fill="red" stroke="none" /><path d="M 112.04921762599082 117.19931262002967 l 11.30236001082836 16.133231982717533 a40.69833789999938,40.69833789999938 0 0,0 -0.5772247500383999,0.39702044649269264 l -11.022978376167078 -16.325393218575318" fill="red" stroke="none" /><line stroke="#e1ed5e" stroke-width="0.3" x1="143.8653032363475" x2="146.44561519142675" y1="172.8068346515853" y2="177.08958963109032" /><path d="M 144.38136562736335 173.6633856474863 a86.0,86.0 0 0,1 -40.68145358897372,12.25698825130547" fill="none" id="id102" stroke="none" /><text fill="#e1ed5e" style="font-size:6.75px; font-family:Arial;" text-anchor="middle"><textPath startOffset="21.466115282336833" xlink:href="#id102">June</textPath></text><path d="M 110.21172684928248 118.3499491758327 l 14.318623230238348 25.729831244088995 a50.445664996036676,50.445664996036676 0 0,0 -0.7623953957075359,0.4157187574170984 l -13.873605022662165 -25.972490653265865" fill="red" stroke="none" /><path d="M 108.59647513512805 119.15986991738527 l 12.506066114950919 27.873587275502576 a51.5505901297599,51.5505901297599 0 0,0 -0.8127302191026459,0.3562770441151041 l -12.02441522119052 -28.084728872912134" fill="red" stroke="none" /><path d="M 107.2578585660854 119.70592522655815 l 7.564808738310886 20.539330436521745 a42.88813436608642,42.88813436608642 0 0,0 -0.6949520574220408,0.2491850825816569 l -7.210137120259111 -20.666503060143363" fill="red" stroke="none" /><path d="M 106.57524785965236 119.94407469862006 l 7.406618490731311 22.465792255493124 a44.65522815646084,44.65522815646084 0 0,0 -0.7320877087792146,0.234391365783238 l -7.018809436861156 -22.58995646793607" fill="red" stroke="none" /><path d="M 105.88484417918355 120.15858648285463 l 7.341078565692581 25.146930426367806 a47.19655596402424,47.19655596402424 0 0,0 -0.7818195615567007,0.22095001748044474 l -6.907127836031275 -25.269569237186772" fill="red" stroke="none" /><path d="M 104.48393922423573 120.51570834832081 l 5.048535120538487 23.098946916898978 a44.644218226302755,44.644218226302755 0 0,0 -0.7521669336321953,0.15762389412473776 l -4.650176725476914 -23.18242679175026" fill="red" stroke="none" /><path d="M 102.34483914955558 120.86867818915974 l 2.4260938506730123 21.591831506220853 a42.727703955211304,42.727703955211304 0 0,0 -0.7315947411514214,0.07583278623076738 l -2.0540665129159885 -21.63039366090738" fill="red" stroke="none" /><path d="M 101.62511606390274 120.93702456842531 l 1.6333826839170924 21.04352676244267 a42.106822536652956,42.106822536652956 0 0,0 -0.723108963428097,0.04986982779264534 l -1.270910959710065 -21.0685249347516" fill="red" stroke="none" /><line stroke="#e1ed5e" stroke-width="0.3" x1="102.19456741930631" x2="102.32365962044197" y1="184.97166512339345" y2="189.96999836594603" /><path d="M 102.22038585953345 185.97133177190398 a86.0,86.0 0 0,1 -42.740103519485714,-10.115201625700543" fill="none" id="id103" stroke="none" /><text fill="#e1ed5e" style="font-size:6.75px; font-family:Arial;" text-anchor="middle"><textPath startOffset="22.20632615414155" xlink:href="#id103">July</textPath></text><path d="M 100.54218724476979 120.99299961872073 l 0.7116937270878658 27.556137267200146 a48.56532620975041,48.56532620975041 0 0,0 -0.8358793602721871,0.014390421227866419 l -0.23725467692301078 -27.56430516570717" fill="red" stroke="none" /><path d="M 99.81925306533755 120.99922214144158 l -0.20332634095801175 23.62250297056267 a44.623378001360635,44.623378001360635 0 0,0 -0.7680327420404042,-0.01322238016638636 l 0.6099187728910838 -23.615503113117125" fill="red" stroke="none" /><path d="M 99.09653310690486 120.98055641714683 l -0.9494920011125542 22.049364120832116 a43.06979821369501,43.06979821369501 0 0,0 -0.7404148117222523,-0.038270988446691453 l 1.3288948812482955 -22.029753325623222" fill="red" stroke="none" /><path d="M 98.37488393609728 120.93702456842531 l -1.535096122028555 19.77726141271486 a40.836748450558304,40.836748450558304 0 0,0 -0.7003612856870413,-0.06043011869567774 l 1.8753017254571378 -19.74790704174052" fill="red" stroke="none" /><path d="M 97.65516085044442 120.86867818915974 l -2.643426759821737 23.52605822782704 a44.674102322446146,44.674102322446146 0 0,0 -0.763443343967722,-0.0924423569567416 l 3.0479975268408483 -23.477070342144952" fill="red" stroke="none" /><path d="M 96.93821686468263 120.77559828337769 l -3.4586593619463573 23.468584915107932 a44.722074160992136,44.722074160992136 0 0,0 -0.7606248093022194,-0.11879395217373362 l 3.8621200348570937 -23.405572655587093" fill="red" stroke="none" /><path d="M 96.58105272829116 120.7198165907248 l -3.8486123134071315 23.323711928070832 a44.63910647301506,44.63910647301506 0 0,0 -0.7570601753777613,-0.13162461554101176 l 4.249521460256942 -23.254008734008814" fill="red" stroke="none" /><path d="M 95.86986931433489 120.58985236759428 l -4.804612921794569 23.952334265484687 a45.42946217364982,45.42946217364982 0 0,0 -0.7653967437956188,-0.16039632947552193 l 5.216201127019575 -23.866081955282624" fill="red" stroke="none" /><path d="M 95.51606077576429 120.51570834832081 l -4.215410542515432 19.287088636537952 a40.74237762063176,40.74237762063176 0 0,0 -0.6838508179571361,-0.15564221973992545 l 4.546781509865431 -19.21166968322034" fill="red" stroke="none" /><path d="M 94.81253420990036 120.34920634021253 l -6.039475615816141 23.691440187900337 a45.449122763217844,45.449122763217844 0 0,0 -0.7564239415037396,-0.19977843798135772 l 6.44639000013137 -23.5839704006154" fill="red" stroke="none" /><path d="M 94.46302465271185 120.25689768951611 l -6.558256814923447 23.99323258438239 a45.873398286095906,45.873398286095906 0 0,0 -0.7599012131836185,-0.21475567329374734 l 6.97028919621168 -23.876788117750124" fill="red" stroke="none" /><path d="M 93.76903079525671 120.05430185196036 l -5.857583181021137 18.852563281125004 a40.74159119704905,40.74159119704905 0 0,0 -0.6679266769607062,-0.21384902953355592 l 6.181231203072783 -18.74894140493174" fill="red" stroke="none" /><path d="M 93.42475214034765 119.94407469862007 l -8.636807356227518 26.197207275970328 a48.58420037573572,48.58420037573572 0 0,0 -0.791992489983664,-0.2686868531229064 l 9.086469579148407 -26.0446574359493" fill="red" stroke="none" /><path d="M 92.7421414339146 119.70592522655815 l -8.713289806261395 23.657589333836853 a46.21116721487464,46.21116721487464 0 0,0 -0.7440653223226291,-0.28134183776365257 l 9.119225349344307 -23.504099245966568" fill="red" stroke="none" /><path d="M 91.7346041902142 119.30500536409082 l -11.250748296797287 26.27771993236657 a49.584924384748376,49.584924384748376 0 0,0 -0.7817401577356812,-0.34269191192577453 l 11.701409129190711 -26.080163467146342" fill="red" stroke="none" /><path d="M 91.07499286063937 119.00905698771935 l -13.031137662310789 27.754559135896333 a51.66147585492357,51.66147585492357 0 0,0 -0.8017057396919504,-0.3848674746297099 l 13.50695607000298 -27.52613738476706" fill="red" stroke="none" /><path d="M 90.42595943632237 118.69057910512821 l -9.263488826309201 18.08431555580291 a41.318826106766366,41.318826106766366 0 0,0 -0.6302283761391908,-0.32970569996347837 l 9.573408104974886 -17.922180436894713" fill="red" stroke="none" /><line stroke="#e1ed5e" stroke-width="0.3" x1="58.666819895761336" x2="56.23545636021788" y1="174.27360380694188" y2="178.64263932499728" /><path d="M 58.180547188652646 175.14741091055294 a86.0,86.0 0 0,1 -31.652253787137756,-30.449443065178592" fill="none" id="id104" stroke="none" /><text fill="#e1ed5e" style="font-size:6.75px; font-family:Arial;" text-anchor="middle"><textPath startOffset="22.20632615414155" xlink:href="#id104">August</textPath></text><path d="M 89.7882731507175 118.34994917583269 l -11.92680032862853 21.431848216349 a45.52697869790724,45.52697869790724 0 0,0 -0.6814981853351939,-0.3869724556434104 l 12.293947280884932 -21.223372594910956" fill="red" stroke="none" /><path d="M 89.1626897886671 117.98757091392108 l -13.082572478323618 21.714216498506534 a46.35075740080765,46.35075740080765 0 0,0 -0.6798570180162017,-0.41762370816536737 l 13.454408696272129 -21.485804323512788" fill="red" stroke="none" /><path d="M 88.24862548938628 117.40417183066458 l -22.059599052304662 32.670991131728066 a60.421054931063104,60.421054931063104 0 0,0 -0.8569521540494911,-0.5894195056621644 l 22.618708090977044 -32.2864308367008" fill="red" stroke="none" /><path d="M 87.65650970185807 116.9893568818739 l -14.624839168803835 20.12936422174027 a45.88126252192312,45.88126252192312 0 0,0 -0.6349421173829669,-0.4697149991177368 l 14.969166256605366 -19.874639273882767" fill="red" stroke="none" /><path d="M 87.07902340077011 116.55440617244103 l -16.124869760054782 20.659246724552435 a47.207172682390976,47.207172682390976 0 0,0 -0.6362684056070753,-0.5054901024749131 l 16.478095658379214 -20.378622708072392" fill="red" stroke="none" /><path d="M 86.51685102203217 116.09983520530335 l -15.725445487857131 18.777296112220174 a45.49237606026751,45.49237606026751 0 0,0 -0.5960249146056678,-0.5079453627113347 l 16.046335879039855 -18.50382635928589" fill="red" stroke="none" /><path d="M 86.24171649860922 115.8653595955263 l -16.07261262993348 18.534127384983407 a45.53248366298629,45.53248366298629 0 0,0 -0.5877108518099189,-0.5185864947532213 l 16.389265834649986 -18.2547177484579" fill="red" stroke="none" /><path d="M 85.70375840098266 115.38237550388516 l -16.78913194156938 18.06465917078823 a45.66185034234391,45.66185034234391 0 0,0 -0.5711300866830072,-0.5400391451013901 l 17.097597862643205 -17.77298538894091" fill="red" stroke="none" /><path d="M 85.44109423537348 115.13401014063109 l -16.620264138293518 17.276796077631175 a44.97333649567155,44.97333649567155 0 0,0 -0.5532792202607704,-0.5415001668647235 l 16.915193310930086 -16.988145807843882" fill="red" stroke="none" /><path d="M 84.9287848128048 114.62390073753433 l -19.85016160659779 19.261007778956966 a48.658910616094225,48.658910616094225 0 0,0 -0.5780990197977335,-0.6061345110484992 l 20.178767177774482 -18.916466151325967" fill="red" stroke="none" /><path d="M 84.43433777217949 114.09645910891817 l -16.213183050871603 14.682862094587408 a42.87358552980608,42.87358552980608 0 0,0 -0.49068032694923575,-0.5512845489939028 l 16.463522227469177 -14.401603375852641" fill="red" stroke="none" /><path d="M 84.19399662182784 113.82643327865904 l -13.221604084093585 11.565708442022736 a38.566343567242335,38.566343567242335 0 0,0 -0.4327832257184509,-0.5034246653993106 l 13.418729819382813 -11.336406677461895" fill="red" stroke="none" /><path d="M 83.72743513129214 113.27417163493432 l -35.05377323323758 28.59474250705574 a66.23744374886874,66.23744374886874 0 0,0 -0.7130999801377593,-0.8897018693562653 l 35.5407911254302 -27.987112804121214" fill="red" stroke="none" /><path d="M 83.06392112726016 112.41649034213515 l -22.42971542705089 16.444086442292466 a48.81187000293349,48.81187000293349 0 0,0 -0.4909549198359271,-0.6818934435213495 l 22.709450139262426 -16.05555939331998" fill="red" stroke="none" /><path d="M 82.6465618267979 111.8261652097733 l -20.056765889421467 13.668451439688175 a45.27139103352287,45.27139103352287 0 0,0 -0.43330519102260007,-0.6477324689584387 l 20.289074185854798 -13.321182056523915" fill="red" stroke="none" /><path d="M 82.24976979558568 111.22182372390057 l -7.530988201183831 4.761145128103339 a29.909785980439274,29.909785980439274 0 0,0 -0.27137484996368183,-0.43754266577479684 l 7.61182769081547 -4.630806130963277" fill="red" stroke="none" /><path d="M 82.05923443525364 110.91462005526583 l -29.027336552172372 17.65935508938637 a54.97703767967594,54.97703767967594 0 0,0 -0.4848951797968994,-0.8127122124582367 l 29.327012607667502 -17.157080783042023" fill="red" stroke="none" /><line stroke="#e1ed5e" stroke-width="0.3" x1="26.63291911575756" x2="22.317208475507996" y1="142.92168965132927" y2="145.44649492493687" /><path d="M 25.769776987707644 143.4266507060508 a86.0,86.0 0 0,1 -11.730757126820373,-40.83630448921669" fill="none" id="id105" stroke="none" /><text fill="#e1ed5e" style="font-size:6.75px; font-family:Arial;" text-anchor="middle"><textPath startOffset="21.46611528233685" xlink:href="#id105">September</textPath></text><path d="M 81.69416730710424 110.29060199501025 l -25.04756721799582 14.080460010086952 a49.73395165367403,49.73395165367403 0 0,0 -0.4130844961713577,-0.7498683490538365 l 25.28622812361869 -13.647221142635294" fill="red" stroke="none" /><path d="M 81.51974371655577 109.97397251340807 l -25.528449946219215 13.777950595934572 a50.00919990762644,50.00919990762644 0 0,0 -0.4023299471463688,-0.7610566380016046 l 25.76183240159047 -13.336478942846842" fill="red" stroke="none" /><path d="M 81.18737489456691 109.33194174019688 l -21.75629914779515 10.79214171290134 a45.28593986980321,45.28593986980321 0 0,0 -0.3403922918852426,-0.701308942150097 l 21.938844696295114 -10.41604381478596" fill="red" stroke="none" /><path d="M 80.87730276802145 108.67885076344099 l -20.317425692973213 9.221079189171052 a43.31201667717312,43.31201667717312 0 0,0 -0.30227438963367653,-0.681548950515617 l 20.473141167338166 -8.869981902162738" fill="red" stroke="none" /><path d="M 80.58989483394504 108.01547362559985 l -11.850026755988152 4.8935117101470444 a33.82067045731156,33.82067045731156 0 0,0 -0.21757543632596135,-0.5400043897293677 l 11.932504806571501 -4.688807952574871" fill="red" stroke="none" /><path d="M 80.45479744820244 107.68017299344265 l -26.26761332592146 10.321704977643344 a49.22277632490528,49.22277632490528 0 0,0 -0.3030850739571163,-0.7912594886824195 l 26.441392679472084 -9.868021922127767" fill="red" stroke="none" /><path d="M 80.32549172779594 107.34259656027581 l -25.5126744496574 9.521420971021058 a48.23148939888527,48.23148939888527 0 0,0 -0.2835913712545735,-0.7803216560451133 l 25.6727900819172 -9.080851517969828" fill="red" stroke="none" /><path d="M 79.97269907076064 106.31721596034903 l -28.681393922167963 9.046978426616104 a51.07441065042224,51.07441065042224 0 0,0 -0.2572526312782109,-0.840716483554828 l 28.832873325952306 -8.551934970509228" fill="red" stroke="none" /><path d="M 79.86692584326677 105.97154293290107 l -5.486554552401938 1.6273320114114231 a26.722804411461812,26.722804411461812 0 0,0 -0.12700631634839948,-0.44212564887215294 l 5.5137535056364415 -1.5326488870346742" fill="red" stroke="none" /><path d="M 79.67330655649465 105.27499134158121 l -29.362879791651746 7.619977006852632 a51.33550327988566,51.33550327988566 0 0,0 -0.21460363633061305,-0.8572348500371324 l 29.48969474227742 -7.1134143174181075" fill="red" stroke="none" /><path d="M 79.50377843672027 104.57218783832718 l -23.012147823492455 5.13342725572699 a44.57776543356281,44.57776543356281 0 0,0 -0.16061997490699653,-0.7503630496224893 l 23.097101837123894 -4.736550386688337" fill="red" stroke="none" /><path d="M 79.35854240842038 103.8639653848113 l -27.084255591175843 5.070021126820847 a48.554709491383676,48.554709491383676 0 0,0 -0.14671281230549787,-0.82284336531331 l 27.16751484582053 -4.603059010774324" fill="red" stroke="none" /><line stroke="#e1ed5e" stroke-width="0.3" x1="15.007084014347285" x2="10.007500721073583" y1="101.09737516637583" y2="101.16192664675087" /><path d="M 14.007167355692545 101.11028546245083 a86.0,86.0 0 0,1 10.666146001902534,-42.60595125391555" fill="none" id="id106" stroke="none" /><text fill="#e1ed5e" style="font-size:6.75px; font-family:Arial;" text-anchor="middle"><textPath startOffset="22.20632615414155" xlink:href="#id106">October</textPath></text><path d="M 79.00175016825051 100.2711162175752 l -13.055509377725029 0.16856453987201261 a34.0565975321279,34.0565975321279 0 0,0 -0.0025229495757636364,-0.5862446291664922 l 13.056476624590296 0.05618956749815499" fill="red" stroke="none" /><path d="M 79.00486145842228 99.54816195383935 l -36.55590668727372 -0.7867225748712546 a57.56437126682852,57.56437126682852 0 0,0 0.02984659346771024,-0.9904631325436208 l 36.536948399350365 1.4158558548398699" fill="red" stroke="none" /><path d="M 79.01574976396665 99.18683210126434 l -13.492372980516963 -0.5228475862666152 a34.50249970353079,34.50249970353079 0 0,0 0.028105394135818522,-0.5932604493660899 l 13.481373978147646 0.7550191422557142" fill="red" stroke="none" /><path d="M 79.03285615573316 98.82574320788736 l -30.415634881884532 -1.7034158830477584 a51.463297112077846,51.463297112077846 0 0,0 0.05714731779133073,-0.8840437122302971 l 30.38180697308879 2.226718659531067" fill="red" stroke="none" /><path d="M 79.05617556472873 98.46500227214037 l -11.787935613750285 -0.8639517791597634 a32.81955323650753,32.81955323650753 0 0,0 0.046143535720065715,-0.5630680130748608 l 11.771317594210723 1.0667337094424025" fill="red" stroke="none" /><path d="M 79.21141760316559 97.0276538004421 l -27.48983452703936 -3.930489516945772 a48.76940312946654,48.76940312946654 0 0,0 0.12597393810744814,-0.8300108555513916 l 27.41810469549261 4.403099484889256" fill="red" stroke="none" /><path d="M 79.26566170972629 96.67025291283419 l -14.810093735931533 -2.3783670251489686 a35.99985020503186,35.99985020503186 0 0,0 0.1035220923539377,-0.6109932491226052 l 14.766959782057372 2.6329460625874015" fill="red" stroke="none" /><path d="M 79.32604984820605 96.31383870115002 l -29.69147199631905 -5.293983693252846 a51.159737609147484,51.159737609147484 0 0,0 0.1620406148587558,-0.8656274439901243 l 29.59594565755043 5.804289214705543" fill="red" stroke="none" /><path d="M 79.3925641242962 95.95851677861259 l -32.814414552736 -6.435487977953205 a54.43951716088604,54.43951716088604 0 0,0 0.18825886029863237,-0.9180170615895219 l 32.69877639652237 6.9993806957061295" fill="red" stroke="none" /><path d="M 79.54389044137918 95.25157060432595 l -27.11032359051592 -6.293056707314615 a48.831137380710146,48.831137380710146 0 0,0 0.1971085131353453,-0.8171420395452583 l 26.997982277119764 6.758783978519269" fill="red" stroke="none" /><path d="M 79.62865764111835 94.90015583598534 l -19.278769412540264 -4.826325037685203 a40.87371035894619,40.87371035894619 0 0,0 0.17673727765061575,-0.6810408264607478 l 19.19283580301934 5.157462289694815" fill="red" stroke="none" /><path d="M 79.71946130924805 94.55025226153421 l -18.748539615897087 -5.038071864326943 a40.41365256305431,40.41365256305431 0 0,0 0.18631315323039807,-0.6702675416793284 l 18.65903969210033 5.360050709425214" fill="red" stroke="none" /><path d="M 79.81627453868168 94.20196356495316 l -21.86840056598261 -6.281981168479716 a43.75280709528832,43.75280709528832 0 0,0 0.2141681216287955,-0.7220684374559259 l 21.75702654724211 6.657478992682182" fill="red" stroke="none" /><path d="M 79.91906864156998 93.8553929516997 l -18.14025552626324 -5.550775508121665 a39.970502874190956,39.970502874190956 0 0,0 0.20697966659978634,-0.6561821054157073 l 18.042020375895248 5.862207779963787" fill="red" stroke="none" /><path d="M 80.02781315780177 93.51064311812611 l -29.192583575150476 -9.485245387491616 a51.69489885718922,51.69489885718922 0 0,0 0.2822608095790394,-0.8439238938073607 l 29.024985471799663 9.986342384221299" fill="red" stroke="none" /><path d="M 80.2630227832202 92.82701384747504 l -3.78801546268532 -1.3766739537142445 a25.030420861445897,25.030420861445897 0 0,0 0.1506538259409476,-0.40367735315189646 l 3.763757048242745 1.4416744438954825" fill="red" stroke="none" /><path d="M 80.38941819471856 92.48833698450439 l -31.402218439870357 -12.028347001707093 a54.62707918536503,54.62707918536503 0 0,0 0.343907248544232,-0.8752064357882854 l 31.190517641444433 12.567102442391143" fill="red" stroke="none" /><path d="M 80.52162464483688 92.15188598940014 l -3.738383351358243 -1.506247734825118 a25.030420861445897,25.030420861445897 0 0,0 0.16445977366622763,-0.3982523867650004 l 3.711901890805816 1.5703746920434296" fill="red" stroke="none" /><path d="M 80.65960295795068 91.81776055985345 l -25.884812034245662 -10.950950462232218 a49.105992422871196,49.105992422871196 0 0,0 0.33604701493150085,-0.7756428425043024 l 25.69247430947148 11.39489244932312" fill="red" stroke="none" /><path d="M 80.803312248108 91.48605970444005 l -26.016694514669492 -11.538687644897836 a49.46066945867844,49.46066945867844 0 0,0 0.35187187707467027,-0.775303038749243 l 25.81422032063147 11.98481269248915" fill="red" stroke="none" /><path d="M 80.95270993114464 91.15688171328213 l -18.271817290226462 -8.483088199248467 a41.14502649498499,41.14502649498499 0 0,0 0.30377139153387905,-0.6398200219337428 l 18.123087704850832 8.796350636822742" fill="red" stroke="none" /><path d="M 81.10775173730289 90.83032412892265 l -27.505832440240106 -13.350426298344571 a51.574576049032885,51.574576049032885 0 0,0 0.39452091564047,-0.795330091938591 l 27.271951511646222 13.821915978782124" fill="red" stroke="none" /><path d="M 81.26839172434947 90.50648371742162 l -19.658140057677187 -9.96309926923685 a43.03873448217752,43.03873448217752 0 0,0 0.34060150855544896,-0.6579337032463656 l 19.483729115961623 10.30000569474355" fill="red" stroke="none" /><path d="M 81.43458229118936 90.18545643968196 l -22.927309986335516 -12.120442756050458 a46.933890487395374,46.933890487395374 0 0,0 0.3837223270882379,-0.7109791947729347 l 22.715279560028804 12.513302934155865" fill="red" stroke="none" /><path d="M 81.6062741919709 89.86733742301443 l -43.178800352379106 -23.786165946798086 a70.29696228287531,70.29696228287531 0 0,0 0.5929795099412176,-1.0548443817536428 l 42.76296320114546 24.525893838486514" fill="red" stroke="none" /><line stroke="#e1ed5e" stroke-width="0.3" x1="26.266209847984243" x2="21.928928074336255" y1="57.711370442889674" y2="55.22380399835377" /><path d="M 25.398753493254645 57.213857153982495 a86.0,86.0 0 0,1 29.58750427330803,-30.492523968695096" fill="none" id="id107" stroke="none" /><text fill="#e1ed5e" style="font-size:6.75px; font-family:Arial;" text-anchor="middle"><textPath startOffset="21.46611528233685" xlink:href="#id107">November</textPath></text><path d="M 81.78341655067845 89.55222093294921 l -10.375058241120213 -5.950419660885731 a32.96032305781461,32.96032305781461 0 0,0 0.28650419526365395,-0.4897285414049945 l 10.271094371386233 6.128127614644617" fill="red" stroke="none" /><path d="M 81.96595687620814 89.24020034530311 l -23.836219238642304 -14.22159976954167 a48.75642714035164,48.75642714035164 0 0,0 0.43621725674672357,-0.7170264744867537 l 23.587886183609363 14.629794017235499" fill="red" stroke="none" /><path d="M 82.15384107792192 88.93136811851018 l -11.599964314238985 -7.194586543431884 a34.64995412529101,34.64995412529101 0 0,0 0.31873404420712315,-0.50416071378939 l 11.4744026737859 7.3931949049354895" fill="red" stroke="none" /><path d="M 82.34701348167596 88.62581576622439 l -25.722705999712463 -16.573671357437334 a51.59974160367996,51.59974160367996 0 0,0 0.48750296899200035,-0.7425004674310539 l 25.433606395362542 17.013989888846055" fill="red" stroke="none" /><path d="M 82.54541684631803 88.32363383020206 l -5.21385662844023 -3.4878460639522126 a27.272907707575257,27.272907707575257 0 0,0 0.2643855599684172,-0.3879531857890664 l 5.153046602803073 3.5770772730116946" fill="red" stroke="none" /><path d="M 82.7489923806493 88.02491185347247 l -29.985737427744752 -20.815123195069805 a57.50224380379356,57.50224380379356 0 0,0 0.5714282197529692,-0.8082446924924099 l 29.622996588187906 21.328194387894" fill="red" stroke="none" /><path d="M 82.95767976084542 87.72973835380427 l -12.596418947572786 -9.069267219654295 a36.52164225216735,36.52164225216735 0 0,0 0.37171620960428337,-0.5070204921571685 l 12.43844012545487 9.284750155482964" fill="red" stroke="none" /><path d="M 83.39014120810768 87.1503855733568 l -15.669263426680713 -12.12195695972022 a40.8107964723285,40.8107964723285 0 0,0 0.43462705232124904,-0.551932219379782 l 15.458282293765492 12.389881573053051" fill="red" stroke="none" /><path d="M 83.6137871275137 86.86637796730984 l -16.995151334483836 -13.62168890105557 a42.780394335253625,42.780394335253625 0 0,0 0.4654945054843813,-0.570641223033965 l 16.758158336923064 13.912214293697616" fill="red" stroke="none" /><path d="M 84.31358615837235 86.03803664274999 l -22.73056031038246 -20.231727490264355 a51.43026732160355,51.43026732160355 0 0,0 0.5942800681144719,-0.6562188942288242 l 22.378936601651947 20.619999171762736" fill="red" stroke="none" /><path d="M 84.5562425177563 85.77008943001954 l -19.499335486774513 -17.96672865848032 a47.51466430323495,47.51466430323495 0 0,0 0.5593894143506456,-0.5967176249302786 l 19.187178750453413 18.299715700288647" fill="red" stroke="none" /><path d="M 84.80347519578584 85.50635884689758 l -14.335964761094207 -13.672884525098878 a40.8107964723285,40.8107964723285 0 0,0 0.4892159951820854,-0.5041800863351771 l 14.098484502209004 13.917628806984178" fill="red" stroke="none" /><path d="M 85.05521093208273 85.24692304244772 l -14.442117922254118 -14.256854089326618 a41.29366055211929,41.29366055211929 0 0,0 0.5037122625474392,-0.5015491620128306 l 14.194569859539365 14.503339101989559" fill="red" stroke="none" /><path d="M 85.31137513191541 84.99185889309783 l -19.968385109710063 -20.402750025610302 a49.548355688151844,49.548355688151844 0 0,0 0.614675090867383,-0.5913169504079798 l 19.614226775230254 20.743450062780596" fill="red" stroke="none" /><path d="M 86.10567301691215 84.25364557470407 l -21.686888627126987 -24.577616110540774 a53.777741716026185,53.777741716026185 0 0,0 0.699382607496136,-0.6064977053899895 l 21.260612220984076 24.947278809350443" fill="red" stroke="none" /><path d="M 86.37877921826538 84.01681056812374 l -2.6142501141458854 -3.067570481841699 a25.030420861445897,25.030420861445897 0 0,0 0.33033297564243724,-0.2766443672327317 l 2.561059601544338 3.1121160064682427" fill="red" stroke="none" /><path d="M 86.65592168130627 83.78471172551755 l -13.186083845063493 -16.023298548815117 a41.75135907726299,41.75135907726299 0 0,0 0.5588650067586581,-0.451896635676077 l 12.908315439740335 16.24790128175533" fill="red" stroke="none" /><path d="M 86.93701828274178 83.55741782278169 l -2.507110191710663 -3.155739343957104 a25.030420861445897,25.030420861445897 0 0,0 0.33965976553192595,-0.2651098345915938 l 2.452417871019311 3.19842756777192" fill="red" stroke="none" /><path d="M 87.80319425747018 82.90503203632743 l -3.084695107902628 -4.323489703817751 a26.31111166590729,26.31111166590729 0 0,0 0.3709476593910587,-0.2598725411066488 l 3.0098163089279093 4.375947087688343" fill="red" stroke="none" /><path d="M 88.09926311788651 82.69761687909137 l -2.4511719403425634 -3.5637386514082903 a25.32532970496633,25.32532970496633 0 0,0 0.3613023758197395,-0.24395297697254484 l 2.3894648701162846 3.6054035406795006" fill="red" stroke="none" /><path d="M 88.39885842347998 82.49532879139004 l -16.115637204459723 -24.316480298133758 a50.17198958924971,50.17198958924971 0 0,0 0.7239889155976248,-0.47090252976655844 l 15.694681263077811 24.590281752059852" fill="red" stroke="none" /><path d="M 88.70189139769569 82.29822771554957 l -14.104460084000644 -22.098737885310957 a47.21621655359227,47.21621655359227 0 0,0 0.6888640214031126,-0.4313665870061243 l 13.72197691022529 22.33824881364001" fill="red" stroke="none" /><path d="M 89.00827224532344 82.1063720568725 l -2.0581318859829145 -3.3504692845032404 a24.93211791360575,24.93211791360575 0 0,0 0.3676156893136581,-0.22148433953145946 l 2.000154130451607 3.385400233493319" fill="red" stroke="none" /><line stroke="#e1ed5e" stroke-width="0.3" x1="56.762969772571076" x2="54.21961505331055" y1="26.818313649435495" y2="22.513508569990535" /><path d="M 56.25429882871897 25.957352633546506 a86.0,86.0 0 0,1 42.265352541879196,-11.944610805530505" fill="none" id="id108" stroke="none" /><text fill="#e1ed5e" style="font-size:6.75px; font-family:Arial;" text-anchor="middle"><textPath startOffset="22.20632615414155" xlink:href="#id108">December</textPath></text><path d="M 89.3179101791058 81.91981866633112 l -12.488962390539838 -21.13843905793229 a45.552144252554314,45.552144252554314 0 0,0 0.6785171221623846,-0.3930409124062713 l 12.123248535912133 21.350284127728607" fill="red" stroke="none" /><path d="M 89.63071344664047 81.73862282372117 l -13.614384806825095 -23.97632804350305 a48.57201081020354,48.57201081020354 0 0,0 0.7306061028702615,-0.4065815052368593 l 13.199654614882787 24.20712494630009" fill="red" stroke="none" /><path d="M 89.94658935756843 81.56283822128135 l -3.5540427713774534 -6.517833984400253 a28.42383862088766,28.42383862088766 0 0,0 0.4315753209976235,-0.230532590077064 l 3.4413224038515247 6.578045300979067" fill="red" stroke="none" /><path d="M 90.26544431104013 81.39251694778311 l -7.056351388787293 -13.488128587754378 a36.22240807894195,36.22240807894195 0 0,0 0.5549609482704576,-0.28427255250430156 l 6.823129952928072 13.607593665571185" fill="red" stroke="none" /><path d="M 90.58718382345135 81.22770947309562 l -23.231212666688087 -46.33077553961903 a72.82885300744606,72.82885300744606 0 0,0 1.1254788281709713,-0.5522675730826084 l 22.43026257150669 46.72379827283647" fill="red" stroke="none" /><path d="M 90.91171255644093 81.06846463323043 l -1.701724660038896 -3.5448109213207335 a24.93211791360575,24.93211791360575 0 0,0 0.3884920104656737,-0.1824022080227713 l 1.640454438273614 3.5735781119835126" fill="red" stroke="none" /><path d="M 91.23893434514133 80.91482961587045 l -26.28319696457602 -57.25551115238866 a84.0,84.0 0 0,0 1.3192715261329024,-0.5919186779338843 l 25.293743319976343 57.69945016083907" fill="red" stroke="none" /><path d="M 91.56875222667455 80.76684994638697 l -17.422986000552676 -39.74487681299148 a64.39603292992716,64.39603292992716 0 0,0 1.019040365546903,-0.4362999029806668 l 16.736261877215465 40.038896243934936" fill="red" stroke="none" /><path d="M 91.90106846888425 80.62456947434976 l -2.392389363962117 -5.723418420524246 a27.203309220504433,27.203309220504433 0 0,0 0.43358982841323684,-0.17687217780199072 l 2.2935156659605 5.763751484509815" fill="red" stroke="none" /><path d="M 92.23578459929587 80.48803036053334 l -10.207569438012463 -25.65227452978497 a48.60857950680007,48.60857950680007 0 0,0 0.7800909342496835,-0.30266316304906327 l 9.764495338763103 25.824180396724586" fill="red" stroke="none" /><path d="M 92.91201910852362 80.23233633223022 l -9.311493755659123 -25.968816737042328 a48.58773928185796,48.58773928185796 0 0,0 0.7897080856561594,-0.2755136447607025 l 8.86310366593968 26.125251234975238" fill="red" stroke="none" /><path d="M 93.25333710446033 80.11325718540243 l -1.3264337014305392 -3.9098508832274805 a25.12872380928604,25.12872380928604 0 0,0 0.41081535899305033,-0.13543936486149544 l 1.2589355201950796 3.9321039723482096" fill="red" stroke="none" /><path d="M 93.59665428221793 80.00007090966166 l -7.923500366865887 -24.747913429774417 a46.98540123206361,46.98540123206361 0 0,0 0.7723832273506527,-0.23998322850674167 l 7.496331766804506 24.880636793163685" fill="red" stroke="none" /><path d="M 94.63758080256005 79.69619591428918 l -8.135753068817683 -30.804517572564254 a52.860771818573326,52.860771818573326 0 0,0 0.8817456431093674,-0.2247765973142853 l 7.6042985370233165 30.9399971660474" fill="red" stroke="none" /><path d="M 94.98787191387505 79.60689891045804 l -0.965048710383092 -3.926542891362948 a25.043396850560796,25.043396850560796 0 0,0 0.41950827666782686,-0.09928405531845827 l 0.8973167467527311 3.942572858822277" fill="red" stroke="none" /><path d="M 95.33964822691252 79.52364482259891 l -6.362283769886376 -27.95419499530605 a49.66907170809954,49.66907170809954 0 0,0 0.8352854313455169,-0.18256104276065158 l 5.880155614387338 28.05956953616257" fill="red" stroke="none" /><path d="M 95.692805502759 79.44645832069477 l -0.8266574550469103 -3.944734436231881 a25.030420861445897,25.030420861445897 0 0,0 0.42245818754623626,-0.08474113814148858 l 0.7586328580335376 3.95837953045058" fill="red" stroke="none" /><path d="M 96.04723909329186 79.375362276772 l -5.188530658217081 -27.072612704700195 a48.56532620975041,48.56532620975041 0 0,0 0.8223841402579417,-0.15028544508500502 l 4.721751396856246 27.157913631135933" fill="red" stroke="none" /><path d="M 96.40284397218896 79.31037775812273 l -0.6903834617316881 -3.9708516713855806 a25.030420861445897,25.030420861445897 0 0,0 0.4251247656823669,-0.07014922894714343 l 0.6219294899104355 3.982147163272351" fill="red" stroke="none" /><path d="M 96.75951476605007 79.25152402106235 l -5.389914001778916 -34.51103557664841 a55.929396638351264,55.929396638351264 0 0,0 0.9524803401801936,-0.14037084287571774 l 4.795064681170073 34.59870090368509" fill="red" stroke="none" /><path d="M 98.19473922651362 79.07773832637324 l -0.8684843567838819 -10.065391792118772 a31.102790555427262,31.102790555427262 0 0,0 0.5337976597325962,-0.04143297195215486 l 0.6950965076889515 10.07885002625939" fill="red" stroke="none" /></svg>