<?xml version="1.0" encoding="utf-8" ?>
<svg baseProfile="full" height="200mm" version="1.1" viewBox="0,0,200,200" width="200mm" xmlns="http://www.w3.org/2000/svg" xmlns:ev="http://www.w3.org/2001/xml-events" xmlns:xlink="http://www.w3.org/1999/xlink"><defs /><rect fill="#1a1a1a" height="200" width="200" x="0" y="0" /><rect fill="#1a1a1a" height="200" width="180" x="10" y="0" /><text alignment-baseline="middle" fill="#e1ed5e" style="dominant-baseline: central; font-size:9.0px; font-family:Arial;" text-anchor="middle" x="100.0" y="100.0">2016</text><line stroke="#e1ed5e" stroke-width="0.3" x1="100.0" x2="100.0" y1="15.0" y2="10.0" /><path d="M 100.0 14.0 a86.0,86.0 0 0,1 42.35913384403234,11.155469271406648" fill="none" id="id13" stroke="none" /><text fill="#e1ed5e" style="font-size:6.75px; font-family:Arial;" text-anchor="middle"><textPath startOffset="22.145653131862478" xlink:href="#id13">January</textPath></text><path d="M 100.0 79.0 l 0.0 -12.181264126299048 a33.18126412629905,33.18126412629905 0 0,0 0.5696005216700916,0.004889335419118459 l -0.20910759682123684 12.179469189074364" fill="#ff960d" stroke="none" /><path d="M 101.08105385017728 79.02784411241856 l 0.5182943825647475 -10.054772558298714 a31.068121983076836,31.068121983076836 0 0,0 0.5323828173451335,0.0320268282683252 l -0.6908215520423433 10.044393752205696" fill="#ff790b" stroke="none" /><path d="M 101.80034050326958 79.07731436759882 l 1.804798158215493 -20.974490339856054 a42.05199613833835,42.05199613833835 0 0,0 0.718689513075304,0.0680606441069007 l -2.16458723467581 20.940417940243968" fill="#f7ff18" stroke="none" /><path d="M 102.15924093988457 79.11130261209362 l 2.1750492959507803 -21.041628892662402 a42.15374637969221,42.15374637969221 0 0,0 0.7191511400413862,0.0805823852473702 l -2.5359363375929633 21.001190746908062" fill="#f6ff19" stroke="none" /><path d="M 102.51750503828377 79.15144685158666 l 0.4143182236893843 -3.4311492432336785 a24.456073598727922,24.456073598727922 0 0,0 0.4163613667150624,0.05390631476622512 l -0.47315741229523844 3.4235313322670566" fill="#ff1d02" stroke="none" /><path d="M 103.23170211078529 79.25015418208739 l 3.7284398131611245 -23.93925820274964 a45.2278630245897,45.2278630245897 0 0,0 0.7661223031752741,0.12606513344376374 l -4.138839619389469 23.87172707081021" fill="#d1ff1c" stroke="none" /><path d="M 103.94208987418118 79.37332000966035 l 4.6488139744710875 -24.324559116235708 a45.76480663297178,45.76480663297178 0 0,0 0.7703819039881762,0.15409795660119144 l -5.0656923639902205 24.241171762971657" fill="#cbff1d" stroke="none" /><path d="M 104.64783097203109 79.52079915486377 l 4.084242204655329 -17.9959247469723 a39.45357260491794,39.45357260491794 0 0,0 0.6591900022454587,0.1555670456486076 l -4.392564360640672 17.923161557677464" fill="#ffe715" stroke="none" /><path d="M 105.3480935250658 79.69241777938227 l 11.177475984614047 -42.44269691856912 a64.88984496564257,64.88984496564257 0 0,0 1.0747569033102273,0.29292977322886415 l -11.904414288858966 42.24456665119611" fill="#35ff66" stroke="none" /><path d="M 106.38641147887787 79.99465700312896 l 5.768812956579532 -18.070724422135857 a39.969193026293375,39.969193026293375 0 0,0 0.651835228860662,0.21427118681927876 l -6.078170923087936 17.969032313914557" fill="#ffed16" stroke="none" /><path d="M 106.72888874123014 80.10723608172694 l 6.418600953287667 -18.97545320774788 a41.031631552047244,41.031631552047244 0 0,0 0.6652873193832187,0.23142146453774073 l -6.743394044715904 18.862473310641548" fill="#fffa17" stroke="none" /><path d="M 107.40779381753099 80.34994680014964 l 5.054396322739431 -13.407386744473518 a35.32846612527685,35.32846612527685 0 0,0 0.5656385826131403,0.2188011550554778 l -5.283807167846097 13.318645701280003" fill="#ffb210" stroke="none" /><path d="M 108.07796709384702 80.6158196554323 l 7.717635354800235 -18.51951534501912 a41.06325856096315,41.06325856096315 0 0,0 0.6483398208582354,0.2767377168555661 l -8.0344102508289 18.38430297850415" fill="#fffb17" stroke="none" /><path d="M 108.73861861582097 80.90454125486305 l 8.351675819118826 -18.24991890228624 a41.07012777556931,41.07012777556931 0 0,0 0.6385647734029886,0.2988805569782001 l -8.663729306393321 18.103862113737506" fill="#fffb17" stroke="none" /><path d="M 109.3889696526874 81.21577127319529 l 6.539572788427777 -13.083526262996799 a35.626847634732236,35.626847634732236 0 0,0 0.5447052834128806,0.27813039888942165 l -6.763205293554236 12.969337912434542" fill="#ffb610" stroke="none" /><path d="M 110.02825361518725 81.54914285379988 l 11.03136372466484 -20.2964667649926 a44.10059628599012,44.10059628599012 0 0,0 0.6620461564257089,0.3672258428662343 l -11.37815406924665 20.104108006693224" fill="#dfff1b" stroke="none" /><line stroke="#e1ed5e" stroke-width="0.3" x1="143.13028292997686" x2="145.6673583964461" y1="26.7553504044142" y2="22.446841604673864" /><path d="M 143.63769802327073 25.89364864446614 a86.0,86.0 0 0,1 29.32050498858742,28.57503671076993" fill="none" id="id14" stroke="none" /><text fill="#e1ed5e" style="font-size:6.75px; font-family:Arial;" text-anchor="middle"><textPath startOffset="20.669276256404974" xlink:href="#id14">February</textPath></text><path d="M 110.96478420261332 82.08984904055464 l 9.273035499995563 -15.146806593570066 a38.75992503833267,38.75992503833267 0 0,0 0.5644845448639955,0.3522801050915619 l -9.531684173649271 14.985390691636958" fill="#ffde14" stroke="none" /><path d="M 111.5731344415666 82.4767994020092 l 10.62943336359757 -16.094316886556694 a40.28760974501675,40.28760974501675 0 0,0 0.5738177913539975,0.38609021869734367 l -10.904147443048569 15.909476993802233" fill="#fff116" stroke="none" /><path d="M 112.16784306229584 82.88440491214696 l 12.568292174196667 -17.678876913357758 a42.691119313987166,42.691119313987166 0 0,0 0.5936484537178532,0.4297556996284247 l -12.869921638288488 17.46052044235626" fill="#efff19" stroke="none" /><path d="M 112.7482090630111 83.31218511350987 l 17.514384280351806 -22.926891242268997 a49.851273780453184,49.851273780453184 0 0,0 0.6755798459611275,0.5253349744275396 l -17.90537407094816 22.622855216220668" fill="#9cff22" stroke="none" /><path d="M 113.31354834802062 83.75963576809568 l 13.784365136440144 -16.814684160037185 a42.74263842353342,42.74263842353342 0 0,0 0.5634409210129575,0.47004245577978054 l -14.070980391614995 16.575579520345535" fill="#efff19" stroke="none" /><path d="M 113.86319453409587 84.22622945171908 l 14.341828627397526 -16.31836828480956 a42.725036061105115,42.725036061105115 0 0,0 0.5467481628500664,0.48890557863700235 l -14.619841817070967 16.06976717628917" fill="#efff19" stroke="none" /><path d="M 114.39649973595853 84.71141617570332 l 23.098594770859066 -24.52990718957056 a54.69364075188823,54.69364075188823 0 0,0 0.6780123588530822,0.6495205025212054 l -23.51627961557746 24.12977455674378" fill="#68ff28" stroke="none" /><path d="M 114.91283532996326 85.21462403516908 l 13.351277103589656 -13.237164309766323 a39.8010403770799,39.8010403770799 0 0,0 0.4768793850858464,0.48932025987893296 l -13.576543289826313 13.006021357819648" fill="#ffeb16" stroke="none" /><path d="M 115.6541949942343 86.00192230759917 l 12.822767255201066 -11.466197548707454 a38.20165824294395,38.20165824294395 0 0,0 0.43293200001218013,0.4925971437827643 l -13.017710319171837 11.24438812711339" fill="#ffd714" stroke="none" /><path d="M 115.8921839302757 86.27271002978787 l 11.134474339637068 -9.617693741569507 a35.713142143222214,35.713142143222214 0 0,0 0.3967652483931908,0.4673884649551554 l -11.29793415153737 9.425138494164798" fill="#ffb711" stroke="none" /><path d="M 116.57777611688842 87.10902102172516 l 13.570146330066573 -10.552227864556055 a38.19006644329604,38.19006644329604 0 0,0 0.39799145361061816,0.5209835884735947 l -13.749289761031498 10.31772336284158" fill="#ffd714" stroke="none" /><path d="M 117.01052211995028 87.68569379921539 l 11.59887890699973 -8.396693848632674 a35.319164063830996,35.319164063830996 0 0,0 0.35131619549892823,0.49417022550175466 l -11.741310201028618 8.196346396421415" fill="#ffb210" stroke="none" /><path d="M 117.21940702142032 87.97951657250589 l 14.429450420552932 -10.072877041139698 a38.59749673462434,38.59749673462434 0 0,0 0.37459837941682955,0.5465502305773571 l -14.600238536785087 9.823692075492293" fill="#ffdc14" stroke="none" /><path d="M 117.62189284568427 88.57770195909679 l 42.42415912511981 -27.49882739075331 a71.55684706684082,71.55684706684082 0 0,0 0.659284950022168,1.0365054457544076 l -42.88996176676787 26.76650827032023" fill="#3dffb1" stroke="none" /><line stroke="#e1ed5e" stroke-width="0.3" x1="172.87174338648825" x2="177.1583165268699" y1="56.24261187166439" y2="53.66864786411523" /><path d="M 173.72905801456457 55.72781907015455 a86.0,86.0 0 0,1 12.242430191666344,42.057860355516425" fill="none" id="id15" stroke="none" /><text fill="#e1ed5e" style="font-size:6.75px; font-family:Arial;" text-anchor="middle"><textPath startOffset="22.145653131862474" xlink:href="#id15">March</textPath></text><path d="M 118.00360718960297 89.18935116829356 l 16.116321223140833 -9.677387834976162 a39.79860753024022,39.79860753024022 0 0,0 0.346676743690873,0.5887329015624948 l -16.280071676961473 9.399303765120111" fill="#ffeb16" stroke="none" /><path d="M 118.36410011445183 89.81374322990088 l 13.785933814580494 -7.646825097647898 a36.76470441251632,36.76470441251632 0 0,0 0.30139118260152703,0.5545258295904509 l -13.915170346797362 7.409044434582845" fill="#ffc512" stroke="none" /><path d="M 118.70294669586156 90.45014215332178 l 19.291193614939065 -9.850220914984444 a42.66049406553467,42.66049406553467 0 0,0 0.3274296255196694,0.6550785874500145 l -19.45744315367047 9.517610471370679" fill="#f0ff19" stroke="none" /><path d="M 119.0197475246899 91.09779779509293 l 15.593838319237491 -7.298703712458653 a38.21740019308308,38.21740019308308 0 0,0 0.27300970199114377,0.5965754692572994 l -15.716832486083685 7.029939260986669" fill="#ffd714" stroke="none" /><path d="M 119.31412917781788 91.75594674310238 l 15.97958190305868 -6.8207333097404845 a38.374390368561535,38.374390368561535 0 0,0 0.25340648456131354,0.6080833135555723 l -16.094314232156474 6.545417486743634" fill="#ffd914" stroke="none" /><path d="M 119.4528033332814 92.08871423366111 l 14.585459844926698 -5.931779543016203 a36.74552785507411,36.74552785507411 0 0,0 0.23261900772013028,0.5863518574374255 l -14.685137527612953 5.6805266683652125" fill="#ffc512" stroke="none" /><path d="M 119.71291397450082 92.76114493625339 l 30.004154398029094 -11.017941095799252 a52.963171105684594,52.963171105684594 0 0,0 0.3060762590152105,0.8561497709331518 l -30.188870827088248 10.501256368485182" fill="#7aff26" stroke="none" /><path d="M 119.94978838288452 93.4421083053983 l 13.606732263962728 -4.472803159208654 a35.323027997046964,35.323027997046964 0 0,0 0.18441191495543552,0.5776676970462871 l -13.68150889469542 4.23856642847098" fill="#ffb210" stroke="none" /><path d="M 120.16314734710363 94.1308016681162 l 12.672519214365344 -3.688785652027809 a34.19848032256233,34.19848032256233 0 0,0 0.15923709403323233,0.565076270785136 l -12.73397480047316 3.47070145733966" fill="#ffa30f" stroke="none" /><path d="M 120.35273937422433 94.82641323984039 l 6.945706052921159 -1.7655713176803203 a28.166594355159294,28.166594355159294 0 0,0 0.11509738720135661,0.46963661686121616 l -6.974990966638807 1.6460788762110092" fill="#ff5107" stroke="none" /><path d="M 120.51834098615036 95.52812308129327 l 59.082894374419276 -12.876841837344106 a81.46983928672839,81.46983928672839 0 0,0 0.286084402274966,1.3690174286051662 l -59.29523648751861 11.860707957453537" fill="#4ae9ff" stroke="none" /><path d="M 120.77682067341334 96.94652285012252 l 14.178312921307954 -2.083723742411936 a35.33061275484127,35.33061275484127 0 0,0 0.0830361653769412,0.6008083282480475 l -14.211993603240108 1.8400271059638027" fill="#ffb210" stroke="none" /><path d="M 120.82617615685814 97.30363454192243 l 14.259112398066012 -1.8461275773051524 a35.378124822533934,35.378124822533934 0 0,0 0.07280803556548207,0.602954979646555 l -14.288702519891158 1.6010789207351845" fill="#ffb310" stroke="none" /><path d="M 120.9064616781168 98.02013634271609 l 23.0223489939367 -2.1802403859718074 a44.12535408029984,44.12535408029984 0 0,0 0.0649407067524538,0.7547094506066742 l -23.056383323386893 1.7847098879894712" fill="#deff1b" stroke="none" /><path d="M 120.96210409425399 98.7389718711861 l 15.750683837349849 -0.9475220272566656 a36.779158384916805,36.779158384916805 0 0,0 0.03250298670233446,0.6305492587826085 l -15.764628413508754 0.6770009750973265" fill="#ffc512" stroke="none" /><path d="M 120.98066250479742 99.09900007780936 l 12.87535205780238 -0.5529230165922768 a33.88721903572037,33.88721903572037 0 0,0 0.01996975916063837,0.5813977490435025 l -12.882946503959866 0.3318190029846543" fill="#ff9f0e" stroke="none" /><line stroke="#e1ed5e" stroke-width="0.3" x1="184.99686870605535" x2="189.99668451229388" y1="99.2704041080226" y2="99.22748670261217" /><path d="M 185.99683186730306 99.26182062694052 a86.0,86.0 0 0,1 -10.086455211305974,41.156179273409016" fill="none" id="id16" stroke="none" /><text fill="#e1ed5e" style="font-size:6.75px; font-family:Arial;" text-anchor="middle"><textPath startOffset="21.40746469413373" xlink:href="#id16">April</textPath></text><path d="M 120.99922638620191 99.81974689727618 l 18.859592563604178 -0.16188691969769992 a39.8602873530581,39.8602873530581 0 0,0 0.0,0.6842800448430513 l -18.859592563604178 -0.1618869196976976" fill="#ffec16" stroke="none" /><path d="M 120.99303781780057 100.54070618675476 l 19.05288961263909 0.4907348511692763 a40.05920835936169,40.05920835936169 0 0,0 -0.02360691629074629,0.6872896103999536 l -19.041658009351497 -0.8177307261333406" fill="#ffee16" stroke="none" /><path d="M 120.98066250479742 100.90099992219065 l 18.788445993023505 0.8068567126479662 a39.80576296212164,39.80576296212164 0 0,0 -0.03517769957359082,0.6824379739296959 l -18.77182670399334 -1.1292664799543928" fill="#ffeb16" stroke="none" /><path d="M 120.9064616781168 101.97986365728391 l 14.260370052230641 1.3504718703970828 a35.32417286614799,35.32417286614799 0 0,0 -0.062351551224388325,0.6031946973284119 l -14.235086108524586 -1.5950710900084262" fill="#ffb210" stroke="none" /><path d="M 120.86939407059847 102.33845913500097 l 14.249023531107945 1.596632807279573 a35.33819751263559,35.33819751263559 0 0,0 -0.07272586532571682,0.6022744921857978 l -14.219515579522565 -1.8410009763887794" fill="#ffb210" stroke="none" /><path d="M 120.77682067341334 103.0534771498775 l 28.458285838596456 4.182388003378788 a49.7639775114998,49.7639775114998 0 0,0 -0.1314681532191819,0.8441198525568454 l -28.382296193239004 -4.670296037867084" fill="#9dff22" stroke="none" /><path d="M 120.65975698304385 103.76489593502545 l 14.13066837946842 2.5750784960692776 a35.3633846328582,35.3633846328582 0 0,0 -0.11396054074083939,0.5962897042969234 l -14.084381546445421 -2.8172707653995155" fill="#ffb310" stroke="none" /><path d="M 120.592083275326 104.11899336999214 l 6.0052310410651435 1.2012143945171905 a27.124191038673406,27.124191038673406 0 0,0 -0.09524761615376362,0.4557943233209322 l -5.983725714087015 -1.3041251691235318" fill="#ff4306" stroke="none" /><path d="M 120.51834098615036 104.47187691870673 l 17.73626415393203 3.8655362218412477 a39.15261513998523,39.15261513998523 0 0,0 -0.1487596871325609,0.6554626295103922 l -17.667293605241806 -4.169433185290656" fill="#ffe315" stroke="none" /><path d="M 120.43855184770803 104.8234425847677 l 16.994837509013283 4.010735377583746 a38.46168663751491,38.46168663751491 0 0,0 -0.15716630784382313,0.6412921691368729 l -16.923483674653166 -4.301883371328718" fill="#ffda14" stroke="none" /><path d="M 120.35273937422433 105.17358676015961 l 30.038188366134715 7.635590019249567 a51.993466977113975,51.993466977113975 0 0,0 -0.22731177133004501,0.863139820641466 l -29.902687113999942 -8.150110344263837" fill="#85ff25" stroke="none" /><path d="M 120.26092885502905 105.52220625578681 l 19.550732039396248 5.328638955581124 a41.26389687091828,41.26389687091828 0 0,0 -0.1921355266151153,0.6818212020520041 l -19.456378020706552 -5.663468081536136" fill="#fffd17" stroke="none" /><path d="M 120.05942366710727 106.21446072829308 l 19.19826619562187 5.9476719423222395 a41.098463285819754,41.098463285819754 0 0,0 -0.21456389064090026,0.6721183314308702 l -19.093337589203713 -6.276359307444493" fill="#fffb17" stroke="none" /><path d="M 119.83427380445688 106.89939002012753 l 18.971563429517385 6.599294568698369 a41.086585268896584,41.086585268896584 0 0,0 -0.23744100008134839,0.6641647362126175 l -18.855482259392094 -6.923994261291908" fill="#fffb17" stroke="none" /><path d="M 119.71291397450082 107.23885506374661 l 13.462636201632805 4.943666490181381 a35.341632119938666,35.341632119938666 0 0,0 -0.2140176756940096,0.5677073116078221 l -13.375787842124353 -5.174042081983362" fill="#ffb210" stroke="none" /><path d="M 119.4528033332814 107.91128576633889 l 28.437570325053265 11.565312283651439 a51.69937872678744,51.69937872678744 0 0,0 -0.34139846109169686,0.8192320248741924 l -28.234846019425085 -12.051776817966909" fill="#88ff25" stroke="none" /><path d="M 119.16976305983485 108.57439118712176 l 9.475168955599171 4.238122554555934 a31.37981259583168,31.37981259583168 0 0,0 -0.22416473234817816,0.48984039547390046 l -9.401019758395936 -4.4001519322445235" fill="#ff7e0b" stroke="none" /><path d="M 119.0197475246899 108.90220220490707 l 15.665255532386025 7.332130574278655 a38.296253052416375,38.296253052416375 0 0,0 -0.283794824636763,0.5930220338284249 l -15.53708144978935 -7.5999651101721835" fill="#ffd814" stroke="none" /><path d="M 118.70294669586154 109.54985784667822 l 18.00772261787625 9.194871478791253 a41.219390084615824,41.219390084615824 0 0,0 -0.3271876061371163,0.6274253760708787 l -17.847226942764184 -9.502643097966635" fill="#fffd17" stroke="none" /><line stroke="#e1ed5e" stroke-width="0.3" x1="174.33088141563837" x2="178.70328620479359" y1="141.23008692659167" y2="143.65538615756765" /><path d="M 175.20536237346943 141.71514677278685 a86.0,86.0 0 0,1 -30.301960400862466,31.631185727798858" fill="none" id="id17" stroke="none" /><text fill="#e1ed5e" style="font-size:6.75px; font-family:Arial;" text-anchor="middle"><textPath startOffset="22.145653131862474" xlink:href="#id17">May</textPath></text><path d="M 118.36410011445183 110.18625677009912 l 13.29861615307325 7.376518205517059 a36.207439377591,36.207439377591 0 0,0 -0.30615396054625116,0.5409447131793148 l -13.17002882750562 -7.603719688795497" fill="#ffbe11" stroke="none" /><path d="M 118.00360718960297 110.81064883170644 l 16.120124586122568 9.6796716451672 a39.803043898006706,39.803043898006706 0 0,0 -0.3567718082758422,0.5827599363762854 l -15.951584813391321 -9.954968697668043" fill="#ffeb16" stroke="none" /><path d="M 117.81537515405839 111.11811171558189 l 18.64012919038006 11.632819232791404 a42.97218467828951,42.97218467828951 0 0,0 -0.39592178511590564,0.6224548070627791 l -18.43768971363826 -11.951087714532854" fill="#ecff1a" stroke="none" /><path d="M 117.423217284605 111.72311816256416 l 16.78007507124858 11.290383378892928 a41.22482821284571,41.22482821284571 0 0,0 -0.4000972898953948,0.5837539030097517 l -16.583788044537865 -11.576772016972724" fill="#fffd17" stroke="none" /><path d="M 116.79662413953412 112.60449989151573 l 18.500228586873988 13.882916428868626 a44.12993355670396,44.12993355670396 0 0,0 -0.4598927951605043,0.6020144316221578 l -18.25918381435918 -14.19845177373166" fill="#deff1b" stroke="none" /><path d="M 116.35404254752997 113.17365903436017 l 19.023367036621273 15.323877891205907 a45.42764268271906,45.42764268271906 0 0,0 -0.49441105855364414,0.6031011013218205 l -18.757509158829002 -15.648181274226221" fill="#cfff1d" stroke="none" /><path d="M 115.89218393027572 113.72728997021213 l 15.350609636853042 13.259490994385843 a41.28436140609915,41.28436140609915 0 0,0 -0.4678676783898462,0.5323475327225213 l -15.120730894504609 -13.521050804919657" fill="#fffd18" stroke="none" /><path d="M 115.41159269507618 114.26474011684316 l 22.188492467511075 20.537337372969866 a51.23427565449486,51.23427565449486 0 0,0 -0.6029643971788936,0.6403272947180911 l -21.832672236595922 -20.91520612763245" fill="#8dff24" stroke="none" /><path d="M 115.16444852881244 114.52719865689866 l 14.569858157852522 13.957594531697394 a41.17660060196491,41.17660060196491 0 0,0 -0.4933607711998091,0.506231613962728 l -14.328110585501905 -14.205648837727859" fill="#fffc17" stroke="none" /><path d="M 114.65682725009322 115.03919595460226 l 12.237422803254043 12.556673854246673 a38.533527173604405,38.533527173604405 0 0,0 -0.4776827304736134,0.457609250173202 l -12.020067586915117 -12.764895234725456" fill="#ffdb14" stroke="none" /><path d="M 114.39649973595853 115.28858382429668 l 12.890872277628056 13.689659639457973 a39.80375944119484,39.80375944119484 0 0,0 -0.5014709399009883,0.4641540154459223 l -12.653971566413102 -13.908931401036275" fill="#ffeb16" stroke="none" /><path d="M 113.86319453409587 115.77377054828091 l 1.8894694123363107 2.1498693461226757 a23.86217275256971,23.86217275256971 0 0,0 -0.3100043040164134,0.2677743343468377 l -1.8522856285570417 -2.181987812934231" fill="#ff1402" stroke="none" /><path d="M 113.59037401385872 116.0094264158162 l 3.7122582424725943 4.373030875292137 a26.73622352206258,26.73622352206258 0 0,0 -0.35244156564244655,0.2940192890775818 l -3.6366423426682526 -4.43611234828159" fill="#ff3d05" stroke="none" /><path d="M 113.03279911837588 116.46651593811092 l 9.866056149904496 12.465439646778282 a36.89736611959793,36.89736611959793 0 0,0 -0.5000296888947876,0.38882611048712373 l -9.650616516374479 -12.6329668088862" fill="#ffc612" stroke="none" /><path d="M 112.7482090630111 116.68781488649013 l 11.414530220607846 14.94198647011827 a39.803043898006706,39.803043898006706 0 0,0 -0.5465280352497045,0.41012482650018134 l -11.156349196447374 -15.135730323882466" fill="#ffeb16" stroke="none" /><path d="M 112.16784306229584 117.11559508785304 l 8.307605388553323 11.685687368926025 a35.3377681867227,35.3377681867227 0 0,0 -0.49742941633138205,0.34724436491462196 l -8.105780881048183 -11.82657654964577" fill="#ffb210" stroke="none" /><path d="M 111.5731344415666 117.5232005979908 l 9.03938761328972 13.686784961363266 a37.40239650178886,37.40239650178886 0 0,0 -0.53879820618149,0.3492424876715936 l -8.803103774851222 -13.839941290738755" fill="#ffcd13" stroke="none" /><path d="M 110.96478420261333 117.91015095944535 l 8.301653629584031 13.560127310434469 a36.89951274916236,36.89951274916236 0 0,0 -0.5430681280836827,0.32609680729955876 l -8.067652744942912 -13.700638118269952" fill="#ffc612" stroke="none" /><line stroke="#e1ed5e" stroke-width="0.3" x1="143.1302829299769" x2="145.66735839644613" y1="173.24464959558577" y2="177.55315839532614" /><path d="M 143.63769802327073 174.10635135553383 a86.0,86.0 0 0,1 -40.68552437913181,11.842963189579606" fill="none" id="id18" stroke="none" /><text fill="#e1ed5e" style="font-size:6.75px; font-family:Arial;" text-anchor="middle"><textPath startOffset="21.407464694133747" xlink:href="#id18">June</textPath></text><path d="M 110.34350942703117 118.27599006163325 l 11.014366105231158 19.461329531767284 a43.362012607189506,43.362012607189506 0 0,0 -0.6509584041745331,0.36107565359859506 l -10.678663512900531 -19.647538100799025" fill="#e7ff1a" stroke="none" /><path d="M 109.71004243097381 118.62028667847754 l 8.695530757141926 16.67482677552661 a39.80590607075927,39.80590607075927 0 0,0 -0.6085996597308028,0.3107553227028075 l -8.408003875697542 -16.821640049902253" fill="#ffeb16" stroke="none" /><path d="M 109.3889696526874 118.78422872680471 l 6.422803843346368 12.849910152418673 a35.36567437106025,35.36567437106025 0 0,0 -0.5453719606191891,0.26676875487630425 l -6.201271633465109 -12.9582726573922" fill="#ffb310" stroke="none" /><path d="M 108.73861861582097 119.09545874513695 l 8.259669464903759 18.048868413823044 a40.8490249304333,40.8490249304333 0 0,0 -0.6401365052867598,0.28632491660713316 l -7.948619556761372 -18.18799708134003" fill="#fff817" stroke="none" /><path d="M 108.07796709384702 119.3841803445677 l 4.767124500377973 11.439363390167795 a33.39292180135158,33.39292180135158 0 0,0 -0.5310198696846584,0.21596115812736913 l -4.570050169502874 -11.519511804874456" fill="#ff990e" stroke="none" /><path d="M 107.74402155503746 119.51999308798841 l 7.528988516275973 18.977969360331933 a41.41688000454313,41.41688000454313 0 0,0 -0.6631192313573581,0.2565087641125824 l -7.202097022425086 -19.104418012582556" fill="#ffff18" stroke="none" /><path d="M 107.06938296918513 119.77432235084164 l 4.82551930336824 13.497836321917564 a35.334476688057244,35.334476688057244 0 0,0 -0.5729135885758679,0.1992890858715286 l -4.59309994274735 -13.578683840357682" fill="#ffb210" stroke="none" /><path d="M 106.72888874123015 119.89276391827305 l 6.493024167055748 19.195472215114727 a41.26389687091827,41.26389687091827 0 0,0 -0.6729498302065865,0.22121197567095624 l -6.162551599201428 -19.3041051121877" fill="#fffd17" stroke="none" /><path d="M 106.38641147887787 120.00534299687104 l 4.426785236463604 13.866841703174993 a35.556295076381396,35.556295076381396 0 0,0 -0.5830544414253561,0.1806317563667704 l -4.188090162166624 -13.940790047348408" fill="#ffb510" stroke="none" /><path d="M 106.0420521117495 120.11202640906438 l 5.408880460727092 18.004403910729742 a39.799323073428354,39.799323073428354 0 0,0 -0.6560065331360438,0.19095394105424693 l -5.099013915209442 -18.094601546086505" fill="#ffeb16" stroke="none" /><path d="M 105.3480935250658 120.30758222061773 l 4.789394057465712 18.18610934028611 a39.80619228803453,39.80619228803453 0 0,0 -0.6622891848710131,0.1683513209324976 l -4.476499579369301 -18.265645893053875" fill="#ffeb16" stroke="none" /><path d="M 104.9986988182912 120.39639698878246 l 3.4205645508993774 13.957070638184579 a35.37011073882674,35.37011073882674 0 0,0 -0.5909635512816243,0.139465788992139 l -3.1804688458778743 -14.013732570822944" fill="#ffb310" stroke="none" /><path d="M 104.64783097203109 120.47920084513623 l 1.2060974882206024 5.31428807302136 a26.449433812255098,26.449433812255098 0 0,0 -0.4436421260867073,0.09668973652169238 l -1.1146929455147594 -5.334209267676771" fill="#ff3905" stroke="none" /><path d="M 103.94208987418118 120.62667999033965 l 3.81145847640832 19.943161317617573 a41.30411039809188,41.30411039809188 0 0,0 -0.6975777771321813,0.12712190853186808 l -3.4685459657250814 -20.005651400080804" fill="#fffe18" stroke="none" /><path d="M 103.2317021107853 120.74984581791261 l 2.446719117069856 15.70969188945509 a36.89908342324947,36.89908342324947 0 0,0 -0.6267131753886052,0.09210525472865415 l -2.176680836073565 -15.749378217482626" fill="#ffc612" stroke="none" /><path d="M 102.15924093988457 120.88869738790638 l 3.106422897161068 30.051823610351683 a51.21195070702482,51.21195070702482 0 0,0 -0.8752376889836325,0.08288591912794477 l -2.59008564479242 -30.10072128498481" fill="#8dff24" stroke="none" /><path d="M 101.08105385017728 120.97215588758144 l 0.8418333133721934 16.331341381842908 a37.35302402180703,37.35302402180703 0 0,0 -0.6406474769672995,0.027512159197409243 l -0.5613600758040643 -16.34338610946615" fill="#ffcc13" stroke="none" /><path d="M 100.72087961077811 120.9876233191556 l 0.6455812811911726 18.795394610916112 a39.806478505309784,39.806478505309784 0 0,0 -0.6831297555734649,0.01759499927550665 l -0.32283821154696396 -18.803707327541662" fill="#ffeb16" stroke="none" /><line stroke="#e1ed5e" stroke-width="0.3" x1="101.45913802915013" x2="101.54496967792366" y1="184.9874750549273" y2="189.98673829345242" /><path d="M 101.47630435890484 185.9873277026323 a86.0,86.0 0 0,1 -42.54439059252881,-10.42667462771756" fill="none" id="id19" stroke="none" /><text fill="#e1ed5e" style="font-size:6.75px; font-family:Arial;" text-anchor="middle"><textPath startOffset="22.145653131862474" xlink:href="#id19">July</textPath></text><path d="M 99.27912038922189 120.98762331915562 l -0.6457777842368684 18.801115582688052 a39.81220285081493,39.81220285081493 0 0,0 -0.6828252324093993,-0.029323453495810083 l 0.9684287772471064 -18.78725956076641" fill="#ffeb16" stroke="none" /><path d="M 98.55909050195518 120.95050786540614 l -1.1855700901239288 17.23792891353334 a38.27865068998807,38.27865068998807 0 0,0 -0.6551682807690482,-0.05071416850532374 l 1.481307365668213 -17.215036978032963" fill="#ffd814" stroke="none" /><path d="M 98.19965949673042 120.92268563240118 l -1.6117121759987425 18.73053854373318 a39.799752399341244,39.799752399341244 0 0,0 -0.6801975482519933,-0.06441541501818866 l 1.9330092876357512 -18.700111373209808" fill="#ffeb16" stroke="none" /><path d="M 97.48249496171623 120.84855314841334 l -3.9696489518993023 32.874387894228775 a54.113192117667104,54.113192117667104 0 0,0 -0.9212698243023933,-0.11927682322038417 l 4.53339659809249 -32.801399474807994" fill="#6eff28" stroke="none" /><path d="M 97.12497278360702 120.80226474461374 l -2.5741526548409865 18.625286297718727 a39.802328354818556,39.802328354818556 0 0,0 -0.6760233934534836,-0.09935215869357371 l 2.893501153902155 -18.578353065726272" fill="#ffeb16" stroke="none" /><path d="M 96.41257539226777 120.69131181640829 l -2.7161585747711303 15.666080868226997 a36.899798966437615,36.899798966437615 0 0,0 -0.6231941443973343,-0.11356673279839802 l 2.984687452719522 -15.617145961497233" fill="#ffc612" stroke="none" /><path d="M 95.70440661134978 120.55596938700252 l -2.20263021592774 10.54038294432813 a31.768066329717755,31.768066329717755 0 0,0 -0.5328527101267981,-0.1161327680973208 l 2.383245342673675 -10.50101871809709" fill="#ff830c" stroke="none" /><path d="M 95.35216902796893 120.47920084513623 l -4.161652385101531 18.33700828515514 a39.80333011528196,39.80333011528196 0 0,0 -0.665033748168059,-0.15694615377464738 l 4.475818287009478 -18.262865987734266" fill="#ffeb16" stroke="none" /><path d="M 94.6519064749342 120.30758222061772 l -2.7592262906174043 10.477231652622136 a31.834468737577374,31.834468737577374 0 0,0 -0.5272676342044004,-0.14370913835742946 l 2.9386753257564995 -10.428322020120563" fill="#ff840c" stroke="none" /><path d="M 94.30408787586889 120.21278271476187 l -3.740379243151951 13.273286396455566 a34.79023453915612,34.79023453915612 0 0,0 -0.5734424453630711,-0.16692073840544677 l 3.967681700896629 -13.207121963747603" fill="#ffab0f" stroke="none" /><path d="M 93.61358852112213 120.00534299687104 l -8.176333044184048 25.61224680660457 a47.88567664262594,47.88567664262594 0 0,0 -0.7809407353548534,-0.2567107311651222 l 8.614796517186646 -25.468115154037427" fill="#b3ff20" stroke="none" /><path d="M 93.27111125876986 119.89276391827306 l -5.511215522577494 16.292929413678124 a38.19979783065478,38.19979783065478 0 0,0 -0.6193719366850023,-0.2154497109821767 l 5.790093231307518 -16.195921270127357" fill="#ffd714" stroke="none" /><path d="M 92.59220618246901 119.65005319985036 l -7.348292519470249 19.492218937564786 a41.83132261911523,41.83132261911523 0 0,0 -0.6697548076727814,-0.2590755475798019 l 7.681819589636559 -19.363203501846943" fill="#faff18" stroke="none" /><path d="M 91.92203290615298 119.3841803445677 l -6.609280835173794 15.85986798021117 a38.18190925095122,38.18190925095122 0 0,0 -0.6028467557448124,-0.2573194325435104 l 6.8805626660890375 -15.744073898008256" fill="#ffd714" stroke="none" /><path d="M 91.59046798132341 119.24265499422711 l -4.874997449263963 11.154948195165582 a33.17367936850474,33.17367936850474 0 0,0 -0.5198577741971167,-0.23252577007443 l 5.065768626316715 -11.069618674181298" fill="#ff960d" stroke="none" /><path d="M 90.93487009805054 118.94263497670748 l -8.116207609617964 16.959752348513646 a39.80175592026805,39.80175592026805 0 0,0 -0.6137805102929313,-0.30023080451787565 l 8.406148369172966 -16.817927793898548" fill="#ffeb16" stroke="none" /><path d="M 90.6110303473126 118.78422872680471 l -7.697472842750121 15.400102018137819 a38.216684649894944,38.216684649894944 0 0,0 -0.5843017674970314,-0.29834864579890735 l 7.960701831960734 -15.265695420666075" fill="#ffd714" stroke="none" /><path d="M 90.28995756902619 118.62028667847754 l -0.6947954718057241 1.3323619294043776 a22.502640695099096,22.502640695099096 0 0,0 -0.3409805687389042,-0.18155294704655386 l 0.7175648563311902 -1.3202385146352507" fill="#ff0000" stroke="none" /><path d="M 89.97174638481275 118.45085714620012 l -15.179435310340132 27.928451275595503 a52.787004372763924,52.787004372763924 0 0,0 -0.7924480913496692,-0.43955759798489885 l 15.656627589845904 -27.663760762177454" fill="#7cff26" stroke="none" /><line stroke="#e1ed5e" stroke-width="0.3" x1="58.13341422392154" x2="55.67067388415222" y1="173.97424548756322" y2="178.32567169271397" /><path d="M 57.64086615596768 174.84453072859336 a86.0,86.0 0 0,1 -31.369924170532247,-30.572349798747897" fill="none" id="id20" stroke="none" /><text fill="#e1ed5e" style="font-size:6.75px; font-family:Arial;" text-anchor="middle"><textPath startOffset="22.145653131862474" xlink:href="#id20">August</textPath></text><path d="M 89.65649057296885 118.27599006163327 l -1.7927888154951002 3.167686055273419 a24.639825089442898,24.639825089442898 0 0,0 -0.3663209039774463,-0.2114954725211673 l 1.846902187332946 -3.13644368547608" fill="#ff1f03" stroke="none" /><path d="M 89.03521579738668 117.91015095944536 l -7.5507754437559065 12.333624224570652 a35.46141404963371,35.46141404963371 0 0,0 -0.5164463076294501,-0.32230069216453733 l 7.7613858801750695 -12.202187735564568" fill="#ffb410" stroke="none" /><path d="M 88.72937992617639 117.7192867562869 l -9.742669874207806 15.31709525670837 a39.15304446589812,39.15304446589812 0 0,0 -0.5640170710387788,-0.3655890511864071 l 10.004172577503594 -15.147592363818069" fill="#ffe315" stroke="none" /><path d="M 88.1277618465304 117.32195027204791 l -9.908360012578436 14.45659337327842 a38.52622863308535,38.52622863308535 0 0,0 -0.5423115382143745,-0.3785755717101924 l 10.155066641966576 -14.284372985763099" fill="#ffdb14" stroke="none" /><path d="M 87.83215693770417 117.11559508785305 l -1.044794066113425 1.4696336971340689 a22.803168834118917,22.803168834118917 0 0,0 -0.31709325348626427,-0.22955106198964262 l 1.0698683299736431 -1.451481863771361" fill="#ff0400" stroke="none" /><path d="M 87.54013794807813 116.9041958592261 l -11.156688837187046 15.13619111177572 a39.80361633255721,39.80361633255721 0 0,0 -0.5465358952397846,-0.4101307247832702 l 11.414877721337596 -14.942441359728434" fill="#ffeb16" stroke="none" /><path d="M 87.2517909369889 116.68781488649013 l -9.309110174208339 12.18592404448986 a36.33480606508036,36.33480606508036 0 0,0 -0.4924059271299743,-0.3828978272268909 l 9.516926045973541 -12.024325165642177" fill="#ffbf11" stroke="none" /><path d="M 86.68645165197938 116.24036423190432 l -11.923991630554543 14.545330975357547 a39.80819580896133,39.80819580896133 0 0,0 -0.5247585862204511,-0.4377722763109605 l 12.171924550936886 -14.338496515134716" fill="#ffeb16" stroke="none" /><path d="M 86.13680546590413 115.77377054828092 l -14.187175555997795 16.142401478829424 a42.49076722130729,42.49076722130729 0 0,0 -0.5437502471177336,-0.4862248239030855 l 14.4621908299389 -15.896481125042957" fill="#f2ff19" stroke="none" /><path d="M 85.86807049272751 115.53346607816431 l -8.085945132304708 8.88787014950195 a33.0156874325629,33.0156874325629 0 0,0 -0.41595085591713066,-0.3849979024511881 l 8.237325759535807 -8.747754500918385" fill="#ff940d" stroke="none" /><path d="M 85.60350026404147 115.28858382429668 l -24.185825233058345 25.684508263618092 a56.27957067408712,56.27957067408712 0 0,0 -0.6976724157215453,-0.6683543922727142 l 24.623170134645207 -25.265541741039794" fill="#58ff2a" stroke="none" /><path d="M 85.34317274990678 115.03919595460226 l -20.648572189755935 21.18725410661543 a50.58484865693679,50.58484865693679 0 0,0 -0.6166728559608968,-0.6114021794613574 l 21.009236965846796 -20.829671916925413" fill="#94ff23" stroke="none" /><path d="M 84.83555147118756 114.52719865689866 l -11.684367339601616 11.193359600256032 a37.180721222102335,37.180721222102335 0 0,0 -0.43757134988196605,-0.4646856100078043 l 11.874794523219835 -10.991132530303739" fill="#ffca12" stroke="none" /><path d="M 84.58840730492382 114.26474011684316 l -15.766193234365018 14.59295308213023 a42.483182463512975,42.483182463512975 0 0,0 -0.4907865591048656,-0.5394604016069559 l 16.014377494311763 -14.320155104965599" fill="#f2ff19" stroke="none" /><path d="M 84.3458050057657 113.99807769240083 l -34.942147449019046 31.245483712886283 a67.8746618206599,67.8746618206599 0 0,0 -0.7692104071842472,-0.8752202413688002 l 35.47336892016189 -30.641051193706183" fill="#39ff88" stroke="none" /><path d="M 84.1078160697243 113.72728997021213 l -4.089532107838999 3.532440433177444 a26.40392526548924,26.40392526548924 0 0,0 -0.29334187186621696,-0.3455559874607577 l 4.149568543212329 -3.461717663267132" fill="#ff3805" stroke="none" /><path d="M 83.8745106332314 113.45245675266167 l -22.978066851664362 19.169120610925486 a50.92401612811631,50.92401612811631 0 0,0 -0.554230755391633,-0.676071404917517 l 23.303744426294625 -18.771846924309475" fill="#91ff24" stroke="none" /><path d="M 83.64595745247003 113.17365903436017 l -5.101859456465401 4.109696836446863 a27.551227213356807,27.551227213356807 0 0,0 -0.29353020974522187,-0.3708658311376705 l 5.1716560968521845 -4.021511061394512" fill="#ff4906" stroke="none" /><path d="M 83.4222238831116 112.89097897827486 l -16.548102001197325 12.867904206431184 a41.96241013118292,41.96241013118292 0 0,0 -0.4373043086979751,-0.5724453777425398 l 16.766558287249595 -12.581937915447774" fill="#f8ff18" stroke="none" /><path d="M 83.20337586046588 112.60449989151573 l -13.845096049212254 10.38961818759618 a38.309848372991084,38.309848372991084 0 0,0 -0.3902094855729749,-0.529394109081328 l 14.021407554369059 -10.150417769245973" fill="#ffd814" stroke="none" /><path d="M 82.98947788004972 112.3143062007846 l -12.654924269117373 9.161189250909786 a36.62288375262649,36.62288375262649 0 0,0 -0.36428416496267096,-0.5124112985758172 l 12.810323532610004 -8.942600725624464" fill="#ffc312" stroke="none" /><path d="M 82.78059297857968 112.02048342749411 l -51.658221064260964 36.061450282482326 a84.0,84.0 0 0,0 -0.8152410527387,-1.1894610597197959 l 52.26965185381499 -35.16935448769248" fill="#4dd2ff" stroke="none" /><path d="M 82.576782715395 111.72311816256416 l -8.465136757153136 5.695721797262843 a31.202930319722867,31.202930319722867 0 0,0 -0.2952028423137338,-0.4469747283312778 l 8.561664038387596 -5.549567190592504" fill="#ff7b0b" stroke="none" /><path d="M 82.37810715431573 111.42229804090323 l -18.270767587074562 11.842890808790191 a42.773263671985916,42.773263671985916 0 0,0 -0.394089037711919,-0.6195734237324596 l 18.471374316412373 -11.52750371037906" fill="#eeff19" stroke="none" /><path d="M 82.18462484594161 111.11811171558189 l -11.082581777079126 6.916350693101663 a34.063671985916294,34.063671985916294 0 0,0 -0.30532734838249675,-0.49872927734176004 l 11.199677089917028 -6.725084299635346" fill="#ffa20e" stroke="none" /><path d="M 81.99639281039703 110.81064883170644 l -41.20538916583023 24.742652267088022 a69.06332216480209,69.06332216480209 0 0,0 -0.6015951090342697,-1.0216400163933967 l 41.62405798499427 -24.031661082401065" fill="#3aff95" stroke="none" /><line stroke="#e1ed5e" stroke-width="0.3" x1="26.387840678322732" x2="22.057713659400548" y1="142.50000000000003" y2="145.00000000000006" /><path d="M 25.521815274538298 143.00000000000003 a86.0,86.0 0 0,1 -11.493303480769221,-40.785679425670985" fill="none" id="id21" stroke="none" /><text fill="#e1ed5e" style="font-size:6.75px; font-family:Arial;" text-anchor="middle"><textPath startOffset="21.40746469413373" xlink:href="#id21">September</textPath></text><path d="M 81.63589988554817 110.18625677009913 l -16.450662876335432 9.124905388901613 a39.81191663353967,39.81191663353967 0 0,0 -0.32637174234241256,-0.6004872458945896 l 16.604879968293172 -8.841163309532437" fill="#ffeb16" stroke="none" /><path d="M 81.4637452351635 109.86951160357371 l -6.34778039258945 3.3798355189013782 a28.19149525810665,28.19149525810665 0 0,0 -0.22377594205035042,-0.4291198748454944 l 6.4048644036147495 -3.2703694009513806" fill="#ff5207" stroke="none" /><path d="M 81.29705330413844 109.54985784667822 l -45.23018070205311 23.094852544265265 a71.78524845249586,71.78524845249586 0 0,0 -0.5509691702709669,-1.1023074201571514 l 45.619969785535815 -22.315013267944362" fill="#3effb3" stroke="none" /><path d="M 81.1358732173502 109.22738970284198 l -18.01623200918558 8.812641880591682 a41.05610312908172,41.05610312908172 0 0,0 -0.30424672543914655,-0.6357586405477672 l 18.164857992584636 -8.502070737978812" fill="#fffb17" stroke="none" /><path d="M 80.9802524753101 108.90220220490708 l -1.9960527812838273 0.9342534882542036 a23.203873019478674,23.203873019478674 0 0,0 -0.1657591156405914,-0.3622135824322107 l 2.0117963617794747 -0.899850923607304" fill="#ff0a01" stroke="none" /><path d="M 80.83023694016515 108.57439118712176 l -15.226947008377646 6.810819717900483 a37.680742801976265,37.680742801976265 0 0,0 -0.2590391695732566,-0.5927323136434953 l 15.341620059967871 -6.548425334481138" fill="#ffd013" stroke="none" /><path d="M 80.68587082218212 108.24405325689762 l -25.306697242193565 10.801924223455925 a48.51564086546652,48.51564086546652 0 0,0 -0.3203745487518924,-0.7687822887452056 l 25.48839763548194 -10.36590942526944" fill="#abff21" stroke="none" /><path d="M 80.5471966667186 107.91128576633889 l -33.49426076617782 13.621824264277256 a57.15825770912602,57.15825770912602 0 0,0 -0.36184259602280694,-0.9120797150558579 l 33.723162037166745 -13.044843532007834" fill="#4fff2b" stroke="none" /><path d="M 80.41425534168474 107.57618678355246 l -18.810456597855723 7.276288706682259 a41.168729626895335,41.168729626895335 0 0,0 -0.24930472356574526,-0.6613103984410886 l 18.932592005235904 -6.952310028047025" fill="#fffc17" stroke="none" /><path d="M 80.28708602549918 107.23885506374661 l -1.7396710952566472 0.6388313231337517 a22.853256857288887,22.853256857288887 0 0,0 -0.13206987457822225,-0.36942294456655134 l 1.7503811398788127 -0.6088734221862788" fill="#ff0500" stroke="none" /><path d="M 80.16572619554312 106.89939002012753 l -19.100645590798027 6.644196045006316 a41.22325401783179,41.22325401783179 0 0,0 -0.22675651472785974,-0.6703653438007545 l 19.211887527098256 -6.3153290267313995" fill="#fffd17" stroke="none" /><path d="M 80.05021161711548 106.5578916946017 l -6.274853650828791 2.062669029457716 a27.605179169742744,27.605179169742744 0 0,0 -0.14411912687116904,-0.45145111225652457 l 6.309337493477215 -1.9546488835097997" fill="#ff4906" stroke="none" /><path d="M 79.94057633289273 106.21446072829308 l -20.583846194189412 6.376928167720479 a42.54901243682208,42.54901243682208 0 0,0 -0.2101590547694531,-0.6995511427993001 l 20.690281568962494 -6.022639421330455" fill="#f1ff19" stroke="none" /><path d="M 79.83685265289637 105.86919833188381 l -1.4908522826923114 0.4339653715777562 a22.552728718269066,22.552728718269066 0 0,0 -0.10501142009073264,-0.3726484837907007 l 1.498082194857619 -0.40830896388405985" fill="#ff0100" stroke="none" /><path d="M 79.64726062577567 105.17358676015961 l -29.29837455395609 7.447532241213163 a51.23012550400364,51.23012550400364 0 0,0 -0.20934208506567936,-0.8541871452296629 l 29.421904165538063 -6.9434892713754" fill="#8dff24" stroke="none" /><path d="M 79.56144815229197 104.8234425847677 l -2.876184421524248 0.6787716920355706 a23.955193367028222,23.955193367028222 0 0,0 -0.09101734476069935,-0.4010392148427951 l 2.8874126278426133 -0.6292981432537493" fill="#ff1502" stroke="none" /><path d="M 79.48165901384964 104.47187691870673 l -18.373871978772826 4.004499879625132 a39.80519052757113,39.80519052757113 0 0,0 -0.1397774224083488,-0.6688855662204628 l 18.43990711200554 -3.68849786211926" fill="#ffeb16" stroke="none" /><path d="M 79.34024301695615 103.76489593502545 l -22.75940495265343 4.147521738042181 a44.13422681583281,44.13422681583281 0 0,0 -0.12942925777581857,-0.7465135643641249 l 22.827249027921486 -3.7562151407574635" fill="#deff1b" stroke="none" /><path d="M 79.2786578344484 103.40968896794605 l -6.808847815584538 1.1203933169839686 a27.900412289170312,27.900412289170312 0 0,0 -0.07370824964430059,-0.4732598374470225 l 6.827077557367105 -1.003345297605496" fill="#ff4e07" stroke="none" /><path d="M 79.22317932658666 103.0534771498775 l -25.588727149825477 3.760661694809998 a46.86359475268329,46.86359475268329 0 0,0 -0.11014168452282327,-0.7969303621883962 l 25.64951335090351 -3.320843024421516" fill="#beff1f" stroke="none" /><path d="M 79.17382384314188 102.69636545807758 l -7.118486120730534 0.9216305453856366 a28.177899937531944,28.177899937531944 0 0,0 -0.05799000232781667,-0.4802404075553541 l 7.133258209318012 -0.7992964609068833" fill="#ff5207" stroke="none" /><path d="M 79.13060592940153 102.33845913500099 l -1.9555057196028998 0.21911849467610986 a22.967743767391674,22.967743767391674 0 0,0 -0.04054091959768262,-0.3921966213500496 l 1.9589790316822484 -0.18551735104312883" fill="#ff0701" stroke="none" /><path d="M 79.0935383218832 101.97986365728391 l -20.596919245910616 1.950549667123934 a41.689072633312506,41.689072633312506 0 0,0 -0.06135515277078309,-0.7130398783006257 l 20.62736802137914 -1.5966887414476465" fill="#fcff18" stroke="none" /><path d="M 79.03789590574601 101.26102812881392 l -18.77311235748995 1.129343821676194 a39.8070509398603,39.8070509398603 0 0,0 -0.03517883780309772,-0.6824600552780489 l 18.78973278474962 -0.8069119730214144" fill="#ffeb16" stroke="none" /><path d="M 79.01933749520258 100.90099992219065 l -2.5521369234639155 0.10959974066286392 a23.554489181668465,23.554489181668465 0 0,0 -0.01388067505964294,-0.40412070921654086 l 2.5536422855204064 -0.06577276688220315" fill="#ff0f01" stroke="none" /><line stroke="#e1ed5e" stroke-width="0.3" x1="15.003131293944662" x2="10.003315487706104" y1="100.72959589197737" y2="100.7725132973878" /><path d="M 14.003168132696942 100.73817937305945 a86.0,86.0 0 0,1 10.791469493833604,-42.45332614584628" fill="none" id="id22" stroke="none" /><text fill="#e1ed5e" style="font-size:6.75px; font-family:Arial;" text-anchor="middle"><textPath startOffset="22.145653131862435" xlink:href="#id22">October</textPath></text><path d="M 79.00077361379809 100.18025310272382 l -18.820096034675156 0.16154788949937401 a39.82078936907263,39.82078936907263 0 0,0 0.0,-0.6836019844463762 l 18.820096034675156 0.1615478894993671" fill="#ffeb16" stroke="none" /><path d="M 79.00696218219943 99.45929381324524 l -21.482927027868755 -0.5533239950494553 a42.490051678119144,42.490051678119144 0 0,0 0.025039413763653505,-0.7289952113320162 l 21.47026292710825 0.92202547094561" fill="#f2ff19" stroke="none" /><path d="M 79.01933749520258 99.09900007780938 l -5.476156655775431 -0.23516972925088114 a26.481203929808622,26.481203929808622 0 0,0 0.023402335914936727,-0.4539990647654555 l 5.471312730403924 0.32914058739304863" fill="#ff3a05" stroke="none" /><path d="M 79.03789590574601 98.7389718711861 l -51.06572833415845 -3.0719874091930968 a72.15804645351808,72.15804645351808 0 0,0 0.08499543996796938,-1.235815043199308 l 51.00546893302542 3.9481458765467297" fill="#3effb7" stroke="none" /><path d="M 79.06263194458094 98.37931529534042 l -11.087804224566629 -0.8582661711563159 a32.1209722301096,32.1209722301096 0 0,0 0.047273470812337265,-0.5493893887088387 l 11.071437131056548 1.0484766072408354" fill="#ff880c" stroke="none" /><path d="M 79.0935383218832 98.0201363427161 l -14.326334218897477 -1.3567187455631127 a35.39043216536999,35.39043216536999 0 0,0 0.062468507114773246,-0.6043261394740486 l 14.30093331930104 1.6024494073200741" fill="#ffb310" stroke="none" /><path d="M 79.13060592940154 97.66154086499901 l -11.143964885574116 -1.2487045095149605 a32.213706627292865,32.213706627292865 0 0,0 0.06629567591784258,-0.5490232996019773 l 11.120887123396605 1.439821486040374" fill="#ff890c" stroke="none" /><path d="M 79.17382384314186 97.30363454192245 l -18.647688824591317 -2.4143166580797972 a39.80333011528196,39.80333011528196 0 0,0 0.09354821907392355,-0.6768683122256934 l 18.603496088962185 2.7340732785055577" fill="#ffeb16" stroke="none" /><path d="M 79.2786578344484 96.59031103205396 l -21.212092834909424 -3.490441803836336 a42.4973502186382,42.4973502186382 0 0,0 0.1246289080624414,-0.7188264228606602 l 21.14904910935475 3.854061259617589" fill="#f2ff19" stroke="none" /><path d="M 79.48165901384962 95.52812308129327 l -7.809017938971159 -1.7019391140162403 a28.992331194275657,28.992331194275657 0 0,0 0.1101558632107706,-0.4853670584274472 l 7.778651214202727 1.8357405063826957" fill="#ff5d08" stroke="none" /><path d="M 79.64726062577567 94.8264132398404 l -29.563842052364397 -7.5150130412059655 a51.50403543642456,51.50403543642456 0 0,0 0.22517201114618807,-0.8550148026958362 l 29.430480560413482 8.021408348274585" fill="#8aff24" stroke="none" /><path d="M 79.83685265289637 94.1308016681162 l -18.056763149600204 -5.2560605907627735 a39.80619228803453,39.80619228803453 0 0,0 0.19661165479800372,-0.6544562543473935 l 17.963875174798574 5.56525444870089" fill="#ffeb16" stroke="none" /><path d="M 80.05021161711548 93.44210830539832 l -13.617336501526689 -4.4762889827228465 a35.334190470781984,35.334190470781984 0 0,0 0.19436257696733997,-0.5745984228372896 l 13.538488502986983 4.709389080034297" fill="#ffb210" stroke="none" /><path d="M 80.41425534168474 92.42381321644754 l -13.414227465918511 -5.188911354244118 a35.38284740757567,35.38284740757567 0 0,0 0.22399250561115672,-0.5646074368745536 l 13.323176285341223 5.418419808332255" fill="#ffb310" stroke="none" /><path d="M 80.5471966667186 92.08871423366112 l -20.243862644479997 -8.23300270151747 a42.85397694360838,42.85397694360838 0 0,0 0.28298757432895777,-0.6790671603803095 l 20.09954922561456 8.579302371339045" fill="#edff19" stroke="none" /><path d="M 80.9802524753101 91.09779779509293 l -12.976935354684212 -6.073860989870832 a35.32803679936396,35.32803679936396 0 0,0 0.26179882388270487,-0.5470588520827472 l 12.870757272841603 6.295732344018666" fill="#ffb210" stroke="none" /><path d="M 81.29705330413844 90.45014215332179 l -38.29331948197957 -19.552841778202616 a63.99641774092793,63.99641774092793 0 0,0 0.5079850691391281,-0.9741283504163001 l 37.952026343865505 20.207316371723405" fill="#34ff5b" stroke="none" /><path d="M 81.46374523516351 90.13048839642627 l -27.74823336940498 -14.774371343748085 a52.43638821057414,52.43638821057414 0 0,0 0.4298651466583401,-0.7909034531308475 l 27.490522873131287 15.24852963035355" fill="#80ff25" stroke="none" /><line stroke="#e1ed5e" stroke-width="0.3" x1="26.387840678322718" x2="22.05771365940052" y1="57.49999999999999" y2="54.99999999999999" /><path d="M 25.521815274538284 56.99999999999999 a86.0,86.0 0 0,1 29.574782752854787,-30.34633250058573" fill="none" id="id23" stroke="none" /><text fill="#e1ed5e" style="font-size:6.75px; font-family:Arial;" text-anchor="middle"><textPath startOffset="21.40746469413373" xlink:href="#id23">November</textPath></text><path d="M 81.81346652052679 89.5 l -8.07738633420083 -4.663481174399455 a30.326962348798908,30.326962348798908 0 0,0 0.2641713669285551,-0.448620734421866 l 7.9961412571424955 4.8014530771148936" fill="#ff6f0a" stroke="none" /><path d="M 81.99639281039701 89.18935116829357 l -22.85710731805481 -13.725036206456284 a47.66128229882446,47.66128229882446 0 0,0 0.42720858017970825,-0.6978131097523256 l 22.618130773419708 14.115386432333153" fill="#b5ff20" stroke="none" /><path d="M 82.37810715431573 88.57770195909679 l -9.61711624728568 -6.2336985607884134 a32.46071213583963,32.46071213583963 0 0,0 0.30710239031526854,-0.464992160662095 l 9.508689418049682 6.397870599789569" fill="#ff8c0c" stroke="none" /><path d="M 82.576782715395 88.27688183743585 l -12.157525043483856 -8.18012542235969 a35.65332273269351,35.65332273269351 0 0,0 0.34602443283613504,-0.504859988573379 l 12.015310873832407 8.387620146003103" fill="#ffb610" stroke="none" /><path d="M 82.98947788004972 87.6856937992154 l -15.235569916917933 -11.029377686199917 a39.808768243511835,39.808768243511835 0 0,0 0.4054769109591901,-0.5501073038116746 l 15.043990986374924 11.289291299280453" fill="#ffeb16" stroke="none" /><path d="M 83.42222388311158 87.10902102172516 l -14.839053693425477 -11.538937905221513 a39.79746266113919,39.79746266113919 0 0,0 0.4240013510755165,-0.5357118560525781 l 14.6387859117084 11.791969705188773" fill="#ffeb16" stroke="none" /><path d="M 83.8745106332314 86.54754324733833 l -12.214419457816097 -10.189703132591955 a36.906668181043784,36.906668181043784 0 0,0 0.41002506330840516,-0.4830084935839443 l 12.037699831000578 10.397878408625456" fill="#ffc712" stroke="none" /><path d="M 84.34580500576568 86.00192230759919 l -22.50022278201322 -20.119837954934933 a51.18390141404963,51.18390141404963 0 0,0 0.5913015315681768,-0.6499439639756335 l 22.15152354960318 20.503119494468226" fill="#8eff24" stroke="none" /><path d="M 84.83555147118756 85.47280134310135 l -12.524220640938386 -11.997920064686362 a38.34376512010903,38.34376512010903 0 0,0 0.45941892370442466,-0.4714042883189053 l 12.316414916083158 12.211147045072996" fill="#ffd914" stroke="none" /><path d="M 85.34317274990677 84.96080404539775 l -10.397899008842334 -10.669160387978895 a35.89789539440059,35.89789539440059 0 0,0 0.44500999384246603,-0.42630950756776703 l 10.213216529134566 10.846082025852231" fill="#ffba11" stroke="none" /><path d="M 85.60350026404147 84.71141617570332 l -12.891166600980037 -13.689972200658312 a39.80418876710773,39.80418876710773 0 0,0 0.5014763487988698,-0.4641590218410532 l 12.654260480867215 13.909248968631731" fill="#ffeb16" stroke="none" /><path d="M 86.13680546590413 84.22622945171909 l -34.43274583571076 -39.17814402906657 a73.1588051564541,73.1588051564541 0 0,0 0.9504392039386763,-0.8209667474756851 l 33.75512715200924 39.76345490900697" fill="#3fffc2" stroke="none" /><path d="M 86.40962598614128 83.9905735841838 l -10.18645958568659 -11.99962377845051 a36.740232835481855,36.740232835481855 0 0,0 0.4843161627489885,-0.4040337682664356 l 9.978969088775692 12.17271973062883" fill="#ffc412" stroke="none" /><path d="M 86.68645165197937 83.75963576809568 l -13.773749984029104 -16.80173540009533 a42.72589471293089,42.72589471293089 0 0,0 0.5712029536446779,-0.4601206661206151 l 13.483296260029181 17.035704360009344" fill="#efff19" stroke="none" /><path d="M 87.25179093698888 83.31218511350988 l -22.75660653906192 -29.789128456515687 a58.486735192231244,58.486735192231244 0 0,0 0.8030702514784854,-0.6026388882403708 l 22.241883298672683 30.175386372020057" fill="#41ff2d" stroke="none" /><path d="M 87.54013794807813 83.09580414077388 l -11.158641771440177 -15.138840642161975 a39.806907831222674,39.806907831222674 0 0,0 0.5535415716671539,-0.4007214099782571 l 10.897119189399055 15.328162823513312" fill="#ffeb16" stroke="none" /><path d="M 88.4268655584334 82.4767994020092 l -11.972545269145044 -18.12795949783809 a42.72474984382986,42.72474984382986 0 0,0 0.6154690802849009,-0.3989396219542012 l 11.659590556603117 18.3308129614962" fill="#efff19" stroke="none" /><path d="M 88.72937992617638 82.28071324371311 l -10.093749465490328 -15.869050686974617 a39.80719404849793,39.80719404849793 0 0,0 0.579736565345709,-0.3617984939067098 l 9.81984877135492 16.039984977722863" fill="#ffeb16" stroke="none" /><line stroke="#e1ed5e" stroke-width="0.3" x1="56.869717070023135" x2="54.33264160355391" y1="26.7553504044142" y2="22.446841604673864" /><path d="M 56.362301976729285 25.89364864446614 a86.0,86.0 0 0,1 42.16139366436587,-11.88097634709845" fill="none" id="id24" stroke="none" /><text fill="#e1ed5e" style="font-size:6.75px; font-family:Arial;" text-anchor="middle"><textPath startOffset="22.145653131862474" xlink:href="#id24">December</textPath></text><path d="M 89.34428304082924 81.90426304109057 l -7.294297854045056 -12.38731244199724 a35.37540575841899,35.37540575841899 0 0,0 0.5259270538225237,-0.30364412609853925 l 7.080578332362133 12.510703465371954" fill="#ffb310" stroke="none" /><path d="M 89.97174638481275 81.54914285379989 l -7.67022159809942 -14.11234382543969 a37.062084161508324,37.062084161508324 0 0,0 0.5615985566881749,-0.29901959927194754 l 7.426834225624684 14.241933892434213" fill="#ffc912" stroke="none" /><path d="M 90.28995756902619 81.37971332152246 l -8.934011031464587 -17.132144146343116 a40.32166960077233,40.32166960077233 0 0,0 0.616485261136522,-0.3147817669677067 l 8.638598548614482 17.282983864983656" fill="#fff216" stroke="none" /><path d="M 90.93487009805054 81.0573650232925 l -9.29199238392975 -19.41669031099878 a42.525542620251,42.525542620251 0 0,0 0.6611937911547399,-0.30947207989210707 l 8.957309878903489 19.57333862246143" fill="#f1ff19" stroke="none" /><path d="M 91.5904679813234 80.7573450057729 l -7.534852815834494 -17.241217804436264 a39.815780566755635,39.815780566755635 0 0,0 0.6286436328879496,-0.2683305854187804 l 7.237774107776113 17.368023039514448" fill="#ffeb16" stroke="none" /><path d="M 92.25597844496254 80.48000691201159 l -4.833863199796243 -12.184492976640175 a34.10832188085638,34.10832188085638 0 0,0 0.5461030426734661,-0.21124438853561425 l 4.623987894629247 12.26567725331383" fill="#ffa20f" stroke="none" /><path d="M 92.93061703081487 80.22567764915836 l -6.330191039025411 -17.70667096318399 a39.80418876710773,39.80418876710773 0 0,0 0.6453855487443456,-0.22449859561486335 l 6.02529971823606 17.81272799136744" fill="#ffeb16" stroke="none" /><path d="M 93.61358852112211 79.99465700312896 l -1.3157407586763794 -4.121539186652768 a25.32646033278437,25.32646033278437 0 0,0 0.4153049453237973,-0.12866253367053168 l 1.2447951804809658 4.143518308129941" fill="#ff2904" stroke="none" /><path d="M 93.95794788825049 79.88797359093562 l -4.8379101389577945 -16.10382940759274 a37.814835595434154,37.814835595434154 0 0,0 0.6232965107044997,-0.18143253024540423 l 4.560753615871671 16.184505632140667" fill="#ffd213" stroke="none" /><path d="M 94.6519064749342 79.69241777938228 l -8.757412792486713 -33.253322794336334 a55.38714520983588,55.38714520983588 0 0,0 0.9215226361749529,-0.23424745052943793 l 8.185284863086382 33.39875547670104" fill="#61ff29" stroke="none" /><path d="M 95.35216902796891 79.52079915486377 l -3.2436892714796124 -14.292293430975532 a35.65575557953319,35.65575557953319 0 0,0 0.5980617704263885,-0.13034477928483099 l 2.9978650844341055 14.345869668394077" fill="#ffb610" stroke="none" /><path d="M 96.41257539226777 79.30868818359171 l -3.212388080281371 -18.5282007881506 a39.804618093020615,39.804618093020615 0 0,0 0.6742570541937203,-0.1109487416826769 l 2.893853523034578 18.58061552832894" fill="#ffeb16" stroke="none" /><path d="M 97.12497278360702 79.19773525538626 l -3.063121165758273 -22.1632188633249 a43.373890624112676,43.373890624112676 0 0,0 0.7384346594763443,-0.09560515064613534 l 2.682208684391135 22.212535610171432" fill="#e7ff1a" stroke="none" /><path d="M 97.48249496171623 79.15144685158666 l -0.25734051160831406 -2.1311485982817895 a23.146629564427283,23.146629564427283 0 0,0 0.3948860177085631,-0.04424780193765703 l 0.2207185922989517 2.1352521607264174" fill="#ff0901" stroke="none" /><path d="M 98.1996594967304 79.07731436759882 l -1.6119943578256015 -18.733817924296844 a39.803043898006706,39.803043898006706 0 0,0 0.6812594323460337,-0.05273378864935479 l 1.2901659307043505 18.758729479941252" fill="#ffeb16" stroke="none" /><path d="M 98.9189461498227 79.02784411241856 l -0.9059119530826377 -17.574449873479114 a38.597782951899596,38.597782951899596 0 0,0 0.6619965293902415,-0.0284289793677727 l 0.6040896630915762 17.587411421272716" fill="#ffdc14" stroke="none" /><path d="M 99.27912038922189 79.0123766808444 l -0.6042468655281363 -17.59198819869026 a38.60236242830371,38.60236242830371 0 0,0 0.6624655935512573,-0.01706276376264354 l 0.30216795790613515 17.59976867980295" fill="#ffdc14" stroke="none" /></svg>