<?xml version="1.0" encoding="utf-8" ?>
<svg baseProfile="full" height="200mm" version="1.1" viewBox="0,0,200,200" width="200mm" xmlns="http://www.w3.org/2000/svg" xmlns:ev="http://www.w3.org/2001/xml-events" xmlns:xlink="http://www.w3.org/1999/xlink"><defs /><rect fill="#1a1a1a" height="200" width="200" x="0" y="0" /><rect fill="#1a1a1a" height="200" width="180" x="10" y="0" /><text alignment-baseline="middle" fill="#e1ed5e" style="dominant-baseline: central; font-size:9.0px; font-family:Arial;" text-anchor="middle" x="100.0" y="100.0">2017</text><line stroke="#e1ed5e" stroke-width="0.3" x1="100.0" x2="100.0" y1="15.0" y2="10.0" /><path d="M 100.0 14.0 a86.0,86.0 0 0,1 42.46469731375804,11.215312516191453" fill="none" id="id25" stroke="none" /><text fill="#e1ed5e" style="font-size:6.75px; font-family:Arial;" text-anchor="middle"><textPath startOffset="22.20632615414155" xlink:href="#id25">January</textPath></text><path d="M 100.0 79.0 l 0.0 -19.17192839531095 a40.17192839531095,40.17192839531095 0 0,0 0.6914937109351759,0.005951904682374872 l -0.3300132316626475 19.169087867237135" fill="#ffe815" stroke="none" /><path d="M 106.40334571778207 80.00007090966166 l 5.795792826639144 -18.10232504441822 a40.007508687439625,40.007508687439625 0 0,0 0.6540602367468447,0.21563337666654972 l -6.106535885628406 17.999877943492432" fill="#ffe615" stroke="none" /><line stroke="#e1ed5e" stroke-width="0.3" x1="143.23703022742887" x2="145.7803849466894" y1="26.81831364943548" y2="22.513508569990506" /><path d="M 143.74570117128098 25.957352633546492 a86.0,86.0 0 0,1 28.547481713284135,27.462654790039103" fill="none" id="id26" stroke="none" /><text fill="#e1ed5e" style="font-size:6.75px; font-family:Arial;" text-anchor="middle"><textPath startOffset="19.985693538727396" xlink:href="#id26">February</textPath></text><path d="M 115.4437574822437 85.77008943001954 l 27.86937635425294 -25.67890188758209 a58.89601747581215,58.89601747581215 0 0,0 0.6805472944235675,0.7514773201698951 l -28.307267289292543 25.195371780142644" fill="#41ff2d" stroke="none" /><line stroke="#e1ed5e" stroke-width="0.3" x1="172.23445277983987" x2="176.4835382374775" y1="55.19839476539836" y2="52.563006222186495" /><path d="M 173.08426987136738 54.67131705675599 a86.0,86.0 0 0,1 12.851231095245387,41.99856678651699" fill="none" id="id27" stroke="none" /><text fill="#e1ed5e" style="font-size:6.75px; font-family:Arial;" text-anchor="middle"><textPath startOffset="22.20632615414155" xlink:href="#id27">March</textPath></text><path d="M 118.03404312379186 89.2402003453031 l 23.556811185669996 -14.054894242042707 a48.43106642827275,48.43106642827275 0 0,0 0.4209820300745767,0.7195947527274855 l -23.7952528902149 13.647320076961325" fill="#b2ff20" stroke="none" /><path d="M 118.73160827565052 90.50648371742162 l 15.73427545891539 -7.974414052740985 a38.639691145300134,38.639691145300134 0 0,0 0.29557521357453925,0.5958615943222609 l -15.869210685443337 7.702392869919775" fill="#ffd413" stroke="none" /><path d="M 119.04729006885535 91.15688171328212 l 23.928719449867252 -11.109427943813493 a47.38186884489496,47.38186884489496 0 0,0 0.3370829249225658,0.7427175430319702 l -24.116404691753164 10.69588839193946" fill="#beff1f" stroke="none" /><path d="M 119.34039704204932 91.81776055985345 l 23.234453091476407 -9.829677128240016 a46.22820570126743,46.22820570126743 0 0,0 0.3037376114732739,0.7355247184337639 l -23.400212389835875 9.428277839352948" fill="#ccff1d" stroke="none" /><path d="M 119.85752413597 93.16781622104841 l 26.552241027599525 -9.135569429573136 a49.07988839704123,49.07988839704123 0 0,0 0.26798251547544044,0.8012336118131794 l -26.705560836846736 8.677162714837642" fill="#abff21" stroke="none" /><path d="M 120.08093135843002 93.85539295169968 l 25.69133273207816 -7.861345739797311 a47.867179501968195,47.867179501968195 0 0,0 0.23430779879513972,0.7899694168910024 l -25.822846427985 7.417946936159779" fill="#b9ff1f" stroke="none" /><path d="M 120.28053869075195 94.5502522615342 l 46.28982585988518 -12.438913859271425 a68.93197842919557,68.93197842919557 0 0,0 0.29806078537181563,1.1485497926840509 l -46.49708297712729 11.640267641038523" fill="#3aff91" stroke="none" /><path d="M 120.45610955862082 95.25157060432595 l 25.609218668122587 -5.944608693822261 a47.290120831110414,47.290120831110414 0 0,0 0.17723799756001224,0.7945231901826553 l -25.70775105268464 5.502907334089642" fill="#bfff1e" stroke="none" /><path d="M 120.73433829027371 96.67025291283417 l 19.69647034837235 -3.163074888225681 a40.94883422490736,40.94883422490736 0 0,0 0.10577299653487231,0.6969118904043512 l -19.747999238346523 2.8235638854292477" fill="#fff216" stroke="none" /><path d="M 120.83666639777658 97.38593545837742 l 48.135799957025256 -6.038878074264521 a69.51312488284573,69.51312488284573 0 0,0 0.13872716787892878,1.1885296551329643 l -48.23261747790777 5.2094046808067045" fill="#3bff98" stroke="none" /><path d="M 120.91429891909075 98.10471618934814 l 26.876727215682585 -2.435607627693031 a47.98686069816735,47.98686069816735 0 0,0 0.06746842057120912,0.8232856222113899 l -26.91467012007329 1.9726080882738721" fill="#b7ff1f" stroke="none" /><path d="M 120.96714384426684 98.82574320788733 l 25.554471820287837 -1.431168323482928 a46.59451645927358,46.59451645927358 0 0,0 0.037955431082053834,0.8011791612245486 l -25.575320859603387 0.9910780556353795" fill="#c7ff1e" stroke="none" /><line stroke="#e1ed5e" stroke-width="0.3" x1="184.98032266829074" x2="189.97916517819016" y1="98.17113171792111" y2="98.06355123074" /><path d="M 185.9800911702706 98.14961562048488 a86.0,86.0 0 0,1 -9.607161424134198,41.387399972396054" fill="none" id="id28" stroke="none" /><text fill="#e1ed5e" style="font-size:6.75px; font-family:Arial;" text-anchor="middle"><textPath startOffset="21.466115282336823" xlink:href="#id28">April</textPath></text><path d="M 120.99513854157772 99.54816195383933 l 34.218627743698114 -0.7364218088579424 a55.22655112251814,55.22655112251814 0 0,0 0.01227342480961478,0.95059027729336 l -34.22623417562544 0.14729527350411975" fill="#67ff28" stroke="none" /><path d="M 120.99824983174949 100.27111621757518 l 29.848091855809933 0.38537982120530184 a50.85057964327426,50.85057964327426 0 0,0 -0.0188339343284011,0.8751389217169137 l -29.837035858796526 -0.8991085587123303" fill="#97ff23" stroke="none" /><path d="M 120.9764740272857 100.99374915477107 l 56.71977722125716 2.6870688848425526 a77.78339076896458,77.78339076896458 0 0,0 -0.07487076989438297,1.3368678918025458 l -56.66512010047525 -3.663008492980522" fill="#45fff0" stroke="none" /><path d="M 120.89721153311464 102.0752229133903 l 37.20454232594334 3.694642158100859 a58.38754271624876,58.38754271624876 0 0,0 -0.10792714425018088,0.9992713146823172 l -37.135432880192106 -4.334509794667968" fill="#46ff2c" stroke="none" /><path d="M 120.76222939487914 103.15116336523771 l 22.991191068628993 3.4894614465878604 a44.25448790967947,44.25448790967947 0 0,0 -0.1207899813629714,0.7521593292502641 l -22.927719332904733 -3.884700005531329" fill="#e3ff1b" stroke="none" /><path d="M 120.70491114924044 103.5080841355445 l 16.686063205597044 2.8271608216196182 a37.92387495854541,37.92387495854541 0 0,0 -0.11459070411445041,0.6426855236802076 l -16.634926059143407 -3.113965096033044" fill="#ffcb12" stroke="none" /><path d="M 120.5718875245553 104.21870165774334 l 25.372627415276174 5.203195147278714 a46.90064597061411,46.90064597061411 0 0,0 -0.1689896410386234,0.7894633433841344 l -25.279303735513107 -5.639172310079018" fill="#c4ff1e" stroke="none" /><path d="M 120.41448212921028 104.9243191809786 l 31.054647502663446 7.490907454227472 a52.945341225325514,52.945341225325514 0 0,0 -0.22133342477956472,0.884117009587001 l -30.92110276358882 -8.024352303211868" fill="#7fff26" stroke="none" /><path d="M 120.32669344350535 105.2749913415812 l 22.51285419206859 5.8423231140619105 a44.25857569247185,44.25857569247185 0 0,0 -0.19771343448018303,0.7357652409037243 l -22.40895268124663 -6.228979288141184" fill="#e3ff1b" stroke="none" /><path d="M 120.13307415673323 105.97154293290107 l 17.599493710279727 5.22007376867034 a39.357324124407015,39.357324124407015 0 0,0 -0.1982357713409893,0.6478459705873205 l -17.507031166432604 -5.522246711809718" fill="#ffde14" stroke="none" /><path d="M 119.9155931802556 106.66101706037122 l 21.493911047067133 7.188905039522312 a43.664257494268455,43.664257494268455 0 0,0 -0.2445389067324629,0.7107445290894545 l -21.36698130939144 -7.557822271701066" fill="#ebff1a" stroke="none" /><path d="M 119.67450827220406 107.3425965602758 l 59.02352481661219 22.027789680827375 a84.0,84.0 0 0,0 -0.517222881625973,1.3503057326674246 l -58.635607655392704 -23.040518980327946" fill="#4dd2ff" stroke="none" /><path d="M 118.81262510543309 109.33194174019688 l 8.946053852333815 4.437661032778078 a30.986226262742782,30.986226262742782 0 0,0 -0.2411338244838605,0.475779912078513 l -8.868341358063686 -4.590995156559286" fill="#ff6e0a" stroke="none" /><line stroke="#e1ed5e" stroke-width="0.3" x1="174.80103733775053" x2="179.2010983576182" y1="140.37084112569926" y2="142.7455964860345" /><path d="M 175.68104954172406 140.8457921977663 a86.0,86.0 0 0,1 -30.038265399797805,32.042727171017184" fill="none" id="id29" stroke="none" /><text fill="#e1ed5e" style="font-size:6.75px; font-family:Arial;" text-anchor="middle"><textPath startOffset="22.206326154141568" xlink:href="#id29">May</textPath></text><path d="M 117.14729908036423 112.12312394758627 l 8.306005007797157 5.872337546972925 a31.172220379796116,31.172220379796116 0 0,0 -0.31353346955876193,0.4354705668049313 l -8.203691745862791 -6.014441719228987" fill="#ff710a" stroke="none" /><path d="M 116.71984013943494 112.70617746262583 l 20.366705044907402 15.477598258801057 a46.58043631854426,46.58043631854426 0 0,0 -0.49063214117475634,0.6342081803465748 l -20.097266086514576 -15.825884433260885" fill="#c8ff1d" stroke="none" /><path d="M 116.0416608686014 113.55231037782055 l 9.896420784657163 8.36069077895184 a33.95531916427552,33.95531916427552 0 0,0 -0.3810393000464958,0.44323478991463655 l -9.751038975039888 -8.529802668028005" fill="#ff970d" stroke="none" /><path d="M 115.80600337817218 113.82643327865902 l 11.52871011182911 10.084835320884267 a36.31714922209566,36.31714922209566 0 0,0 -0.41564311531102033,0.46697944625434407 l -11.35340814686975 -10.281788936879476" fill="#ffb610" stroke="none" /><path d="M 115.56566222782051 114.09645910891815 l 16.127943243728225 14.605667855224985 a42.75858650671204,42.75858650671204 0 0,0 -0.4987556835164176,0.5413007890132369 l -15.874141152216087 -14.881119899039557" fill="#f6ff19" stroke="none" /><path d="M 115.32070863581623 114.36230785411682 l 28.291662429274993 26.521851904688347 a59.77920565801047,59.77920565801047 0 0,0 -0.7102152464496738,0.7446578464993459 l -27.830940631446357 -27.0049168677702" fill="#38ff2e" stroke="none" /><path d="M 115.07121518719521 114.62390073753431 l 15.83908591901581 15.36898102614588 a43.069939296065066,43.069939296065066 0 0,0 -0.5208578505964148,0.5276262527423076 l -15.572187443363859 -15.639347772868852" fill="#f2ff19" stroke="none" /><path d="M 114.81725581225074 114.88116024355365 l 30.00300414771142 30.1324022590576 a63.52225210156734,63.52225210156734 0 0,0 -0.7814750883636536,0.7648378526670351 l -29.47987910697197 -30.644390214647206" fill="#33ff52" stroke="none" /><path d="M 114.55890576462653 115.13401014063108 l 16.2380932145025 16.87952867789563 a44.422087004167096,44.422087004167096 0 0,0 -0.5556233532175475,0.5253765607282973 l -15.945134026894145 -17.156539875369848" fill="#e1ff1b" stroke="none" /><path d="M 114.29624159901734 115.38237550388516 l 1.6078711010675144 1.7300265155120083 a23.36183005782014,23.36183005782014 0 0,0 -0.296918236557655,0.27122776923197794 l -1.5778533150429954 -1.7574470513305693" fill="#ff0000" stroke="none" /><path d="M 114.0293411484842 115.62618273729858 l 38.461084854162436 42.838785787942975 a78.57097025362998,78.57097025362998 0 0,0 -1.0141553488950206,0.8948741815793414 l -37.71798715236083 -43.494483111294606" fill="#46fff8" stroke="none" /><path d="M 113.75828350139079 115.86535959552629 l 9.34461472742726 10.775739060566496 a35.263182558793424,35.263182558793424 0 0,0 -0.46200566322334324,0.3937312491977445 l -9.15774358762687 -10.934994699987188" fill="#ffa80f" stroke="none" /><path d="M 113.48314897796784 116.09983520530334 l 16.178349835447868 19.318095993011465 a46.19777442936859,46.19777442936859 0 0,0 -0.6140561351424291,0.5053263944933808 l -15.84342357176075 -19.593717506362022" fill="#ccff1d" stroke="none" /><path d="M 113.20401910651253 116.32954008644616 l 14.428503251157109 17.843871652001777 a43.94745000216285,43.94745000216285 0 0,0 -0.5923331636805251,0.4705852891162752 l -14.119212594759233 -18.08959085512318" fill="#e7ff1a" stroke="none" /><path d="M 112.92097659922987 116.55440617244103 l 7.4765622420262305 9.579001028096869 a33.15138854844059,33.15138854844059 0 0,0 -0.4528657611951135,0.3472381544976921 l -7.310567752337623 -9.706278524421933" fill="#ff8c0c" stroke="none" /><path d="M 111.7513745106137 117.40417183066458 l 11.790431102609677 17.462015926910862 a42.06979510619584,42.06979510619584 0 0,0 -0.6036520802058307,0.4000676826185751 l -11.488104323663881 -17.662381630620754" fill="#feff18" stroke="none" /><path d="M 111.45004920935366 117.60387380957326 l 17.482403945433788 26.878315308198957 a53.06365982726054,53.06365982726054 0 0,0 -0.7699744190170248,0.49143410429542256 l -17.01714772436983 -27.175263841318188" fill="#7eff26" stroke="none" /><path d="M 111.1453310114006 117.79835938074945 l 10.078695851343813 16.095013299110892 a39.99024916009402,39.99024916009402 0 0,0 -0.5865632638665942,0.3603150645474549 l -9.80015338754491 -16.266116830486727" fill="#ffe615" stroke="none" /><line stroke="#e1ed5e" stroke-width="0.3" x1="143.8653032363475" x2="146.44561519142675" y1="172.8068346515853" y2="177.08958963109032" /><path d="M 144.38136562736335 173.6633856474863 a86.0,86.0 0 0,1 -40.68145358897372,12.25698825130547" fill="none" id="id30" stroke="none" /><text fill="#e1ed5e" style="font-size:6.75px; font-family:Arial;" text-anchor="middle"><textPath startOffset="21.466115282336833" xlink:href="#id30">June</textPath></text><path d="M 110.8373102113329 117.98757091392108 l 22.717988702063543 37.706905572629715 a65.02178708923913,65.02178708923913 0 0,0 -0.9636604393011025,0.5693475734276732 l -22.06556039173406 -38.09237171835114" fill="#35ff64" stroke="none" /><path d="M 110.5260780823613 118.17145234162733 l 7.184022109958151 12.401971025757092 a35.332447767219875,35.332447767219875 0 0,0 -0.5288951677770426,0.30032047957978075 l -6.969478175259908 -12.523794671131501" fill="#ffa90f" stroke="none" /><path d="M 110.21172684928248 118.3499491758327 l 9.096399784099983 16.345763668073285 a39.70637535506756,39.70637535506756 0 0,0 -0.600090369575206,0.3272171161871382 l -8.813686602656128 -16.499921436020195" fill="#ffe215" stroke="none" /><path d="M 109.89434966115114 118.52300852407294 l 17.469227391873964 32.7037813469595 a58.07709832307183,58.07709832307183 0 0,0 -0.8858391879877673,0.4634291958096172 l -16.9036973013597 -32.99963996171383" fill="#49ff2c" stroke="none" /><path d="M 109.57404056367764 118.69057910512821 l 2.501739746011089 4.883932161376 a26.48739420068346,26.48739420068346 0 0,0 -0.40758561579129393,0.2043718890963415 l -2.4173002225370346 -4.926271891381644" fill="#ff2e04" stroke="none" /><path d="M 109.2508944713604 118.85261126421891 l 10.508848316699197 21.416224427024154 a44.85561907920349,44.85561907920349 0 0,0 -0.6960894298533088,0.33416522761457756 l -10.138646218845656 -21.59394393113829" fill="#dcff1b" stroke="none" /><path d="M 108.92500713936063 119.00905698771935 l 2.9595060117898475 6.303347163220465 a27.96353798682105,27.96353798682105 0 0,0 -0.4374722466782962,0.20082205179128013 l -2.8505657693441315 -6.35335628534582" fill="#ff4306" stroke="none" /><path d="M 108.59647513512805 119.15986991738527 l 13.024583895327291 29.029262487225814 a52.81725736449757,52.81725736449757 0 0,0 -0.8327000921269353,0.3650312495884817 l -12.522963128542603 -29.24915829010875" fill="#81ff25" stroke="none" /><path d="M 108.2653958097858 119.30500536409082 l 9.153455401679722 21.379194620078636 a44.25630470203164,44.25630470203164 0 0,0 -0.7028924150144887,0.293809086482319 l -8.784091527167773 -21.53358874958093" fill="#e3ff1b" stroke="none" /><path d="M 107.59598834532513 119.57807347666477 l 13.986145166594243 36.04820930187482 a59.66633743313196,59.66633743313196 0 0,0 -0.9607126430622791,0.36325931669305495 l -13.363562302771689 -36.28361686867451" fill="#39ff2e" stroke="none" /><path d="M 107.2578585660854 119.70592522655815 l 8.044493727889831 21.84173064877104 a44.27606231886148,44.27606231886148 0 0,0 -0.7174418066403536,0.25724910650439303 l -7.667332360619743 -21.976967296315394" fill="#e3ff1b" stroke="none" /><path d="M 106.2309692047433 120.05430185196036 l 9.746036168917563 31.367503957941313 a53.846697331045526,53.846697331045526 0 0,0 -0.8875090233341181,0.26739918838303783 l -9.204652171143199 -31.530618515430078" fill="#76ff27" stroke="none" /><path d="M 105.88484417918355 120.15858648285463 l 4.976529982017311 17.047148059055843 a38.758691044367225,38.758691044367225 0 0,0 -0.6420447894951669,0.18144827072339417 l -4.682354024417538 -17.13028512311776" fill="#ffd614" stroke="none" /><path d="M 105.53697534728816 120.25689768951611 l 6.0057815883920185 21.972014602019375 a43.77803411532306,43.77803411532306 0 0,0 -0.7286114913442725,0.19243291711081623 l -5.6266796542362485 -22.072138868433775" fill="#e9ff1a" stroke="none" /><path d="M 104.83641907484287 120.43548508189849 l 7.224868661862887 30.527481897951926 a52.37078064395196,52.37078064395196 0 0,0 -0.8790307113123513,0.2000645280164003 l -6.698317801157673 -30.64732315954601" fill="#86ff25" stroke="none" /><path d="M 104.13013068566511 120.58985236759428 l 5.869325841022576 29.260224860051803 a50.84308537482157,50.84308537482157 0 0,0 -0.859568661102733,0.16473837969099453 l -5.364789565348139 -29.35692043809127" fill="#97ff23" stroke="none" /><path d="M 103.7750983002368 120.6578951692458 l 5.490325886126204 30.043873716739245 a51.54141493518666,51.54141493518666 0 0,0 -0.8741203781405988,0.1519770322774 l -4.972356536513555 -30.13392932753765" fill="#8fff24" stroke="none" /><path d="M 103.06178313531738 120.77559828337769 l 4.3517600984250455 29.52868169781044 a50.84762735570199,50.84762735570199 0 0,0 -0.8670038839077747,0.12015883815223517 l -3.8428276233304404 -29.59921510145528" fill="#97ff23" stroke="none" /><path d="M 102.70371172650421 120.8252237178851 l 1.1511232103060143 8.866477201128315 a29.94088936311335,29.94088936311335 0 0,0 -0.5116649581844764,0.06195550079842167 l -0.9983308290701577 -8.884978230652088" fill="#ff5f08" stroke="none" /><path d="M 102.34483914955558 120.86867818915974 l 2.5981959209597787 23.123511289537067 a44.269022248496825,44.269022248496825 0 0,0 -0.7579855895571813,0.07856830557369328 l -2.199777734796995 -23.164808963566518" fill="#e3ff1b" stroke="none" /><path d="M 101.62511606390274 120.93702456842531 l 2.5076026153658972 32.306454124685665 a53.40362709616023,53.40362709616023 0 0,0 -0.9171112685881302,0.06324936260554646 l -1.9511285859988365 -32.3448318318075" fill="#7aff26" stroke="none" /><path d="M 100.90346689309514 120.98055641714683 l 1.2829391417709741 29.792765235125557 a50.82037547041945,50.82037547041945 0 0,0 -0.8743032084626317,0.030112770287620386 l -0.7699155816336901 -29.81043480383927" fill="#97ff23" stroke="none" /><line stroke="#e1ed5e" stroke-width="0.3" x1="102.19456741930631" x2="102.32365962044197" y1="184.97166512339345" y2="189.96999836594603" /><path d="M 102.22038585953345 185.97133177190398 a86.0,86.0 0 0,1 -42.740103519485714,-10.115201625700543" fill="none" id="id31" stroke="none" /><text fill="#e1ed5e" style="font-size:6.75px; font-family:Arial;" text-anchor="middle"><textPath startOffset="22.20632615414155" xlink:href="#id31">July</textPath></text><path d="M 100.18074693466247 120.99922214144158 l 0.19562435707419204 22.727684639018022 a43.728526523726444,43.728526523726444 0 0,0 -0.7527425834732794,0.0 l 0.19562435707417639 -22.727684639018022" fill="#eaff1a" stroke="none" /><path d="M 99.81925306533755 120.99922214144158 l -0.2567518377278476 29.82948997580197 a50.830594927400405,50.830594927400405 0 0,0 -0.8748679044523706,-0.015061644373789559 l 0.7701794320728861 -29.82065085414902" fill="#97ff23" stroke="none" /><path d="M 99.45781275523022 120.99299961872073 l -0.8216361310631921 31.81300768788974 a52.82361613773017,52.82361613773017 0 0,0 -0.9087665457863241,-0.031299757307829607 l 1.3691230285241593 -31.794151132155815" fill="#81ff25" stroke="none" /><path d="M 98.73552117531835 120.96189622390904 l -1.3690786980425498 22.695900501107797 a43.737156287399245,43.737156287399245 0 0,0 -0.7511070140413393,-0.05180073728655173 l 1.759548472862819 -22.66897141930496" fill="#eaff1a" stroke="none" /><path d="M 98.01472825383883 120.90594882070398 l -2.8207530349206134 29.704003342577256 a50.837634997765065,50.837634997765065 0 0,0 -0.8704550671837618,-0.09022622678962974 l 3.3316406987099687 -29.651047747331866" fill="#97ff23" stroke="none" /><path d="M 97.2962882734958 120.8252237178851 l -2.993943697376285 23.060723036930053 a44.25426081063545,44.25426081063545 0 0,0 -0.7545802625928404,-0.104577948644351 l 3.3904525511559567 -23.0057705227931" fill="#e3ff1b" stroke="none" /><path d="M 96.93821686468263 120.77559828337769 l -2.3509702675832918 15.952408023964354 a37.124713422634926,37.124713422634926 0 0,0 -0.6314102956369855,-0.09861330256991421 l 2.6252164268287945 -15.909576414047335" fill="#ffc111" stroke="none" /><path d="M 96.58105272829116 120.7198165907248 l -3.7870289668657113 22.950498905471772 a44.26084668291206,44.26084668291206 0 0,0 -0.750645050935097,-0.1305092639271297 l 4.1815229892728585 -22.881911063023637" fill="#e3ff1b" stroke="none" /><path d="M 95.86986931433489 120.58985236759428 l -5.363994796464854 26.74100878770856 a48.273686790766085,48.273686790766085 0 0,0 -0.8133163130884031,-0.17043834113407022 l 5.823502570982644 -26.644714465847947" fill="#b4ff20" stroke="none" /><line stroke="#e1ed5e" stroke-width="0.3" x1="58.666819895761336" x2="56.23545636021788" y1="174.27360380694188" y2="178.64263932499728" /><path d="M 58.180547188652646 175.14741091055294 a86.0,86.0 0 0,1 -31.652253787137756,-30.449443065178592" fill="none" id="id32" stroke="none" /><text fill="#e1ed5e" style="font-size:6.75px; font-family:Arial;" text-anchor="middle"><textPath startOffset="22.20632615414155" xlink:href="#id32">August</textPath></text><path d="M 86.51685102203217 116.09983520530335 l -24.406992029253153 29.1436777988752 a59.013881879659145,59.013881879659145 0 0,0 -0.7731788698237093,-0.6589198066211329 l 24.90503637565392 -28.719233602031114" fill="#40ff2d" stroke="none" /><path d="M 82.05923443525364 110.91462005526583 l -25.479894173855953 15.501198260039288 a50.82469035225586,50.82469035225586 0 0,0 -0.4482716495215882,-0.7513290691352894 l 25.742946699075773 -15.060307097017889" fill="#97ff23" stroke="none" /><line stroke="#e1ed5e" stroke-width="0.3" x1="26.63291911575756" x2="22.317208475507996" y1="142.92168965132927" y2="145.44649492493687" /><path d="M 25.769776987707644 143.4266507060508 a86.0,86.0 0 0,1 -11.730757126820373,-40.83630448921669" fill="none" id="id33" stroke="none" /><text fill="#e1ed5e" style="font-size:6.75px; font-family:Arial;" text-anchor="middle"><textPath startOffset="21.46611528233685" xlink:href="#id33">September</textPath></text><path d="M 81.87401531095188 110.60418214915194 l -20.06859586228538 11.740661246943086 a44.25062722593111,44.25062722593111 0 0,0 -0.37897080836138003,-0.6607675479225751 l 20.267718666799137 -11.393473853162204" fill="#e3ff1b" stroke="none" /><path d="M 79.97269907076064 106.31721596034903 l -32.55263014830789 10.268083325396955 a55.133667613513474,55.133667613513474 0 0,0 -0.27769837938359776,-0.9075343713463008 l 32.724555300197615 -9.706221981498606" fill="#68ff28" stroke="none" /><line stroke="#e1ed5e" stroke-width="0.3" x1="15.007084014347285" x2="10.007500721073583" y1="101.09737516637583" y2="101.16192664675087" /><path d="M 14.007167355692545 101.11028546245083 a86.0,86.0 0 0,1 10.666146001902534,-42.60595125391555" fill="none" id="id34" stroke="none" /><text fill="#e1ed5e" style="font-size:6.75px; font-family:Arial;" text-anchor="middle"><textPath startOffset="22.20632615414155" xlink:href="#id34">October</textPath></text><line stroke="#e1ed5e" stroke-width="0.3" x1="26.266209847984243" x2="21.928928074336255" y1="57.711370442889674" y2="55.22380399835377" /><path d="M 25.398753493254645 57.213857153982495 a86.0,86.0 0 0,1 29.58750427330803,-30.492523968695096" fill="none" id="id35" stroke="none" /><text fill="#e1ed5e" style="font-size:6.75px; font-family:Arial;" text-anchor="middle"><textPath startOffset="21.46611528233685" xlink:href="#id35">November</textPath></text><path d="M 86.65592168130627 83.78471172551755 l -11.350682396365253 -13.79297863617254 a38.862929505572936,38.862929505572936 0 0,0 0.5202017812306643,-0.42063366281288095 l 11.111577216570087 13.986318396249557" fill="#ffd714" stroke="none" /><line stroke="#e1ed5e" stroke-width="0.3" x1="56.762969772571076" x2="54.21961505331055" y1="26.818313649435495" y2="22.513508569990535" /><path d="M 56.25429882871897 25.957352633546506 a86.0,86.0 0 0,1 42.265352541879196,-11.944610805530505" fill="none" id="id36" stroke="none" /><text fill="#e1ed5e" style="font-size:6.75px; font-family:Arial;" text-anchor="middle"><textPath startOffset="22.20632615414155" xlink:href="#id36">December</textPath></text><path d="M 92.23578459929587 80.48803036053334 l -8.369792407556888 -21.033823369979903 a43.637914005161996,43.637914005161996 0 0,0 0.7003196030493329,-0.27171312586531515 l 8.006489639507878 21.17477919973577" fill="#ebff1a" stroke="none" /></svg>