<?xml version="1.0" encoding="utf-8" ?>
<svg baseProfile="full" height="200mm" version="1.1" viewBox="0,0,200,200" width="200mm" xmlns="http://www.w3.org/2000/svg" xmlns:ev="http://www.w3.org/2001/xml-events" xmlns:xlink="http://www.w3.org/1999/xlink"><defs /><rect fill="#1a1a1a" height="200" width="200" x="0" y="0" /><rect fill="#1a1a1a" height="200" width="180" x="10" y="0" /><text alignment-baseline="middle" fill="#e1ed5e" style="dominant-baseline: central; font-size:9.0px; font-family:Arial;" text-anchor="middle" x="100.0" y="100.0">2026</text><line stroke="#e1ed5e" stroke-width="0.3" x1="100.0" x2="100.0" y1="15.0" y2="10.0" /><path d="M 100.0 14.0 a86.0,86.0 0 0,1 42.46469731375804,11.215312516191453" fill="none" id="id133" stroke="none" /><text fill="#e1ed5e" style="font-size:6.75px; font-family:Arial;" text-anchor="middle"><textPath startOffset="22.20632615414155" xlink:href="#id133">January</textPath></text><path d="M 100.0 79.0 l 0.0 -19.551137157711338 a40.55113715771134,40.55113715771134 0 0,0 0.6980211664197871,0.006008088552522163 l -0.3365406871472587 19.548240445767373" fill="#ffe715" stroke="none" /><path d="M 101.08401301168833 79.027996857942 l 1.064111143232163 -20.586968974298816 a41.61445182569483,41.61445182569483 0 0,0 0.7150511207355426,0.043133836322676776 l -1.4183243128073175 20.565601868595834" fill="#fff417" stroke="none" /><path d="M 101.80526077348638 79.07773832637324 l 2.870320729959628 -33.265887278696766 a54.38948932720887,54.38948932720887 0 0,0 0.932067169488372,0.08851100865975663 l -3.442513026538244 33.21155072552183" fill="#73ff27" stroke="none" /><path d="M 102.52436894288641 79.15227682838746 l 2.7579687373571247 -22.77692764142457 a43.94329584734787,43.94329584734787 0 0,0 0.7501440162903115,0.09739022259190468 l -3.149627482155282 22.72607909566853" fill="#ecff1a" stroke="none" /><path d="M 102.88285421437855 79.19881850522331 l 0.7409323994785436 -5.346184083830231 a26.39728312012597,26.39728312012597 0 0,0 0.4495470131506707,0.06625154398072315 l -0.8328483930578702 5.332638055688539" fill="#ff2403" stroke="none" /><path d="M 103.59715602781102 79.31037775812273 l 5.86543322042647 -33.735983837606405 a55.24207809632066,55.24207809632066 0 0,0 0.9354453567364858,0.17094665972734802 l -6.445273698265857 33.630021696528324" fill="#6aff28" stroke="none" /><path d="M 106.0581310904928 79.89281104454417 l 6.368039584491157 -21.13578813144676 a43.07427163208453,43.07427163208453 0 0,0 0.7080889822489211,0.22000669358528843 l -6.730913939450796 21.02304130297895" fill="#f7ff18" stroke="none" /><path d="M 107.08798089147638 80.2323363322302 l 5.158431322514058 -14.386344573723465 a36.28320398028492,36.28320398028492 0 0,0 0.5860906698910212,0.21586213994349285 l -5.405304318177657 14.295419165973648" fill="#ffaf10" stroke="none" /><path d="M 107.76421540070413 80.48803036053334 l 7.388154189283545 -18.566903774968086 a40.98286110929944,40.98286110929944 0 0,0 0.653220223033394,0.26646493035834273 l -7.7066582819053275 18.436977958426162" fill="#ffec16" stroke="none" /><path d="M 108.09893153111575 80.62456947434976 l 2.420081083399442 -5.7896665402956495 a27.275112038684792,27.275112038684792 0 0,0 0.4316172732639935,0.18479599122532567 l -2.519382114453751 5.747151021107532" fill="#ff3104" stroke="none" /><path d="M 108.43124777332544 80.76684994638697 l 11.804603134001741 -26.928363334061725 a50.40213269479824,50.40213269479824 0 0,0 0.7915964109597423,0.3551662351161037 l -12.266381663428264 26.72117676842909" fill="#a0ff22" stroke="none" /><path d="M 109.08828744355905 81.06846463323043 l 1.5984882577475432 -3.329762309219246 a24.69357303245162,24.69357303245162 0 0,0 0.3816082842479473,0.18725352777388524 l -1.6555678090059223 3.301753621310529" fill="#ff0a01" stroke="none" /><path d="M 109.41281617654863 81.2277094730956 l 1.7302887081330864 -3.4507719810168758 a24.86027541484594,24.86027541484594 0 0,0 0.3808825185896086,0.19510281957888034 l -1.7894317143114506 3.420476636125495" fill="#ff0d01" stroke="none" /><path d="M 109.73455568895987 81.39251694778311 l 11.224320286310167 -21.45514969286564 a45.21381453288487,45.21381453288487 0 0,0 0.6865070823409797,0.366708308140688 l -11.591972415179457 21.258762658223194" fill="#ddff1b" stroke="none" /><line stroke="#e1ed5e" stroke-width="0.3" x1="143.23703022742887" x2="145.7803849466894" y1="26.81831364943548" y2="22.513508569990506" /><path d="M 143.74570117128098 25.957352633546492 a86.0,86.0 0 0,1 28.547481713284135,27.462654790039103" fill="none" id="id134" stroke="none" /><text fill="#e1ed5e" style="font-size:6.75px; font-family:Arial;" text-anchor="middle"><textPath startOffset="19.985693538727396" xlink:href="#id134">February</textPath></text><path d="M 111.60114157652 82.49532879139004 l 8.255230056789308 -12.45610933565372 a35.9433424330796,35.9433424330796 0 0,0 0.5127836504899426,0.3462338098277018 l -8.468418401685792 12.312163613527346" fill="#ffaa0f" stroke="none" /><path d="M 111.90073688211348 82.69761687909136 l 5.780997855404876 -8.404945064007059 a31.201129238136943,31.201129238136943 0 0,0 0.43988965605897307,0.30817081556528286 l -5.9248186510475005 8.30418940567784" fill="#ff6909" stroke="none" /><path d="M 112.77801427241765 83.33499621200491 l 15.921473168352385 -20.764682602819875 a47.16611074360145,47.16611074360145 0 0,0 0.6400383838891165,0.49956011074607765 l -16.27654410740093 20.48754410285057" fill="#c5ff1e" stroke="none" /><path d="M 113.06298171725822 83.55741782278167 l 3.362474223208012 -4.232399610636551 a26.405500843201743,26.405500843201743 0 0,0 0.35345221648697495,0.28580044477841143 l -3.434829838259478 4.17389306859401" fill="#ff2403" stroke="none" /><line stroke="#e1ed5e" stroke-width="0.3" x1="172.23445277983987" x2="176.4835382374775" y1="55.19839476539836" y2="52.563006222186495" /><path d="M 173.08426987136738 54.67131705675599 a86.0,86.0 0 0,1 12.851231095245387,41.99856678651699" fill="none" id="id135" stroke="none" /><text fill="#e1ed5e" style="font-size:6.75px; font-family:Arial;" text-anchor="middle"><textPath startOffset="22.20632615414155" xlink:href="#id135">March</textPath></text><path d="M 118.3937258080291 89.86733742301442 l 19.724382797625964 -10.865689611421804 a43.519202638615845,43.519202638615845 0 0,0 0.35580450578670264,0.6592517118834257 l -19.908495402631132 10.524556916205919" fill="#f2ff19" stroke="none" /><path d="M 118.89224826269711 90.83032412892265 l 20.636536704396903 -10.016296104606404 a43.938893495700135,43.938893495700135 0 0,0 0.32439835276990764,0.6832656628277815 l -20.805893251008566 9.659588026138083" fill="#ecff1a" stroke="none" /><path d="M 119.47837535516314 92.15188598940014 l 14.228620266614803 -5.732913142385093 a36.34014106159566,36.34014106159566 0 0,0 0.22878100221675315,0.5822226963048298 l -14.325194818713257 5.4871414411844786" fill="#ffb010" stroke="none" /><path d="M 119.7369772167798 92.82701384747503 l 16.39942382491046 -5.960023093377377 a38.44886750086184,38.44886750086184 0 0,0 0.22070916778955865,0.623974538357253 l -16.49958607350983 5.676850928593509" fill="#ffcc13" stroke="none" /><path d="M 119.97218684219823 93.5106431181261 l 59.91656052659467 -19.46807064562169 a84.0,84.0 0 0,0 0.4349780649271753,1.3789993342943234 l -60.24279407529006 18.433821144900946" fill="#4dd2ff" stroke="none" /><path d="M 120.37134235888165 94.90015583598534 l 16.408639960007804 -4.107805232725827 a37.91500899104622,37.91500899104622 0 0,0 0.15304519715508771,0.6344711476771449 l -16.47691795742371 3.824748853389276" fill="#ffc512" stroke="none" /><path d="M 120.53481517161879 95.60439243477599 l 26.991585243120486 -5.777720193753097 a48.603038321422915,48.603038321422915 0 0,0 0.16807556493200568,0.8195961454304019 l -27.08704010396749 5.312248392159283" fill="#b4ff20" stroke="none" /><path d="M 120.6074358757038 95.95851677861258 l 10.211460738602154 -2.0026483396497596 a31.405985334811653,31.405985334811653 0 0,0 0.09947363711631298,0.5313921470641827 l -10.244420099628327 1.826578115123014" fill="#ff6c0a" stroke="none" /><path d="M 120.73433829027371 96.67025291283417 l 17.563981483803126 -2.8206164752391523 a38.78902253817701,38.78902253817701 0 0,0 0.10019408914029866,0.6601538611708568 l -17.609931466382722 2.517863501676213" fill="#ffd013" stroke="none" /><path d="M 120.83666639777658 97.38593545837742 l 17.093292272592073 -2.1444394403771865 a38.227282467925725,38.227282467925725 0 0,0 0.07629009113632675,0.6536069112825386 l -17.127672716731986 1.8498887907697952" fill="#ffc912" stroke="none" /><path d="M 120.87857604477298 97.74499172005257 l 2.986210817796776 -0.3225282272775577 a24.003577784196256,24.003577784196256 0 0,0 0.04083222820769956,0.4111749656959435 l -2.991320171686704 0.27107773087717923" fill="#ff0000" stroke="none" /><line stroke="#e1ed5e" stroke-width="0.3" x1="184.98032266829074" x2="189.97916517819016" y1="98.17113171792111" y2="98.06355123074" /><path d="M 185.9800911702706 98.14961562048488 a86.0,86.0 0 0,1 -9.607161424134198,41.387399972396054" fill="none" id="id136" stroke="none" /><text fill="#e1ed5e" style="font-size:6.75px; font-family:Arial;" text-anchor="middle"><textPath startOffset="21.466115282336823" xlink:href="#id136">April</textPath></text><line stroke="#e1ed5e" stroke-width="0.3" x1="174.80103733775053" x2="179.2010983576182" y1="140.37084112569926" y2="142.7455964860345" /><path d="M 175.68104954172406 140.8457921977663 a86.0,86.0 0 0,1 -30.038265399797805,32.042727171017184" fill="none" id="id137" stroke="none" /><text fill="#e1ed5e" style="font-size:6.75px; font-family:Arial;" text-anchor="middle"><textPath startOffset="22.206326154141568" xlink:href="#id137">May</textPath></text><line stroke="#e1ed5e" stroke-width="0.3" x1="143.8653032363475" x2="146.44561519142675" y1="172.8068346515853" y2="177.08958963109032" /><path d="M 144.38136562736335 173.6633856474863 a86.0,86.0 0 0,1 -40.68145358897372,12.25698825130547" fill="none" id="id138" stroke="none" /><text fill="#e1ed5e" style="font-size:6.75px; font-family:Arial;" text-anchor="middle"><textPath startOffset="21.466115282336833" xlink:href="#id138">June</textPath></text><line stroke="#e1ed5e" stroke-width="0.3" x1="102.19456741930631" x2="102.32365962044197" y1="184.97166512339345" y2="189.96999836594603" /><path d="M 102.22038585953345 185.97133177190398 a86.0,86.0 0 0,1 -42.740103519485714,-10.115201625700543" fill="none" id="id139" stroke="none" /><text fill="#e1ed5e" style="font-size:6.75px; font-family:Arial;" text-anchor="middle"><textPath startOffset="22.20632615414155" xlink:href="#id139">July</textPath></text><line stroke="#e1ed5e" stroke-width="0.3" x1="58.666819895761336" x2="56.23545636021788" y1="174.27360380694188" y2="178.64263932499728" /><path d="M 58.180547188652646 175.14741091055294 a86.0,86.0 0 0,1 -31.652253787137756,-30.449443065178592" fill="none" id="id140" stroke="none" /><text fill="#e1ed5e" style="font-size:6.75px; font-family:Arial;" text-anchor="middle"><textPath startOffset="22.20632615414155" xlink:href="#id140">August</textPath></text><line stroke="#e1ed5e" stroke-width="0.3" x1="26.63291911575756" x2="22.317208475507996" y1="142.92168965132927" y2="145.44649492493687" /><path d="M 25.769776987707644 143.4266507060508 a86.0,86.0 0 0,1 -11.730757126820373,-40.83630448921669" fill="none" id="id141" stroke="none" /><text fill="#e1ed5e" style="font-size:6.75px; font-family:Arial;" text-anchor="middle"><textPath startOffset="21.46611528233685" xlink:href="#id141">September</textPath></text><line stroke="#e1ed5e" stroke-width="0.3" x1="15.007084014347285" x2="10.007500721073583" y1="101.09737516637583" y2="101.16192664675087" /><path d="M 14.007167355692545 101.11028546245083 a86.0,86.0 0 0,1 10.666146001902534,-42.60595125391555" fill="none" id="id142" stroke="none" /><text fill="#e1ed5e" style="font-size:6.75px; font-family:Arial;" text-anchor="middle"><textPath startOffset="22.20632615414155" xlink:href="#id142">October</textPath></text><line stroke="#e1ed5e" stroke-width="0.3" x1="26.266209847984243" x2="21.928928074336255" y1="57.711370442889674" y2="55.22380399835377" /><path d="M 25.398753493254645 57.213857153982495 a86.0,86.0 0 0,1 29.58750427330803,-30.492523968695096" fill="none" id="id143" stroke="none" /><text fill="#e1ed5e" style="font-size:6.75px; font-family:Arial;" text-anchor="middle"><textPath startOffset="21.46611528233685" xlink:href="#id143">November</textPath></text><line stroke="#e1ed5e" stroke-width="0.3" x1="56.762969772571076" x2="54.21961505331055" y1="26.818313649435495" y2="22.513508569990535" /><path d="M 56.25429882871897 25.957352633546506 a86.0,86.0 0 0,1 42.265352541879196,-11.944610805530505" fill="none" id="id144" stroke="none" /><text fill="#e1ed5e" style="font-size:6.75px; font-family:Arial;" text-anchor="middle"><textPath startOffset="22.20632615414155" xlink:href="#id144">December</textPath></text></svg>