<?xml version="1.0" encoding="utf-8" ?>
<svg baseProfile="full" height="200mm" version="1.1" viewBox="0,0,200,200" width="200mm" xmlns="http://www.w3.org/2000/svg" xmlns:ev="http://www.w3.org/2001/xml-events" xmlns:xlink="http://www.w3.org/1999/xlink"><defs /><rect fill="#1a1a1a" height="200" width="200" x="0" y="0" /><rect fill="#1a1a1a" height="200" width="180" x="10" y="0" /><text alignment-baseline="middle" fill="#e1ed5e" style="dominant-baseline: central; font-size:9.0px; font-family:Arial;" text-anchor="middle" x="100.0" y="100.0">2020</text><line stroke="#e1ed5e" stroke-width="0.3" x1="100.0" x2="100.0" y1="15.0" y2="10.0" /><path d="M 100.0 14.0 a86.0,86.0 0 0,1 42.35913384403234,11.155469271406648" fill="none" id="id61" stroke="none" /><text fill="#e1ed5e" style="font-size:6.75px; font-family:Arial;" text-anchor="middle"><textPath startOffset="22.145653131862478" xlink:href="#id61">January</textPath></text><path d="M 100.0 79.0 l 0.0 -26.676484142611756 a47.676484142611756,47.676484142611756 0 0,0 0.8184302483371503,0.007025239354662023 l -0.4579373234882955 26.67255330145153" fill="#bfff1e" stroke="none" /><path d="M 100.72087961077811 79.0123766808444 l 1.3776504968589751 -40.10879106750509 a61.13244375549876,61.13244375549876 0 0,0 1.0484919729642344,0.04502675670237699 l -2.065968230424046 40.07923174237688" fill="#30ff33" stroke="none" /><path d="M 101.80034050326958 79.07731436759882 l 3.4414569585102512 -39.994946472393856 a61.14273744187021,61.14273744187021 0 0,0 1.0449597697010826,0.09895877663126874 l -4.127516291596347 39.92997594025741" fill="#30ff33" stroke="none" /><path d="M 102.15924093988457 79.11130261209362 l 0.2990678514918256 -2.8932101706991697 a23.908626251623446,23.908626251623446 0 0,0 0.40788582990482847,0.04570445800926168 l -0.34868958299745073 2.887649952182937" fill="#ff0000" stroke="none" /><path d="M 102.51750503828377 79.15144685158666 l 3.5142657473331997 -29.103161700471674 a50.31457120113956,50.31457120113956 0 0,0 0.8565988136410599,0.11090386613153441 l -4.013342382865051 29.038546238139745" fill="#a0ff22" stroke="none" /><path d="M 103.94208987418118 79.37332000966035 l 11.396651356604123 -59.63209566422477 a81.71137039674892,81.71137039674892 0 0,0 1.3754884098729747,0.2751362047742241 l -12.418636252008055 59.42767006278769" fill="#4ae8ff" stroke="none" /><path d="M 104.9986988182912 79.60360301121754 l 8.253664516610053 -33.677767797691516 a55.674414512547656,55.674414512547656 0 0,0 0.9263021777837825,0.23546239131614902 l -8.83057198761923 33.5311201745401" fill="#65ff29" stroke="none" /><path d="M 105.69591212413111 79.78721728523813 l 12.292875594757955 -43.62307878377693 a66.32204533076376,66.32204533076376 0 0,0 1.0931767595055826,0.31820782256327756 l -13.039912366645144 43.40562726691114" fill="#36ff72" stroke="none" /><path d="M 106.38641147887787 79.99465700312896 l 9.907994729231676 -31.036652371215045 a53.57978130629687,53.57978130629687 0 0,0 0.8738027056768202,0.287236305283052 l -10.439320172556238 30.86199514452997" fill="#7bff26" stroke="none" /><path d="M 107.74402155503746 80.48000691201159 l 15.458486766547177 -38.965484882654266 a62.91985001466337,62.91985001466337 0 0,0 1.0005620578554038,0.4069198783862288 l -16.12510328559302 38.69437774768874" fill="#32ff49" stroke="none" /><path d="M 108.07796709384702 80.6158196554323 l 16.916418491878716 -40.59324617458842 a64.97700364489506,64.97700364489506 0 0,0 1.0259093013890632,0.4378996764250531 l -17.610762868438208 40.29687184850397" fill="#35ff62" stroke="none" /><path d="M 108.4095320186766 80.7573450057729 l 9.385811428109452 -21.476573339738152 a44.43793204574972,44.43793204574972 0 0,0 0.696377516241355,0.31148080545034373 l -9.753102347206438 21.312288783377955" fill="#e6ff1a" stroke="none" /><path d="M 109.06512990194946 81.05736502329252 l 14.969370652784713 -31.28022732975495 a55.67758180066195,55.67758180066195 0 0,0 0.8586006767627254,0.41998461603324133 l -15.504131578809504 31.01864896362449" fill="#65ff29" stroke="none" /><path d="M 109.3889696526874 81.21577127319529 l 12.16396501105237 -24.336078339230408 a48.20674096107922,48.20674096107922 0 0,0 0.7370415358336917,0.3763386598255441 l -12.579933768599641 24.12368172773203" fill="#b8ff1f" stroke="none" /><path d="M 110.02825361518725 81.54914285379988 l 11.789258476222797 -21.690907744394334 a45.68769114751351,45.68769114751351 0 0,0 0.6858719125706059,0.3804415881693595 l -12.159874576949502 21.485333240791828" fill="#d6ff1c" stroke="none" /><line stroke="#e1ed5e" stroke-width="0.3" x1="143.13028292997686" x2="145.6673583964461" y1="26.7553504044142" y2="22.446841604673864" /><path d="M 143.63769802327073 25.89364864446614 a86.0,86.0 0 0,1 29.32050498858742,28.57503671076993" fill="none" id="id62" stroke="none" /><text fill="#e1ed5e" style="font-size:6.75px; font-family:Arial;" text-anchor="middle"><textPath startOffset="20.669276256404974" xlink:href="#id62">February</textPath></text><path d="M 110.96478420261332 82.08984904055464 l 18.105881855002817 -29.574597300300262 a55.67678997863337,55.67678997863337 0 0,0 0.8108552175860733,0.5060336263663091 l -18.610901201378603 29.259427877092406" fill="#65ff29" stroke="none" /><path d="M 111.5731344415666 82.4767994020092 l 17.572652378623562 -26.607235423050856 a52.88640914994344,52.88640914994344 0 0,0 0.7532629183794672,0.506828908541652 l -18.02681158510003 26.301656840452086" fill="#83ff25" stroke="none" /><path d="M 112.16784306229584 82.88440491214696 l 15.313160909476926 -21.539878538858662 a47.42837990699233,47.42837990699233 0 0,0 0.6595232180971192,0.47744394892204484 l -15.680665137948012 21.273833818563542" fill="#c2ff1e" stroke="none" /><path d="M 114.13192950727249 84.46653392183569 l 14.524407452321341 -15.964868091789308 a42.58322091415644,42.58322091415644 0 0,0 0.5364882140688725,0.4965654816381724 l -14.796325437704178 15.71318486401876" fill="#fcff18" stroke="none" /><path d="M 115.16444852881244 85.47280134310134 l 20.983088534509438 -20.10132415939446 a50.05775692320584,50.05775692320584 0 0,0 0.5891182190389841,0.6256231333579981 l -21.325062587284684 19.738159566091966" fill="#a3ff22" stroke="none" /><path d="M 115.6541949942343 86.00192230759917 l 25.85017901023261 -23.115389471063924 a55.67784574133814,55.67784574133814 0 0,0 0.6309862509075621,0.7179465249843279 l -26.243176325098762 22.6682306682683" fill="#65ff29" stroke="none" /><path d="M 116.35404254752997 86.82634096563983 l 20.613739976087874 -16.604969754646763 a47.4698185931543,47.4698185931543 0 0,0 0.5057424738401946,0.638989094393948 l -20.89574888056963 16.248660716338136" fill="#c1ff1e" stroke="none" /><path d="M 116.7966241395341 87.39550010848427 l 21.599097686924637 -16.20836557334733 a48.00429846244083,48.00429846244083 0 0,0 0.4889534520195882,0.6633592638940082 l -21.874153158528053 15.835200000184445" fill="#bbff1f" stroke="none" /><path d="M 117.21940702142032 87.97951657250589 l 21.673771622105715 -15.129975862160933 a47.43233901713519,47.43233901713519 0 0,0 0.4603427380260501,0.671653812289413 l -21.93030409694709 14.75568731480147" fill="#c2ff1e" stroke="none" /><path d="M 117.42321728460499 88.27688183743584 l 21.91607003866858 -14.746110005145852 a47.415182873182786,47.415182873182786 0 0,0 0.44858276480981196,0.6792114800231727 l -22.165977242399116 14.367718646783619" fill="#c2ff1e" stroke="none" /><path d="M 117.81537515405839 88.88188828441811 l 27.90824159099495 -17.41680683740453 a53.8970379990783,53.8970379990783 0 0,0 0.48310234154243037,0.7891113683590988 l -28.203111896992784 16.935158352920876" fill="#78ff26" stroke="none" /><line stroke="#e1ed5e" stroke-width="0.3" x1="172.87174338648825" x2="177.1583165268699" y1="56.24261187166439" y2="53.66864786411523" /><path d="M 173.72905801456457 55.72781907015455 a86.0,86.0 0 0,1 12.242430191666344,42.057860355516425" fill="none" id="id63" stroke="none" /><text fill="#e1ed5e" style="font-size:6.75px; font-family:Arial;" text-anchor="middle"><textPath startOffset="22.145653131862474" xlink:href="#id63">March</textPath></text><path d="M 118.18653347947321 89.5 l 22.900677402169965 -13.221712262767614 a47.44342452553522,47.44342452553522 0 0,0 0.40116044023150527,0.7088120594381018 l -23.124271207422847 12.826643433230393" fill="#c1ff1e" stroke="none" /><path d="M 118.36410011445183 89.81374322990088 l 27.97453556460275 -15.517003311317401 a52.98987389501026,52.98987389501026 0 0,0 0.43440253401536405,0.7992517348111808 l -28.236783448233453 15.034496743031616" fill="#82ff25" stroke="none" /><path d="M 118.8641267826498 90.77261029715802 l 24.051702373945425 -11.764892877272588 a47.77493401483095,47.77493401483095 0 0,0 0.3540366991573445,0.7398005360136979 l -24.25011833106268 11.350279839193787" fill="#bdff1f" stroke="none" /><path d="M 119.0197475246899 91.09779779509293 l 23.93002814795204 -11.200461471197174 a47.42151744941137,47.42151744941137 0 0,0 0.33876020559804587,0.7402521857150312 l -24.118772818405137 10.788020303267459" fill="#c2ff1e" stroke="none" /><path d="M 119.31412917781788 91.75594674310238 l 24.296525549659837 -10.37074199643514 a47.41729439859231,47.41729439859231 0 0,0 0.31312158357570163,0.7513778126716055 l -24.47097297777202 9.952131674322256" fill="#c2ff1e" stroke="none" /><path d="M 119.4528033332814 92.08871423366111 l 24.478063320434043 -9.955015254956855 a47.42494867820186,47.42494867820186 0 0,0 0.3002255008068429,0.7567643838459197 l -24.64534749620701 9.53334985389737" fill="#c2ff1e" stroke="none" /><path d="M 119.71291397450082 92.76114493625339 l 26.782771479520598 -9.835004667320135 a49.531459214881224,49.531459214881224 0 0,0 0.2862442603711117,0.8006761410903093 l -26.94765590993565 9.373793569848909" fill="#a9ff21" stroke="none" /><path d="M 119.83427380445688 93.10060997987247 l 27.44748060696447 -9.547658545218916 a50.06066027064393,50.06066027064393 0 0,0 0.2753683841415472,0.8140776979591793 l -27.60733441267838 9.075079172785575" fill="#a3ff22" stroke="none" /><path d="M 120.16314734710363 94.1308016681162 l 25.360253695236604 -7.38200024638582 a47.41280740709708,47.41280740709708 0 0,0 0.22076646682111323,0.7834223083702481 l -25.4832386541323 6.945570014112559" fill="#c2ff1e" stroke="none" /><path d="M 120.35273937422433 94.82641323984039 l 27.566113793353246 -7.00719832982094 a49.4427751476811,49.4427751476811 0 0,0 0.2020384205391124,0.8243857015796274 l -27.682339740408647 6.532956803633218" fill="#aaff21" stroke="none" /><path d="M 120.51834098615036 95.52812308129327 l 25.84619827376448 -5.633058616911619 a47.45292638987808,47.45292638987808 0 0,0 0.1666327342891631,0.7973979553025076 l -25.939088718878008 5.188544210323706" fill="#c1ff1e" stroke="none" /><path d="M 120.592083275326 95.88100663000786 l 26.960367707580133 -5.392828610650352 a48.494436298127276,48.494436298127276 0 0,0 0.15627610990385837,0.8177026430153426 l -27.04897010976615 4.929223402601695" fill="#b5ff20" stroke="none" /><path d="M 120.7213421655516 96.59031103205396 l 34.227587474422336 -5.632136493791607 a55.68787548703339,55.68787548703339 0 0,0 0.14711810657193766,0.9446037796005566 l -34.31922707313254 5.043744532259609" fill="#65ff29" stroke="none" /><path d="M 120.86939407059847 97.66154086499901 l 31.554586786538966 -3.535757266001319 a52.75206334576228,52.75206334576228 0 0,0 0.09311394189919076,0.9007929217159376 l -31.61063312091982 2.99355982200245" fill="#85ff25" stroke="none" /><path d="M 120.9064616781168 98.02013634271609 l 29.371086769385336 -2.781472454064571 a50.50249696258746,50.50249696258746 0 0,0 0.07432615361104415,0.8637825697112369 l -29.41450654569412 2.2768688369776724" fill="#9eff22" stroke="none" /><path d="M 120.98066250479742 99.09900007780936 l 29.03838311234185 -1.2470331153165213 a50.06514726213918,50.06514726213918 0 0,0 0.029503422281803048,0.8589599486773117 l -29.055511221620502 0.7483669020750895" fill="#a3ff22" stroke="none" /><line stroke="#e1ed5e" stroke-width="0.3" x1="184.99686870605535" x2="189.99668451229388" y1="99.2704041080226" y2="99.22748670261217" /><path d="M 185.99683186730306 99.26182062694052 a86.0,86.0 0 0,1 -10.086455211305974,41.156179273409016" fill="none" id="id64" stroke="none" /><text fill="#e1ed5e" style="font-size:6.75px; font-family:Arial;" text-anchor="middle"><textPath startOffset="21.40746469413373" xlink:href="#id64">April</textPath></text><path d="M 120.99922638620191 99.81974689727618 l 27.19676504628819 -0.23345151833143668 a48.19776697808874,48.19776697808874 0 0,0 0.0,0.8274092421105238 l -27.19676504628819 -0.23345151833143338" fill="#b9ff1f" stroke="none" /><path d="M 120.99303781780057 100.54070618675476 l 28.656301373470207 0.7380846724815491 a49.66580501906239,49.66580501906239 0 0,0 -0.029268089650691612,0.852108495892787 l -28.63940859682267 -1.2298994329384467" fill="#a7ff21" stroke="none" /><path d="M 120.96210409425399 101.26102812881392 l 26.845966217119756 1.6149866632069525 a47.89449914114542,47.89449914114542 0 0,0 -0.056415247177861054,0.8202653125212904 l -26.81428700877683 -2.0755953998825865" fill="#bcff1f" stroke="none" /><path d="M 120.9064616781168 101.97986365728391 l 31.463747469094443 2.9796495980581463 a52.60452050777159,52.60452050777159 0 0,0 -0.09285351047010598,0.8982734838838897 l -31.40796156614267 -3.5193276042249675" fill="#86ff25" stroke="none" /><path d="M 120.82617615685814 102.69636545807757 l 26.202556183710705 3.392445491431638 a47.42125350873518,47.42125350873518 0 0,0 -0.11145232821340757,0.8064135270370034 l -26.140459338942087 -3.841747326668726" fill="#c2ff1e" stroke="none" /><path d="M 120.65975698304385 103.76489593502545 l 35.783817382202514 6.521003548711555 a57.37313670451213,57.37313670451213 0 0,0 -0.18488823258080359,0.9674133591933685 l -35.66660285733955 -7.134319472938238" fill="#53ff2b" stroke="none" /><path d="M 120.43855184770803 104.8234425847677 l 27.742450609724877 6.54714280511844 a49.50453726590976,49.50453726590976 0 0,0 -0.20229079959304402,0.8254154942442655 l -27.625972283615535 -7.0224141239708056" fill="#a9ff21" stroke="none" /><path d="M 120.35273937422433 105.17358676015961 l 26.58586706392979 6.758023444426512 a48.431354476517654,48.431354476517654 0 0,0 -0.21173846665805887,0.8040054461974078 l -26.465939116467002 -7.213409394996723" fill="#b6ff1f" stroke="none" /><path d="M 120.26092885502905 105.52220625578681 l 19.791775753593118 5.394336491759266 a41.51373329423102,41.51373329423102 0 0,0 -0.19329883052969687,0.6859493572524771 l -19.69625843098884 -5.7332937729147515" fill="#fff417" stroke="none" /><path d="M 120.16314734710363 105.8691983318838 l 12.904279143422649 3.7562475896709917 a34.43985923163937,34.43985923163937 0 0,0 -0.17010613990774298,0.5662280157292359 l -12.837896683511277 -3.977213208990951" fill="#ff970d" stroke="none" /><path d="M 119.94978838288452 106.5578916946017 l 28.059420404395766 9.223688817831874 a50.53654530981608,50.53654530981608 0 0,0 -0.27798608222154664,0.8218164571982338 l -27.896948900601853 -9.704006949504269" fill="#9eff22" stroke="none" /><path d="M 119.71291397450082 107.23885506374661 l 25.926252015657234 9.520478856158729 a48.61901629728938,48.61901629728938 0 0,0 -0.29442128838765985,0.7809874468015638 l -25.759000043455135 -9.96413458315445" fill="#b4ff20" stroke="none" /><path d="M 119.4528033332814 107.91128576633889 l 32.12194169923134 13.063714046680243 a55.67678997863337,55.67678997863337 0 0,0 -0.36766342043840233,0.8822583658835638 l -31.89295243425645 -13.613204922005083" fill="#65ff29" stroke="none" /><path d="M 118.8641267826498 109.22738970284198 l 26.6441071111547 13.032967941299663 a50.66086136830199,50.66086136830199 0 0,0 -0.388834382481491,0.7779292347896257 l -26.41645281546148 -13.488429032253036" fill="#9cff22" stroke="none" /><path d="M 118.5362547648365 109.86951160357373 l 23.27698210311715 12.393681888678929 a47.370840839582726,47.370840839582726 0 0,0 -0.3883385972936089,0.7144992795324616 l -23.060798156208204 -12.791436001685993" fill="#c2ff1e" stroke="none" /><line stroke="#e1ed5e" stroke-width="0.3" x1="174.33088141563837" x2="178.70328620479359" y1="141.23008692659167" y2="143.65538615756765" /><path d="M 175.20536237346943 141.71514677278685 a86.0,86.0 0 0,1 -30.301960400862466,31.631185727798858" fill="none" id="id65" stroke="none" /><text fill="#e1ed5e" style="font-size:6.75px; font-family:Arial;" text-anchor="middle"><textPath startOffset="22.145653131862474" xlink:href="#id65">May</textPath></text><path d="M 118.18653347947321 110.5 l 22.875533675795904 13.207195525577108 a47.414391051154226,47.414391051154226 0 0,0 -0.41301612578305225,0.7013916755292307 l -22.645443839883086 -13.597938369399888" fill="#c2ff1e" stroke="none" /><path d="M 117.81537515405839 111.11811171558189 l 22.401738941676548 13.980341925054747 a47.4062088901923,47.4062088901923 0 0,0 -0.4367744155876031,0.686681927605851 l -22.158446834463057 -14.36283752733927" fill="#c2ff1e" stroke="none" /><path d="M 117.423217284605 111.72311816256416 l 22.010233808818743 14.809467592098411 a47.528677363944865,47.528677363944865 0 0,0 -0.46127772582692045,0.673017987433327 l -21.7527663461765 -15.185120314601782" fill="#c0ff1e" stroke="none" /><path d="M 117.01052211995028 112.31430620078461 l 21.395672093073493 15.488816608202923 a47.41359922912564,47.41359922912564 0 0,0 -0.48293681520817805,0.6551965405307753 l -21.126633258281487 -15.853819458002574" fill="#c2ff1e" stroke="none" /><path d="M 116.57777611688842 112.89097897827486 l 20.849284712727666 16.212529898388222 a47.410959822363736,47.410959822363736 0 0,0 -0.5051153937031881,0.6381967991259284 l -20.567902888382918 -16.568046641428833" fill="#c2ff1e" stroke="none" /><path d="M 116.35404254752997 113.17365903436017 l 20.56440858124846 16.56523187495034 a47.406472830868495,47.406472830868495 0 0,0 -0.5159476263891704,0.6293722122842155 l -20.27701413562066 -16.915806368933048" fill="#c2ff1e" stroke="none" /><path d="M 115.89218393027572 113.72728997021213 l 19.981646535250647 17.25967036847095 a47.40383342410659,47.40383342410659 0 0,0 -0.5372184705184556,0.6112560036155577 l -19.682417000773604 -17.600138649897797" fill="#c2ff1e" stroke="none" /><path d="M 115.41159269507618 114.26474011684316 l 19.391333526055323 17.94832881591669 a47.422837152792326,47.422837152792326 0 0,0 -0.5581084547613321,0.5926918383053206 l -19.08036923755773 -18.278562114166508" fill="#c2ff1e" stroke="none" /><path d="M 114.91283532996324 114.78537596483092 l 21.25852197774228 21.076826300496354 a50.93588755289287,50.93588755289287 0 0,0 -0.6209523223281965,0.6156450694128239 l -20.89357773528412 -21.438651380137838" fill="#99ff23" stroke="none" /><path d="M 114.65682725009322 115.03919595460226 l 18.430427576153075 18.91124232518388 a47.40673677154468,47.40673677154468 0 0,0 -0.5876799017606537,0.562984052029507 l -18.103075188527107 -19.224838507518967" fill="#c2ff1e" stroke="none" /><path d="M 114.13192950727249 115.5334660781643 l 20.235378956540192 22.242226189881595 a51.06970547572165,51.06970547572165 0 0,0 -0.6535340919598118,0.5843942149216563 l -19.850579837757003 -22.58631593468664" fill="#97ff23" stroke="none" /><path d="M 113.59037401385872 116.0094264158162 l 17.094184127666757 20.13690591967684 a47.41412711047803,47.41412711047803 0 0,0 -0.6250213003566963,0.5214149984104183 l -16.745988493148165 -20.42738310199913" fill="#c2ff1e" stroke="none" /><path d="M 113.03279911837588 116.46651593811092 l 16.392693934871158 20.711633279648712 a47.413863169801836,47.413863169801836 0 0,0 -0.642548283073881,0.49964943133679773 l -16.03473570716205 -20.989983762606304" fill="#c2ff1e" stroke="none" /><path d="M 112.45986205192187 116.90419585922612 l 15.669233114028408 21.258324082532834 a47.4091122376304,47.4091122376304 0 0,0 -0.6592552883190469,0.4772499884248705 l -15.301996815335393 -21.524174842330783" fill="#c2ff1e" stroke="none" /><path d="M 111.8722381534696 117.32195027204791 l 14.940696169832636 21.798922219900398 a47.427588084963766,47.427588084963766 0 0,0 -0.6755127448961429,0.45451512194207405 l -14.56428713683949 -22.05218701589959" fill="#c2ff1e" stroke="none" /><path d="M 111.5731344415666 117.5232005979908 l 14.56210526474652 22.048883383460403 a47.4236289748209,47.4236289748209 0 0,0 -0.6831585302569573,0.44281510562535703 l -14.181461102232554 -22.295612330789655" fill="#c2ff1e" stroke="none" /><path d="M 110.96478420261333 117.91015095944535 l 13.801874455047022 22.54432467118587 a47.43365872051615,47.43365872051615 0 0,0 -0.6981042927212017,0.4191915696135668 l -13.412837405768384 -22.777930241335362" fill="#c2ff1e" stroke="none" /><line stroke="#e1ed5e" stroke-width="0.3" x1="143.1302829299769" x2="145.66735839644613" y1="173.24464959558577" y2="177.55315839532614" /><path d="M 143.63769802327073 174.10635135553383 a86.0,86.0 0 0,1 -40.68552437913181,11.842963189579606" fill="none" id="id66" stroke="none" /><text fill="#e1ed5e" style="font-size:6.75px; font-family:Arial;" text-anchor="middle"><textPath startOffset="21.407464694133747" xlink:href="#id66">June</textPath></text><path d="M 110.65571695917076 118.09573695890943 l 13.409221363731879 22.771789411415078 a47.42653232225899,47.42653232225899 0 0,0 -0.7050914578224534,0.4070847429771007 l -13.016337438049026 -22.99862105166835" fill="#c2ff1e" stroke="none" /><path d="M 110.02825361518725 118.45085714620011 l 13.667523615610964 25.14670404745697 a49.62093510410993,49.62093510410993 0 0,0 -0.7519017391074947,0.40034532504086323 l -13.233833060716917 -25.377619840220405" fill="#a8ff21" stroke="none" /><path d="M 108.73861861582097 119.09545874513695 l 10.994645916269747 24.02528554472147 a47.42151744941137,47.42151744941137 0 0,0 -0.7431326575642522,0.3323937854626875 l -10.580599855849869 -24.210483081094008" fill="#c2ff1e" stroke="none" /><path d="M 108.4095320186766 119.2426549942271 l 11.317618584320671 25.896926165530882 a49.261975784490346,49.261975784490346 0 0,0 -0.7777877760924087,0.3319913514938075 l -10.871395733057833 -26.087392166684094" fill="#acff20" stroke="none" /><path d="M 107.74402155503746 119.51999308798841 l 9.776855601599879 24.644062830810007 a47.51257698269722,47.51257698269722 0 0,0 -0.7607164886663952,0.29426147986759804 l -9.352366850439953 -24.808264198815646" fill="#c1ff1e" stroke="none" /><path d="M 107.06938296918513 119.77432235084164 l 10.312017034283217 28.84454694449679 a51.6324269973606,51.6324269973606 0 0,0 -0.8371687318051462,0.29121074208834363 l -9.81534253043305 -29.017316119153723" fill="#91ff24" stroke="none" /><path d="M 106.38641147887787 120.00534299687104 l 9.624246378930032 30.14781470528091 a52.646751015962124,52.646751015962124 0 0,0 -0.8633048505343756,0.2674540494893739 l -9.105300895524032 -30.30858534257693" fill="#86ff25" stroke="none" /><path d="M 105.69591212413111 120.21278271476187 l 6.368902671387993 22.600988748201537 a44.48121831664502,44.48121831664502 0 0,0 -0.73673309712445,0.20079988172783264 l -5.979988173328848 -22.706989124073512" fill="#e5ff1a" stroke="none" /><path d="M 104.9986988182912 120.39639698878246 l 7.0189949136473215 28.63989448556843 a50.48745234404458,50.48745234404458 0 0,0 -0.8435439841483529,0.1990740834078248 l -6.52631877575909 -28.756164712622482" fill="#9eff22" stroke="none" /><path d="M 104.29559338865022 120.5559693870025 l 5.525620691542944 26.44209530624022 a48.01327244543131,48.01327244543131 0 0,0 -0.8082314547914072,0.1616689268003265 l -5.070892751220578 -26.533053629703407" fill="#bbff1f" stroke="none" /><path d="M 103.2317021107853 120.74984581791261 l 2.5043829701037694 16.079935191189893 a37.27379027190079,37.27379027190079 0 0,0 -0.6330773908967379,0.09304057524455225 l -2.227980473599346 -16.120556839733325" fill="#ffbd11" stroke="none" /><path d="M 102.51750503828377 120.84855314841334 l 2.286226599809232 18.933235902452434 a40.07076961749549,40.07076961749549 0 0,0 -0.6836151499606719,0.07660050343784452 l -1.960875548247761 -18.96969216639725" fill="#ffe215" stroke="none" /><path d="M 101.80034050326958 120.92268563240118 l 2.069377100576223 24.04929870300371 a45.1381666596841,45.1381666596841 0 0,0 -0.7725741245949139,0.059802123343896764 l -1.6562339812060733 -24.08127859334266" fill="#ddff1b" stroke="none" /><path d="M 101.44090949804482 120.95050786540614 l 1.4632152527696707 21.274828643665273 a42.32508693284176,42.32508693284176 0 0,0 -0.7252819799651192,0.043631162880667054 l -1.0977889206720863 -21.296811784370632" fill="#fffe18" stroke="none" /><path d="M 101.08105385017728 120.97215588758144 l 1.3609892323539852 26.40282751647094 a47.437881771335206,47.437881771335206 0 0,0 -0.8136144278904014,0.03494010430103095 l -0.9075490438627541 -26.4223001891978" fill="#c1ff1e" stroke="none" /><line stroke="#e1ed5e" stroke-width="0.3" x1="101.45913802915013" x2="101.54496967792366" y1="184.9874750549273" y2="189.98673829345242" /><path d="M 101.47630435890484 185.9873277026323 a86.0,86.0 0 0,1 -42.54439059252881,-10.42667462771756" fill="none" id="id67" stroke="none" /><text fill="#e1ed5e" style="font-size:6.75px; font-family:Arial;" text-anchor="middle"><textPath startOffset="22.145653131862474" xlink:href="#id67">July</textPath></text><path d="M 100.36049292484886 120.99690560180557 l 0.5952505571445367 34.670360765128095 a55.67547027525242,55.67547027525242 0 0,0 -0.9557434819933847,0.008203908318764554 l -4.246520368151707e-15 -34.67547027525242" fill="#65ff29" stroke="none" /><path d="M 99.63950707515114 120.99690560180557 l -0.4691694064498746 27.32676582380532 a48.33079307888893,48.33079307888893 0 0,0 -0.8294178260015909,-0.02136286105021992 l 0.9382005465222094 -27.314685245405055" fill="#b7ff1f" stroke="none" /><path d="M 98.55909050195518 120.95050786540614 l -2.379628622664485 34.59927791684741 a55.68101302945243,55.68101302945243 0 0,0 -0.9530229754813935,-0.07377000564080377 l 2.9732205929211144 -34.55333014421156" fill="#65ff29" stroke="none" /><path d="M 97.84075906011543 120.88869738790638 l -3.01597173067056 29.17679062523957 a50.332255226444346,50.332255226444346 0 0,0 -0.8586780971000258,-0.0962166718111738 l 3.516385729371385 -29.120718192921426" fill="#a0ff22" stroke="none" /><path d="M 97.12497278360702 120.80226474461374 l -3.6172296632777163 26.17247192253637 a47.42125350873518,47.42125350873518 0 0,0 -0.8054271708180629,-0.11837005770235735 l 4.065981939703464 -26.106520791535132" fill="#c2ff1e" stroke="none" /><path d="M 96.05791012581884 120.62667999033965 l -5.167310366895589 27.037551337121418 a48.52690100129876,48.52690100129876 0 0,0 -0.8168776214404944,-0.1633984022801632 l 5.630684473867041 -26.944863538178392" fill="#b5ff20" stroke="none" /><path d="M 95.00130118170881 120.39639698878247 l -6.290645396694983 25.66797990652087 a47.427588084963766,47.427588084963766 0 0,0 -0.7890927729511161,-0.20058429716089043 l 6.730343462871478 -25.556210377524714" fill="#c2ff1e" stroke="none" /><path d="M 94.6519064749342 120.30758222061772 l -6.738812939399502 25.588370359423372 a47.460844610163804,47.460844610163804 0 0,0 -0.7860840229887286,-0.21425069602595603 l 7.177078363322926 -25.468919169253272" fill="#c1ff1e" stroke="none" /><path d="M 93.61358852112213 120.00534299687104 l -9.920115238678788 31.074619694427515 a53.6196363484017,53.6196363484017 0 0,0 -0.8744526792821026,-0.28744996451722554 l 10.452090655608634 -30.899748808508267" fill="#7bff26" stroke="none" /><path d="M 93.27111125876986 119.89276391827306 l -8.462347908762245 25.017427931573195 a47.40990405965897,47.40990405965897 0 0,0 -0.7687046990577698,-0.26739539755232167 l 8.890558379865038 -24.868474101452282" fill="#c2ff1e" stroke="none" /><path d="M 92.59220618246901 119.65005319985036 l -9.537553937076202 25.299494947667753 a48.037554987640874,48.037554987640874 0 0,0 -0.7691218299446295,-0.29751284644131426 l 9.97044802951436 -25.132042213088397" fill="#baff1f" stroke="none" /><path d="M 91.92203290615298 119.3841803445677 l -12.424176688271237 29.813501189137718 a53.29868448615359,53.29868448615359 0 0,0 -0.8415225864364962,-0.3591959521236086 l 12.934134349878164 -29.595830587354705" fill="#7fff26" stroke="none" /><path d="M 91.26138138417905 119.09545874513695 l -11.005189810699145 24.04832585691973 a47.446855754325696,47.446855754325696 0 0,0 -0.7377111378618468,-0.3452860617383666 l 11.416389662432483 -23.855863563610836" fill="#c1ff1e" stroke="none" /><path d="M 90.93487009805054 118.94263497670748 l -24.0992921740426 50.358251871464155 a76.82767606518915,76.82767606518915 0 0,0 -1.1847550222250158,-0.5795230502015283 l 24.960207445529683 -49.93713507116541" fill="#44ffe6" stroke="none" /><path d="M 90.28995756902619 118.62028667847754 l -8.548775217288368 16.393403677414152 a39.48851648581842,39.48851648581842 0 0,0 -0.5983660758944835,-0.31859623231055595 l 8.828930108969413 -16.24423697738102" fill="#ffda14" stroke="none" /><line stroke="#e1ed5e" stroke-width="0.3" x1="58.13341422392154" x2="55.67067388415222" y1="173.97424548756322" y2="178.32567169271397" /><path d="M 57.64086615596768 174.84453072859336 a86.0,86.0 0 0,1 -31.369924170532247,-30.572349798747897" fill="none" id="id68" stroke="none" /><text fill="#e1ed5e" style="font-size:6.75px; font-family:Arial;" text-anchor="middle"><textPath startOffset="22.145653131862474" xlink:href="#id68">August</textPath></text><path d="M 89.03521579738668 117.91015095944536 l -13.799118214516803 22.53982255941929 a47.42837990699233,47.42837990699233 0 0,0 -0.6907285661403567,-0.43106571133544963 l 14.184010909446872 -22.29962105124229" fill="#c2ff1e" stroke="none" /><path d="M 88.4268655584334 117.5232005979908 l -19.11523594835183 28.94290355755619 a55.68550002094767,55.68550002094767 0 0,0 -0.7931304645447484,-0.5336535728337097 l 19.609262700993586 -28.61050031066536" fill="#65ff29" stroke="none" /><path d="M 87.83215693770417 117.11559508785305 l -15.321266347689251 21.551279852776165 a47.44236876283044,47.44236876283044 0 0,0 -0.6597177424565732,-0.4775847695569968 l 15.688965100519779 -21.285094311846105" fill="#c1ff1e" stroke="none" /><path d="M 87.2517909369889 116.68781488649013 l -16.033133435295234 20.987886337299024 a47.41122376303993,47.41122376303993 0 0,0 -0.6425125140778625,-0.4996216171491427 l 16.391055894008325 -20.709563668529086" fill="#c2ff1e" stroke="none" /><path d="M 86.13680546590413 115.77377054828092 l -17.469228130134276 19.87677483011559 a47.46242825422095,47.46242825422095 0 0,0 -0.6073721135140834,-0.5431158891465977 l 17.80786527047173 -19.57396341108561" fill="#c1ff1e" stroke="none" /><path d="M 85.86807049272751 115.53346607816431 l -18.383882456680855 20.20710720208843 a48.31838786710797,48.31838786710797 0 0,0 -0.6087431870352946,-0.5634436059117808 l 18.728055415030116 -19.88854585004427" fill="#b7ff1f" stroke="none" /><path d="M 85.34317274990678 115.03919595460226 l -28.199209999947858 28.934873674757853 a61.4032468892706,61.4032468892706 0 0,0 -0.7485584444718104,-0.7421605474934173 l 28.69176036454963 -28.446533117035774" fill="#30ff36" stroke="none" /><path d="M 85.08716467003676 114.78537596483092 l -18.77427815357705 18.613815201943392 a47.437617830659015,47.437617830659015 0 0,0 -0.5683776556265483,-0.5832055460113832 l 19.091042610354407 -18.288786963864272" fill="#c1ff1e" stroke="none" /><path d="M 84.58840730492382 114.26474011684316 l -20.93242822816299 19.37474306497954 a49.52274917256693,49.52274917256693 0 0,0 -0.5721110861855062,-0.6288503028288518 l 21.261937015190377 -19.012555186593012" fill="#a9ff21" stroke="none" /><path d="M 83.8745106332314 113.45245675266167 l -31.862315864011787 26.580677116291294 a62.493849763291294,62.493849763291294 0 0,0 -0.6801508638773057,-0.8296734629467928 l 32.313913547127726 -26.02980137164601" fill="#31ff44" stroke="none" /><path d="M 83.4222238831116 112.89097897827486 l -21.53749613148106 16.74768726022042 a48.282755875822204,48.282755875822204 0 0,0 -0.5031707453004276,-0.6586666575961689 l 21.82181885413578 -16.375499689383382" fill="#b8ff1f" stroke="none" /><path d="M 82.98947788004972 112.3143062007846 l -21.410210391755772 15.499341215287263 a47.43154719510663,47.43154719510663 0 0,0 -0.47179686011530336,-0.6636413684916799 l 21.673122350401037 -15.12952262008608" fill="#c2ff1e" stroke="none" /><path d="M 82.18462484594161 111.11811171558189 l -39.438041298977375 24.612254595485012 a67.48787129749886,67.48787129749886 0 0,0 -0.6049228280428515,-0.9880959778925587 l 39.85473209147563 -23.931621501467898" fill="#38ff7f" stroke="none" /><line stroke="#e1ed5e" stroke-width="0.3" x1="26.387840678322732" x2="22.057713659400548" y1="142.50000000000003" y2="145.00000000000006" /><path d="M 25.521815274538298 143.00000000000003 a86.0,86.0 0 0,1 -11.493303480769221,-40.785679425670985" fill="none" id="id69" stroke="none" /><text fill="#e1ed5e" style="font-size:6.75px; font-family:Arial;" text-anchor="middle"><textPath startOffset="21.40746469413373" xlink:href="#id69">September</textPath></text><path d="M 81.81346652052679 110.50000000000001 l -22.98845186514852 13.272388872596268 a47.54477774519251,47.54477774519251 0 0,0 -0.4020174378581093,-0.7103262921283858 l 23.212902668028008 -12.87580581036876" fill="#c0ff1e" stroke="none" /><path d="M 81.4637452351635 109.86951160357371 l -31.455097872651557 16.74806790175339 a56.63595039591102,56.63595039591102 0 0,0 -0.4495598065206379,-0.862090205685713 l 31.737965748147143 -16.205631452963175" fill="#5bff2a" stroke="none" /><path d="M 81.1358732173502 109.22738970284198 l -28.736951140361402 14.056682829736376 a52.99066571703884,52.99066571703884 0 0,0 -0.39268793905161126,-0.8205667618299188 l 28.974018337372925 -13.561303565841353" fill="#82ff25" stroke="none" /><path d="M 80.83023694016515 108.57439118712176 l -24.159491197354125 10.80623311625448 a47.46612342368762,47.46612342368762 0 0,0 -0.3263095225895831,-0.7466600460735735 l 24.341434601960675 -10.389911000405059" fill="#c1ff1e" stroke="none" /><path d="M 80.5471966667186 107.91128576633889 l -24.487843103416118 9.958992607556308 a47.43550630524949,47.43550630524949 0 0,0 -0.30029233627964885,-0.756932852897553 l 24.655194114661892 -9.53715873744519" fill="#c1ff1e" stroke="none" /><path d="M 80.28708602549918 107.23885506374661 l -28.609038464807526 10.505635200751062 a51.47696593908417,51.47696593908417 0 0,0 -0.2974874206200467,-0.8321252613280489 l 28.785166055471517 -10.012974983042092" fill="#93ff23" stroke="none" /><path d="M 79.94057633289273 106.21446072829308 l -25.25223353928691 7.823206500638928 a47.436298127278064,47.436298127278064 0 0,0 -0.23429844796029578,-0.7799033318194715 l 25.382808307250833 -7.388565565228734" fill="#c1ff1e" stroke="none" /><path d="M 79.48165901384964 104.47187691870673 l -54.64442783415761 11.90949871300254 a76.92718170011312,76.92718170011312 0 0,0 -0.270132689447439,-1.2926827081403836 l 54.84081823442942 -10.969699553576746" fill="#44ffe7" stroke="none" /><path d="M 79.2786578344484 103.40968896794605 l -18.236152747590044 3.000751994945957 a39.48139008756127,39.48139008756127 0 0,0 -0.10430326716023308,-0.6697017972839919 l 18.284977506888545 -2.687262015730515" fill="#ffda14" stroke="none" /><path d="M 79.22317932658666 103.0534771498775 l -20.9033844056985 3.0720776600619284 a42.12792324772718,42.12792324772718 0 0,0 -0.09901161992459409,-0.7163987591910855 l 20.953040542178304 -2.7127905926707574" fill="#fffc17" stroke="none" /><path d="M 79.13060592940153 102.33845913500099 l -21.047407754991355 2.358405939638218 a42.17912773890821,42.17912773890821 0 0,0 -0.0744513977376915,-0.7202497362487166 l 21.084791545210713 -1.9967516811065702" fill="#fffc17" stroke="none" /><path d="M 79.0935383218832 101.97986365728391 l -24.32967690190431 2.304045698080039 a45.43853114918933,45.43853114918933 0 0,0 -0.0668733517979668,-0.7771697155692467 l 24.365643876400018 -1.8860549351351301" fill="#d9ff1c" stroke="none" /><path d="M 79.03789590574601 101.26102812881392 l -21.087952245274423 1.2685988410707802 a42.12607566299384,42.12607566299384 0 0,0 -0.037228238416062966,-0.7222178796678009 l 21.106622073147058 -0.9064091680262485" fill="#fffc17" stroke="none" /><path d="M 79.00696218219943 100.54070618675478 l -26.401412171690602 0.6800067252863833 a47.41016800033516,47.41016800033516 0 0,0 -0.013971479408990914,-0.8137686319117217 l 26.409195082698258 -0.2266911774056093" fill="#c2ff1e" stroke="none" /><line stroke="#e1ed5e" stroke-width="0.3" x1="15.003131293944662" x2="10.003315487706104" y1="100.72959589197737" y2="100.7725132973878" /><path d="M 14.003168132696942 100.73817937305945 a86.0,86.0 0 0,1 10.791469493833604,-42.45332614584628" fill="none" id="id70" stroke="none" /><text fill="#e1ed5e" style="font-size:6.75px; font-family:Arial;" text-anchor="middle"><textPath startOffset="22.145653131862435" xlink:href="#id70">October</textPath></text><path d="M 79.00077361379809 100.18025310272382 l -34.19542212554894 0.2935265720612981 a55.196681888642175,55.196681888642175 0 0,0 0.0,-0.9475593495702188 l 34.19542212554894 0.2935265720612856" fill="#6aff28" stroke="none" /><path d="M 79.00696218219943 99.45929381324524 l -16.933832679734667 -0.43615546139009365 a37.939448657254175,37.939448657254175 0 0,0 0.022357740585735322,-0.6509212227190089 l 16.923850252152082 0.726782948673241" fill="#ffc612" stroke="none" /><path d="M 79.03789590574601 98.7389718711861 l -52.69919865954663 -3.170252927703805 a73.79446981440363,73.79446981440363 0 0,0 0.08692299386345803,-1.2638412537997825 l 52.63701170451811 4.074437605657913" fill="#40ffc6" stroke="none" /><path d="M 79.06263194458094 98.37931529534042 l -49.71232392663138 -3.8480482746312252 a70.86103313921824,70.86103313921824 0 0,0 0.10428846791563841,-1.2119900792772185 l 49.638941836018 4.7008594012841245" fill="#3cffa6" stroke="none" /><path d="M 79.13060592940154 97.66154086499901 l -18.79583191978229 -2.1061121709652832 a39.91346097448574,39.91346097448574 0 0,0 0.0821417387368295,-0.6802514313637196 l 18.756908094785793 2.428457279252439" fill="#ffe015" stroke="none" /><path d="M 79.17382384314186 97.30363454192245 l -13.606336203564993 -1.7616126298922803 a34.719900289077884,34.719900289077884 0 0,0 0.08160083161535318,-0.590422968159885 l 13.574090855394433 1.9949239062522321" fill="#ff9b0e" stroke="none" /><path d="M 79.2786578344484 96.59031103205396 l -55.4087769291395 -9.117493158177414 a77.15390674096108,77.15390674096108 0 0,0 0.22626368703948668,-1.3050288196087725 l 55.24409842460778 10.06731501070678" fill="#44ffe9" stroke="none" /><path d="M 79.48165901384962 95.52812308129327 l -25.81654128084387 -5.626595013338128 a47.422573212116134,47.422573212116134 0 0,0 0.1801812504434979,-0.7939118351258931 l 25.716149168842712 6.068941182403029" fill="#c2ff1e" stroke="none" /><path d="M 79.73907114497095 94.47779374421319 l -26.65438128856539 -7.264770146967266 a48.6266705768989,48.6266705768989 0 0,0 0.226418532114368,-0.8034794941505912 l 26.52574426437644 7.721257565020871" fill="#b4ff20" stroke="none" /><path d="M 79.83685265289637 94.1308016681162 l -25.402321847982247 -7.394245672542249 a47.45662155934476,47.45662155934476 0 0,0 0.23439882992049169,-0.7802374707175005 l 25.271646698058127 7.829220746850473" fill="#c1ff1e" stroke="none" /><path d="M 80.05021161711548 93.44210830539832 l -15.499303101507698 -5.09492878474308 a37.31522895806276,37.31522895806276 0 0,0 0.2052596639057761,-0.6068137240853194 l 15.409558016029557 5.3602441833025605" fill="#ffbe11" stroke="none" /><path d="M 80.28708602549916 92.7611449362534 l -17.37295003952437 -6.37958789494551 a39.50725627382798,39.50725627382798 0 0,0 0.23924336974812088,-0.6346214620790976 l 17.26087598596181 6.676877637218752" fill="#ffda14" stroke="none" /><path d="M 80.5471966667186 92.08871423366112 l -17.121955055884573 -6.963350063472009 a39.48376555364699,39.48376555364699 0 0,0 0.26073227822246076,-0.6256625514807894 l 16.999896933125637 7.256245124394062" fill="#ffda14" stroke="none" /><path d="M 80.68587082218212 91.75594674310238 l -25.858146811558992 -11.037305253399687 a49.11522476852822,49.11522476852822 0 0,0 0.3376463968426678,-0.7726010329775568 l 25.664866532699346 11.479568356153111" fill="#aeff20" stroke="none" /><path d="M 80.83023694016515 91.42560881287825 l -14.484659796780155 -6.478804089665066 a36.86758557124303,36.86758557124303 0 0,0 0.2633671704272562,-0.5755047975903274 l 14.371308161497852 6.726497869470065" fill="#ffb811" stroke="none" /><path d="M 81.1358732173502 90.77261029715801 l -14.311572594423405 -7.0005073179808255 a36.931987096233605,36.931987096233605 0 0,0 0.2834619469254135,-0.5671137774812399 l 14.189290734286246 7.245152951625836" fill="#ffb911" stroke="none" /><path d="M 81.29705330413844 90.45014215332179 l -11.98927131839239 -6.121807362111469 a34.461766307763206,34.461766307763206 0 0,0 0.27354754154168587,-0.5245634795015113 l 11.882415707875765 6.326717084717467" fill="#ff970e" stroke="none" /><path d="M 81.63589988554816 89.8137432299009 l -33.21371661740693 -18.423088724503685 a58.98106330386694,58.98106330386694 0 0,0 0.49871756849187,-0.8811861573306835 l 32.89256568389369 18.990531651933473" fill="#42ff2d" stroke="none" /><line stroke="#e1ed5e" stroke-width="0.3" x1="26.387840678322718" x2="22.05771365940052" y1="57.49999999999999" y2="54.99999999999999" /><path d="M 25.521815274538284 56.99999999999999 a86.0,86.0 0 0,1 29.574782752854787,-30.34633250058573" fill="none" id="id71" stroke="none" /><text fill="#e1ed5e" style="font-size:6.75px; font-family:Arial;" text-anchor="middle"><textPath startOffset="21.40746469413373" xlink:href="#id71">November</textPath></text><path d="M 81.99639281039701 89.18935116829357 l -16.001178249682667 -9.608247787740854 a39.66430097616154,39.66430097616154 0 0,0 0.3555281957712776,-0.5807285888111776 l 15.833882089455997 9.881513492676575" fill="#ffdc14" stroke="none" /><path d="M 82.18462484594161 88.88188828441811 l -13.466659171084409 -8.404191312562643 a36.873920147471615,36.873920147471615 0 0,0 0.33973577090168633,-0.5341210604691178 l 13.320405708556834 8.634126047710433" fill="#ffb811" stroke="none" /><path d="M 82.576782715395 88.27688183743585 l -13.157525501632328 -8.852970359204464 a36.85861158825254,36.85861158825254 0 0,0 0.35772206325828054,-0.5219271809472098 l 13.003613701558734 9.077532275221708" fill="#ffb811" stroke="none" /><path d="M 82.98947788004972 87.6856937992154 l -28.084572277975656 -20.33106450879884 a55.671247224433365,55.671247224433365 0 0,0 0.5670460642169635,-0.7693068904601841 l 27.731424194174874 20.810177708527885" fill="#65ff29" stroke="none" /><path d="M 83.42222388311158 87.10902102172516 l -12.547825631294826 -9.75726510573968 a36.895035401566886,36.895035401566886 0 0,0 0.39307895057135733,-0.4966424131706994 l 12.378480250081907 9.971227462825063" fill="#ffb811" stroke="none" /><path d="M 83.64595745247003 86.82634096563983 l -14.534056657086138 -11.707607231060031 a39.66298127278059,39.66298127278059 0 0,0 0.4316714537320314,-0.5265689847565065 l 14.330938384115477 11.955378497515031" fill="#ffdc14" stroke="none" /><path d="M 83.8745106332314 86.54754324733833 l -20.279243559346426 -16.91766623349728 a47.40937617830659,47.40937617830659 0 0,0 0.5267078668159632,-0.6204605427211114 l 19.98584112902335 17.263293558667947" fill="#c2ff1e" stroke="none" /><path d="M 84.34580500576568 86.00192230759919 l -19.686352028213616 -17.603657375699218 a47.4091122376304,47.4091122376304 0 0,0 0.5476933157092938,-0.6020108957116971 l 19.381261011662456 17.939005846968573" fill="#c2ff1e" stroke="none" /><path d="M 85.08716467003674 85.21462403516908 l -18.75872117172964 -18.59839118495381 a47.415710754535176,47.415710754535176 0 0,0 0.5780383364733797,-0.5730978675579189 l 18.43669091512628 18.9176690627404" fill="#c2ff1e" stroke="none" /><path d="M 85.60350026404147 84.71141617570332 l -18.105970290908136 -19.227913005920936 a47.410959822363736,47.410959822363736 0 0,0 0.5973108801156071,-0.5528620333013472 l 17.773229639478576 19.535892785354648" fill="#c2ff1e" stroke="none" /><path d="M 86.13680546590413 84.22622945171909 l -17.43472841270477 -19.83752048470656 a47.41016800033516,47.41016800033516 0 0,0 0.615926985637247,-0.5320230604815617 l 17.091621947304674 20.13388767765283" fill="#c2ff1e" stroke="none" /><path d="M 86.68645165197937 83.75963576809568 l -17.03614341587809 -20.781324929199112 a47.871800242993004,47.871800242993004 0 0,0 0.6399986209489454,-0.5155375859111642 l 16.6768940245739 21.070710808903673" fill="#bcff1f" stroke="none" /><path d="M 87.25179093698888 83.31218511350988 l -16.043708429616238 -21.001729344327057 a47.428643847668525,47.428643847668525 0 0,0 0.6512336996900787,-0.488697909109894 l 15.680821741015407 21.27404628070095" fill="#c2ff1e" stroke="none" /><path d="M 87.83215693770416 82.88440491214696 l -7.943941179285623 -11.174148115674363 a34.71013448405882,34.71013448405882 0 0,0 0.4885945780717404,-0.3410769616612753 l 7.750951510040117 11.308869893140765" fill="#ff9b0e" stroke="none" /><path d="M 88.4268655584334 82.4767994020092 l -34.71940332469979 -52.569601793972396 a84.0,84.0 0 0,0 1.210057470971896,-0.7843446331843746 l 33.811860221470866 53.157860268860674" fill="#4dd2ff" stroke="none" /><path d="M 89.03521579738668 82.08984904055464 l -14.531313511368172 -23.7358085502132 a48.83069671959445,48.83069671959445 0 0,0 0.7186651824049998,-0.43153779310634016 l 14.121715572405737 23.981760343855466" fill="#b1ff20" stroke="none" /><line stroke="#e1ed5e" stroke-width="0.3" x1="56.869717070023135" x2="54.33264160355391" y1="26.7553504044142" y2="22.446841604673864" /><path d="M 56.362301976729285 25.89364864446614 a86.0,86.0 0 0,1 42.16139366436587,-11.88097634709845" fill="none" id="id72" stroke="none" /><text fill="#e1ed5e" style="font-size:6.75px; font-family:Arial;" text-anchor="middle"><textPath startOffset="22.145653131862474" xlink:href="#id72">December</textPath></text><path d="M 89.65649057296885 81.72400993836675 l -13.085109273738405 -23.120134295741476 a47.566156939963975,47.566156939963975 0 0,0 0.7140717820191703,-0.3960835803876632 l 12.686293303563133 23.341350791562284" fill="#c0ff1e" stroke="none" /><path d="M 90.61103034731259 81.2157712731953 l -12.707383737232268 -25.423279813363408 a49.4221877749382,49.4221877749382 0 0,0 0.7621366176171426,-0.37279921082948897 l 12.269086870353073 25.637672774290113" fill="#aaff21" stroke="none" /><path d="M 91.26138138417902 80.90454125486306 l -10.99080178809237 -24.016885430899183 a47.41227952574469,47.41227952574469 0 0,0 0.7429878919993111,-0.3323290336668353 l 10.57690049323744 24.202018215475867" fill="#c2ff1e" stroke="none" /><path d="M 92.93061703081487 80.22567764915836 l -9.926042762824755 -27.764908212768734 a50.48586869998743,50.48586869998743 0 0,0 0.8185784231256905,-0.28474406771252786 l 9.44795856765406 27.931210713049847" fill="#9eff22" stroke="none" /><path d="M 93.61358852112211 79.99465700312896 l -8.40031572959497 -26.313869378501952 a48.62218358540366,48.62218358540366 0 0,0 0.7973097318033189,-0.24700859300870204 l 7.947365364920035 26.454194559317298" fill="#b4ff20" stroke="none" /><path d="M 94.30408787586887 79.78721728523814 l -7.382970230627835 -26.199556771427496 a48.21993799488877,48.21993799488877 0 0,0 0.7986567276380439,-0.21767744258646082 l 6.932132102055114 26.322434708158095" fill="#b8ff1f" stroke="none" /><path d="M 95.70440661134978 79.44403061299748 l -5.408409246822676 -25.88119611223315 a47.44025723742092,47.44025723742092 0 0,0 0.7985856028925149,-0.15973948627270784 l 4.963327158399184 25.970224995168728" fill="#c1ff1e" stroke="none" /><path d="M 96.41257539226777 79.30868818359171 l -4.668641830303964 -26.927485433906273 a48.32920943483178,48.32920943483178 0 0,0 0.8186565264585405,-0.13470961989340963 l 4.205707800792351 27.003661052295353" fill="#b7ff1f" stroke="none" /><path d="M 97.48249496171623 79.15144685158666 l -3.1710817893304526 -26.26110622121794 a47.45187062717332,47.45187062717332 0 0,0 0.8095381736952268,-0.09071044089759432 l 2.719807714034426 26.311672422622504" fill="#c1ff1e" stroke="none" /><path d="M 98.1996594967304 79.07731436759882 l -2.266329177418064 -26.33818037895688 a47.43550630524949,47.43550630524949 0 0,0 0.8118948435543976,-0.06284579567296443 l 1.8138653390884496 26.373203941624897" fill="#c1ff1e" stroke="none" /><path d="M 98.5590905019552 79.04949213459386 l -1.8419361806231114 -26.781347816836007 a47.84461435334535,47.84461435334535 0 0,0 0.8198645092902169,-0.04932101297572287 l 1.3819273192004105 26.809020807636422" fill="#bdff1f" stroke="none" /><path d="M 99.27912038922189 79.0123766808444 l -0.9074946811622085 -26.42071747848623 a47.436298127278064,47.436298127278064 0 0,0 0.8140671559448532,-0.020967482242139106 l 0.45381421114661136 26.432402678078418" fill="#c1ff1e" stroke="none" /></svg>